<?xml version="1.0" encoding="UTF-8"?>
<!DOCTYPE svg PUBLIC "-//W3C//DTD SVG 1.1//EN" "http://www.w3.org/Graphics/SVG/1.1/DTD/svg11.dtd">
<svg version="1.1" xmlns="http://www.w3.org/2000/svg" xmlns:xlink="http://www.w3.org/1999/xlink" x="0" y="0" width="665" height="868" viewBox="0, 0, 665, 868">
  <g id="Layer_1">
    <path d="M196.183,865.305 L557.75,851.379 L663.306,726.35 L405.049,643.34 L196.183,865.305" fill="#E5E5E0"/>
    <path d="M1,776.719 L3.051,87.122 L232.496,2.54 L232.496,137.785 L130.566,215.633 L175.087,491.118 L196.183,865.305 L1,776.719" fill="#852124"/>
    <path d="M232.496,2.54 L499.444,22.077 L499.444,142.388 L232.496,137.785 L232.496,2.54" fill="#E8A52D"/>
    <path d="M266.691,24.975 L266.691,118.693 L478.571,122.349 L478.571,40.48 L266.691,24.975" fill="#F8C823"/>
    <path d="M130.566,215.633 L232.496,137.785 L499.444,142.388 L408.77,211.641 L130.566,215.633" fill="#4E1618"/>
    <path d="M130.566,215.633 L408.77,211.641 L448.378,456.713 L175.087,491.118 L130.566,215.633" fill="#E8A52D"/>
    <path d="M196.183,865.305 L175.087,491.118 L448.378,456.713 L467.144,789.59 L196.183,865.305" fill="#E8A52D"/>
    <path d="M180.44,586.022 L452.981,538.368 C492.077,530.829 517.232,508.651 529.004,472.42 L441.479,414.02 L447.972,484.243 L263.654,511.135 L180.44,586.022" fill="#4E1618"/>
    <path d="M130.566,215.633 L408.77,211.641 L417.838,267.747 L142.188,287.557 L130.566,215.633" fill="#D68D2F"/>
    <path d="M190.557,418.655 L164.68,244.694 L393.213,240.595 L416.786,394.318 L190.557,418.655" fill="#40331E"/>
    <path d="M170.75,285.507 L164.68,244.694 L393.213,240.595 L397.6,269.197 L170.75,285.507" fill="#2F2719"/>
    <path d="M168.011,447.323 L263.654,511.135 C246.275,551.635 219.684,578.317 180.44,586.022 L78.582,555.725 L168.011,447.323" fill="#852124"/>
    <path d="M168.011,447.323 L441.479,414.02 L529.004,472.42 L263.654,511.135 L168.011,447.323" fill="#B8362B"/>
    <path d="M180.44,586.022 L452.981,538.368 L453.838,553.579 L181.732,608.977 L180.44,586.022" fill="#D68D2F"/>
    <path d="M361.018,442.149 C377.952,444.715 391.68,454.467 391.68,463.93 C391.68,473.393 377.952,478.987 361.018,476.42 C344.083,473.854 330.358,464.102 330.358,454.639 C330.358,445.176 344.083,439.582 361.018,442.149" fill="#231312"/>
    <path d="M366.741,461.223 C365.667,464.383 362.239,466.077 359.079,465.006 C355.92,463.938 354.225,460.504 355.299,457.346 L376.211,396.128 C377.284,392.969 380.713,391.274 383.872,392.348 C387.032,393.417 388.725,396.846 387.657,400.005 L366.741,461.223" fill="#FDF07F"/>
    <path d="M383.092,411.784 C391.559,411.784 398.465,404.881 398.465,396.415 C398.465,387.946 391.559,381.042 383.092,381.042 C374.624,381.042 367.721,387.946 367.721,396.415 C367.721,404.881 374.624,411.784 383.092,411.784" fill="#8CA43D"/>
    <path d="M381.295,382.327 C386.108,382.327 388.887,386.233 387.499,391.052 C386.108,395.866 381.079,399.771 376.26,399.771 C371.448,399.771 368.668,395.866 370.057,391.052 C371.448,386.233 376.477,382.327 381.295,382.327" fill="#9FB83B"/>
    <path d="M396.395,388.703 C397.708,390.973 398.465,393.604 398.465,396.415 C398.465,404.902 391.581,411.788 383.092,411.788 C375.805,411.788 369.702,406.715 368.12,399.912 C370.78,404.493 375.741,407.573 381.42,407.573 C389.911,407.573 396.793,400.694 396.793,392.2 C396.793,391.001 396.657,389.831 396.395,388.703" fill="#7B913C"/>
    <path d="M418.208,597.739 L448.49,590.057 L453.795,678.19 L423.513,685.875 L418.208,597.739" fill="#252015"/>
    <path d="M429.796,604.391 L441.949,601.309 L446.207,672.036 L434.057,675.12 L429.796,604.391" fill="#42361D"/>
    <path d="M290.95,448.018 C301.692,449.649 310.401,455.834 310.401,461.84 C310.401,467.842 301.692,471.391 290.95,469.76 C280.209,468.133 271.499,461.948 271.499,455.946 C271.499,449.944 280.209,446.393 290.95,448.018" fill="#4E1618"/>
    <path d="M291.043,448.235 C298.299,449.336 304.489,452.815 306.915,456.764 L308.833,457.309 L307.885,461.45 C306.846,465.977 299.704,468.514 291.043,467.204 C281.673,465.782 274.073,460.387 274.073,455.149 C274.073,454.493 274.195,453.868 274.421,453.282 L275.843,447.883 L279.645,448.967 C282.657,447.897 286.657,447.573 291.043,448.235" fill="#F3B428"/>
    <path d="M292.454,442.856 C301.825,444.278 309.424,449.674 309.424,454.913 C309.424,460.147 301.825,463.245 292.454,461.823 C283.084,460.405 275.484,455.004 275.484,449.77 C275.484,444.534 283.084,441.434 292.454,442.856" fill="#FADA3C"/>
    <path d="M317.85,474.409 C328.596,476.04 337.301,482.225 337.301,488.227 C337.301,494.235 328.596,497.782 317.85,496.151 C307.11,494.524 298.399,488.334 298.399,482.332 C298.399,476.331 307.11,472.784 317.85,474.409" fill="#4E1618"/>
    <path d="M317.948,474.625 C325.2,475.727 331.389,479.206 333.815,483.151 L335.737,483.7 L334.788,487.84 L334.786,487.84 C333.747,492.364 326.606,494.905 317.948,493.592 C308.575,492.172 300.977,486.778 300.977,481.536 C300.977,480.883 301.096,480.258 301.325,479.672 L302.743,474.27 L306.549,475.358 C309.561,474.288 313.557,473.961 317.948,474.625" fill="#F3B428"/>
    <path d="M319.354,469.247 C328.729,470.665 336.325,476.065 336.325,481.303 C336.325,486.538 328.729,489.631 319.354,488.213 C309.985,486.791 302.387,481.395 302.387,476.159 C302.387,470.92 309.985,467.825 319.354,469.247" fill="#FADA3C"/>
    <path d="M409.721,435.364 C419.397,436.832 427.241,442.405 427.241,447.811 C427.241,453.217 419.397,456.413 409.721,454.944 C400.045,453.475 392.202,447.905 392.202,442.497 C392.202,437.091 400.045,433.895 409.721,435.364" fill="#4E1618"/>
    <path d="M409.807,435.558 C416.336,436.549 421.913,439.682 424.098,443.237 L425.829,443.729 L424.971,447.459 C424.038,451.534 417.604,453.821 409.807,452.643 C401.366,451.362 394.524,446.5 394.524,441.784 C394.524,441.19 394.631,440.631 394.836,440.102 L396.11,435.238 L399.54,436.215 C402.252,435.253 405.854,434.958 409.807,435.558" fill="#F3B428"/>
    <path d="M411.075,430.715 C419.514,431.993 426.358,436.853 426.358,441.571 C426.358,446.288 419.514,449.075 411.075,447.795 C402.633,446.514 395.792,441.657 395.792,436.94 C395.792,432.223 402.633,429.433 411.075,430.715" fill="#FADA3C"/>
    <path d="M433.95,459.129 C443.625,460.598 451.469,466.17 451.469,471.577 C451.469,476.983 443.625,480.178 433.95,478.709 C424.276,477.247 416.43,471.674 416.43,466.268 C416.43,460.858 424.276,457.663 433.95,459.129" fill="#4E1618"/>
    <path d="M434.036,459.327 C440.566,460.315 446.142,463.45 448.328,467.002 L450.055,467.498 L449.201,471.225 C448.267,475.299 441.833,477.59 434.036,476.405 C425.592,475.127 418.75,470.266 418.75,465.549 C418.75,464.957 418.858,464.397 419.065,463.87 L420.34,459.004 L423.768,459.981 C426.483,459.018 430.084,458.725 434.036,459.327" fill="#F3B428"/>
    <path d="M435.303,454.481 C443.744,455.758 450.586,460.62 450.586,465.336 C450.586,470.055 443.744,472.84 435.303,471.563 C426.864,470.284 420.02,465.424 420.02,460.706 C420.02,455.989 426.864,453.204 435.303,454.481" fill="#FADA3C"/>
    <path d="M254.22,6.769 L256.755,10.884 L261.446,12.021 L258.319,15.701 L258.686,20.519 L254.22,18.681 L249.75,20.519 L250.116,15.701 L246.989,12.021 L251.682,10.884 L254.22,6.769" fill="#FDF07F"/>
    <path d="M280.072,8.729 C280.908,10.086 281.741,11.439 282.579,12.793 C284.125,13.17 285.672,13.547 287.219,13.921 C286.19,15.134 285.159,16.348 284.125,17.56 C284.247,19.147 284.37,20.734 284.491,22.325 C283.016,21.718 281.544,21.115 280.072,20.509 C278.6,21.115 277.128,21.718 275.656,22.325 C275.774,20.734 275.896,19.147 276.019,17.56 C274.988,16.348 273.955,15.134 272.924,13.921 C274.472,13.547 276.019,13.17 277.566,12.793 C278.402,11.439 279.239,10.086 280.072,8.729" fill="#FDF07F"/>
    <path d="M305.928,10.689 C306.75,12.025 307.579,13.368 308.405,14.707 C309.934,15.08 311.463,15.45 312.993,15.823 C311.973,17.022 310.954,18.222 309.934,19.421 C310.053,20.989 310.174,22.559 310.293,24.131 C308.84,23.531 307.381,22.932 305.928,22.336 C304.471,22.932 303.012,23.531 301.559,24.131 C301.678,22.559 301.795,20.989 301.918,19.421 C300.899,18.222 299.879,17.022 298.86,15.823 C300.389,15.45 301.918,15.08 303.448,14.707 C304.272,13.368 305.098,12.025 305.928,10.689" fill="#FDF07F"/>
    <path d="M331.78,12.646 C332.594,13.971 333.415,15.296 334.229,16.62 C335.741,16.986 337.254,17.352 338.766,17.723 C337.758,18.907 336.749,20.096 335.743,21.28 C335.858,22.831 335.981,24.382 336.096,25.932 C334.657,25.345 333.219,24.748 331.78,24.159 C330.34,24.748 328.901,25.345 327.461,25.932 C327.581,24.382 327.698,22.831 327.817,21.28 C326.811,20.096 325.803,18.907 324.793,17.723 C326.305,17.352 327.817,16.986 329.333,16.62 C330.147,15.296 330.961,13.971 331.78,12.646" fill="#FDF07F"/>
    <path d="M357.631,14.606 C358.44,15.917 359.249,17.224 360.055,18.534 C361.549,18.896 363.043,19.259 364.54,19.622 C363.542,20.792 362.547,21.966 361.549,23.14 C361.668,24.673 361.782,26.206 361.901,27.739 C360.479,27.153 359.057,26.568 357.631,25.983 C356.211,26.568 354.79,27.153 353.368,27.739 C353.483,26.206 353.6,24.673 353.715,23.14 C352.721,21.966 351.723,20.792 350.729,19.622 C352.221,19.259 353.719,18.896 355.213,18.534 C356.02,17.224 356.829,15.917 357.631,14.606" fill="#FDF07F"/>
    <path d="M383.489,16.566 C384.286,17.862 385.083,19.155 385.879,20.447 C387.354,20.807 388.834,21.165 390.309,21.524 C389.325,22.681 388.342,23.84 387.358,24.996 C387.473,26.515 387.588,28.029 387.704,29.545 C386.299,28.963 384.891,28.389 383.489,27.81 C382.081,28.389 380.676,28.963 379.27,29.545 C379.385,28.029 379.499,26.515 379.618,24.996 C378.631,23.84 377.647,22.681 376.663,21.524 C378.139,21.165 379.618,20.807 381.094,20.447 C381.891,19.155 382.692,17.862 383.489,16.566" fill="#FDF07F"/>
    <path d="M409.34,18.523 C410.129,19.801 410.917,21.079 411.702,22.361 C413.165,22.716 414.625,23.068 416.083,23.42 C415.11,24.568 414.137,25.71 413.165,26.855 C413.278,28.352 413.393,29.853 413.508,31.347 C412.12,30.779 410.729,30.205 409.34,29.635 C407.952,30.205 406.565,30.779 405.176,31.347 C405.288,29.853 405.403,28.352 405.516,26.855 C404.543,25.71 403.571,24.568 402.598,23.42 C404.059,23.068 405.516,22.716 406.977,22.361 C407.764,21.079 408.553,19.801 409.34,18.523" fill="#FDF07F"/>
    <path d="M435.196,20.483 C435.975,21.747 436.75,23.011 437.53,24.274 C438.973,24.623 440.413,24.971 441.856,25.322 C440.893,26.454 439.934,27.585 438.973,28.716 C439.088,30.194 439.2,31.674 439.311,33.152 C437.938,32.589 436.567,32.025 435.196,31.462 C433.821,32.025 432.45,32.589 431.079,33.152 C431.194,31.674 431.305,30.194 431.417,28.716 C430.454,27.585 429.495,26.454 428.534,25.322 C429.975,24.971 431.417,24.623 432.86,24.274 C433.637,23.011 434.417,21.747 435.196,20.483" fill="#FDF07F"/>
    <path d="M461.047,22.443 C461.817,23.692 462.584,24.938 463.356,26.184 C464.778,26.532 466.204,26.877 467.629,27.225 C466.678,28.342 465.729,29.458 464.782,30.575 C464.893,32.036 465.004,33.497 465.116,34.958 C463.758,34.398 462.405,33.846 461.047,33.285 C459.692,33.846 458.338,34.398 456.981,34.958 C457.092,33.497 457.204,32.036 457.315,30.575 C456.368,29.458 455.418,28.342 454.467,27.225 C455.893,26.877 457.319,26.532 458.743,26.184 C459.508,24.938 460.28,23.692 461.047,22.443" fill="#FDF07F"/>
    <path d="M486.905,24.403 L489.18,28.101 L493.403,29.121 L490.588,32.431 L490.918,36.761 L486.905,35.109 L482.887,36.761 L483.217,32.431 L480.403,29.121 L484.624,28.101 L486.905,24.403" fill="#FDF07F"/>
    <path d="M253.639,29.652 C254.485,31.023 255.329,32.395 256.177,33.767 C257.738,34.147 259.304,34.524 260.869,34.901 C259.828,36.129 258.783,37.356 257.742,38.585 C257.864,40.192 257.986,41.798 258.108,43.402 C256.618,42.792 255.128,42.178 253.639,41.564 C252.152,42.178 250.662,42.792 249.172,43.402 C249.294,41.798 249.416,40.192 249.538,38.585 C248.497,37.356 247.452,36.129 246.411,34.901 C247.977,34.524 249.538,34.147 251.104,33.767 C251.951,32.395 252.795,31.023 253.639,29.652" fill="#FDF07F"/>
    <path d="M253.061,52.535 C253.907,53.907 254.751,55.278 255.595,56.646 C257.16,57.026 258.726,57.403 260.291,57.784 C259.25,59.012 258.205,60.24 257.16,61.468 C257.282,63.072 257.408,64.681 257.53,66.285 C256.04,65.675 254.55,65.058 253.061,64.447 C251.57,65.058 250.084,65.675 248.594,66.285 C248.717,64.681 248.838,63.076 248.961,61.468 C247.919,60.24 246.875,59.012 245.833,57.784 C247.396,57.403 248.961,57.026 250.525,56.646 C251.373,55.278 252.217,53.907 253.061,52.535" fill="#FDF07F"/>
    <path d="M252.482,75.419 C253.326,76.79 254.173,78.158 255.017,79.529 C256.582,79.906 258.147,80.287 259.713,80.667 C258.668,81.896 257.627,83.123 256.582,84.35 C256.704,85.956 256.826,87.56 256.952,89.169 C255.462,88.555 253.973,87.94 252.482,87.331 C250.992,87.94 249.503,88.555 248.013,89.169 C248.135,87.56 248.261,85.959 248.383,84.35 C247.338,83.123 246.297,81.896 245.252,80.667 C246.817,80.287 248.383,79.906 249.947,79.529 C250.791,78.158 251.639,76.79 252.482,75.419" fill="#FDF07F"/>
    <path d="M251.904,98.298 C252.748,99.67 253.596,101.041 254.438,102.409 C256.004,102.789 257.569,103.17 259.135,103.551 C258.09,104.778 257.049,106.006 256.004,107.234 C256.126,108.839 256.248,110.443 256.37,112.052 C254.884,111.435 253.395,110.824 251.904,110.214 C250.414,110.824 248.925,111.435 247.435,112.052 C247.557,110.443 247.679,108.839 247.805,107.234 C246.76,106.006 245.715,104.778 244.674,103.551 C246.239,103.17 247.805,102.789 249.37,102.409 C250.213,101.041 251.057,99.67 251.904,98.298" fill="#FDF07F"/>
    <path d="M251.326,121.182 L253.861,125.292 L258.557,126.434 L255.426,130.117 L255.792,134.932 L251.326,133.097 L246.856,134.932 L247.223,130.117 L244.096,126.434 L248.792,125.292 L251.326,121.182" fill="#FDF07F"/>
    <path d="M487.184,44.982 C487.946,46.217 488.702,47.444 489.463,48.68 C490.868,49.02 492.274,49.362 493.682,49.703 C492.745,50.805 491.807,51.911 490.872,53.013 C490.983,54.456 491.09,55.899 491.202,57.343 C489.862,56.793 488.524,56.24 487.184,55.691 C485.844,56.24 484.506,56.793 483.167,57.343 C483.278,55.899 483.389,54.456 483.497,53.013 C482.559,51.911 481.624,50.805 480.686,49.703 C482.094,49.362 483.5,49.02 484.909,48.68 C485.665,47.444 486.422,46.217 487.184,44.982" fill="#FDF07F"/>
    <path d="M487.467,65.56 C488.225,66.795 488.987,68.026 489.747,69.258 C491.151,69.6 492.559,69.94 493.965,70.285 C493.028,71.384 492.092,72.489 491.155,73.592 C491.262,75.038 491.374,76.481 491.485,77.925 C490.145,77.372 488.807,76.819 487.467,76.269 C486.129,76.819 484.79,77.372 483.45,77.925 C483.561,76.481 483.672,75.038 483.78,73.595 C482.844,72.489 481.907,71.384 480.969,70.285 C482.377,69.94 483.78,69.6 485.192,69.258 C485.95,68.026 486.706,66.795 487.467,65.56" fill="#FDF07F"/>
    <path d="M487.75,86.142 C488.508,87.374 489.27,88.605 490.032,89.837 C491.434,90.181 492.842,90.518 494.249,90.863 C493.313,91.966 492.375,93.067 491.438,94.173 C491.545,95.616 491.657,97.059 491.764,98.503 C490.43,97.95 489.09,97.4 487.75,96.851 C486.413,97.4 485.073,97.95 483.735,98.503 C483.846,97.059 483.954,95.616 484.065,94.173 C483.127,93.067 482.19,91.966 481.252,90.863 C482.661,90.518 484.065,90.181 485.471,89.837 C486.233,88.605 486.991,87.374 487.75,86.142" fill="#FDF07F"/>
    <path d="M488.036,106.721 C488.792,107.952 489.553,109.186 490.311,110.419 C491.719,110.76 493.125,111.101 494.534,111.441 C493.596,112.544 492.659,113.645 491.721,114.752 C491.829,116.195 491.94,117.638 492.049,119.081 C490.709,118.528 489.374,117.982 488.036,117.43 C486.696,117.982 485.356,118.528 484.018,119.081 C484.129,117.638 484.237,116.195 484.348,114.752 C483.411,113.645 482.473,112.544 481.538,111.441 C482.94,111.101 484.348,110.76 485.754,110.419 C486.512,109.186 487.274,107.952 488.036,106.721" fill="#FDF07F"/>
    <path d="M277.656,121.86 C278.492,123.217 279.329,124.574 280.165,125.928 C281.713,126.305 283.26,126.678 284.807,127.052 C283.774,128.269 282.743,129.478 281.713,130.695 C281.835,132.285 281.953,133.872 282.075,135.459 C280.604,134.853 279.132,134.246 277.656,133.643 C276.184,134.246 274.712,134.853 273.24,135.459 C273.362,133.872 273.48,132.285 273.603,130.695 C272.572,129.478 271.542,128.269 270.508,127.052 C272.056,126.678 273.603,126.305 275.15,125.928 C275.986,124.574 276.823,123.217 277.656,121.86" fill="#FDF07F"/>
    <path d="M303.989,122.542 C304.815,123.881 305.641,125.221 306.467,126.563 C307.999,126.933 309.526,127.303 311.055,127.676 C310.038,128.875 309.018,130.074 307.999,131.273 C308.118,132.846 308.237,134.414 308.358,135.983 C306.901,135.384 305.448,134.784 303.989,134.188 C302.536,134.784 301.079,135.384 299.624,135.983 C299.743,134.414 299.86,132.846 299.983,131.273 C298.963,130.074 297.944,128.875 296.924,127.676 C298.454,127.303 299.983,126.933 301.512,126.563 C302.338,125.221 303.163,123.881 303.989,122.542" fill="#FDF07F"/>
    <path d="M330.323,123.221 C331.137,124.545 331.956,125.87 332.77,127.195 C334.282,127.561 335.797,127.927 337.309,128.293 C336.299,129.481 335.295,130.67 334.286,131.854 C334.405,133.405 334.52,134.957 334.641,136.508 C333.202,135.919 331.762,135.323 330.323,134.734 C328.883,135.323 327.444,135.919 326.004,136.508 C326.122,134.957 326.241,133.405 326.36,131.854 C325.35,130.67 324.344,129.481 323.336,128.293 C324.848,127.927 326.36,127.561 327.874,127.194 C328.69,125.87 329.504,124.545 330.323,123.221" fill="#FDF07F"/>
    <path d="M356.657,123.899 C357.459,125.21 358.268,126.519 359.075,127.827 C360.569,128.192 362.063,128.552 363.559,128.918 C362.565,130.089 361.567,131.259 360.573,132.433 C360.688,133.966 360.805,135.502 360.92,137.031 C359.499,136.45 358.077,135.861 356.657,135.279 C355.235,135.861 353.809,136.45 352.387,137.031 C352.506,135.502 352.62,133.966 352.739,132.436 C351.741,131.263 350.747,130.089 349.749,128.918 C351.245,128.552 352.739,128.192 354.237,127.827 C355.04,126.519 355.848,125.21 356.657,123.899" fill="#FDF07F"/>
    <path d="M382.985,124.581 C383.786,125.874 384.583,127.166 385.379,128.462 C386.856,128.821 388.334,129.181 389.811,129.535 C388.827,130.695 387.842,131.854 386.86,133.011 C386.973,134.529 387.088,136.044 387.204,137.56 C385.797,136.981 384.393,136.403 382.985,135.825 C381.583,136.403 380.174,136.981 378.77,137.56 C378.885,136.044 379,134.529 379.12,133.011 C378.131,131.854 377.149,130.695 376.165,129.535 C377.639,129.181 379.12,128.821 380.594,128.462 C381.391,127.166 382.188,125.874 382.985,124.581" fill="#FDF07F"/>
    <path d="M409.319,125.26 C410.108,126.541 410.895,127.819 411.684,129.098 C413.143,129.449 414.604,129.805 416.061,130.16 C415.088,131.302 414.116,132.447 413.145,133.593 C413.256,135.09 413.372,136.587 413.487,138.087 C412.098,137.513 410.708,136.942 409.319,136.371 C407.93,136.942 406.54,137.513 405.151,138.087 C405.266,136.587 405.381,135.09 405.495,133.593 C404.522,132.451 403.549,131.302 402.577,130.16 C404.038,129.805 405.495,129.449 406.956,129.098 C407.743,127.819 408.532,126.541 409.319,125.26" fill="#FDF07F"/>
    <path d="M435.653,125.938 C436.43,127.202 437.206,128.466 437.989,129.729 C439.428,130.081 440.872,130.43 442.315,130.777 C441.352,131.912 440.391,133.04 439.428,134.171 C439.543,135.653 439.655,137.132 439.77,138.611 C438.395,138.044 437.024,137.484 435.653,136.917 C434.28,137.484 432.909,138.044 431.534,138.611 C431.649,137.132 431.76,135.653 431.875,134.174 C430.913,133.04 429.952,131.912 428.989,130.777 C430.432,130.43 431.875,130.081 433.315,129.729 C434.094,128.466 434.874,127.202 435.653,125.938" fill="#FDF07F"/>
    <path d="M461.985,126.62 C462.754,127.87 463.522,129.115 464.29,130.361 C465.715,130.71 467.141,131.054 468.565,131.402 C467.614,132.516 466.667,133.636 465.715,134.748 C465.827,136.213 465.938,137.675 466.049,139.136 C464.696,138.579 463.338,138.022 461.985,137.463 C460.627,138.022 459.274,138.579 457.918,139.136 C458.03,137.675 458.141,136.213 458.252,134.752 C457.303,133.636 456.352,132.516 455.405,131.402 C456.831,131.054 458.252,130.71 459.676,130.361 C460.446,129.115 461.213,127.87 461.985,126.62" fill="#FDF07F"/>
    <path d="M488.315,127.299 L490.594,130.997 L494.813,132.019 L492.002,135.33 L492.333,139.659 L488.315,138.008 L484.301,139.659 L484.631,135.33 L481.817,132.019 L486.04,130.997 L488.315,127.299" fill="#FDF07F"/>
    <path d="M1,776.719 L2.526,263.377 C65.902,322.42 109.902,451.983 109.902,602.346 C109.902,679.956 98.177,752.028 78.123,811.723 L1,776.719" fill="#571719"/>
  </g>
</svg>
