<?xml version="1.0" encoding="UTF-8" standalone="no"?>
<!-- Created with Inkscape (http://www.inkscape.org/) -->

<svg
   xmlns:dc="http://purl.org/dc/elements/1.1/"
   xmlns:cc="http://creativecommons.org/ns#"
   xmlns:rdf="http://www.w3.org/1999/02/22-rdf-syntax-ns#"
   xmlns:svg="http://www.w3.org/2000/svg"
   xmlns="http://www.w3.org/2000/svg"
   xmlns:sodipodi="http://sodipodi.sourceforge.net/DTD/sodipodi-0.dtd"
   xmlns:inkscape="http://www.inkscape.org/namespaces/inkscape"
   version="1.1"
   id="svg5975"
   xml:space="preserve"
   width="800"
   height="800"
   viewBox="0 0 800 800"
   sodipodi:docname="kings-crown-publicdomainvectors.org.svg"
   inkscape:version="0.92.4 (5da689c313, 2019-01-14)"><metadata
     id="metadata5981"><rdf:RDF><cc:Work
         rdf:about=""><dc:format>image/svg+xml</dc:format><dc:type
           rdf:resource="http://purl.org/dc/dcmitype/StillImage" /><dc:title></dc:title></cc:Work></rdf:RDF></metadata><defs
     id="defs5979"><clipPath
       clipPathUnits="userSpaceOnUse"
       id="clipPath5991"><path
         d="M 0,600 H 600 V 0 H 0 Z"
         id="path5989"
         inkscape:connector-curvature="0" /></clipPath></defs><sodipodi:namedview
     pagecolor="#ffffff"
     bordercolor="#666666"
     borderopacity="1"
     objecttolerance="10"
     gridtolerance="10"
     guidetolerance="10"
     inkscape:pageopacity="0"
     inkscape:pageshadow="2"
     inkscape:window-width="1920"
     inkscape:window-height="1018"
     id="namedview5977"
     showgrid="false"
     inkscape:zoom="0.92418819"
     inkscape:cx="430.50847"
     inkscape:cy="408.47458"
     inkscape:window-x="-8"
     inkscape:window-y="-8"
     inkscape:window-maximized="1"
     inkscape:current-layer="g5983" /><g
     id="g5983"
     inkscape:groupmode="layer"
     inkscape:label="kings-crown-publicdomainvectors.org"
     transform="matrix(1.3333333,0,0,-1.3333333,0,800)"><g
       id="g5985"><g
         id="g5987"
         clip-path="url(#clipPath5991)"><path
           d="m 444.873,270.451 -2.318,0.039 1.193,-1.993 -1.992,1.194 0.039,-2.318 -1.126,2.027 -1.126,-2.027 0.038,2.318 -1.988,-1.193 1.192,1.992 -2.318,-0.039 2.028,1.126 -2.028,1.125 2.318,-0.039 -1.192,1.992 1.988,-1.193 -0.038,2.317 1.126,-2.027 1.126,2.027 -0.039,-2.317 1.992,1.194 -1.193,-1.993 2.318,0.039 -2.027,-1.125 z m 5.756,5.453 c -0.33,0.759 -0.752,1.468 -1.239,2.124 l 3.393,5.66 -5.662,-3.393 c -0.657,0.487 -1.366,0.909 -2.125,1.241 l 0.108,6.591 -3.201,-5.763 c -0.405,0.046 -0.815,0.075 -1.232,0.075 -0.419,0 -0.829,-0.029 -1.234,-0.075 l -3.201,5.763 0.108,-6.592 c -0.758,-0.331 -1.467,-0.753 -2.124,-1.24 l -5.665,3.394 3.395,-5.661 c -0.486,-0.658 -0.907,-1.366 -1.237,-2.124 l -6.594,0.109 5.765,-3.203 c -0.048,-0.406 -0.076,-0.817 -0.076,-1.233 0,-0.417 0.028,-0.828 0.076,-1.233 l -5.765,-3.204 6.594,0.111 c 0.33,-0.758 0.751,-1.468 1.24,-2.125 l -3.398,-5.665 5.665,3.397 c 0.657,-0.487 1.366,-0.909 2.124,-1.239 l -0.108,-6.592 3.201,5.763 c 0.405,-0.047 0.815,-0.076 1.234,-0.076 0.417,0 0.827,0.029 1.232,0.076 l 3.201,-5.763 -0.108,6.59 c 0.759,0.332 1.468,0.751 2.124,1.24 l 5.663,-3.395 -3.393,5.662 c 0.487,0.657 0.909,1.366 1.239,2.127 l 6.592,-0.111 -5.764,3.204 c 0.048,0.404 0.076,0.815 0.076,1.233 0,0.418 -0.028,0.828 -0.076,1.233 l 5.764,3.203 z m -60.197,9.624 -1.913,1.062 1.819,1.01 c 0.072,-0.503 0.121,-1.014 0.121,-1.538 0,-0.181 -0.018,-0.357 -0.027,-0.534 m -1.751,-5.405 -1.31,2.183 2.392,-0.038 c -0.285,-0.759 -0.645,-1.479 -1.082,-2.145 m -4.397,-3.845 -0.048,2.893 2.351,-1.41 c -0.696,-0.589 -1.473,-1.084 -2.303,-1.483 m -0.129,9.186 -2.319,0.04 1.195,-1.992 -1.993,1.193 0.039,-2.319 -1.126,2.028 -1.127,-2.028 0.038,2.319 -1.988,-1.192 1.194,1.991 -2.319,-0.04 2.027,1.126 -2.027,1.127 2.319,-0.039 -1.194,1.99 1.988,-1.192 -0.038,2.317 1.127,-2.028 1.126,2.028 -0.039,-2.317 1.993,1.194 -1.195,-1.992 2.319,0.039 -2.028,-1.127 z m -4.558,-10.265 c -0.4,0 -0.789,0.024 -1.178,0.065 l 1.532,2.759 1.478,-2.658 c -0.598,-0.102 -1.206,-0.166 -1.832,-0.166 m -5.882,19.981 c 0.601,0.389 1.243,0.718 1.919,0.985 l 0.034,-2.155 z m 1.9,-19.216 c -0.978,0.388 -1.886,0.914 -2.703,1.554 l 2.756,1.653 z m -5.721,14.955 c 0.377,0.749 0.829,1.45 1.36,2.088 l 1.279,-2.133 z m 1.005,-11.338 c -0.606,0.813 -1.102,1.71 -1.464,2.674 l 3.098,0.051 z m -2.119,5.562 c -0.025,0.303 -0.046,0.61 -0.046,0.919 0,0.65 0.069,1.283 0.177,1.903 l 2.474,-1.375 z m 10.817,11.781 c 0.436,0 0.865,-0.034 1.289,-0.083 l -0.935,-1.685 -0.964,1.739 c 0.203,0.009 0.404,0.029 0.61,0.029 m 4.669,-1.07 c 0.541,-0.258 1.06,-0.556 1.547,-0.898 l -1.577,-0.946 z m 4.07,-3.37 c 0.365,-0.495 0.689,-1.022 0.969,-1.578 l -1.934,-0.032 z m 4.322,-1.521 c -0.607,1.611 -1.502,3.082 -2.626,4.349 l 2.033,3.39 -3.402,-2.039 c -1.269,1.088 -2.738,1.944 -4.342,2.525 l 0.066,3.952 -1.899,-3.417 c -0.933,0.197 -1.9,0.304 -2.891,0.304 -0.764,0 -1.509,-0.078 -2.24,-0.196 l -1.839,3.309 0.061,-3.708 c -1.755,-0.528 -3.366,-1.391 -4.756,-2.518 l -2.986,1.789 1.751,-2.92 c -1.324,-1.363 -2.365,-2.997 -3.049,-4.808 l -3.138,0.051 2.684,-1.491 c -0.286,-1.112 -0.455,-2.272 -0.455,-3.473 0,-0.868 0.092,-1.712 0.243,-2.535 l -2.472,-1.372 2.784,0.046 c 0.59,-2.047 1.636,-3.896 3.022,-5.441 l -1.37,-2.285 2.274,1.363 c 1.54,-1.427 3.392,-2.52 5.452,-3.143 l -0.045,-2.653 1.296,2.334 c 0.901,-0.185 1.83,-0.281 2.783,-0.281 1.175,0 2.313,0.163 3.406,0.437 l 1.384,-2.49 -0.048,2.9 c 1.897,0.688 3.609,1.767 5.024,3.154 l 2.702,-1.62 -1.654,2.761 c 1.182,1.445 2.071,3.134 2.601,4.975 l 3.491,-0.057 -3.126,1.737 c 0.111,0.709 0.186,1.429 0.186,2.17 0,1.076 -0.133,2.118 -0.366,3.127 l 3.306,1.837 z m -213.225,-16.775 -2.319,0.04 1.194,-1.993 -1.993,1.194 0.039,-2.319 -1.125,2.028 -1.126,-2.028 0.039,2.319 -1.991,-1.194 1.194,1.993 -2.319,-0.04 2.028,1.125 -2.028,1.126 2.321,-0.039 -1.196,1.993 1.991,-1.194 -0.039,2.318 1.126,-2.028 1.125,2.028 -0.039,-2.318 1.993,1.194 -1.195,-1.993 2.32,0.039 -2.028,-1.126 z m 5.755,5.451 c -0.332,0.761 -0.751,1.468 -1.24,2.125 l 3.397,5.663 -5.664,-3.395 c -0.659,0.488 -1.368,0.909 -2.127,1.241 l 0.11,6.591 -3.201,-5.763 c -0.405,0.046 -0.816,0.076 -1.234,0.076 -0.417,0 -0.828,-0.03 -1.233,-0.076 l -3.201,5.763 0.109,-6.591 c -0.76,-0.332 -1.467,-0.753 -2.126,-1.241 l -5.663,3.395 3.396,-5.663 c -0.489,-0.657 -0.908,-1.364 -1.24,-2.125 l -6.592,0.111 5.761,-3.203 c -0.044,-0.405 -0.073,-0.816 -0.073,-1.234 0,-0.417 0.029,-0.827 0.073,-1.232 l -5.761,-3.203 6.592,0.109 c 0.332,-0.759 0.751,-1.468 1.24,-2.125 l -3.396,-5.664 5.664,3.397 c 0.658,-0.487 1.367,-0.908 2.125,-1.241 l -0.109,-6.589 3.201,5.761 c 0.405,-0.046 0.816,-0.075 1.233,-0.075 0.418,0 0.829,0.029 1.234,0.075 l 3.201,-5.761 -0.11,6.589 c 0.759,0.333 1.468,0.754 2.127,1.241 l 5.664,-3.397 -3.397,5.664 c 0.489,0.657 0.908,1.366 1.24,2.125 l 6.593,-0.109 -5.764,3.203 c 0.046,0.405 0.075,0.815 0.075,1.232 0,0.418 -0.029,0.829 -0.075,1.234 l 5.764,3.203 z m 61.838,8.501 -2.154,1.198 2.255,1.253 c 0.019,-0.262 0.04,-0.525 0.04,-0.792 0,-0.566 -0.057,-1.115 -0.141,-1.659 m -2.156,-4.998 -1.146,1.912 2.318,-0.039 c -0.329,-0.667 -0.721,-1.293 -1.172,-1.873 m -4.283,13.616 0.051,2.996 c 0.886,-0.389 1.715,-0.891 2.461,-1.492 z m 0.035,-16.922 -0.035,2.082 1.826,-1.094 c -0.56,-0.384 -1.161,-0.714 -1.791,-0.988 m -0.115,8.376 -2.319,0.04 1.194,-1.992 -1.99,1.193 0.039,-2.318 -1.127,2.027 -1.125,-2.027 0.038,2.318 -1.989,-1.193 1.192,1.992 -2.317,-0.04 2.025,1.126 -2.025,1.126 2.317,-0.039 -1.192,1.991 1.989,-1.194 -0.038,2.318 1.125,-2.027 1.127,2.027 -0.039,-2.318 1.99,1.194 -1.194,-1.991 2.319,0.039 -2.028,-1.126 z m -4.203,-9.276 c -0.334,0 -0.664,0.02 -0.992,0.05 l 0.992,1.785 0.992,-1.785 c -0.326,-0.03 -0.656,-0.05 -0.992,-0.05 m -6.793,19.326 c 0.746,0.601 1.572,1.103 2.461,1.492 l 0.049,-2.996 z m 2.474,-18.426 c -0.629,0.274 -1.228,0.604 -1.789,0.988 l 1.825,1.094 z m -4.246,3.306 c -0.452,0.58 -0.843,1.206 -1.174,1.873 l 2.321,0.039 z m -2.158,4.998 c -0.083,0.544 -0.139,1.093 -0.139,1.659 0,0.267 0.02,0.53 0.039,0.792 l 2.256,-1.253 z m 1.85,7.905 1.453,-2.423 -2.718,0.046 c 0.325,0.849 0.749,1.645 1.265,2.377 m 8.873,4.616 c 0.5,0 0.987,-0.046 1.468,-0.11 l -1.468,-2.646 -1.469,2.646 c 0.482,0.064 0.971,0.11 1.469,0.11 m 8.873,-4.616 c 0.515,-0.732 0.94,-1.528 1.265,-2.377 l -2.718,-0.046 z m 4.523,-2.324 c -0.566,1.93 -1.537,3.684 -2.816,5.171 l 1.534,2.558 -2.532,-1.518 c -1.469,1.39 -3.233,2.464 -5.196,3.117 l 0.048,2.84 -1.373,-2.472 c -0.987,0.221 -2.009,0.347 -3.061,0.347 -1.052,0 -2.075,-0.126 -3.061,-0.347 l -1.373,2.472 0.047,-2.84 c -1.961,-0.653 -3.727,-1.727 -5.195,-3.117 l -2.532,1.518 1.536,-2.558 c -1.28,-1.487 -2.252,-3.241 -2.818,-5.171 l -3.156,0.052 2.81,-1.56 c -0.139,-0.785 -0.224,-1.59 -0.224,-2.414 0,-1.118 0.145,-2.199 0.393,-3.243 l -2.979,-1.654 3.468,0.058 c 0.64,-1.729 1.611,-3.291 2.84,-4.621 l -1.87,-3.117 3.144,1.886 c 1.343,-1.127 2.899,-2.003 4.599,-2.565 l -0.063,-3.754 1.831,3.296 c 0.844,-0.16 1.713,-0.253 2.603,-0.253 0.89,0 1.758,0.093 2.604,0.253 l 1.83,-3.296 -0.061,3.754 c 1.699,0.562 3.256,1.438 4.597,2.565 l 3.144,-1.886 -1.869,3.117 c 1.227,1.33 2.199,2.892 2.841,4.621 l 3.466,-0.058 -2.98,1.654 c 0.248,1.044 0.395,2.125 0.395,3.243 0,0.824 -0.086,1.629 -0.224,2.414 l 2.809,1.56 z m 80.425,1.639 -2.192,1.218 2.192,1.217 c 0.028,-0.405 0.063,-0.807 0.063,-1.217 0,-0.412 -0.035,-0.815 -0.063,-1.218 m -9.686,-2.893 4.507,-7.516 -7.515,4.507 0.142,-8.764 -4.253,7.661 -4.254,-7.661 0.144,8.764 -7.518,-4.507 4.509,7.516 -8.763,-0.145 7.661,4.256 -7.662,4.255 8.764,-0.145 -4.509,7.515 7.518,-4.506 -0.144,8.761 4.254,-7.66 4.253,7.66 -0.142,-8.761 7.515,4.506 -4.507,-7.515 8.765,0.145 -7.663,-4.255 7.66,-4.256 z m 6.832,-5.357 -1.297,2.162 2.505,-0.042 c -0.358,-0.735 -0.751,-1.449 -1.208,-2.12 m -6.605,-5.692 -0.041,2.505 2.162,-1.295 c -0.671,-0.458 -1.385,-0.852 -2.121,-1.21 m -7.345,-1.706 c -0.41,0 -0.813,0.033 -1.218,0.062 l 1.217,2.189 1.216,-2.189 c -0.401,-0.029 -0.804,-0.062 -1.215,-0.062 m -7.347,1.707 c -0.735,0.358 -1.45,0.752 -2.12,1.209 l 2.161,1.295 z m -6.604,5.692 c -0.456,0.671 -0.849,1.385 -1.208,2.119 l 2.504,0.042 z m -2.853,8.249 c -0.03,0.403 -0.062,0.806 -0.062,1.218 0,0.41 0.032,0.812 0.062,1.216 l 2.19,-1.216 z m 2.853,10.683 1.296,-2.159 -2.504,0.042 c 0.359,0.734 0.752,1.447 1.208,2.117 m 6.604,5.693 0.041,-2.505 -2.161,1.297 c 0.67,0.457 1.385,0.851 2.12,1.208 m 7.347,1.709 c 0.411,0 0.815,-0.034 1.218,-0.063 l -1.219,-2.192 -1.219,2.192 c 0.406,0.029 0.809,0.063 1.22,0.063 m 7.345,-1.707 c 0.736,-0.359 1.45,-0.753 2.121,-1.209 l -2.162,-1.298 z m 6.603,-5.693 c 0.459,-0.671 0.852,-1.385 1.21,-2.119 l -2.505,-0.042 z m 14.28,-17.032 -7.04,3.912 c 0.204,1.189 0.334,2.405 0.334,3.653 0,1.246 -0.13,2.462 -0.334,3.651 l 7.039,3.913 -8.056,-0.133 c -0.858,2.322 -2.088,4.464 -3.644,6.333 l 4.136,6.9 -6.901,-4.137 c -1.867,1.558 -4.012,2.789 -6.332,3.646 l 0.133,8.056 -3.912,-7.042 c -1.189,0.205 -2.404,0.335 -3.651,0.335 -1.247,0 -2.464,-0.13 -3.653,-0.335 l -3.912,7.042 0.134,-8.057 c -2.323,-0.86 -4.465,-2.088 -6.332,-3.646 l -6.903,4.138 4.138,-6.901 c -1.558,-1.869 -2.786,-4.01 -3.644,-6.332 l -8.058,0.133 7.042,-3.913 c -0.204,-1.189 -0.334,-2.405 -0.334,-3.651 0,-1.248 0.13,-2.462 0.334,-3.651 l -7.044,-3.914 8.06,0.135 c 0.858,-2.323 2.086,-4.466 3.644,-6.333 l -4.138,-6.902 6.903,4.138 c 1.867,-1.558 4.009,-2.787 6.334,-3.645 l -0.136,-8.059 3.913,7.042 c 1.19,-0.203 2.405,-0.334 3.652,-0.334 1.247,0 2.462,0.131 3.651,0.334 l 3.912,-7.042 -0.133,8.058 c 2.32,0.859 4.464,2.086 6.332,3.645 l 6.901,-4.137 -4.136,6.9 c 1.556,1.869 2.786,4.012 3.644,6.333 z m 150.57,-40.577 c 0,-3.646 -2.958,-6.603 -6.603,-6.603 -3.648,0 -6.604,2.957 -6.604,6.603 0,3.646 2.956,6.602 6.604,6.602 3.645,0 6.603,-2.956 6.603,-6.602 m -355.13,3.737 c 0,-3.646 -2.956,-6.603 -6.603,-6.603 -3.647,0 -6.604,2.957 -6.604,6.603 0,3.646 2.957,6.602 6.604,6.602 3.647,0 6.603,-2.956 6.603,-6.602 m -21.621,146.207 10.533,-0.163 c 0.353,-2.464 1.084,-4.936 2.188,-7.313 2.551,-5.493 6.853,-9.853 11.838,-12.123 l 7.256,-38.946 -35.011,52.622 c 1.276,1.85 2.35,3.84 3.196,5.923 m 433.835,16.996 6.602,3.668 c 0.466,-2.427 0.47,-4.909 0.004,-7.338 z m -1.704,-6.352 7.53,-0.125 c -0.118,-0.336 -0.222,-0.676 -0.358,-1.009 -0.818,-1.986 -1.942,-3.777 -3.286,-5.345 z m 1.832,-8.538 c -1.863,-1.609 -4.017,-2.853 -6.358,-3.669 l -0.124,7.557 z m 2.051,27.717 c 1.338,-1.556 2.445,-3.319 3.258,-5.268 0.149,-0.356 0.264,-0.721 0.389,-1.082 l -7.53,-0.125 z m -8.533,-1.826 0.124,7.533 c 0.336,-0.117 0.675,-0.223 1.006,-0.359 1.978,-0.815 3.767,-1.936 5.343,-3.292 z m -3.085,-23.197 -3.267,5.882 -3.268,-5.882 0.112,6.729 -5.774,-3.461 3.462,5.772 -6.728,-0.111 5.883,3.267 -5.883,3.268 6.728,-0.112 -3.462,5.772 5.774,-3.46 -0.112,6.727 3.268,-5.883 3.267,5.883 -0.11,-6.727 5.772,3.46 -3.461,-5.772 6.728,0.112 -5.881,-3.268 5.881,-3.267 -6.728,0.111 3.461,-5.772 -5.772,3.461 z m -6.934,-7.116 3.667,6.606 3.665,-6.601 c -1.196,-0.225 -2.425,-0.355 -3.676,-0.355 -1.233,0 -2.453,0.121 -3.656,0.35 m -68.486,-13.89 -23.854,-53.268 -1.28,0.26 c -4.369,1.891 -8.897,3.75 -13.537,5.571 l 37.261,48.439 c 0.446,-0.369 0.914,-0.705 1.41,-1.002 m -19.555,-55.466 -1.444,0.983 23.866,53.288 c 0.564,-0.15 1.146,-0.249 1.731,-0.318 l -11.184,-60.049 c -4.158,2.034 -8.466,4.074 -12.969,6.096 m 76.831,75.853 c -1.61,1.875 -2.841,4.028 -3.649,6.338 l 7.524,0.125 z m 8.401,-5.722 c -0.334,0.119 -0.676,0.224 -1.009,0.361 -2,0.823 -3.783,1.952 -5.337,3.294 l 6.471,3.88 z m -34.737,-95.478 -7.385,3.086 c -5.57,3.272 -11.836,6.784 -18.714,10.391 l 52.679,79.219 c 0.845,-0.578 1.732,-1.109 2.658,-1.592 z m 35.055,88.921 c 0.97,-0.238 1.944,-0.427 2.932,-0.55 L 513.099,288.354 c -2.955,2.073 -7.253,4.997 -12.745,8.487 z m -6.548,25.094 -6.589,-3.659 c -0.455,2.383 -0.486,4.866 -0.015,7.329 z m 1.704,6.352 -7.529,0.125 c 0.118,0.336 0.221,0.674 0.356,1.007 0.819,1.988 1.94,3.778 3.286,5.347 z m 4.651,4.649 -6.483,3.888 c 1.863,1.609 4.017,2.854 6.358,3.668 z m 6.36,8.66 c 1.234,0 2.455,-0.122 3.659,-0.352 l -3.668,-6.605 -3.666,6.601 c 1.197,0.226 2.424,0.356 3.675,0.356 m -61.122,-26.968 c 0.783,0 1.522,-0.154 2.201,-0.457 1.737,-0.776 2.622,-2.33 3.059,-3.497 1.043,-2.79 0.741,-6.446 -0.807,-9.781 -2.066,-4.445 -6.016,-7.553 -9.608,-7.553 -0.783,0 -1.524,0.155 -2.202,0.455 -1.734,0.778 -2.619,2.328 -3.055,3.494 -1.043,2.791 -0.742,6.45 0.805,9.786 2.066,4.447 6.016,7.553 9.607,7.553 m -82.678,6.263 c 0.784,-0.379 1.593,-0.704 2.448,-0.909 l -8.06,-65.758 c -5.645,1.56 -11.422,2.988 -17.29,4.297 z m 16.858,17.499 c -1.011,-7.442 -5.99,-13.213 -11.14,-12.497 -5.022,0.682 -8.409,7.561 -7.395,15.019 0.959,7.041 5.488,12.555 10.309,12.555 0.277,0 0.555,-0.019 0.833,-0.057 2.292,-0.312 4.332,-1.918 5.746,-4.524 1.587,-2.92 2.172,-6.648 1.647,-10.496 m -8.703,-18.651 7.881,-72.235 c -6.046,2.067 -12.246,4.044 -18.627,5.868 l 8.123,66.267 c 0.151,0.003 0.298,0.02 0.449,0.028 0.191,-0.01 0.38,-0.039 0.571,-0.039 0.54,0 1.074,0.039 1.603,0.111 m -110.758,70.151 -7.672,-4.26 c -0.273,1.379 -0.423,2.802 -0.423,4.26 0,1.458 0.15,2.882 0.423,4.262 z m 1.86,6.938 -8.761,0.146 c 0.938,2.736 2.395,5.225 4.26,7.357 z m 12.015,6.939 -4.258,7.671 c 1.379,0.273 2.801,0.423 4.258,0.423 1.459,0 2.881,-0.15 4.261,-0.423 z m -14.44,2.639 c 2.132,1.868 4.622,3.326 7.359,4.262 l 0.146,-8.761 z m 25.026,-5.932 -4.104,-6.841 7.978,0.133 -6.975,-3.876 6.975,-3.873 -7.978,0.132 4.104,-6.843 -6.844,4.102 0.133,-7.976 -3.875,6.974 -3.874,-6.974 0.133,7.976 -6.843,-4.102 4.103,6.843 -7.978,-0.132 6.975,3.873 -6.975,3.876 7.978,-0.133 -4.103,6.841 6.843,-4.101 -0.133,7.975 3.874,-6.973 3.875,6.973 -0.133,-7.975 z m 5.93,3.857 c 1.867,-2.132 3.325,-4.621 4.26,-7.357 l -8.76,-0.146 z m -9.58,-2.424 0.145,8.761 c 2.738,-0.936 5.229,-2.394 7.36,-4.261 z m 14.611,-16.277 -7.67,4.26 7.67,4.262 c 0.273,-1.38 0.423,-2.804 0.423,-4.262 0,-1.458 -0.15,-2.88 -0.423,-4.26 m -9.531,-2.677 8.762,-0.144 c -0.937,-2.738 -2.395,-5.228 -4.261,-7.361 z m 2.426,-9.579 c -2.132,-1.867 -4.623,-3.326 -7.361,-4.262 l -0.145,8.763 z m -3.264,-9.337 34.509,-101.649 c -2.239,0.355 -4.484,0.694 -6.745,1.004 -10.92,1.492 -22.116,2.04 -33.435,1.8 l -1.753,96.8 c 2.603,0.349 5.097,1.034 7.424,2.045 m -15.436,4.305 4.258,7.671 4.261,-7.671 c -1.38,-0.272 -2.802,-0.422 -4.261,-0.422 -1.457,0 -2.879,0.15 -4.258,0.422 m 1.806,-6.506 1.754,-96.879 c -13.412,-0.62 -26.95,-2.312 -40.381,-4.825 l 31.068,103.452 c 2.384,-0.912 4.915,-1.518 7.559,-1.748 m -14.064,13.612 c -1.867,2.133 -3.326,4.623 -4.262,7.361 l 8.763,0.144 z m 9.581,2.427 -0.146,-8.763 c -2.737,0.936 -5.227,2.395 -7.361,4.262 z m -84.105,-57.888 c 0.851,-0.193 1.713,-0.33 2.595,-0.346 l 8.478,-69.027 c -6.548,-1.968 -12.985,-4.102 -19.317,-6.339 z m 8.127,0.907 23.762,-64.659 c -5.985,-1.446 -11.93,-3.014 -17.799,-4.729 l -8.41,68.479 c 0.856,0.205 1.664,0.531 2.447,0.909 m -7.395,32.573 c 4.82,0 9.349,-5.513 10.309,-12.551 1.016,-7.459 -2.369,-14.34 -7.392,-15.023 -0.277,-0.038 -0.556,-0.057 -0.834,-0.057 -4.82,0 -9.349,5.514 -10.309,12.553 -0.524,3.848 0.06,7.575 1.645,10.496 1.414,2.606 3.456,4.213 5.747,4.526 0.279,0.037 0.558,0.056 0.834,0.056 m -38.012,-119.705 -0.16,-0.088 c -0.694,-0.353 -1.376,-0.72 -2.037,-1.112 l -6.355,-3.473 c -2.253,-1.031 -4.459,-2.072 -6.65,-3.116 l -11.622,62.393 c 0.597,0.068 1.185,0.17 1.757,0.323 z m -22.205,56.128 c 0.487,0.291 0.948,0.624 1.39,0.988 l 38.937,-50.617 c -2.981,-1.139 -5.949,-2.288 -8.859,-3.472 -2.242,-0.481 -4.392,-1.057 -6.41,-1.805 z m -11.059,25.881 c 3.589,0 7.541,-3.105 9.605,-7.551 1.55,-3.337 1.85,-6.995 0.807,-9.785 -0.436,-1.167 -1.321,-2.719 -3.056,-3.495 -0.678,-0.303 -1.419,-0.455 -2.202,-0.455 -3.592,0 -7.542,3.106 -9.606,7.553 -1.548,3.334 -1.851,6.992 -0.808,9.781 0.437,1.167 1.322,2.721 3.058,3.496 0.678,0.304 1.418,0.456 2.202,0.456 m -55.274,-12.401 3.513,-6.327 c -1.154,-0.213 -2.321,-0.329 -3.503,-0.329 -1.199,0 -2.375,0.12 -3.526,0.325 z m 6.502,24.269 0.12,7.244 c 2.236,-0.797 4.297,-1.991 6.094,-3.519 z m 4.761,-4.759 3.725,6.212 c 1.302,-1.539 2.387,-3.29 3.185,-5.228 0.118,-0.286 0.203,-0.577 0.308,-0.865 z m 8.054,-10.01 -6.311,3.505 6.327,3.516 c 0.429,-2.359 0.403,-4.733 -0.016,-7.021 m -6.934,-19.193 c 0.781,0.426 1.532,0.89 2.253,1.384 l 1.179,-1.77 47.912,-72.015 c -8.821,-4.47 -17.015,-9 -24.432,-13.446 -0.064,-0.04 -0.134,-0.08 -0.2,-0.119 z m -5.791,-2.285 27.044,-87.029 c -4.204,-2.638 -8.073,-5.221 -11.657,-7.738 l -18.748,94.108 c 1.134,0.142 2.253,0.365 3.361,0.659 m 4.671,18.481 7.209,-0.118 c -0.792,-2.208 -1.967,-4.272 -3.493,-6.079 z m 1.444,-8.482 c -1.525,-1.296 -3.269,-2.386 -5.219,-3.189 -0.286,-0.117 -0.578,-0.205 -0.867,-0.309 l -0.119,7.221 z m -16.223,34.317 c 1.157,0.211 2.325,0.33 3.506,0.33 1.2,0 2.375,-0.12 3.526,-0.328 l -3.516,-6.327 z m -5.839,-28.687 3.627,6.049 -7.05,-0.118 6.162,3.423 -6.164,3.425 7.052,-0.117 -3.627,6.048 6.048,-3.625 -0.116,7.047 3.423,-6.163 3.422,6.163 -0.115,-7.047 6.047,3.625 -3.625,-6.048 7.05,0.117 -6.164,-3.425 6.162,-3.423 -7.048,0.118 3.627,-6.049 -6.049,3.628 0.116,-7.051 -3.423,6.163 -3.424,-6.163 0.117,7.05 z m 2.853,-1.907 -0.12,-7.244 c -2.235,0.796 -4.297,1.99 -6.095,3.518 z m -4.762,4.759 -3.726,-6.212 c -1.301,1.539 -2.385,3.289 -3.183,5.226 -0.118,0.286 -0.205,0.579 -0.309,0.868 z m -1.742,6.502 -6.328,-3.514 c -0.43,2.328 -0.426,4.702 0.002,7.029 z m 0.293,14.987 c 1.547,1.31 3.297,2.394 5.224,3.189 0.285,0.116 0.577,0.204 0.867,0.308 l 0.12,-7.22 z m 1.449,-8.482 -7.218,0.119 c 0.112,0.31 0.209,0.625 0.336,0.932 0.793,1.902 1.864,3.63 3.158,5.158 z m 267.168,-83.67 c -40.011,5.466 -87.06,-0.965 -136.045,-18.601 -38.955,-14.028 -72.578,-32.811 -92.447,-46.62 l -0.804,0.553 -0.174,1.281 -0.319,-0.944 -6.605,4.54 4.21,10.851 c 11.589,8.318 26.977,17.567 44.852,26.52 l 5.931,2.916 c 50.951,24.553 120.056,45.783 180.456,37.537 91.259,-12.469 163.483,-64.385 171.235,-70.128 l 3.565,-9.269 -4.778,-6.532 c -15.838,11.283 -83.303,56.179 -169.077,67.896 M 466.656,216.232 c 2.213,0.767 4.361,1.557 6.441,2.372 v -18.648 c -2.031,-0.628 -4.173,-1.256 -6.441,-1.882 z m -19.068,-22.704 v 17.069 c 2.185,0.549 4.32,1.119 6.417,1.705 v -17.391 c -0.699,-0.157 -1.383,-0.317 -2.101,-0.474 -1.411,-0.314 -2.872,-0.608 -4.316,-0.909 m -9.518,-1.875 v 16.717 c 2.172,0.473 4.315,0.959 6.415,1.464 v -16.955 c -2.104,-0.419 -4.247,-0.827 -6.415,-1.226 m -9.519,-1.64 v 16.414 c 2.172,0.413 4.304,0.842 6.416,1.281 v -16.604 c -2.114,-0.374 -4.247,-0.74 -6.416,-1.091 m -9.519,-1.448 v 16.18 c 2.163,0.359 4.304,0.727 6.414,1.11 v -16.331 c -2.115,-0.328 -4.253,-0.65 -6.414,-0.959 m -60.304,9.685 v -15.407 c -2.134,-0.112 -4.265,-0.226 -6.418,-0.323 v 15.365 c 2.152,0.112 4.288,0.237 6.418,0.365 m 9.518,0.638 V 183.4 c -2.131,-0.137 -4.262,-0.277 -6.415,-0.399 v 15.439 c 2.151,0.14 4.288,0.291 6.415,0.448 m 9.521,0.765 v -15.577 c -2.13,-0.167 -4.264,-0.327 -6.417,-0.475 v 15.519 c 2.154,0.169 4.29,0.349 6.417,0.533 m 9.601,0.913 v -15.684 c -2.152,-0.196 -4.317,-0.383 -6.499,-0.562 v 15.61 c 2.184,0.201 4.347,0.415 6.499,0.636 m 9.52,1.055 v -15.809 c -2.119,-0.223 -4.266,-0.431 -6.417,-0.637 v 15.714 c 2.158,0.233 4.296,0.479 6.417,0.732 m 9.52,1.218 v -15.946 c -2.117,-0.257 -4.262,-0.498 -6.416,-0.734 v 15.839 c 2.158,0.271 4.297,0.55 6.416,0.841 m 3.104,0.437 c 2.16,0.312 4.301,0.631 6.416,0.965 v -16.116 c -2.115,-0.29 -4.259,-0.57 -6.416,-0.841 z m -3.034,52.245 c -16.047,2.563 -34.277,4.629 -54.947,5.901 l 5.639,62.65 c 21.035,-3.898 40.747,-9.676 58.606,-16.236 z m -91.709,-58.78 c 1.964,0.02 3.925,0.044 5.879,0.075 v -15.094 c -1.958,-0.015 -3.915,-0.033 -5.879,-0.033 z m 15.399,0.279 v -15.178 c -2.135,-0.038 -4.269,-0.08 -6.416,-0.102 v 15.133 c 2.146,0.04 4.285,0.091 6.416,0.147 m 9.521,0.302 v -15.256 c -2.136,-0.062 -4.267,-0.127 -6.417,-0.173 v 15.213 c 2.147,0.065 4.286,0.138 6.417,0.216 m 9.519,0.408 V 182.4 c -2.134,-0.087 -4.266,-0.178 -6.416,-0.247 v 15.289 c 2.149,0.088 4.286,0.185 6.416,0.288 m -81.936,0.003 c 2.134,-0.117 4.273,-0.226 6.416,-0.324 V 182.67 c -2.144,0.105 -4.291,0.204 -6.416,0.324 z m -66.718,7.821 c 2.112,-0.407 4.256,-0.796 6.416,-1.174 v -15.392 c -2.17,0.324 -4.299,0.663 -6.416,1.006 z m -69.845,21.57 v -16.31 c -3.385,2.247 -5.416,4.295 -6.442,6.011 v 4.346 c 1.91,2.078 4.041,4.067 6.442,5.953 m 9.545,-1.594 v -19.818 c -2.456,1.093 -4.595,2.169 -6.442,3.211 v 20.48 c 0.054,0.038 0.112,0.075 0.166,0.111 1.959,-1.375 4.054,-2.701 6.276,-3.984 m 9.545,-4.882 v -18.686 c -2.325,0.813 -4.476,1.624 -6.443,2.426 v 19.425 c 2.053,-1.09 4.206,-2.143 6.443,-3.165 m -28.9,6.047 -4.664,34.351 c 8.002,5.7 17.555,11.727 28.264,17.74 l 6.775,-33.404 c -13.1,-5.039 -23.107,-11.233 -30.375,-18.687 m 38.446,-9.998 V 198.92 c -2.282,0.664 -4.42,1.327 -6.442,1.989 v 18.369 c 2.08,-0.885 4.224,-1.749 6.442,-2.581 m 9.547,-3.287 v -17.05 c -2.248,0.558 -4.399,1.119 -6.444,1.683 v 17.522 c 2.094,-0.741 4.242,-1.46 6.444,-2.155 m 9.518,-2.783 v -16.47 c -0.434,0.096 -0.889,0.184 -1.321,0.28 -1.758,0.386 -3.442,0.778 -5.095,1.17 v 16.846 c 2.095,-0.629 4.237,-1.236 6.416,-1.826 m 9.521,-2.389 v -16.011 c -2.173,0.415 -4.312,0.839 -6.416,1.277 v 16.306 c 2.103,-0.542 4.243,-1.065 6.416,-1.572 m 9.519,-2.07 V 190.51 c -2.163,0.365 -4.31,0.735 -6.417,1.123 v 15.897 c 2.111,-0.467 4.248,-0.924 6.417,-1.362 m -40.273,41.343 -6.981,34.411 c 14.431,7.789 30.748,15.443 48.242,22.227 l 8.211,-46.197 c -19.657,-2.474 -36.027,-5.931 -49.472,-10.441 m 59.312,-44.684 v -15.164 c -2.164,0.284 -4.297,0.582 -6.417,0.885 v 15.302 c 2.12,-0.355 4.257,-0.697 6.417,-1.023 m 9.519,-1.334 v -14.998 c -2.157,0.248 -4.295,0.507 -6.416,0.776 v 15.099 c 2.121,-0.306 4.261,-0.598 6.416,-0.877 m 9.52,-1.146 v -14.875 c -2.155,0.216 -4.295,0.439 -6.416,0.674 v 14.951 c 2.123,-0.261 4.263,-0.511 6.416,-0.75 m 9.601,-0.979 v -14.789 c -2.178,0.189 -4.348,0.379 -6.497,0.585 v 14.849 c 2.155,-0.224 4.319,-0.443 6.497,-0.645 m 9.52,-0.802 v -14.745 c -2.148,0.158 -4.293,0.316 -6.416,0.491 v 14.782 c 2.129,-0.188 4.268,-0.364 6.416,-0.528 m 9.519,-0.649 v -14.729 c -2.146,0.128 -4.292,0.258 -6.415,0.404 v 14.745 c 2.131,-0.151 4.271,-0.29 6.415,-0.42 m -51.343,60.764 -8.478,47.706 c 18.57,6.885 38.308,12.727 58.397,16.638 l 5.464,-60.703 c -20.715,-0.618 -39.107,-1.82 -55.383,-3.641 m 70.383,-61.642 v -14.772 c -2.143,0.077 -4.288,0.155 -6.415,0.247 v 14.758 c 2.134,-0.087 4.272,-0.165 6.415,-0.233 m 9.52,-0.236 v -14.832 c -2.143,0.055 -4.288,0.108 -6.416,0.179 v 14.798 c 2.135,-0.056 4.276,-0.107 6.416,-0.145 m 9.519,-0.108 v -14.91 c -2.143,0.029 -4.284,0.061 -6.415,0.107 v 14.864 c 2.138,-0.028 4.276,-0.052 6.415,-0.061 m 9.418,0.015 v -15.007 c -2.108,0.008 -4.217,0.014 -6.312,0.034 v 14.953 c 0.401,0 0.803,-0.001 1.205,-0.001 1.705,0.003 3.408,0.01 5.107,0.021 m -7.687,66.113 c -10.327,0 -20.158,-0.115 -29.551,-0.339 l -5.551,61.662 c 24.58,4.288 49.527,5.606 73.309,2.356 2.973,-0.407 5.92,-0.859 8.848,-1.345 l -5.704,-63.383 c -12.86,0.676 -26.623,1.049 -41.351,1.049 m 159.574,-47.635 v -17.947 c -2.052,-0.539 -4.204,-1.074 -6.443,-1.607 v 17.555 c 2.2,0.646 4.348,1.313 6.443,1.999 m -2.33,27.609 c -13.105,4.231 -29.152,8.332 -48.621,11.709 l 9.083,51.108 c 18.57,-7.157 34.952,-15.042 48.482,-22.344 z m 21.421,-20.057 v -19.527 c -1.987,-0.751 -4.134,-1.508 -6.443,-2.267 v 18.912 c 2.231,0.932 4.386,1.891 6.443,2.882 m 9.545,0.345 v -15.749 c -1.901,-0.949 -4.039,-1.92 -6.442,-2.902 v 19.867 c 0.668,0.348 1.329,0.699 1.976,1.053 1.59,-0.776 3.083,-1.536 4.466,-2.269 m 9.545,-5.606 v -4.065 c -1.568,-1.378 -3.686,-2.867 -6.44,-4.428 v 12.403 c 2.56,-1.442 4.691,-2.758 6.44,-3.91 m -34.591,23.33 8.694,39.351 c 18.575,-10.39 30.848,-19.099 34.701,-21.93 l -2.157,-37.713 c -5.896,4.382 -18.644,12.403 -41.238,20.292 m 97.526,186.303 c -3.136,7.525 -9.013,13.379 -16.55,16.483 -3.713,1.529 -7.62,2.304 -11.612,2.304 -12.419,0 -23.499,-7.42 -28.23,-18.904 -3.995,-9.703 -2.746,-20.509 3.166,-28.994 l -41.391,-62.243 7.802,41.879 c 4.982,2.269 9.286,6.629 11.835,12.123 2.791,6.004 3.201,12.627 1.13,18.159 -1.644,4.396 -4.769,7.809 -8.803,9.613 -2.082,0.928 -4.313,1.398 -6.631,1.398 -7.793,0 -15.613,-5.561 -19.46,-13.841 -2.68,-5.778 -3.161,-12.12 -1.356,-17.516 l -35.009,-45.514 c -0.545,0.201 -1.091,0.401 -1.638,0.6 l -7.595,69.626 c 5.253,3.963 8.986,10.61 10.001,18.079 0.834,6.12 -0.183,12.208 -2.863,17.147 -3.108,5.725 -8.02,9.314 -13.829,10.104 -0.76,0.104 -1.532,0.156 -2.297,0.156 -0.202,0 -0.403,-0.009 -0.654,-0.027 -0.196,0.016 -0.391,0.026 -0.588,0.026 -10.307,0 -19.367,-9.438 -21.071,-21.954 -0.986,-7.261 0.668,-14.359 4.462,-19.58 l -21.264,-57.904 c -0.692,0.137 -1.383,0.27 -2.073,0.4 l -34.075,100.376 c 6.778,6.194 10.737,15.019 10.737,24.223 0,18.104 -14.729,32.833 -32.834,32.833 -18.104,0 -32.832,-14.729 -32.832,-32.833 0,-9.797 4.359,-18.984 11.81,-25.2 l -30.607,-101.928 -22.064,60.039 c 3.793,5.221 5.446,12.319 4.457,19.584 -1.707,12.51 -10.766,21.945 -21.072,21.945 -0.771,0 -1.546,-0.053 -2.3,-0.156 -5.808,-0.791 -10.723,-4.382 -13.828,-10.108 -2.679,-4.937 -3.693,-11.025 -2.859,-17.144 0.942,-6.919 4.187,-13.131 8.864,-17.168 l -7.337,-67.382 -33.002,42.902 c 1.809,5.4 1.325,11.742 -1.355,17.522 -3.846,8.277 -11.666,13.839 -19.459,13.839 -2.322,0 -4.553,-0.472 -6.633,-1.402 -4.033,-1.802 -7.158,-5.215 -8.801,-9.609 -0.943,-2.523 -1.372,-5.271 -1.295,-8.083 l -8.355,4.622 c 0.393,2.8 0.396,5.639 0.009,8.431 l 13.535,7.489 -15.443,-0.264 c -0.023,0.061 -0.051,0.122 -0.075,0.183 -1.064,2.58 -2.459,4.977 -4.166,7.161 l 7.831,13.113 -13.097,-7.847 c -2.234,1.745 -4.705,3.172 -7.335,4.235 l 0.294,15.39 -7.501,-13.458 c -2.82,0.404 -5.625,0.411 -8.476,-0.006 l -7.473,13.439 0.264,-15.361 c -0.062,-0.024 -0.123,-0.049 -0.185,-0.075 -2.598,-1.072 -5.003,-2.467 -7.179,-4.166 l -13.057,7.754 7.804,-13.015 c -1.674,-2.144 -3.053,-4.508 -4.114,-7.059 -0.039,-0.096 -0.079,-0.191 -0.118,-0.288 l -15.361,0.263 13.449,-7.476 c -0.395,-2.807 -0.395,-5.659 0,-8.464 l -13.382,-7.468 15.295,0.261 c 0.024,-0.063 0.049,-0.124 0.075,-0.185 1.062,-2.582 2.459,-4.981 4.168,-7.164 L 55.3,377.98 l 13.032,7.786 c 2.239,-1.75 4.718,-3.18 7.355,-4.245 l -0.215,-15.306 5.429,9.799 18.354,-92.132 -5.861,-15.105 10.277,-7.066 4.745,-23.814 1.812,-13.333 c -0.522,-1.698 -0.786,-3.419 -0.786,-5.129 0,-16.398 21.143,-29.037 64.636,-38.637 38.2,-8.432 88.069,-13.076 140.419,-13.076 52.349,0 102.218,4.644 140.419,13.076 34.843,7.691 55.215,17.267 62.036,29.195 l 1.699,-0.092 0.279,4.837 c 0.412,1.547 0.621,3.124 0.621,4.697 0,0.838 -0.067,1.687 -0.204,2.582 l 2.125,37.15 7.674,10.486 -5.729,14.9 20.125,101.135 c 9.477,2.242 17.411,8.932 21.174,18.067 3.104,7.537 3.087,15.832 -0.048,23.357"
           style="fill:#000000;fill-opacity:1;fill-rule:nonzero;stroke:none"
           id="path5993"
           inkscape:connector-curvature="0" /></g></g></g></svg>