<?xml version="1.0" encoding="UTF-8" standalone="no"?>
<!-- Created with Inkscape (http://www.inkscape.org/) -->

<svg
   xmlns:dc="http://purl.org/dc/elements/1.1/"
   xmlns:cc="http://creativecommons.org/ns#"
   xmlns:rdf="http://www.w3.org/1999/02/22-rdf-syntax-ns#"
   xmlns:svg="http://www.w3.org/2000/svg"
   xmlns="http://www.w3.org/2000/svg"
   xmlns:sodipodi="http://sodipodi.sourceforge.net/DTD/sodipodi-0.dtd"
   xmlns:inkscape="http://www.inkscape.org/namespaces/inkscape"
   version="1.1"
   id="svg2536"
   xml:space="preserve"
   width="800"
   height="800"
   viewBox="0 0 800 800"
   sodipodi:docname="halftone-element-4-publicdomainvectors.org.svg"
   inkscape:version="0.92.4 (5da689c313, 2019-01-14)"><metadata
     id="metadata2542"><rdf:RDF><cc:Work
         rdf:about=""><dc:format>image/svg+xml</dc:format><dc:type
           rdf:resource="http://purl.org/dc/dcmitype/StillImage" /><dc:title></dc:title></cc:Work></rdf:RDF></metadata><defs
     id="defs2540"><clipPath
       clipPathUnits="userSpaceOnUse"
       id="clipPath2552"><path
         d="M 0,600 H 600 V 0 H 0 Z"
         id="path2550"
         inkscape:connector-curvature="0" /></clipPath></defs><sodipodi:namedview
     pagecolor="#ffffff"
     bordercolor="#666666"
     borderopacity="1"
     objecttolerance="10"
     gridtolerance="10"
     guidetolerance="10"
     inkscape:pageopacity="0"
     inkscape:pageshadow="2"
     inkscape:window-width="1920"
     inkscape:window-height="1018"
     id="namedview2538"
     showgrid="false"
     inkscape:zoom="0.98217647"
     inkscape:cx="454.23729"
     inkscape:cy="371.23435"
     inkscape:window-x="-8"
     inkscape:window-y="-8"
     inkscape:window-maximized="1"
     inkscape:current-layer="g2544" /><g
     id="g2544"
     inkscape:groupmode="layer"
     inkscape:label="halftone-element-4-publicdomainvectors.org"
     transform="matrix(1.3333333,0,0,-1.3333333,0,800)"><g
       id="g2546"><g
         id="g2548"
         clip-path="url(#clipPath2552)"><path
           d="m 341.623,94.553 c -3.301,-0.647 -3.859,-1.42 -3.971,-2.005 -0.45,-2.412 8.852,-1.36 9.017,1.075 0.082,1.319 -2.743,1.362 -5.046,0.93 m -40.603,3.613 c -3.698,-0.228 -5.179,-0.875 -5.005,-2.337 0.46,-3.693 13.733,-3.528 13.256,-0.071 -0.254,1.721 -4.519,2.633 -8.251,2.408 m 67.162,6.626 c -2.227,-0.707 -2.81,-1.089 -3.615,-1.829 -3.997,-3.65 4.306,-3.26 7.765,-1.327 2.773,1.585 2.534,3.451 1.487,3.822 -0.737,0.261 -2.708,0.24 -5.637,-0.666 m -106.795,1.803 c -1.375,0.31 -2.239,0.3 -3.697,0.356 -3.524,0.157 -4.319,-0.723 -4.127,-1.783 0.48,-2.557 5.625,-4.545 9.478,-4.84 3.151,-0.224 5.602,0.953 4.375,2.976 -0.737,1.196 -3.89,2.788 -6.029,3.291 m 68.103,-0.515 c -0.78,-0.086 -1.78,-0.015 -2.533,-0.151 -2.097,-0.366 -5.441,-2.191 -5.764,-2.594 -1.511,-1.939 0.547,-2.964 2.168,-3.574 1.95,-0.75 5.046,-1.202 8.575,-0.501 2.105,0.412 4.985,1.833 5.677,2.642 2.108,2.464 -1.095,4.879 -8.123,4.178 m 70.503,12.569 c -1.104,0.117 -2.2,0.035 -4.961,-1.135 -1.904,-0.813 -3.577,-1.867 -4.198,-2.613 -5.146,-6.282 10.857,-2.138 10.956,2.943 10e-4,0.623 -1.276,0.734 -1.797,0.805 m -182.988,2.304 c -2.995,0.483 -3.865,-0.068 -2.915,-2.015 2.393,-4.882 13.98,-7.528 11.518,-2.968 -1.252,2.284 -5.552,4.489 -8.603,4.983 m 74.084,-10.178 c -2.633,0.821 -5.423,1.254 -8.498,1.27 -3.871,-0.015 -5.124,-0.618 -6.243,-1.47 -0.579,-0.432 -1.124,-0.98 -1.071,-1.662 0.25,-2.844 5.301,-5.16 10.506,-5.602 6.119,-0.519 10.016,1.218 9.947,3.462 -0.074,2.069 -3.01,3.51 -4.641,4.002 m -109.485,26.646 c -2.215,0.482 -1.933,-0.613 -1.483,-1.529 1.838,-3.772 9.038,-6.369 6.814,-2.418 -1.223,2.139 -3.768,3.62 -5.331,3.947 m 186.8,-22.318 c 0.028,1.598 -3.172,2.865 -6.05,2.667 -1.575,-0.097 -4.834,-0.969 -5.142,-1.055 -3.734,-0.951 -5.808,-2.082 -7.302,-3.355 -4.5,-3.82 0.93,-6.045 5.572,-5.663 7.004,0.604 12.842,4.461 12.922,7.406 m 58.539,19.388 c -0.098,0.061 -0.484,-0.016 -0.616,0.019 -1.046,0.148 -1.506,0.114 -3.545,-0.781 -2.287,-1.03 -3.239,-1.742 -4.301,-2.932 -0.114,-0.131 -0.763,-0.402 -0.919,-0.549 -0.041,-0.056 -0.888,-1.171 -1.173,-1.81 -1.075,-2.306 1.062,-2.885 3.625,-2.003 2.432,0.831 6.216,3.587 7.215,6.008 0.354,0.844 -0.198,1.149 -0.315,1.314 -0.143,0.175 0.228,0.619 0.029,0.734 M 248.6,119.453 c -1.535,1.473 -2.773,2.053 -4.245,2.767 -2.855,1.342 -5.11,2.055 -7.604,2.371 -3.198,0.386 -4.183,-0.13 -4.747,-0.848 -0.131,-0.18 -0.48,-0.336 -0.576,-0.585 -0.859,-2.205 2.722,-5.411 5.877,-6.928 0.447,-0.221 1.008,-0.559 1.58,-0.793 8.887,-3.659 14.4,-0.479 9.715,4.016 m 78.287,-4.932 c 0.226,2.134 -2.942,3.955 -5.616,4.406 -0.199,0.04 -0.294,0.427 -0.527,0.489 -2.256,0.453 -4.961,0.492 -7.883,0.309 -5.592,-0.321 -8.808,-1.401 -10.569,-2.977 -3.787,-3.501 1.874,-8.365 11.477,-8.227 6.382,0.106 12.734,2.704 13.118,6 m 119.275,35.888 c -1.803,-1.139 -2.376,-1.778 -3.237,-2.928 -4.361,-5.752 1.636,-4.635 4.788,-1.602 2.506,2.427 3.055,5.185 2.501,5.719 -0.387,0.379 -1.707,0.299 -4.052,-1.189 m -51.465,-18.072 c -1.623,0.137 -5.338,-0.95 -6.998,-1.545 -5.199,-1.911 -7.886,-4.269 -8.638,-5.122 -1.599,-1.848 -1.754,-3.891 -1.645,-4.315 0.322,-1.126 2.804,-1.924 4.464,-1.863 5.474,0.227 12.017,3.934 14.116,6.372 2.768,3.222 2.114,6.194 -1.299,6.473 m -197.972,9.5 c -0.592,0.172 -1.476,0.637 -1.992,0.707 -1.435,0.204 -2.737,-1.406 -2.691,-1.91 0.253,-2.42 2.685,-4.656 4.485,-6.131 2.209,-1.807 5.212,-3.535 7.797,-3.859 1.561,-0.179 3.026,0.795 3.001,1.721 -0.108,2.829 -5.13,7.865 -10.6,9.472 m 80.908,-23.63 c 1.119,0.881 2.34,3.02 -0.184,5.646 -0.631,0.67 -2.109,1.308 -2.56,1.601 -1.356,0.861 -2.889,1.545 -4.354,2.129 -2.109,0.855 -5.574,1.598 -7.515,1.831 -6.217,0.694 -8.397,-0.351 -9.762,-1.711 -3.09,-3.029 2.556,-7.498 7.634,-9.613 2.797,-1.173 8.016,-2.265 11.557,-2.007 2.186,0.173 4.399,1.498 5.184,2.124 m -112.14,40.423 c -1.355,1.161 -1.829,1.566 -3.325,1.761 -1.427,0.167 -1.566,-0.765 -1.046,-2.288 1.019,-3.028 4.631,-5.87 6.596,-6.407 1.562,-0.418 2.295,1.01 0.75,3.695 -0.738,1.316 -2.204,2.589 -2.975,3.239 M 336.99,117.681 c 4.256,-0.789 9.916,0.002 13.94,1.535 3.929,1.513 7.791,4.269 8.572,6.885 0.559,1.896 -0.936,3.345 -1.955,4.053 -1.066,0.734 -1.415,0.815 -3.443,1.185 -2.596,0.439 -6.245,0.187 -8.973,-0.306 -3.873,-0.692 -5.801,-1.349 -7.865,-2.237 -1.83,-0.777 -2.659,-1.344 -3.815,-2.278 -3.591,-2.941 -2.74,-6.033 -0.038,-7.641 1.192,-0.706 1.548,-0.818 3.577,-1.196 m 131.174,50.893 c -2.288,-1.559 -3.121,-3.131 -3.551,-4.234 -1.783,-4.541 4.42,-1.42 5.887,3.05 0.789,2.422 -0.764,2.254 -2.336,1.184 M 423.322,150.2 c -1.361,0.143 -4.674,-1.142 -6.183,-1.853 -4.756,-2.293 -7.479,-5.141 -8.272,-6.156 -1.717,-2.198 -2.195,-4.589 -2.166,-5.074 0.086,-1.302 2.138,-2.162 3.612,-2.035 4.828,0.415 11.062,4.771 13.21,7.608 2.823,3.734 2.655,7.186 -0.201,7.51 M 230.755,133.803 c -1.182,5.2 -6.103,8.599 -11.801,11.752 -1.997,0.375 -5.553,2.008 -6.49,1.605 -3.7,0.608 -4.306,-1.189 -5.06,-2.829 1.56,-5.355 6.021,-8.78 11.321,-11.593 2.114,-0.586 4.255,-1.186 6.414,-1.756 2.987,0.123 4.858,1.055 5.616,2.821 m 59.292,-11.996 c 2.668,-0.519 7.057,-0.874 9.693,-0.686 3.188,0.224 4.663,1.023 6.788,1.99 1.569,0.725 3.548,1.655 4.054,2.443 1.691,2.642 0.369,5.853 -2.494,7.504 -1.272,0.739 -2.408,1.264 -3.798,1.866 -2.837,1.199 -7.823,1.848 -10.806,1.899 -4.908,0.127 -6.972,-0.178 -9.121,-0.987 -2.427,-0.901 -4.963,-2.22 -5.38,-3.17 -0.105,-0.27 -0.401,-0.77 -0.411,-0.844 -0.875,-3.637 2.528,-5.984 6.061,-7.8 1.7,-0.877 3.739,-1.88 5.414,-2.215 M 181.12,163.423 c -2.281,1.838 -4.402,3.077 -6.407,3.545 -2.503,0.589 -2.963,-0.28 -3.251,-1.486 -0.151,-0.623 -0.224,-1.428 0.164,-2.521 1.601,-4.565 6.23,-8.92 10.114,-10.575 4.688,-1.988 6.524,-0.088 5.089,3.559 -1.334,3.373 -4.278,6.337 -5.709,7.478 m 188.165,-33.452 c 5.898,-0.333 14.721,3.177 18.342,6.249 0.292,0.266 2.423,2.381 3.104,3.359 3.978,5.711 0.156,9.158 -5.639,8.75 -1.432,-0.117 -4.471,-1.041 -4.355,-1.024 -8.389,-2.207 -16.229,-7.192 -17.403,-11.888 -0.324,-1.392 0.982,-3.772 1.358,-4.079 0.874,-0.714 3.17,-1.281 4.593,-1.367 m 81.033,35.962 c 0.621,2.421 -0.968,4.26 -2.883,3.854 -1.052,-0.224 -3.517,-1.739 -3.755,-1.879 -2.869,-1.695 -4.766,-3.656 -6.359,-5.76 -4.882,-6.428 -2.093,-9.154 1.346,-8.177 5.102,1.483 10.517,7.515 11.651,11.962 M 240.402,134.906 c 2.573,-0.956 6.706,-1.941 9.1,-2.124 2.905,-0.199 4.048,0.476 5.737,1.266 1.259,0.578 2.839,1.331 3.06,2.15 0.739,2.75 -1.705,6.654 -4.973,9.029 -1.445,1.069 -2.688,1.887 -4.197,2.78 -3.029,1.837 -7.745,3.361 -10.412,3.861 -4.342,0.842 -6.015,0.749 -7.621,0.072 -1.79,-0.762 -3.577,-1.991 -3.643,-3.055 -0.025,-0.3 -0.102,-0.859 -0.102,-0.94 0.322,-4.14 3.902,-7.27 7.548,-9.788 1.772,-1.223 3.897,-2.639 5.503,-3.251 m -92.329,48.743 c -1.156,1.197 -2.112,1.989 -3.489,1.978 -0.929,-0.021 -1.403,-0.724 -1.241,-1.689 1.385,-8.074 12.452,-13.538 7.288,-3.452 -0.622,1.224 -1.985,2.6 -2.558,3.163 m 173.993,-53.86 c 7.264,-0.758 15.289,1.419 18.901,3.428 3.852,2.14 7.123,5.985 6.707,9.553 -0.149,1.12 -1.631,2.485 -2.418,3.085 -3.703,2.817 -10.034,3.788 -19.779,2.178 -7.02,-1.168 -12.734,-4.171 -14.26,-6.692 -2.612,-4.418 1.346,-8.334 4.265,-9.709 1.855,-0.885 5.125,-1.67 6.584,-1.843 m 145.514,58.65 c -0.482,-0.254 -1.007,-0.299 -1.511,-0.678 -1.417,-1.057 -4.496,-5.194 -4.941,-6.038 -2.158,-4.074 -1.552,-5.571 -0.946,-6.414 0.73,-1.026 2.351,-1.276 4.865,0.602 1.471,1.104 3.918,4.137 4.744,5.728 2.479,4.794 2.018,9.109 -2.211,6.8 m -66.668,-41.897 c 2.965,-0.222 8.264,1.642 11.198,3.437 2.779,1.702 5.665,4.375 7.093,6.11 2.481,3.038 4.012,7.276 3.63,9.25 -0.22,1.159 -1.349,2.576 -2.022,2.84 -0.08,0.019 -1.087,0.157 -1.51,0.208 -1.586,0.203 -4.819,-0.8 -6.253,-1.348 -2.896,-1.135 -3.345,-1.236 -5.185,-2.376 -2.92,-1.835 -6.191,-4.722 -7.827,-6.628 -2.772,-3.255 -4.007,-7.303 -3.384,-8.961 0.532,-1.351 2.4,-2.409 4.26,-2.532 m -206.884,10.116 c 4.224,-3.022 8.74,-4.296 11.298,-3.867 2.55,0.437 4.101,2.682 2.648,6.34 -1.055,2.647 -3.768,5.701 -5.333,7.347 -1.634,1.679 -2.021,2.032 -4.191,3.604 -2.696,1.97 -5.67,3.322 -7.588,3.781 -2.664,0.64 -3.71,0.423 -4.691,-0.119 -0.857,-0.484 -1.106,-1.016 -1.342,-2.015 -0.704,-3.136 2.07,-8.283 5.374,-11.78 1.468,-1.57 1.855,-1.881 3.825,-3.291 m 72.349,-17.346 c 4.059,-1.411 11.307,-2.072 14.066,-1.9 2.93,0.209 4.576,1.126 6.435,2.042 1.727,0.813 3.544,1.583 4.124,2.375 1.471,2.048 1.203,6.507 -1.127,9.249 -0.976,1.147 -3.33,2.267 -5.224,3.398 -5.467,3.229 -11.12,5.181 -19.706,5.295 -0.41,-0.021 -0.929,0.189 -1.337,0.189 -4.891,-0.041 -9.885,-3.099 -10.502,-4.503 -1.061,-2.483 1.401,-8.082 2.861,-9.686 1.567,-1.725 7.802,-5.565 10.41,-6.459 m -98.784,40.051 c -0.328,3.737 -3.852,9.791 -7.405,13.115 -1.642,1.515 -4.047,2.412 -4.972,2.523 -2.822,0.365 -3.034,-2.164 -2.943,-3.203 0.218,-2.244 1.796,-5.873 2.249,-6.719 1.229,-2.283 4.073,-5.49 5.495,-6.557 4.887,-3.68 7.818,-1.971 7.576,0.841 m 317.97,27.422 c -2.147,-1.607 -3.4,-3.549 -4.319,-6.746 -2.337,-8.141 5.297,-3.712 7.143,3.658 0.894,3.651 -0.721,4.65 -2.824,3.088 m -55.353,-39.46 c 2.675,-0.618 6.984,1.249 10.339,3.991 3.208,2.647 6.728,7.075 8.13,11.123 0.999,2.917 0.565,5.103 0.184,6.155 -0.403,1.091 -0.562,1.259 -1.699,1.694 -1.434,0.574 -3.787,-0.031 -5.687,-1.016 -2.745,-1.402 -4.274,-2.67 -6.024,-4.324 -1.562,-1.483 -2.377,-2.486 -3.607,-4.135 -3.87,-5.267 -4.823,-10.027 -3.649,-12.144 0.53,-0.921 0.733,-1.038 2.013,-1.344 m -297.547,43.084 c -0.993,1.191 -1.801,1.954 -2.994,1.731 -0.815,-0.143 -1.235,-1.05 -1.107,-2.124 1.089,-9.074 10.682,-13.869 6.278,-2.87 -0.536,1.315 -1.701,2.686 -2.177,3.263 m 79.88,-49.921 c 0.198,-0.104 0.57,-0.785 0.802,-0.943 6.757,-4.457 14.061,-5.269 17.448,-4.07 2.009,0.695 4.092,2.967 3.806,5.303 -0.625,5.172 -6.783,11.947 -12.629,15.769 -3.673,2.388 -8.091,4.178 -11.911,4.7 -5.734,0.705 -6.583,-1.106 -7.314,-3.638 -0.276,-0.935 -0.836,-1.962 -0.632,-3.01 1.058,-5.286 6.331,-11.697 10.43,-14.111 m 199.777,10.46 c 0.128,0.126 1.151,1.49 1.601,2.071 3.147,4.141 4.942,10.356 4.419,13.077 -0.555,2.758 -3.418,5.558 -9.202,4.453 -5.255,-1.008 -8.136,-2.803 -12.509,-5.936 -0.149,-0.119 -0.421,-0.05 -0.581,-0.155 -0.55,-0.431 -1.097,-1.357 -1.63,-1.833 -2.466,-2.121 -3.739,-3.25 -5.504,-5.512 -1.176,-1.514 -2.527,-3.211 -2.818,-3.77 -1.744,-3.402 -1.442,-8.677 -0.44,-9.929 1.121,-1.417 5.364,-2.871 9.985,-1.949 6.617,1.289 13.72,6.229 16.679,9.483 m 45.313,18.603 c 1.547,0.66 3.066,1.321 4.57,1.964 2.762,2.461 5.128,5.523 7.083,9.204 2.933,8.202 1.434,10.779 -1.04,11.953 -1.42,-0.858 -3.35,-0.768 -4.504,-2.244 -3.031,-1.955 -5.088,-5.772 -7.319,-9.409 -3.091,-8.498 -1.567,-10.721 1.21,-11.468 m -284.197,-6.77 c 3.298,-2.676 7.528,-4.014 9.345,-3.662 1.778,0.319 2.865,2.046 3.057,3.538 0.328,2.635 -1.601,7.972 -3.813,11.485 -1.298,2.021 -3.835,5.248 -4.832,6.26 -0.122,0.085 -1.379,1.175 -1.9,1.615 -1.926,1.631 -4.626,2.756 -5.68,3.042 -2.07,0.517 -2.444,0.751 -3.382,0.383 -1.47,-0.547 -2.406,-2.551 -2.53,-4.267 -0.181,-2.911 1.702,-8.262 3.534,-11.256 1.545,-2.493 4.209,-5.522 6.201,-7.138 m -24.004,25.528 c -0.276,4.371 -3.182,10.968 -6.156,14.243 -1.355,1.503 -3.406,2.105 -4.199,2.085 -2.419,-0.081 -2.677,-2.996 -2.626,-4.174 0.121,-2.549 1.425,-6.491 1.802,-7.398 1.037,-2.46 3.446,-5.796 4.673,-6.836 4.203,-3.64 6.709,-1.227 6.506,2.08 m 328.931,5.548 c 0.186,-0.123 0.34,-0.467 0.584,-0.578 3.797,-1.504 9.535,8.311 9.366,14.737 -0.055,2.101 -0.461,2.584 -0.963,3.125 -0.965,1.064 -2.006,1.044 -3.48,0.061 -1.948,-1.339 -3.015,-3.151 -3.929,-5.076 -0.216,-0.483 -0.599,-1.06 -0.847,-1.664 -2.287,-5.433 -1.979,-9.62 -0.731,-10.605 m -32.92,-12.784 c 2.723,6.886 1.698,12.829 -1.086,14.445 -1.839,1.006 -4.835,0.611 -8.319,-1.252 -5.642,-3.135 -7.928,-6.485 -10.734,-10.772 -1.051,-1.612 -2.572,-3.613 -3.168,-5.011 -2.956,-7.114 -1.81,-12.482 1.131,-12.913 0.133,-0.03 -0.004,-0.763 0.148,-0.804 4.124,-1.458 11.023,2.265 15.114,6.293 2.321,2.285 5.667,6.839 6.914,10.014 m -325.269,36.409 c -0.838,1.178 -1.138,1.553 -2.15,1.206 -0.961,-0.354 -1.109,-1.803 -0.844,-3.852 0.543,-4.091 2.912,-6.921 4.224,-6.961 1.041,-0.031 1.536,2.463 0.619,5.951 -0.455,1.686 -1.37,2.99 -1.849,3.656 m 81.912,-31.443 c -0.422,0.565 -1.371,1.107 -1.867,1.64 -2.167,2.462 -3.297,3.768 -5.605,5.534 -1.543,1.172 -3.272,2.521 -3.83,2.834 -3.465,1.763 -8.815,1.447 -10.085,0.441 -1.429,-1.14 -2.899,-5.4 -1.955,-10.049 1.344,-6.666 6.359,-13.801 9.655,-16.779 0.138,-0.12 1.499,-1.172 2.102,-1.607 4.197,-3.172 10.484,-4.908 13.257,-4.422 2.806,0.552 5.639,3.442 4.512,9.258 -1.027,5.281 -2.827,8.174 -6.024,12.563 -0.119,0.155 -0.037,0.433 -0.16,0.587 m 298.49,43.368 c -0.551,0.093 -1.012,-0.377 -1.749,-0.967 -1.836,-1.424 -2.751,-3.983 -3.222,-6.393 -1.171,-5.91 0.621,-7.711 2.629,-6.464 1.579,1.032 3.5,4.899 3.84,9.014 0.204,2.415 -0.643,4.679 -1.498,4.81 M 154.765,213.078 c 4.756,-4.398 9.581,-3.647 10.441,-0.289 0.076,0.283 0.347,2.888 0.22,4.297 -0.727,8.221 -6.24,17.663 -10.448,20.639 -0.985,0.69 -2.62,0.806 -2.555,0.786 -4.466,0.917 -6.846,-4.119 -5.036,-11.943 0.543,-2.361 2.816,-7.464 3.251,-8.244 1.037,-1.84 3.037,-4.222 4.127,-5.246 m 309.131,3.723 c 1.21,1.721 2.688,3.871 3.288,5.448 1.972,5.193 2.421,10.866 1.576,13.374 -0.37,1.127 -0.745,1.926 -1.258,2.719 -1.015,1.661 -3.375,1.779 -4.951,1.179 -2.662,-1.031 -3.994,-2.211 -5.62,-4.447 -1.906,-2.566 -4.197,-6.066 -4.988,-8.097 -0.211,-0.58 -0.681,-1.695 -0.741,-1.844 -2.639,-7.721 -1.778,-11.004 -0.422,-13.259 0.645,-1.087 1.408,-2.362 2.335,-2.423 1.463,-0.082 4.068,0.643 5.803,1.764 2.042,1.348 3.307,3.217 4.978,5.586 m -333.6,17.875 c 3.852,-2.301 5.159,3.196 3.569,10.076 -0.847,3.653 -3.298,8.241 -4.781,9.26 -0.797,0.532 -2.119,0.118 -2.247,0.096 -1.498,-0.395 -2.06,-2.023 -2.268,-4.17 -0.611,-6.494 3.32,-13.809 5.727,-15.262 m -21.173,30.173 c -1.208,-0.498 -1.199,-2.322 -1.061,-3.739 0.59,-5.933 4.437,-6.658 3.613,-0.402 -0.448,3.313 -1.696,4.476 -2.552,4.141 m 371.252,-28.837 c 1.311,1.256 3.131,4.947 3.814,6.541 0.956,2.219 2.391,7.007 2.098,11.49 -0.079,1.124 -0.56,1.954 -0.682,2.376 -0.363,1.279 -0.886,2.123 -1.406,2.791 -0.76,0.967 -2.26,1.207 -3.193,0.894 -3.11,-1.053 -4.81,-4.398 -6.27,-7.941 -3.466,-8.39 -2.306,-15.056 -0.25,-17.167 1.131,-1.123 3.7,-1.109 5.889,1.016 m -341.319,10.187 c 2.659,-3.258 5.562,-3.776 7.253,-2.121 1.684,1.649 2.743,6.006 2.07,11.583 -0.49,3.963 -1.933,7.834 -2.772,9.794 -0.853,1.991 -1.07,2.362 -2.294,3.864 -1.502,1.858 -3.282,2.537 -4.497,2.384 -1.686,-0.243 -2.424,-1.061 -3.171,-2.321 -0.648,-1.102 -0.904,-2.008 -1.195,-3.611 -0.925,-5.031 0.405,-11.692 2.301,-15.837 0.868,-1.88 1.086,-2.242 2.305,-3.735 m 360.17,21.075 c 0.442,4.636 -0.539,7.348 -1.124,8.182 -0.95,1.371 -2.063,1.845 -3.401,1.115 -1.75,-0.897 -2.474,-2.748 -3.228,-5.056 -0.41,-1.199 -0.83,-2.683 -1.014,-4.299 -0.777,-6.869 0.882,-10.724 3.281,-10.325 2.721,0.466 4.992,5.243 5.486,10.383 m -46.253,4.93 c -2.975,-1.656 -7.317,-9.147 -8.311,-12.032 -1.787,-5.253 -2.648,-15.003 -2.359,-17.469 0.314,-2.651 2.965,-7.273 4.4,-7.857 2.18,-0.932 6.695,0.621 8.531,1.941 1.877,1.402 3.239,3.623 4.653,5.858 1.261,1.982 2.492,3.82 3.068,5.383 1.411,3.94 2.438,11.618 1.891,15.762 -0.222,1.723 -1.131,3.139 -1.834,4.613 -2.032,4.251 -4.565,6.203 -9.305,3.891 -0.235,-0.133 -0.49,0.025 -0.734,-0.09 m -334.286,9.708 c -0.309,-0.051 -0.721,0.263 -1.013,0.079 -0.789,-0.543 -1.874,-4.298 -1.946,-5.2 -0.309,-4.356 0.757,-7.127 1.568,-8.911 1.011,-2.214 2.49,-3.946 3.914,-3.166 0.843,0.521 1.798,3.267 1.894,5.113 0.313,5.57 -1.566,12.453 -4.417,12.085 m 387.941,8.28 c -1.501,-0.843 -2.154,-2.63 -2.256,-6.308 -0.269,-9.567 5.28,-7.785 5.352,0.787 0.014,4.162 -1.615,6.32 -3.096,5.521 M 153.987,256.74 c 4.346,-3.22 8.49,-0.953 10.07,2.249 1.726,3.442 2.529,10.608 1.373,18.335 -0.349,2.361 -1.534,5.552 -2.107,6.963 -2.548,6.278 -5.948,9.499 -10.588,7.55 -3.2,-1.332 -5.645,-6.489 -6.124,-10.994 -0.848,-8.044 1.713,-16.011 3.453,-19.147 1.166,-2.056 3.093,-4.304 3.923,-4.956 m 315.733,3.822 c 1.302,-0.548 3.528,-0.44 4.934,0.423 1.66,1.026 2.567,2.89 3.776,5.202 0.865,1.669 1.926,3.739 2.273,5.389 1.105,5.392 0.76,11.655 -0.377,14.728 -0.492,1.38 -0.972,2.359 -1.547,3.421 -1.168,2.161 -3.361,3.056 -4.709,2.915 -2.281,-0.236 -3.29,-1.157 -4.439,-3.09 -1.328,-2.279 -2.881,-5.517 -3.273,-7.629 -0.119,-0.6 -0.361,-1.75 -0.39,-1.909 -1.267,-8.296 -0.071,-12.6 1.406,-15.773 0.689,-1.538 1.513,-3.349 2.346,-3.677 m -332.94,28.464 c -0.087,5.025 -1.547,9.593 -2.758,10.763 -0.075,0.103 -0.124,0.981 -0.224,1.111 -0.966,1.14 -2.129,1.233 -3.374,0.885 -2.324,-0.707 -3.721,-3.177 -4.482,-6.668 -1.676,-7.805 1.044,-18.624 5.34,-19.118 2.999,-0.359 5.605,5 5.498,13.027 m 354.765,16.318 c -0.088,0.092 -0.166,0.957 -0.272,1.082 -0.989,1.25 -2.134,1.555 -3.359,1.422 -2.404,-0.265 -3.75,-2.641 -4.488,-6.214 -1.725,-8.384 0.556,-19.639 5.091,-19.322 2.879,0.193 5.758,5.599 5.733,12.904 -0.029,4.56 -1.555,8.856 -2.705,10.128 m -376.351,-4.101 c 0.015,4.372 -1.546,6.428 -3.055,5.487 -1.46,-0.973 -2.14,-2.751 -2.222,-6.322 -0.193,-9.328 5.231,-8.257 5.277,0.835 m 35.677,-4.338 c 0.862,1.766 1.982,3.98 2.311,5.822 1.092,6.106 0.819,13.052 -0.349,16.287 -0.517,1.387 -0.971,2.369 -1.561,3.373 -1.151,1.978 -3.428,2.457 -4.839,1.999 -2.29,-0.689 -3.333,-1.757 -4.54,-3.761 -1.34,-2.287 -2.826,-5.416 -3.223,-7.358 -0.107,-0.553 -0.344,-1.613 -0.368,-1.759 -1.174,-7.519 0.155,-11.675 1.62,-14.921 0.735,-1.622 1.643,-3.584 2.445,-4.112 1.303,-0.828 3.504,-1.233 4.868,-0.617 1.672,0.757 2.456,2.678 3.636,5.047 m 351.121,5.517 c 0.846,0.598 1.863,3.374 2.016,5.141 0.431,5.208 -1.543,11.742 -4.345,11.742 -0.315,-0.01 -0.759,0.35 -1.054,0.207 -0.816,-0.449 -1.896,-4.139 -1.966,-5.064 -0.317,-4.545 0.735,-7.411 1.531,-9.218 0.959,-2.191 2.359,-3.801 3.818,-2.808 m -30.853,-5.485 c 1.658,3.463 2.736,10.019 1.72,16.742 -0.298,2.065 -1.379,4.917 -1.911,6.198 -2.499,5.906 -5.999,9.417 -10.496,8.642 -3.418,-0.637 -5.834,-5.492 -6.264,-10.241 -0.792,-8.912 1.708,-17.667 3.431,-20.943 1.111,-2.086 2.955,-4.193 3.777,-4.687 4.013,-2.354 8.08,0.886 9.743,4.289 m -346.684,30.429 c -1.722,-1.127 -2.492,-2.917 -3.251,-5.161 -0.388,-1.158 -0.8,-2.574 -0.963,-4.11 -0.702,-6.561 1.112,-10.619 3.364,-10.558 2.726,0.092 4.821,5.093 5.34,10.675 0.463,4.989 -0.446,7.73 -1.04,8.511 -0.934,1.262 -2.057,1.51 -3.45,0.643 m 351.927,13.355 c -1.79,0.112 -2.554,-0.569 -3.313,-1.665 -0.694,-0.978 -0.923,-1.869 -1.215,-3.454 -0.927,-5.217 0.49,-12.392 2.359,-16.876 0.845,-1.969 1.053,-2.332 2.234,-3.816 2.459,-3.075 5.229,-3.046 6.944,-1.033 1.599,1.918 2.807,6.252 2.306,11.366 -0.356,3.577 -1.681,7.09 -2.48,8.889 -0.835,1.853 -1.05,2.197 -2.249,3.698 -1.521,1.911 -3.351,2.86 -4.586,2.891 M 171.729,318.726 c 1.333,2.208 2.742,4.244 3.351,6.061 1.549,4.597 2.854,13.343 2.317,17.806 -0.228,1.776 -1.261,3.119 -2.051,4.483 -2.113,3.733 -4.802,5.05 -10.013,1.903 -0.238,-0.172 -0.485,-0.04 -0.732,-0.218 -2.947,-1.961 -7.236,-8.97 -8.155,-11.552 -1.631,-4.659 -2.188,-13.638 -1.85,-16.042 0.354,-2.676 2.952,-7.908 4.267,-8.872 2.126,-1.516 6.414,-0.827 8.208,0.315 1.919,1.259 3.199,3.686 4.658,6.116 m -30.255,32.042 c -3.136,-1.467 -4.929,-4.674 -6.347,-8.028 -3.235,-7.714 -1.919,-14.432 -0.001,-16.915 1.113,-1.4 3.577,-1.82 5.667,0.185 1.299,1.257 3.073,5.247 3.796,6.99 1.001,2.461 2.613,7.745 2.398,12.526 -0.055,1.161 -0.579,1.954 -0.704,2.367 -0.357,1.231 -0.899,1.994 -1.447,2.557 -0.78,0.8 -2.36,0.745 -3.362,0.318 M 495.02,340.29 c -0.753,3.386 -3.167,7.748 -4.657,8.838 -0.822,0.596 -2.187,0.408 -2.316,0.379 -1.609,-0.153 -2.172,-1.697 -2.38,-3.813 -0.659,-6.775 3.249,-14.444 5.63,-15.711 3.531,-1.853 5.103,3.865 3.723,10.307 m -374.706,-4.14 c 1.555,0.969 3.417,5.072 3.855,9.422 0.24,2.499 -0.568,4.671 -1.449,4.722 -0.563,0.02 -1.042,-0.478 -1.799,-1.112 -1.811,-1.512 -2.738,-3.987 -3.185,-6.323 -1.111,-5.789 0.698,-7.875 2.578,-6.709 m 382.737,9.705 c 0.709,1.975 -0.511,6.395 -1.351,7.902 -0.587,1.061 -1.747,2.282 -2.899,1.968 -0.89,-0.235 -0.976,-0.831 -1.011,-2.06 -0.153,-6.412 4.347,-10.344 5.261,-7.81 m -350.857,17.566 c -0.195,-0.533 -0.626,-1.552 -0.662,-1.693 -2.415,-7.221 -1.497,-10.695 -0.324,-13.274 0.587,-1.297 1.312,-2.865 2.146,-3.088 1.353,-0.358 3.819,0.035 5.505,1.109 2.057,1.316 3.307,3.408 5.065,6.033 1.315,1.923 2.966,4.345 3.641,6.133 2.201,5.812 2.91,11.756 1.91,14.156 -0.422,1.027 -0.855,1.712 -1.414,2.393 -1.104,1.341 -3.732,1.05 -5.437,0.274 -2.76,-1.248 -4.096,-2.478 -5.745,-4.567 -1.855,-2.39 -3.966,-5.621 -4.685,-7.476 m 311.781,8.991 c -1,0.725 -2.668,1.075 -2.606,1.036 -4.937,1.544 -7.461,-2.807 -5.535,-10.947 0.604,-2.549 3.006,-8.169 3.462,-9.025 1.067,-2.022 3.076,-4.591 4.167,-5.63 4.48,-4.292 8.846,-2.694 9.704,1.054 0.068,0.304 0.372,2.986 0.298,4.373 -0.422,7.657 -5.43,16.19 -9.49,19.139 m -322.917,-0.545 c -1.006,0.879 -2.095,0.726 -3.641,-0.346 -1.959,-1.431 -3.039,-3.161 -3.932,-4.998 -0.214,-0.458 -0.582,-1.014 -0.81,-1.592 -2.177,-5.169 -1.783,-9.46 -0.661,-10.633 0.17,-0.164 0.325,-0.532 0.549,-0.689 3.731,-2.203 9.531,8.505 9.479,15.288 -0.025,2.081 -0.456,2.502 -0.984,2.97 m 337.299,5.075 c -1.355,1.448 -3.454,2.226 -4.288,2.287 -2.661,0.235 -2.947,-2.521 -2.89,-3.68 0.12,-2.569 1.479,-6.713 1.881,-7.679 1.067,-2.64 3.487,-6.162 4.692,-7.235 3.941,-3.489 6.293,-0.6 6.191,2.801 -0.136,4.264 -2.732,10.428 -5.586,13.506 M 413.256,391.1 c 0.974,-5.32 2.729,-8.249 5.848,-12.667 0.111,-0.161 0.039,-0.428 0.152,-0.589 0.415,-0.563 1.351,-1.103 1.82,-1.651 2.112,-2.48 3.217,-3.786 5.458,-5.565 1.504,-1.182 3.184,-2.563 3.735,-2.845 3.377,-1.779 8.643,-1.448 9.897,-0.438 1.417,1.145 2.91,5.408 2.027,10.066 -1.264,6.682 -6.127,13.866 -9.353,16.86 -0.133,0.118 -1.471,1.179 -2.057,1.622 -4.126,3.192 -10.311,5.034 -13.034,4.51 -2.761,-0.543 -5.574,-3.434 -4.493,-9.303 M 177,389.633 c -0.934,-1.48 -2.272,-3.333 -2.798,-4.648 -2.762,-6.965 -1.906,-13.01 0.537,-13.829 0.105,-0.06 0.006,-0.894 0.122,-0.991 3.769,-2.382 10.561,1.586 15.07,6.11 2.611,2.636 6.505,7.812 7.968,11.332 3.028,7.264 1.687,12.695 -1.748,13.774 -2.102,0.646 -5.417,-0.004 -9.017,-1.916 -5.452,-2.948 -7.621,-5.955 -10.134,-9.832 m -15,6.968 c -1.546,-0.922 -3.542,-1.065 -4.746,-2.459 -2.962,-1.984 -5.031,-5.449 -7.031,-8.913 -3.014,-8.317 -1.511,-10.904 0.947,-12.098 1.443,0.602 2.913,1.185 4.404,1.801 2.824,2.666 5.317,6.056 7.548,10.071 3.169,8.622 1.638,10.821 -1.122,11.598 M 490.972,378.03 c -0.49,1.263 -1.609,2.582 -2.077,3.143 -0.983,1.155 -1.796,1.908 -3.041,1.796 -0.857,-0.112 -1.324,-0.925 -1.204,-1.988 1.133,-9.561 10.466,-13.68 6.322,-2.951 m -41.516,21.615 c -0.082,0.122 -1.148,0.993 -1.757,1.491 -1.924,1.631 -4.512,2.718 -5.58,3.033 -2.183,0.675 -2.588,0.87 -3.63,0.676 -1.688,-0.305 -2.856,-1.98 -3.055,-3.544 -0.365,-2.767 1.655,-8.292 3.652,-11.551 1.673,-2.75 4.512,-6.109 6.557,-7.911 3.306,-2.875 7.271,-4.047 8.91,-3.436 1.525,0.578 2.431,2.619 2.558,4.275 0.214,2.794 -1.42,8.037 -3.355,11.284 -1.108,1.858 -3.381,4.777 -4.3,5.683 M 138.445,386.23 c 0.986,3.689 -0.684,4.493 -2.871,2.868 -2.125,-1.633 -3.375,-3.514 -4.256,-6.641 -2.325,-8.351 5.035,-4.076 7.127,3.773 m 69.519,29.292 c -0.121,-0.135 -1.194,-1.49 -1.635,-2.09 -3.218,-4.193 -5.071,-10.487 -4.541,-13.244 0.565,-2.803 3.475,-5.638 9.386,-4.552 5.371,1.019 8.305,2.814 12.782,5.965 0.159,0.119 0.43,0.042 0.593,0.154 0.575,0.417 1.099,1.397 1.668,1.858 2.508,2.147 3.822,3.275 5.618,5.561 1.208,1.526 2.598,3.236 2.876,3.803 1.801,3.433 1.463,8.784 0.442,10.056 -1.144,1.443 -5.467,2.95 -10.17,2.028 -6.751,-1.29 -14.01,-6.247 -17.019,-9.539 m 245.577,-10.97 c 0.157,-2.201 1.82,-5.956 2.3,-6.85 1.291,-2.445 4.221,-5.912 5.659,-7.044 4.717,-3.741 7.322,-1.61 7.1,1.403 -0.293,3.773 -3.399,9.566 -6.743,12.629 -1.572,1.457 -4.016,2.395 -4.984,2.578 -3.086,0.573 -3.406,-1.723 -3.332,-2.716 m -45.621,20.361 c -3.248,2.16 -7.346,3.823 -11.079,4.349 -6.042,0.904 -7.171,-0.672 -8.316,-2.81 -0.452,-0.818 -1.261,-1.753 -1.156,-2.722 0.619,-5.21 6.393,-12.047 11.033,-14.783 0.213,-0.136 0.605,-0.938 0.866,-1.118 7.445,-5.121 14.56,-6.076 17.536,-4.498 1.647,0.882 3.13,3.545 2.626,6.164 -1.006,5.357 -6.403,11.991 -11.51,15.418 m -218.079,-5.747 c -1.608,0.363 -4.117,-0.354 -6.079,-1.297 -2.713,-1.371 -4.194,-2.535 -5.857,-4.05 -1.462,-1.361 -2.237,-2.277 -3.355,-3.824 -3.637,-4.976 -4.596,-9.972 -3.725,-12.379 0.393,-1.113 0.567,-1.281 1.7,-1.707 2.435,-1.003 6.725,1 10.304,4.031 3.522,2.982 7.51,7.815 9.085,12.042 1.065,2.9 0.482,4.931 -0.047,5.834 -0.497,0.942 -0.712,1.063 -2.026,1.35 M 370.309,189.568 c -0.6,5.194 2.855,12.259 6.591,16.768 -6.861,-1.565 -11.602,-0.918 -15.96,0.268 -1.491,-5.94 -4.794,-10.283 -8.057,-14.426 9.292,1.46 13.601,-0.431 17.426,-2.61 m -8.566,131.062 c 4.843,-0.543 8,-2.917 11.361,-4.919 0.935,4.804 1.089,10.286 2.784,13.82 -5.163,0.63 -8.339,3.592 -13.632,4.396 1.566,-6.1 -1.08,-7.853 -0.513,-13.297 m 3.414,65.748 c 7.716,-1.296 13.048,-4.59 18.363,-7.844 -2.157,7.986 0.141,11.386 2.852,14.25 -7.697,-0.032 -15.699,4.587 -21.501,8.136 2.885,-5.782 1.812,-10.575 0.286,-14.542 m 31.729,-44.125 c 5.911,-1.493 10.205,-4.798 14.309,-8.071 -1.396,9.377 0.516,13.77 2.762,17.611 -5.188,-0.609 -12.205,2.841 -16.674,6.62 1.518,-6.947 0.793,-11.732 -0.397,-16.16 m 24.544,-30.87 c 0.518,-7.963 -0.904,-13.499 -2.662,-18.753 5.437,-0.482 9.188,-3.168 11.99,-7.016 -0.322,10.639 1.771,16.228 3.969,21.505 -4.438,-1.672 -9.95,0.781 -13.297,4.264 m -2.709,-72.457 c -5.674,-2.91 -10.387,-1.85 -14.276,-0.322 -1.279,-7.702 -4.509,-13.041 -7.705,-18.372 7.85,2.241 11.196,-0.091 14.02,-2.789 -0.062,7.684 4.496,15.68 7.961,21.483 m -17.287,38.393 c -4.94,-0.857 -7.317,1.907 -11.96,1.977 0.085,-6.727 -2.02,-10.777 -3.899,-15.17 4.191,-0.996 8.437,-1.676 11.31,-3.879 0.879,6.785 2.822,11.856 4.549,17.072 M 352.891,241.25 c -6.048,-1.582 -7.764,0.996 -13.147,0.41 -0.594,-4.861 -2.928,-8.053 -4.957,-11.435 4.758,-0.909 10.188,-1.022 13.678,-2.674 0.615,5.18 3.597,8.392 4.426,13.699 m -22.743,-59.588 c -7.948,-0.593 -13.466,0.759 -18.705,2.455 -0.498,-5.469 -3.225,-9.277 -7.114,-12.126 10.651,0.448 16.222,-1.596 21.485,-3.734 -1.679,4.424 0.827,10.008 4.334,13.405 m -31.83,31.737 c -6.761,-0.192 -10.835,1.866 -15.228,3.75 -1.018,-4.233 -1.781,-8.487 -4.016,-11.411 6.834,-0.806 11.947,-2.666 17.159,-4.383 -0.811,4.957 2.047,7.374 2.085,12.044 m -15.706,129.5 c 0.56,4.948 2.968,8.158 4.964,11.602 -4.879,0.949 -10.416,1.154 -14.007,2.878 -0.594,-5.28 -3.627,-8.525 -4.421,-13.937 6.178,1.591 7.955,-1.12 13.464,-0.543 m 36.874,-45.597 c -5.882,-0.815 -7.251,3.143 -13.244,2.408 0.699,-6.084 -3.236,-7.518 -2.51,-13.517 5.982,0.661 7.299,-3.083 13.223,-2.292 -0.618,5.975 3.24,7.418 2.531,13.401 m -27.644,106.593 c 8.053,0.51 13.662,-0.957 18.963,-2.776 0.45,5.554 3.174,9.376 7.067,12.214 -10.747,-0.296 -16.399,1.86 -21.744,4.117 1.726,-4.521 -0.772,-10.148 -4.286,-13.555 m 32.444,-32.756 c 6.766,0.091 10.831,-2.078 15.237,-4.002 1.011,4.28 1.719,8.594 3.911,11.544 -6.814,0.892 -11.914,2.905 -17.166,4.677 0.867,-5.046 -1.967,-7.468 -1.982,-12.219 m -63.638,-108.1 c -4.96,0.524 -8.201,2.972 -11.672,4.961 -0.917,-4.817 -1.05,-10.3 -2.772,-13.815 5.29,-0.629 8.546,-3.574 13.96,-4.389 -1.611,6.075 1.077,7.818 0.484,13.243 m -3.53,-65.128 c -7.809,1.2 -13.227,4.4 -18.616,7.597 2.213,-7.883 -0.155,-11.257 -2.897,-14.119 7.795,0.133 15.893,-4.387 21.748,-7.822 -2.896,5.677 -1.807,10.42 -0.235,14.344 m -32.696,27.501 c -1.604,6.918 -0.857,11.68 0.331,16.101 -6.07,1.513 -10.505,4.798 -14.73,8.105 1.506,-9.387 -0.424,-13.776 -2.697,-17.615 5.312,0.599 12.485,-2.872 17.096,-6.591 m -25.105,47.21 c -0.628,8.055 0.801,13.654 2.554,18.967 -5.588,0.55 -9.436,3.307 -12.368,7.204 0.423,-10.8 -1.664,-16.458 -3.862,-21.782 4.521,1.693 10.203,-0.856 13.676,-4.389 m 2.185,73.715 c 5.805,2.921 10.653,1.834 14.65,0.237 1.267,7.864 4.543,13.303 7.812,18.718 -8.048,-2.211 -11.497,0.162 -14.398,2.939 0.094,-7.844 -4.545,-15.985 -8.064,-21.894 m 18.043,-39.312 c 5.066,0.825 7.533,-2.056 12.314,-2.096 -0.142,6.851 1.969,10.968 3.878,15.43 -4.326,1.015 -8.658,1.817 -11.658,4.047 -0.852,-6.919 -2.81,-12.077 -4.534,-17.381 m 24.713,72.292 c 7.031,1.532 11.884,0.803 16.368,-0.435 1.481,6.043 4.845,10.418 8.14,14.612 -9.5,-1.373 -13.934,0.573 -17.846,2.851 0.633,-5.3 -2.869,-12.456 -6.662,-17.028 M 360.014,142.91 c -9.09,-0.815 -17.051,4.271 -11.547,12.425 1.634,2.399 5.071,4.304 8.721,7.182 -9.09,-4.099 -21.694,-3.195 -26.055,-0.057 0.57,-3.003 0.517,-6.274 -1.711,-8.982 -0.486,-0.547 -2.109,-1.396 -2.957,-2.081 -1.746,-1.405 -1.955,-1.784 -4.313,-2.8 -3.281,-1.403 -9.512,-3.196 -16.298,-2.789 -3.684,0.209 -6.623,1.203 -9.583,2.378 -2.382,0.93 -3.166,1.116 -4.987,2.44 -2.663,1.936 -6.202,5.574 -6.099,9.812 0.051,2.208 1.647,4.533 4.239,6.593 -4.225,0.611 -8.932,0.621 -13.448,2.024 -1.516,0.486 -4.183,1.78 -5.453,2.44 -1.961,1.011 -3.191,2.213 -4.839,2.957 0.966,-1.973 1.65,-3.655 1.826,-5.296 0.326,-3.263 -1.811,-6.569 -4.205,-7.943 -0.914,-0.508 -2.561,-0.603 -4.217,-0.97 -1.182,-0.274 -2.418,-0.992 -3.447,-1.017 -7.186,-0.131 -16.764,3.859 -21.419,7.52 -1.094,0.849 -1.958,2.151 -3.379,3.69 -0.933,1.019 -2.704,2.506 -3.243,3.35 -3.255,5.152 -3.044,10.104 -1.803,12.818 0.42,0.912 1.128,1.735 1.496,2.605 -17.864,0.383 -35.316,28.289 -26.566,39.096 -7.836,-0.479 -14.738,6.209 -18.995,12.574 6.013,-16.369 2.415,-27.352 -8.441,-21.938 -5.097,2.582 -10.443,10.272 -12.264,16.934 -3.529,13.073 1.598,24.794 11.432,18.19 2.442,-1.651 4.377,-5.132 7.302,-8.827 -4.167,9.2 -3.23,21.952 -0.038,26.382 -3.074,-0.574 -6.365,-0.549 -9.138,1.741 -0.615,0.5 -1.452,2.174 -2.11,2.992 -1.446,1.806 -1.797,1.945 -2.838,4.373 -1.949,4.535 -4.115,13.642 -1.937,22.694 0.279,1.095 1.107,2.298 1.589,3.537 0.982,2.473 1.132,3.181 2.497,5.05 1.988,2.685 5.73,6.251 10.005,6.181 2.468,-0.041 4.599,-1.738 6.702,-4.291 0.624,4.283 0.665,9.052 2.116,13.621 0.505,1.533 1.833,4.229 2.516,5.512 1.024,1.999 2.256,3.235 3.039,4.894 -2.017,-0.981 -3.74,-1.684 -5.411,-1.848 -3.326,-0.312 -6.683,1.833 -8.069,4.247 -0.52,0.918 -0.6,2.592 -0.964,4.261 -0.281,1.184 -0.994,2.435 -1.015,3.479 -0.096,7.244 4.034,16.89 7.771,21.584 0.879,1.092 2.188,1.982 3.77,3.396 1.042,0.936 2.564,2.714 3.421,3.256 5.256,3.278 10.3,3.05 13.057,1.79 0.94,-0.406 1.767,-1.123 2.648,-1.508 0.449,17.902 28.773,35.158 39.78,26.377 -0.525,7.812 6.241,14.639 12.653,18.814 -14.926,-6.197 -24.286,-1.024 -23.673,4.194 0.995,7.945 12.436,16.498 25.147,17.565 7.916,0.634 16.028,-2.944 12.839,-10.63 -1.462,-3.46 -3.878,-5.042 -9.042,-8.259 0.045,-0.344 -0.362,-0.423 -0.779,-0.524 -0.041,-0.143 -0.07,-0.285 -0.102,-0.43 9.213,4.086 22.045,2.956 26.498,-0.277 -0.601,3.066 -0.583,6.346 1.687,9.077 0.523,0.595 2.165,1.425 2.983,2.062 1.768,1.435 1.952,1.733 4.354,2.773 4.517,1.878 13.576,3.934 22.586,1.648 1.093,-0.266 2.289,-1.121 3.513,-1.627 2.466,-1 3.152,-1.168 5.024,-2.546 2.674,-2.003 6.241,-5.78 6.172,-10.035 -0.053,-2.454 -1.67,-4.578 -4.205,-6.622 4.236,-0.69 8.961,-0.727 13.466,-2.252 1.533,-0.459 4.184,-1.866 5.451,-2.556 1.964,-1.048 3.187,-2.302 4.837,-3.067 -0.965,2.018 -1.682,3.735 -1.844,5.398 -0.33,3.311 1.767,6.639 4.151,7.991 0.835,0.465 2.519,0.538 4.195,0.925 1.091,0.224 2.415,0.962 3.422,0.983 3.597,0.04 9.008,-1.184 12.429,-2.551 1.048,-0.426 3.266,-1.821 4.728,-2.692 1.452,-0.891 3.18,-1.89 4.093,-2.627 1.067,-0.89 1.951,-2.187 3.342,-3.766 0.909,-1.046 2.685,-2.553 3.196,-3.414 3.225,-5.231 2.978,-10.228 1.762,-12.971 -0.421,-0.913 -1.107,-1.744 -1.479,-2.618 17.558,-0.518 34.499,-28.56 25.878,-39.422 7.667,0.498 14.39,-6.16 18.474,-12.514 -5.824,17.021 -1.769,27.142 8.52,21.908 5.965,-3.076 12.075,-12.697 12.943,-23.363 0.627,-7.931 -2.97,-15.775 -10.497,-12.689 -3.686,1.571 -5.68,5.223 -9.077,9.806 3.973,-9.129 2.94,-21.775 -0.231,-26.17 2.995,0.614 6.256,0.555 8.933,-1.675 0.541,-0.483 1.374,-2.091 2.038,-2.947 1.401,-1.725 1.758,-1.95 2.744,-4.309 1.893,-4.492 3.915,-13.429 1.703,-22.348 -0.279,-1.128 -1.065,-2.163 -1.59,-3.479 -0.943,-2.375 -1.133,-3.119 -2.49,-4.973 -1.965,-2.657 -5.633,-6.176 -9.854,-6.115 -2.2,0.052 -4.515,1.594 -6.523,4.176 -0.652,-4.205 -0.708,-8.886 -2.164,-13.371 -0.482,-1.51 -1.822,-4.151 -2.488,-5.415 -1.016,-1.962 -2.248,-3.175 -3,-4.81 1.969,0.99 3.66,1.67 5.299,1.832 3.252,0.344 6.523,-1.766 7.877,-4.121 0.479,-0.818 0.558,-2.506 0.928,-4.177 0.246,-1.084 0.965,-2.402 0.986,-3.406 0.045,-3.58 -1.108,-8.978 -2.457,-12.383 -0.43,-1.039 -1.776,-3.262 -2.636,-4.719 -0.847,-1.459 -1.866,-3.158 -2.573,-4.088 -0.872,-1.065 -2.143,-1.959 -3.7,-3.339 -1.035,-0.909 -2.511,-2.674 -3.359,-3.206 -5.152,-3.222 -10.076,-3.008 -12.779,-1.798 -0.907,0.406 -1.74,1.062 -2.585,1.463 -0.495,-17.587 -28.193,-34.731 -38.917,-26.167 0.473,-7.683 -6.172,-14.453 -12.46,-18.65 14.472,6.028 23.86,1.733 23.2,-3.946 -0.914,-7.54 -11.74,-16.394 -24.685,-17.599 M 153.572,398.341 c 1.518,1.165 4.098,4.443 5.011,6.127 2.677,4.979 2.201,9.005 -2.309,6.525 -0.487,-0.272 -1.016,-0.347 -1.524,-0.713 -1.392,-1.057 -4.378,-4.998 -4.811,-5.813 -2.088,-4.004 -1.545,-5.604 -1.031,-6.542 0.641,-1.171 2.165,-1.547 4.664,0.416 m 322.799,5.404 c -0.576,1.178 -1.87,2.501 -2.417,3.053 -1.137,1.149 -2.086,1.949 -3.505,1.999 -1,0.081 -1.522,-0.609 -1.369,-1.546 1.367,-8.463 12.216,-13.602 7.291,-3.506 m -115.217,38.974 c -4.894,3.159 -9.939,5.039 -17.638,5.06 -0.383,-0.021 -0.856,0.156 -1.235,0.136 -4.685,-0.082 -10.254,-2.952 -11.198,-4.226 -1.722,-2.378 -0.175,-7.765 1.173,-9.373 1.529,-1.792 8.301,-5.89 11.265,-6.924 4.665,-1.608 12.754,-2.652 15.704,-2.57 3.052,0.081 4.569,1.142 6.284,2.101 1.528,0.832 3.116,1.547 3.487,2.417 0.91,2.154 -0.296,6.924 -2.863,9.834 -1.038,1.165 -3.195,2.409 -4.979,3.545 m 66.414,-15.207 c -2.461,1.828 -5.312,3.073 -7.216,3.56 -2.747,0.715 -3.884,0.552 -5.006,0.146 -1.024,-0.347 -1.366,-0.809 -1.7,-1.695 -1.156,-2.883 1.784,-8.024 5.314,-11.84 1.606,-1.718 2.013,-2.063 4.117,-3.661 4.458,-3.36 8.872,-4.803 11.192,-4.139 2.204,0.598 3.349,3.216 1.885,7.103 -1.019,2.669 -3.436,5.631 -4.822,7.186 -1.441,1.574 -1.8,1.893 -3.764,3.34 m -206.176,12.456 c -0.096,0 -1.226,0.095 -1.689,0.136 -1.724,0.122 -5.018,-0.787 -6.438,-1.293 -2.792,-1.016 -3.225,-1.119 -4.941,-2.158 -2.71,-1.644 -5.717,-4.336 -7.241,-6.151 -2.658,-3.197 -4.097,-7.476 -3.758,-9.318 0.284,-1.579 1.867,-2.827 3.562,-3.07 2.853,-0.368 8.4,1.727 11.642,3.753 3.117,1.918 6.382,4.831 7.99,6.668 2.719,3.134 4.167,7.21 3.487,9.015 -0.382,1.019 -1.845,2.175 -2.614,2.418 m 81.358,15.514 c -3.456,0.932 -8.469,1.152 -13.322,0.339 -6.368,-1.039 -9.544,-3.083 -11.606,-4.82 -0.701,-0.592 -1.884,-1.367 -2.163,-1.769 -2.825,-3.755 -1.061,-6.94 0.118,-8.19 2.009,-2.09 7.486,-3.878 11.01,-4 14.111,-0.369 27.487,5.188 24.584,12.998 -0.31,0.823 -2.066,2.111 -2.519,2.497 -1.389,1.179 -3.676,2.313 -6.102,2.945 M 173.901,417.203 c 4.51,1.742 9.049,6.458 10.834,10.417 1.538,3.452 0.381,4.689 -0.478,4.874 -1.367,0.322 -3.149,-0.083 -5.498,-1.352 -2.942,-1.623 -4.429,-3.207 -5.99,-5.124 -0.825,-0.993 -1.714,-2.193 -2.248,-3.352 -2.358,-5.033 -0.338,-6.9 3.38,-5.463 m 260.674,11.336 c 1.591,-4.666 6.446,-9.379 10.397,-11.137 4.475,-2.024 6.067,0.159 4.634,4.005 -1.231,3.36 -3.946,6.192 -5.252,7.288 -2.137,1.75 -4.2,2.942 -6.221,3.429 -2.633,0.654 -3.203,-0.088 -3.582,-1.185 -0.207,-0.571 -0.336,-1.33 0.024,-2.4 m -49.37,19.378 c -2.695,1.729 -6.964,3.135 -9.435,3.602 -4.141,0.756 -5.852,0.682 -7.561,0.094 -2.021,-0.654 -4.135,-1.794 -4.412,-2.741 -0.058,-0.278 -0.264,-0.789 -0.28,-0.863 -0.396,-4.005 3.406,-7.066 7.334,-9.742 1.949,-1.329 4.262,-2.978 6.047,-3.671 2.832,-1.117 7.27,-2.362 9.731,-2.627 2.911,-0.324 3.937,0.461 5.414,1.356 1.082,0.612 2.379,1.408 2.43,2.337 0.181,2.954 -2.378,7.114 -5.461,9.542 -1.33,1.053 -2.456,1.84 -3.807,2.713 M 155.508,422.242 c 0.83,2.383 -0.777,2.133 -2.385,1.074 -2.266,-1.541 -3.094,-3.102 -3.526,-4.201 -1.846,-4.703 4.291,-1.495 5.911,3.127 m 77.796,16.083 c 6.126,-0.349 15.975,3.564 20.02,6.783 0.332,0.262 2.572,2.391 3.237,3.356 3.66,5.254 -1.145,8.508 -7.122,8.221 -1.403,-0.061 -4.323,-0.849 -4.209,-0.828 -7.762,-1.823 -15,-6.797 -16.709,-11.544 -0.536,-1.509 0.254,-4.131 0.55,-4.472 0.694,-0.825 2.843,-1.414 4.233,-1.516 m 102.283,24.177 c -2.673,1.195 -7.194,1.93 -9.894,2.011 -4.494,0.142 -6.428,-0.222 -8.554,-0.973 -2.459,-0.899 -5.221,-2.239 -5.801,-3.155 -0.2,-0.244 -0.563,-0.761 -0.598,-0.831 -1.743,-3.728 1.463,-5.894 5.028,-7.712 1.791,-0.901 3.94,-2.029 5.8,-2.375 2.976,-0.57 7.873,-1.035 10.789,-0.953 3.45,0.162 4.932,0.948 7.051,1.889 1.504,0.689 3.364,1.521 3.705,2.344 1.092,2.626 -0.818,6.003 -3.807,7.8 -1.269,0.788 -2.398,1.324 -3.719,1.955 m 123.455,-39.128 c 1.48,-0.425 2.159,1.133 0.701,3.847 -0.696,1.297 -2.09,2.526 -2.819,3.176 -1.303,1.138 -1.779,1.509 -3.297,1.751 -1.496,0.226 -1.666,-0.67 -1.186,-2.17 1.007,-3.085 4.663,-6.074 6.601,-6.604 m -67.796,27.531 c 1.166,-5.254 6.041,-8.722 11.676,-11.98 2.224,-0.65 4.412,-1.344 6.576,-2.038 2.818,0.141 4.44,1.179 4.901,3.15 -1.519,5.408 -5.93,8.888 -11.172,11.792 -1.879,0.387 -5.282,1.854 -6.25,1.547 -3.824,0.614 -4.696,-0.971 -5.731,-2.471 M 194.513,438.67 c -0.041,-1.436 1.75,-2.42 3.159,-2.318 4.894,0.41 11.657,5.161 14.012,8.111 2.951,3.691 2.532,6.87 -0.648,7.075 -1.447,0.102 -4.782,-1.082 -6.257,-1.755 -4.537,-2.109 -7.131,-4.87 -7.899,-5.867 -1.692,-2.215 -2.337,-4.72 -2.367,-5.246 m 90.155,29.944 c -2.57,0.467 -6.016,0.372 -8.545,-0.034 -3.58,-0.57 -5.357,-1.24 -7.312,-2.076 -1.74,-0.773 -2.581,-1.321 -3.743,-2.258 -3.862,-3.063 -3.623,-6.299 -1.261,-7.92 1.083,-0.753 1.431,-0.853 3.492,-1.218 4.469,-0.778 10.711,0.1 15.187,1.65 4.276,1.481 8.225,4.069 8.58,6.661 0.245,1.774 -1.62,3.244 -2.783,3.958 -1.207,0.708 -1.556,0.809 -3.615,1.237 M 173.535,435.561 c 1.942,1.104 4.69,3.957 5.294,6.109 0.286,1.023 -0.596,1.235 -1.068,1.317 -0.829,0.162 -1.141,0.192 -3.256,-1.115 -2.022,-1.277 -3.245,-2.7 -4.093,-4.275 -1.747,-3.227 0.667,-3.416 3.123,-2.036 m 170.93,31.71 c -3.924,-3.054 1.69,-7.263 7.104,-9.535 3.056,-1.282 8.7,-2.643 12.395,-2.5 2.212,0.081 4.216,1.472 4.874,2.12 0.915,0.892 1.677,3.065 -1.029,5.91 -0.668,0.677 -2.049,1.409 -2.49,1.698 -1.303,0.876 -2.741,1.562 -4.086,2.17 -1.952,0.816 -5.128,1.613 -6.934,1.795 -5.903,0.675 -8.209,-0.403 -9.834,-1.658 m 82.545,-25.552 c 1.489,-0.183 2.779,0.894 2.699,1.899 -0.281,2.935 -4.929,7.937 -10.141,9.473 -0.587,0.162 -1.459,0.603 -1.986,0.684 -1.482,0.204 -3.002,-1.227 -3.007,-1.696 0.07,-2.345 2.619,-4.626 4.507,-6.172 2.316,-1.917 5.391,-3.883 7.928,-4.188 m -204.137,14.566 c 0.144,-1.236 2.428,-2.068 4.075,-2.007 5.722,0.328 12.855,4.214 15.073,6.669 2.764,3.078 1.704,5.833 -1.955,6.12 -1.676,0.141 -5.32,-0.781 -6.905,-1.348 -4.929,-1.709 -7.516,-4.086 -8.276,-4.936 -1.656,-1.897 -2.069,-4.05 -2.012,-4.498 m 73.924,18.032 c -4.466,-3.72 0.592,-8.33 11.094,-8.31 6.99,0.02 13.503,2.282 13.279,5.713 -0.154,2.069 -3.531,4.04 -6.147,4.591 -0.194,0.02 -0.313,0.398 -0.541,0.459 -2.152,0.488 -4.675,0.635 -7.394,0.492 -5.236,-0.224 -8.382,-1.403 -10.291,-2.945 m 144.718,-25.741 c -1.168,2.133 -3.617,3.57 -5.173,3.937 -2.274,0.531 -2.026,-0.554 -1.594,-1.457 1.826,-3.889 8.986,-6.63 6.767,-2.48 m -236.964,10.829 c 0.066,0.672 -1.091,0.8 -1.568,0.841 -0.968,0.121 -1.96,0.033 -4.494,-1.31 -1.745,-0.898 -3.325,-2.132 -3.971,-2.999 -5.847,-7.742 9.392,-2.433 10.033,3.468 m 173.189,3.338 c 0.475,-0.243 1.073,-0.6 1.674,-0.865 9.451,-4.044 14.257,-0.887 9.426,3.973 -1.492,1.499 -2.652,2.095 -4.031,2.808 -2.663,1.324 -4.797,2.021 -7.202,2.305 -3.169,0.388 -4.244,-0.113 -4.908,-0.777 -0.183,-0.15 -0.552,-0.315 -0.683,-0.548 -1.259,-2.125 2.388,-5.291 5.724,-6.896 m -117.719,6.163 c 7.597,0.696 13.764,4.37 13.43,7.277 -0.167,1.493 -3.607,2.775 -6.446,2.673 -1.525,-0.061 -4.638,-0.816 -4.929,-0.897 -3.547,-0.874 -5.558,-2.009 -7.074,-3.27 -4.845,-4.05 0.18,-6.229 5.019,-5.783 m 76.897,4.626 c 6.505,-0.65 10.283,0.868 9.876,3.244 -0.364,2.07 -3.294,3.623 -4.856,4.171 -2.502,0.873 -5.139,1.35 -8.052,1.35 -3.739,0 -5.034,-0.629 -6.259,-1.456 -0.643,-0.43 -1.297,-0.976 -1.335,-1.635 -0.183,-2.874 5.035,-5.103 10.626,-5.674 m 70.916,-7.633 c -1.258,2.311 -5.34,4.549 -8.316,5.016 -3.036,0.51 -3.987,-0.037 -3.145,-1.902 2.31,-5.056 14.133,-8.095 11.461,-3.114 m -176.502,8.164 c -0.04,0.581 -1.378,0.704 -1.928,0.764 -1.121,0.123 -2.24,0.057 -4.946,-1.064 -1.859,-0.772 -3.506,-1.817 -4.124,-2.566 -5.648,-6.705 11.217,-2.244 10.998,2.866 m 63.525,6.169 c 2.235,0.386 5.186,1.727 5.829,2.517 1.861,2.306 -1.645,4.871 -8.384,4.302 -0.745,-0.082 -1.704,0.008 -2.423,-0.134 -2.012,-0.366 -5.397,-2.168 -5.752,-2.571 -1.75,-2.015 0.172,-2.966 1.753,-3.573 1.962,-0.755 5.199,-1.193 8.977,-0.541 m 69.231,-2.119 c 3.21,-0.345 5.516,0.802 4.135,2.947 -0.782,1.226 -3.836,2.899 -5.882,3.387 -1.316,0.306 -2.146,0.292 -3.571,0.374 -3.506,0.163 -4.424,-0.713 -4.329,-1.725 0.245,-2.556 5.622,-4.555 9.647,-4.983 m -111.392,3.269 c 2.47,0.651 5.339,2.383 5.265,3.812 -0.055,0.678 -1.439,0.862 -2.166,0.984 -1.303,0.162 -1.776,0.218 -4.35,-0.555 -2.484,-0.774 -3.711,-1.69 -4.363,-2.718 -1.316,-2.134 2.45,-2.316 5.614,-1.523 m 73.367,8.715 c -0.414,1.69 -4.594,2.772 -8.19,2.549 -3.625,-0.204 -5.141,-0.89 -5.129,-2.312 0.074,-3.834 14.154,-3.866 13.319,-0.237 m -50.946,2.713 c 0.162,0.58 0.748,1.393 4.008,1.984 2.266,0.407 5.083,0.277 5.086,-0.988 -0.028,-2.453 -9.744,-3.492 -9.094,-0.996"
           style="fill:#231f20;fill-opacity:1;fill-rule:nonzero;stroke:none"
           id="path2554"
           inkscape:connector-curvature="0" /></g></g></g></svg>