<?xml version="1.0" encoding="iso-8859-1"?>
<!-- Generator: Adobe Illustrator 19.0.0, SVG Export Plug-In . SVG Version: 6.00 Build 0)  -->
<svg version="1.1" id="Layer_1" xmlns="http://www.w3.org/2000/svg" xmlns:xlink="http://www.w3.org/1999/xlink" x="0px" y="0px"
	 viewBox="0 0 512.139 512.139" style="enable-background:new 0 0 512.139 512.139;" xml:space="preserve">
<g>
	<g>
		<g>
			<path d="M388.312,103.566c-101.555-59.247-223.386-58.667-283.401,1.34c-65.613,65.613-34.867,194.415,36.454,265.745
				c1.672,1.664,3.857,2.5,6.033,2.5c2.185,0,4.369-0.836,6.033-2.5c3.337-3.337,3.337-8.73,0-12.066
				c-72.764-72.764-90.138-187.93-36.454-241.613c53.803-53.794,169.225-53.222,262.733,1.34c4.079,2.372,9.301,0.998,11.674-3.072
				C393.756,111.169,392.374,105.947,388.312,103.566z"/>
			<path d="M222.048,382.333c-0.93,4.617,2.074,9.114,6.69,10.035c8.909,1.783,18.039,2.645,27.196,2.645
				c37.359,0,75.204-14.327,99.977-39.108c37.726-37.726,40.252-116.634-21.461-178.338c-11.025-11.025-33.229-21.291-51.644-23.876
				c-4.796-0.674-8.986,2.594-9.643,7.262c-0.657,4.668,2.586,8.986,7.253,9.634c15.949,2.244,34.577,11.657,41.967,19.046
				c42.419,42.411,61.158,114.5,21.461,154.206c-26.564,26.564-72.542,39.663-111.761,31.804
				C227.475,374.721,222.961,377.708,222.048,382.333z"/>
			<path d="M275.578,219.372c16.41,16.401,23.1,32.06,23.1,54.025c0,4.71,3.814,8.533,8.533,8.533s8.533-3.823,8.533-8.533
				c0-26.283-8.67-46.66-28.1-66.091c-14.601-14.592-34.202-21.461-55.202-19.422c-21.333,2.116-41.182,13.329-51.797,29.252
				c-2.62,3.925-1.562,9.224,2.364,11.836s9.225,1.553,11.836-2.364c7.74-11.614,23.159-20.139,39.287-21.734
				C249.944,203.287,264.664,208.458,275.578,219.372z"/>
			<path d="M120.374,397.258c-2.108,4.215-0.393,9.335,3.823,11.452c46.251,23.117,105.89,36.975,160.367,36.975
				c49.997,0,95.65-11.682,122.547-38.579c65.613-65.613,34.867-194.415-36.454-265.745c-3.336-3.336-8.738-3.336-12.066,0
				c-3.336,3.337-3.336,8.73,0,12.066c72.764,72.764,90.138,187.93,36.454,241.613c-49.613,49.596-179.883,40.073-263.219-1.604
				C127.61,391.336,122.498,393.042,120.374,397.258z"/>
			<path d="M283.283,119.643c-44.51-8.909-96.794,6.084-127.172,36.463c-37.726,37.726-40.252,116.634,21.461,178.338
				c10.931,10.94,34.159,21.658,51.763,23.893c0.367,0.051,0.725,0.068,1.084,0.068c4.233,0,7.91-3.149,8.457-7.458
				c0.597-4.676-2.714-8.943-7.39-9.54c-14.959-1.903-34.432-11.614-41.847-19.029c-42.419-42.411-61.158-114.5-21.461-154.206
				c26.573-26.564,72.525-39.629,111.761-31.804c4.617,0.896,9.114-2.065,10.035-6.69
				C290.904,125.062,287.9,120.565,283.283,119.643z"/>
			<path d="M469.344,34.139h8.533v8.533c0,4.71,3.814,8.533,8.533,8.533c4.719,0,8.533-3.823,8.533-8.533v-8.533h8.533
				c4.719,0,8.533-3.823,8.533-8.533s-3.814-8.533-8.533-8.533h-8.533V8.539c0-4.71-3.814-8.533-8.533-8.533
				c-4.719,0-8.533,3.823-8.533,8.533v8.533h-8.533c-4.719,0-8.533,3.823-8.533,8.533S464.625,34.139,469.344,34.139z"/>
			<path d="M76.76,41.537c77.67-50.15,260.233-20.361,361.728,59.059c1.553,1.22,3.413,1.809,5.248,1.809
				c2.534,0,5.052-1.126,6.724-3.277c2.91-3.712,2.253-9.071-1.459-11.981C342.761,4.033,150.223-26.243,67.492,27.201
				c-3.959,2.56-5.086,7.842-2.534,11.802C67.518,42.962,72.783,44.097,76.76,41.537z"/>
			<path d="M280.869,327.643c16.512,0,31.65-5.146,40.909-14.404c3.336-3.337,3.336-8.73,0-12.066c-3.337-3.337-8.73-3.337-12.066,0
				c-12.732,12.723-49.937,14.797-73.267-8.533c-14.669-14.669-14.635-26.965-14.575-49.271l0.009-4.429
				c0-4.719-3.814-8.533-8.533-8.533s-8.533,3.814-8.533,8.533l-0.009,4.378c-0.068,23.296-0.119,41.702,19.576,61.389
				C240.216,320.552,261.489,327.643,280.869,327.643z"/>
			<path d="M469.6,119.472h-0.085c-4.71,0-8.491,3.823-8.491,8.533c0,4.71,3.866,8.533,8.576,8.533c4.71,0,8.533-3.823,8.533-8.533
				C478.134,123.295,474.311,119.472,469.6,119.472z"/>
			<path d="M188,42.672c0-4.71-3.823-8.533-8.533-8.533h-0.085c-4.71,0-8.491,3.823-8.491,8.533s3.866,8.533,8.576,8.533
				S188,47.383,188,42.672z"/>
			<path d="M452.534,426.672h-0.085c-4.71,0-8.491,3.823-8.491,8.533c0,4.71,3.866,8.533,8.576,8.533
				c4.71,0,8.533-3.823,8.533-8.533C461.067,430.495,457.244,426.672,452.534,426.672z"/>
			<path d="M94.134,494.939h-0.085c-4.71,0-8.491,3.823-8.491,8.533s3.866,8.533,8.576,8.533c4.71,0,8.533-3.823,8.533-8.533
				S98.844,494.939,94.134,494.939z"/>
			<path d="M509.536,326.022c-8.439-74.539-36.309-143.701-78.455-194.756c-3.004-3.627-8.371-4.147-12.023-1.143
				c-3.627,2.995-4.147,8.371-1.143,12.006c90.701,109.85,91.793,277.24,52.727,339.755c-2.5,3.994-1.28,9.259,2.714,11.759
				c1.408,0.879,2.97,1.297,4.514,1.297c2.842,0,5.623-1.425,7.245-4.011C507.958,454.371,517.097,392.718,509.536,326.022z"/>
			<path d="M431.021,473.128c-78.217,46.49-258.645,15.343-357.495-61.722c-3.721-2.91-9.088-2.236-11.981,1.485
				c-2.893,3.721-2.236,9.079,1.485,11.981c70.682,55.1,177.911,87.262,266.436,87.262c43.435,0,82.381-7.748,110.268-24.329
				c4.053-2.406,5.385-7.646,2.978-11.699C440.314,472.053,435.057,470.738,431.021,473.128z"/>
			<path d="M81.359,381.232c1.69,2.039,4.13,3.098,6.588,3.098c1.903,0,3.84-0.649,5.427-1.963c3.627-3.004,4.139-8.38,1.135-12.015
				C3.492,260.349,2.264,92.72,41.38,30.128c2.5-3.994,1.28-9.259-2.714-11.759c-3.994-2.5-9.267-1.28-11.759,2.714
				C4.073,57.623-4.998,119.387,2.673,186.305C11.215,261.006,39.17,330.229,81.359,381.232z"/>
			<path d="M8.8,460.806H8.715c-4.71,0-8.491,3.823-8.491,8.533s3.866,8.533,8.576,8.533s8.533-3.823,8.533-8.533
				S13.511,460.806,8.8,460.806z"/>
			<path d="M34.144,358.406c0-4.71-3.814-8.533-8.533-8.533s-8.533,3.823-8.533,8.533c-4.719,0-8.533,3.823-8.533,8.533
				c0,4.71,3.814,8.533,8.533,8.533c0,4.71,3.814,8.533,8.533,8.533s8.533-3.823,8.533-8.533c4.719,0,8.533-3.823,8.533-8.533
				C42.678,362.229,38.863,358.406,34.144,358.406z"/>
		</g>
	</g>
</g>
<g>
</g>
<g>
</g>
<g>
</g>
<g>
</g>
<g>
</g>
<g>
</g>
<g>
</g>
<g>
</g>
<g>
</g>
<g>
</g>
<g>
</g>
<g>
</g>
<g>
</g>
<g>
</g>
<g>
</g>
</svg>
