<?xml version="1.0" encoding="UTF-8" standalone="no"?>
<!-- Created with Inkscape (http://www.inkscape.org/) -->

<svg
   xmlns:dc="http://purl.org/dc/elements/1.1/"
   xmlns:cc="http://creativecommons.org/ns#"
   xmlns:rdf="http://www.w3.org/1999/02/22-rdf-syntax-ns#"
   xmlns:svg="http://www.w3.org/2000/svg"
   xmlns="http://www.w3.org/2000/svg"
   xmlns:sodipodi="http://sodipodi.sourceforge.net/DTD/sodipodi-0.dtd"
   xmlns:inkscape="http://www.inkscape.org/namespaces/inkscape"
   version="1.1"
   id="svg815"
   xml:space="preserve"
   width="800"
   height="800"
   viewBox="0 0 800 800"
   sodipodi:docname="aries-clipart-publicdomainvectors.org.svg"
   inkscape:version="0.92.4 (5da689c313, 2019-01-14)"><metadata
     id="metadata821"><rdf:RDF><cc:Work
         rdf:about=""><dc:format>image/svg+xml</dc:format><dc:type
           rdf:resource="http://purl.org/dc/dcmitype/StillImage" /><dc:title></dc:title></cc:Work></rdf:RDF></metadata><defs
     id="defs819"><clipPath
       clipPathUnits="userSpaceOnUse"
       id="clipPath831"><path
         d="M 0,600 H 600 V 0 H 0 Z"
         id="path829"
         inkscape:connector-curvature="0" /></clipPath></defs><sodipodi:namedview
     pagecolor="#ffffff"
     bordercolor="#666666"
     borderopacity="1"
     objecttolerance="10"
     gridtolerance="10"
     guidetolerance="10"
     inkscape:pageopacity="0"
     inkscape:pageshadow="2"
     inkscape:window-width="1920"
     inkscape:window-height="1018"
     id="namedview817"
     showgrid="false"
     inkscape:zoom="1.06125"
     inkscape:cx="400"
     inkscape:cy="400"
     inkscape:window-x="-8"
     inkscape:window-y="-8"
     inkscape:window-maximized="1"
     inkscape:current-layer="g823" /><g
     id="g823"
     inkscape:groupmode="layer"
     inkscape:label="aries-clipart-publicdomainvectors.org"
     transform="matrix(1.3333333,0,0,-1.3333333,0,800)"><g
       id="g825"><g
         id="g827"
         clip-path="url(#clipPath831)"><path
           d="m 467.717,333.598 c -1.887,0.128 -2.895,0.195 -2.895,0.195 0,0 0.992,0.173 2.848,0.496 1.848,0.359 4.543,0.901 7.879,1.817 3.334,0.915 7.279,2.324 11.535,4.317 4.217,2.076 8.717,4.848 12.904,8.585 2.08,1.878 4.067,4.01 5.866,6.382 1.826,2.348 3.515,4.913 4.898,7.725 2.814,5.591 4.508,12.057 4.891,18.78 0.38,6.731 -0.723,13.728 -3.241,20.277 -2.552,6.534 -6.5,12.625 -11.65,17.583 -1.283,1.24 -2.611,2.442 -4.029,3.539 -0.709,0.58 -1.393,1.062 -2.075,1.561 -0.642,0.47 -1.726,1.172 -2.314,1.556 -3.096,1.962 -6.313,3.695 -9.625,5.169 -3.344,1.394 -6.729,2.624 -10.178,3.539 -3.459,0.854 -6.929,1.5 -10.392,1.892 -3.467,0.321 -6.901,0.429 -10.276,0.339 -3.365,-0.164 -6.67,-0.484 -9.842,-1.09 -6.328,-1.247 -12.248,-3.103 -17.367,-5.619 -5.107,-2.523 -9.564,-5.401 -13.146,-8.446 -3.551,-3.069 -6.395,-6.12 -8.426,-8.888 -0.553,-0.666 -0.977,-1.357 -1.416,-1.989 -0.428,-0.636 -0.887,-1.213 -1.215,-1.791 -0.676,-1.152 -1.318,-2.111 -1.74,-2.957 -0.875,-1.673 -1.342,-2.566 -1.342,-2.566 0,0 0.25,0.976 0.719,2.805 0.551,1.797 1.404,4.514 3.025,7.712 1.59,3.219 3.901,7.014 7.26,10.833 3.336,3.825 7.654,7.743 12.998,11.126 5.313,3.421 11.619,6.369 18.67,8.288 7.039,1.921 14.797,2.998 22.848,2.623 4.019,-0.195 8.099,-0.709 12.172,-1.562 4.056,-0.907 8.111,-2.108 12.068,-3.683 3.93,-1.628 7.775,-3.554 11.459,-5.787 1.084,-0.697 1.683,-1.071 2.668,-1.755 0.941,-0.664 1.89,-1.334 2.736,-2.011 1.752,-1.338 3.414,-2.805 5.02,-4.332 6.369,-6.159 11.342,-13.831 14.24,-22.075 2.959,-8.228 3.889,-16.974 2.969,-25.19 -0.907,-8.228 -3.688,-15.906 -7.666,-22.27 -1.963,-3.2 -4.211,-6.085 -6.631,-8.617 -2.445,-2.51 -5.037,-4.678 -7.666,-6.518 -2.631,-1.836 -5.285,-3.366 -7.903,-4.584 -2.626,-1.202 -5.187,-2.133 -7.611,-2.88 -4.865,-1.47 -9.215,-2.099 -12.777,-2.381 -3.559,-0.327 -6.362,-0.176 -8.25,-0.148 m -42.875,67.848 10.984,-7.223 c -0.908,-1.513 -1.722,-3.082 -2.422,-4.705 -1.924,-4.43 -2.961,-9.184 -3.125,-14.005 l -15.299,1.084 c 0.852,6.737 2.958,13.309 6.18,19.095 1.104,2.001 2.338,3.921 3.682,5.754 m 105.597,-4.492 -0.251,1.661 34.871,3.939 0.123,-1.675 z m -28.343,45.109 -1.399,0.93 23.701,32.85 1.323,-1.034 z m -15.782,7.481 -1.605,0.492 13.918,39.958 1.562,-0.613 z m -18.093,2.967 -1.676,0.101 4.246,43.871 1.664,-0.223 z m -21.035,-0.796 -3.959,45.617 1.677,0.084 3.948,-45.495 z m -36.692,-13.923 -23.383,43.302 1.502,0.743 23.33,-43.193 z m -13.291,-10.73 -34.732,37.24 1.267,1.099 34.653,-37.151 z m -8.605,-12.63 -46.084,25.433 0.865,1.439 45.976,-25.374 z m -3.233,-13.222 -53.844,7.37 0.288,1.654 53.724,-7.354 z m 180.227,-5.943 c -0.307,11.372 -2.524,22.573 -6.547,33.327 l -33.865,-13.943 -0.7,1.526 33.983,13.992 c -0.016,0.04 -0.027,0.08 -0.043,0.12 -3.254,8.364 -7.551,16.263 -12.731,23.515 l -30.281,-23.671 -1.086,1.283 30.366,23.737 c -8.379,11.353 -18.932,21.061 -31.071,28.353 -4.955,2.986 -10.191,5.596 -15.562,7.759 -0.748,0.284 -5.119,0.941 -7.731,1.333 -3.176,0.478 -4.523,0.688 -5.064,0.851 -0.522,0.132 -1.629,0.591 -3.696,1.458 -2.957,1.238 -7.423,3.109 -9.378,3.423 -1.586,0.257 -3.413,-0.092 -5.395,-0.449 -1.887,-0.339 -3.869,-0.688 -5.646,-0.539 -2.106,0.178 -3.895,0.828 -5.625,1.457 -1.756,0.639 -3.416,1.242 -5.217,1.242 -3.453,-0.011 -6.774,-0.978 -10.291,-2.003 -2.51,-0.73 -5.106,-1.485 -7.727,-1.851 -1.308,-0.184 -2.703,-0.268 -4.387,-0.268 -1.101,0 -2.199,0.035 -3.293,0.072 -1.048,0.035 -2.093,0.069 -3.13,0.069 -2.336,0 -4.079,-0.188 -5.649,-0.608 -2.125,-0.569 -4.174,-1.867 -6.34,-3.24 -1.834,-1.16 -3.728,-2.359 -5.72,-3.11 -1.94,-0.73 -3.856,-0.904 -5.711,-1.073 -1.885,-0.173 -3.666,-0.335 -5.227,-1.086 -3.125,-1.498 -5.658,-3.947 -8.338,-6.538 -2.154,-2.082 -4.379,-4.236 -6.988,-5.918 -2.209,-1.425 -4.764,-2.222 -7.234,-2.993 -2.696,-0.838 -5.239,-1.631 -7.065,-3.13 -2.828,-2.321 -4.256,-5.351 -5.771,-8.56 -1.108,-2.346 -2.252,-4.77 -3.987,-6.941 -0.904,-1.077 -2.363,-2.05 -4.052,-3.176 -2.748,-1.834 -6.17,-4.115 -8.141,-7.413 -1.391,-2.331 -2.094,-5.715 -2.836,-9.299 -0.793,-3.835 -1.615,-7.802 -3.4,-11.11 -1.496,-2.775 -3.866,-4.59 -6.153,-6.345 -2.017,-1.547 -3.922,-3.008 -4.888,-4.933 -4.782,-9.514 -7.983,-16.715 -8.559,-19.26 -2.496,-10.666 13.547,-18 19.941,-19.928 5.832,-1.759 12.623,-2.689 19.629,-2.689 15.125,0 29.401,4.326 34.711,10.522 1.744,2.031 2.453,4.186 2.112,6.405 -0.139,0.878 -0.309,1.735 -0.504,2.546 l -1.084,4.419 c -0.487,2.467 -1.049,6.203 -0.483,11.016 0.649,5.842 2.84,11.709 6.518,17.429 4.75,7.408 12.146,14.361 20.816,19.573 3.155,1.916 6.477,3.611 9.928,5.082 l -13.096,45.542 1.627,0.406 13.032,-45.306 c 7.417,2.983 15.39,4.933 23.57,5.721 6.902,0.669 13.947,0.514 20.75,-0.46 l 2.369,-0.352 6.021,-1.294 c 0.584,-0.145 1.168,-0.293 1.741,-0.476 3.271,-0.945 6.541,-2.176 9.67,-3.648 13.066,-6.11 24.445,-17.253 31.218,-30.569 5.727,-11.088 8.188,-23.405 7.182,-35.027 l 32.297,-6.187 -0.377,-1.637 -32.08,6.147 c -0.338,-2.902 -0.889,-5.756 -1.67,-8.527 -0.719,-2.618 -1.643,-5.166 -2.75,-7.643 l 26.392,-15.056 -0.888,-1.425 -26.221,14.957 c -1.947,-4.022 -4.396,-7.844 -7.359,-11.416 -0.783,-0.945 -1.629,-1.874 -2.502,-2.793 l 18.588,-20.921 -1.297,-1.066 -18.457,20.775 c -1.408,-1.408 -2.91,-2.782 -4.506,-4.109 l 0.344,-0.143 -0.797,-0.766 v 0.002 l -0.344,-0.027 -0.146,-0.005 -2.813,-1.994 c -0.775,-0.569 -1.547,-1.107 -2.072,-1.414 l -2.168,-1.438 -1.988,-1.143 10.857,-23.294 -1.549,-0.653 -10.793,23.144 c -5.582,-2.966 -11.135,-4.817 -16.582,-5.535 l 1.111,-23.494 -1.681,-0.015 -1.102,23.31 c -0.965,-0.087 -1.929,-0.144 -2.888,-0.159 l -0.77,-0.008 c -4.502,0 -9.076,0.81 -13.523,2.358 l -8.362,-19.937 -1.523,0.708 8.31,19.818 c -1.962,0.766 -3.898,1.662 -5.783,2.716 -3.416,1.909 -6.683,4.282 -9.664,6.971 l -13.953,-13.973 c 3.654,-3.982 7.756,-7.578 12.295,-10.744 9.449,-6.59 20.766,-10.703 31.861,-11.58 11.065,-0.956 23.074,1.21 34.41,6.133 l 3.993,1.819 4.048,2.165 c 1.055,0.557 1.766,0.984 2.475,1.411 l 4.553,2.823 c 5.017,3.334 9.611,7.045 13.658,11.031 8.664,8.512 15.52,18.918 19.824,30.095 4.297,10.949 6.406,23.307 6.1,35.747 M 445.105,341.492 431.266,327.631 c -3.016,3.444 -5.723,7.15 -8.061,11.134 -1.523,2.627 -2.65,4.82 -3.564,6.957 -0.416,0.881 -0.787,1.851 -1.149,2.789 l -0.326,0.845 c -0.039,0.098 -0.068,0.206 -0.105,0.307 l 16.16,6.753 c 0.082,-0.187 0.16,-0.381 0.256,-0.549 l 0.369,-0.731 c 0.281,-0.57 0.568,-1.142 0.869,-1.631 0.971,-1.793 2.142,-3.488 3.06,-4.768 1.846,-2.57 3.991,-5 6.33,-7.245 m -11.57,16.458 -15.982,-6.679 -1.504,5.37 c -0.303,1.286 -0.504,2.391 -0.733,3.756 -0.394,2.352 -0.64,4.862 -0.73,7.467 -0.09,2.35 -0.016,4.713 0.207,7.063 l 15.453,-1.096 c 0.016,-1.616 0.119,-3.236 0.338,-4.851 0.256,-1.932 0.602,-3.677 1.049,-5.325 0.23,-0.865 0.512,-1.849 0.773,-2.598 l 1.024,-2.867 z m 3.192,37.69 -10.85,7.136 c 3.705,4.728 8.176,8.819 13.24,12.017 1.797,1.14 3.647,2.152 5.531,3.036 l 5.077,-9.792 c -1.411,-0.829 -2.778,-1.749 -4.075,-2.76 -3.5,-2.703 -6.507,-5.976 -8.923,-9.637 m 14.468,13.208 -5.002,9.651 c 5.084,2.173 10.403,3.436 15.703,3.655 0.551,0.024 1.098,0.036 1.645,0.036 2.014,0 4.018,-0.181 5.994,-0.496 l -1.281,-8.849 c -1.867,0.102 -3.756,0.045 -5.635,-0.212 -3.857,-0.533 -7.765,-1.848 -11.424,-3.785 m 39.149,1.924 c 0.318,-0.339 0.605,-0.692 0.904,-1.038 l -5.338,-4.3 c -0.109,0.101 -0.217,0.211 -0.326,0.308 l -2.385,1.932 -0.008,-0.011 -0.711,0.475 c -1.121,0.752 -2.289,1.419 -3.455,1.974 -2.808,1.372 -5.904,2.232 -9.095,2.591 l 1.261,8.708 c 4.166,-0.853 8.139,-2.393 11.616,-4.538 1.398,-0.841 2.765,-1.804 4.052,-2.855 l 1.045,-0.857 z m 7.51,-24.897 -4.622,0.874 c 0.02,0.385 0.036,0.769 0.039,1.153 0.026,2.667 -0.347,6.451 -2.095,10.301 l 3.701,-2.489 -5.365,5.504 c -0.694,1.05 -1.522,2.079 -2.405,3.025 l 5.202,4.19 c 1.271,-1.66 2.359,-3.413 3.259,-5.322 2.795,-5.975 2.911,-11.737 2.514,-15.517 -0.062,-0.577 -0.141,-1.149 -0.228,-1.719 m -4.752,-0.81 4.449,-0.842 c -0.615,-2.974 -1.612,-5.817 -2.987,-8.49 -1.449,-2.846 -3.296,-5.398 -5.341,-7.378 -2.008,-1.944 -3.811,-2.914 -4.743,-3.336 -0.201,-0.097 -0.382,-0.172 -0.56,-0.242 l -0.772,2.217 -0.002,0.065 c 0.096,0.052 0.196,0.11 0.301,0.173 0.864,0.502 2.198,1.457 3.67,3.17 1.135,1.33 2.762,3.611 4.059,6.907 0.986,2.44 1.638,5.079 1.926,7.756 m -285.174,37.13 c -3.582,3.045 -8.039,5.923 -13.144,8.447 -5.118,2.515 -11.041,4.371 -17.367,5.618 -3.175,0.606 -6.479,0.926 -9.845,1.09 -3.373,0.09 -6.808,-0.018 -10.273,-0.339 -3.463,-0.392 -6.935,-1.038 -10.394,-1.892 -3.448,-0.915 -6.835,-2.145 -10.178,-3.539 -3.311,-1.474 -6.53,-3.207 -9.627,-5.169 -0.586,-0.384 -1.67,-1.086 -2.313,-1.556 -0.681,-0.498 -1.365,-0.98 -2.074,-1.561 -1.416,-1.097 -2.746,-2.298 -4.029,-3.539 -5.15,-4.958 -9.098,-11.048 -11.651,-17.582 -2.517,-6.55 -3.62,-13.547 -3.24,-20.278 0.383,-6.723 2.078,-13.189 4.891,-18.78 1.384,-2.812 3.072,-5.377 4.898,-7.725 1.801,-2.372 3.784,-4.504 5.867,-6.382 4.186,-3.737 8.686,-6.509 12.901,-8.585 4.258,-1.993 8.203,-3.402 11.537,-4.317 3.334,-0.916 6.033,-1.458 7.879,-1.817 1.857,-0.323 2.848,-0.496 2.848,-0.496 0,0 -1.008,-0.067 -2.897,-0.195 -1.887,-0.028 -4.688,-0.179 -8.248,0.148 -3.561,0.282 -7.912,0.911 -12.775,2.381 -2.428,0.747 -4.986,1.678 -7.613,2.88 -2.618,1.218 -5.272,2.748 -7.903,4.584 -2.629,1.84 -5.219,4.008 -7.666,6.518 -2.419,2.532 -4.668,5.417 -6.629,8.617 -3.98,6.364 -6.761,14.042 -7.667,22.27 -0.92,8.216 0.009,16.962 2.968,25.19 2.898,8.244 7.87,15.916 14.24,22.075 1.605,1.528 3.267,2.994 5.02,4.332 0.845,0.677 1.795,1.347 2.736,2.011 0.985,0.684 1.582,1.058 2.668,1.756 3.685,2.232 7.529,4.158 11.459,5.786 3.957,1.575 8.012,2.776 12.07,3.683 4.072,0.853 8.151,1.367 12.17,1.562 8.049,0.375 15.809,-0.702 22.849,-2.623 7.051,-1.919 13.358,-4.867 18.668,-8.288 5.346,-3.383 9.663,-7.301 13.001,-11.125 3.359,-3.82 5.668,-7.615 7.257,-10.834 1.622,-3.198 2.477,-5.915 3.026,-7.712 0.469,-1.829 0.72,-2.805 0.72,-2.805 0,0 -0.468,0.893 -1.343,2.566 -0.422,0.846 -1.064,1.805 -1.74,2.957 -0.328,0.578 -0.788,1.155 -1.215,1.791 -0.438,0.632 -0.863,1.323 -1.414,1.989 -2.034,2.768 -4.876,5.819 -8.428,8.888 m -3.287,-47.268 c 0.225,-2.351 0.298,-4.717 0.207,-7.069 -0.09,-2.604 -0.336,-5.114 -0.729,-7.463 -0.218,-1.313 -0.426,-2.454 -0.73,-3.742 l -0.889,-3.533 -0.592,-1.86 -16.01,6.691 0.151,0.343 0.978,2.749 c 0.266,0.764 0.545,1.746 0.774,2.603 0.451,1.66 0.795,3.405 1.051,5.332 0.218,1.616 0.322,3.237 0.337,4.853 z m -150.262,27.627 34.869,-3.939 -0.252,-1.661 -34.741,3.925 z m 39.337,72.255 1.323,1.034 23.7,-32.85 -1.399,-0.93 z m 27.093,15.185 13.919,-39.958 -1.606,-0.492 -13.876,39.837 z m 27.836,6.489 4.246,-43.871 -1.676,-0.101 -4.235,43.749 z m 25.889,0.933 1.675,-0.084 -3.959,-45.617 -1.664,0.206 z m 56.288,-15.579 1.505,-0.743 -23.385,-43.302 -1.447,0.852 z m 24.876,-16.436 1.269,-1.099 -34.734,-37.24 -1.186,1.188 z m 20.359,-24.097 0.865,-1.439 -46.084,-25.433 -0.757,1.498 z m 11.57,-31.07 0.289,-1.654 -53.845,-7.37 -0.168,1.67 z M 163.443,333.368 c -1.884,-1.053 -3.819,-1.949 -5.782,-2.715 l 8.312,-19.818 -1.524,-0.708 -8.361,19.937 c -4.447,-1.547 -9.022,-2.358 -13.525,-2.358 l -0.776,0.008 c -0.956,0.015 -1.918,0.072 -2.882,0.158 l -1.102,-23.309 -1.682,0.015 1.112,23.494 c -5.451,0.718 -11.008,2.571 -16.58,5.535 l -10.792,-23.144 -1.548,0.653 10.863,23.294 -1.883,1.084 -2.33,1.551 c -0.445,0.257 -0.922,0.799 -1.705,1.373 l -2.457,1.981 v 0.002 c 0,0.123 -0.58,0.254 -0.691,0.387 l -0.329,0.165 c -1.771,1.448 -3.489,2.955 -5.038,4.501 l -18.494,-20.782 -1.311,1.066 18.581,20.923 c -0.871,0.919 -1.719,1.847 -2.503,2.79 -2.962,3.572 -5.413,7.394 -7.362,11.418 l -26.225,-14.958 -0.888,1.425 26.394,15.057 c -1.107,2.48 -2.033,5.031 -2.751,7.653 -0.781,2.768 -1.332,5.617 -1.669,8.516 l -32.081,-6.147 -0.379,1.637 32.299,6.188 c -1.005,11.616 1.456,23.937 7.186,35.036 6.769,13.307 18.148,24.45 31.216,30.561 3.129,1.471 6.399,2.702 9.715,3.66 0.525,0.169 1.11,0.317 1.693,0.462 l 2.926,0.673 5.442,0.97 c 6.835,0.978 13.864,1.134 20.773,0.462 8.177,-0.787 16.151,-2.737 23.57,-5.72 l 13.029,45.306 1.63,-0.406 -13.098,-45.542 c 3.453,-1.472 6.777,-3.168 9.935,-5.084 8.665,-5.21 16.057,-12.163 20.811,-19.572 3.674,-5.716 5.867,-11.583 6.518,-17.439 0.564,-4.805 0.004,-8.539 -0.468,-10.93 l -1.073,-4.391 c -0.227,-0.934 -0.397,-1.792 -0.53,-2.65 -0.342,-2.218 0.369,-4.373 2.11,-6.404 5.312,-6.196 19.586,-10.522 34.711,-10.522 7.009,0 13.796,0.93 19.631,2.689 6.392,1.927 22.435,9.262 19.944,19.917 -0.58,2.556 -3.78,9.757 -8.562,19.271 -0.966,1.925 -2.871,3.386 -4.888,4.933 -2.29,1.755 -4.657,3.57 -6.153,6.345 -1.787,3.308 -2.608,7.274 -3.402,11.109 -0.743,3.584 -1.444,6.969 -2.836,9.3 -1.969,3.297 -5.391,5.579 -8.139,7.412 -1.689,1.127 -3.148,2.1 -4.027,3.146 -1.76,2.201 -2.905,4.626 -4.012,6.972 -1.515,3.208 -2.945,6.239 -5.772,8.56 -1.827,1.499 -4.37,2.292 -7.064,3.13 -2.471,0.771 -5.027,1.568 -7.236,2.993 -2.608,1.682 -4.834,3.836 -6.988,5.918 -2.682,2.591 -5.212,5.039 -8.336,6.536 -1.563,0.753 -3.344,0.915 -5.229,1.088 -1.854,0.169 -3.772,0.343 -5.709,1.073 -1.994,0.751 -3.888,1.95 -5.72,3.11 -2.169,1.373 -4.217,2.671 -6.342,3.24 -1.569,0.42 -3.311,0.608 -5.649,0.608 -1.035,0 -2.08,-0.034 -3.128,-0.069 -1.095,-0.037 -2.194,-0.072 -3.293,-0.072 -1.685,0 -3.081,0.084 -4.388,0.268 -2.623,0.366 -5.218,1.121 -7.728,1.851 -3.515,1.025 -6.836,1.992 -10.258,2.003 -1.832,0 -3.492,-0.603 -5.25,-1.242 -1.73,-0.629 -3.519,-1.279 -5.624,-1.457 -1.78,-0.145 -3.76,0.199 -5.647,0.539 -1.98,0.357 -3.811,0.706 -5.395,0.449 -1.953,-0.314 -6.421,-2.185 -9.376,-3.422 -2.069,-0.868 -3.176,-1.327 -3.768,-1.478 -0.471,-0.144 -1.818,-0.354 -4.992,-0.831 -2.612,-0.393 -6.985,-1.05 -7.718,-1.327 -5.386,-2.17 -10.622,-4.78 -15.575,-7.764 -12.14,-7.293 -22.694,-17.003 -31.072,-28.355 l 30.365,-23.737 -1.085,-1.283 -30.281,23.671 c -5.179,-7.25 -9.477,-15.147 -12.729,-23.509 -0.016,-0.041 -0.03,-0.084 -0.046,-0.126 l 33.983,-13.992 -0.699,-1.526 -33.866,13.943 c -4.025,-10.76 -6.241,-21.958 -6.549,-33.331 -0.304,-12.436 1.805,-24.794 6.098,-35.732 4.309,-11.188 11.163,-21.594 19.824,-30.104 4.047,-3.986 8.642,-7.698 13.658,-11.031 l 1.203,-0.804 h 0.001 l 3.359,-2.025 c 0.709,-0.425 1.417,-0.852 2.463,-1.406 l 4.149,-2.211 3.925,-1.786 c 11.306,-4.909 23.385,-7.069 34.371,-6.122 11.109,0.878 22.424,4.991 31.873,11.581 4.537,3.165 8.64,6.761 12.293,10.744 l -13.95,13.974 c -2.982,-2.691 -6.25,-5.064 -9.666,-6.973 m 30.116,69.407 -10.85,-7.135 c -2.414,3.661 -5.422,6.933 -8.917,9.633 -1.301,1.013 -2.668,1.934 -4.081,2.764 l 5.077,9.792 c 1.886,-0.884 3.737,-1.897 5.534,-3.038 5.061,-3.196 9.531,-7.286 13.237,-12.016 m -56.604,5.363 -0.709,-0.475 -0.009,0.011 -2.367,-1.917 c -0.116,-0.101 -0.227,-0.221 -0.34,-0.326 l -5.342,4.304 c 0.295,0.342 0.578,0.69 0.891,1.025 l 0.874,0.916 2.615,2.336 c 1.295,1.056 2.662,2.019 4.079,2.871 3.474,2.145 7.431,3.664 11.601,4.517 l 1.258,-8.695 c -3.19,-0.359 -6.283,-1.219 -9.08,-2.586 -1.181,-0.562 -2.348,-1.229 -3.471,-1.981 m 20.59,14.016 c 5.297,-0.219 10.615,-1.482 15.699,-3.656 l -5.002,-9.65 c -3.658,1.938 -7.568,3.252 -11.426,3.785 -1.877,0.258 -3.765,0.316 -5.634,0.213 l -1.281,8.857 c 2.501,0.397 5.064,0.565 7.644,0.451 m 27.67,-65.738 16.16,-6.752 c -0.041,-0.111 -0.07,-0.221 -0.117,-0.333 l -0.324,-0.84 c -0.372,-0.974 -0.725,-1.894 -1.16,-2.823 -0.895,-2.088 -2.02,-4.281 -3.536,-6.895 -2.342,-3.989 -5.05,-7.697 -8.068,-11.143 l -13.838,13.862 c 2.34,2.245 4.487,4.677 6.336,7.249 0.913,1.28 2.086,2.978 3.01,4.689 0.348,0.57 0.637,1.147 0.924,1.726 l 0.342,0.677 c 0.107,0.195 0.185,0.389 0.271,0.583 m -55.848,43.906 c -2.704,-4.554 -3.234,-9.268 -3.202,-12.42 0.003,-0.384 0.019,-0.768 0.039,-1.153 l -4.621,-0.873 c -0.089,0.569 -0.167,1.14 -0.228,1.717 -0.397,3.779 -0.283,9.54 2.511,15.514 0.902,1.914 1.992,3.67 3.261,5.327 l 5.203,-4.191 c -1.14,-1.221 -2.18,-2.581 -2.963,-3.921 m -4.499,-24.581 c -1.372,2.665 -2.368,5.508 -2.983,8.482 l 4.449,0.842 c 0.289,-2.677 0.939,-5.313 1.92,-7.741 1.307,-3.314 2.933,-5.593 4.07,-6.927 1.465,-1.706 2.801,-2.663 3.645,-3.153 0.113,-0.069 0.22,-0.128 0.321,-0.185 l -0.003,-0.066 -0.771,-2.215 c -0.184,0.073 -0.377,0.153 -0.594,0.257 -0.896,0.406 -2.699,1.376 -4.709,3.319 -2.045,1.98 -3.891,4.532 -5.345,7.387 m 61.166,13.772 c -0.7,1.625 -1.516,3.196 -2.424,4.71 l 10.984,7.223 c 1.346,-1.834 2.582,-3.756 3.687,-5.76 3.219,-5.781 5.324,-12.352 6.175,-19.089 l -15.299,-1.084 c -0.163,4.821 -1.201,9.574 -3.123,14 m 150.193,-240.667 -10.42,-10.793 0.097,-5.096 -14.42,-7.176 -14.833,7.668 -0.141,5.799 -9.655,9.848 c 3.198,-0.096 6.585,-0.352 10.103,-0.416 3.281,-0.045 6.671,-0.35 10.116,-0.35 h 0.727 v 0.404 c 2,-0.017 5.742,-0.035 8.758,-0.05 0.402,-0.002 0.681,-0.006 1.084,-0.008 3.5,0.019 6.937,0.039 10.384,0.056 2.805,0.002 5.496,0.065 8.2,0.114 m 34.332,197.403 c -0.788,-0.118 -1.676,-0.469 -2.715,-0.728 -1.035,-0.243 -2.168,-0.74 -3.418,-1.148 -0.629,-0.192 -1.246,-0.508 -1.897,-0.787 -0.644,-0.3 -1.336,-0.536 -2.006,-0.881 -0.068,-0.036 -0.136,-0.071 -0.205,-0.106 -1.275,-0.662 -2.619,-1.325 -3.929,-2.154 -1.44,-0.775 -2.75,-1.845 -4.176,-2.781 -1.313,-1.087 -2.715,-2.112 -3.914,-3.361 -1.319,-1.128 -2.416,-2.465 -3.572,-3.715 -0.518,-0.674 -1.02,-1.35 -1.541,-2.002 -0.252,-0.333 -0.528,-0.648 -0.758,-0.988 -0.221,-0.348 -0.44,-0.692 -0.657,-1.035 -0.437,-0.686 -0.865,-1.361 -1.285,-2.022 -0.367,-0.692 -0.724,-1.371 -1.076,-2.03 -0.174,-0.332 -0.347,-0.659 -0.519,-0.98 -0.161,-0.328 -0.272,-0.668 -0.418,-0.99 -0.28,-0.652 -0.549,-1.282 -0.807,-1.886 -0.006,-0.013 -0.01,-0.026 -0.016,-0.038 -0.277,-0.586 -0.445,-1.18 -0.625,-1.742 -0.189,-0.575 -0.367,-1.12 -0.537,-1.631 -0.373,-1.023 -0.552,-1.949 -0.734,-2.709 -0.365,-1.524 -0.604,-2.408 -0.604,-2.408 0,0 -0.015,0.896 0.012,2.488 0.022,0.794 -0.006,1.774 0.203,2.865 0.082,0.552 0.166,1.139 0.258,1.758 0.063,0.447 0.148,0.911 0.262,1.379 0.045,0.184 0.08,0.368 0.138,0.553 0.397,1.313 0.665,2.815 1.342,4.253 0.303,0.737 0.615,1.493 0.932,2.267 0.355,0.756 0.807,1.484 1.219,2.25 0.213,0.381 0.427,0.764 0.642,1.15 0.227,0.38 0.496,0.735 0.746,1.108 0.506,0.738 1.02,1.489 1.575,2.216 1.21,1.371 2.371,2.833 3.761,4.07 1.321,1.314 2.84,2.39 4.272,3.521 1.529,0.996 3.029,1.987 4.593,2.74 1.506,0.862 3.092,1.425 4.557,2.018 0.221,0.076 0.438,0.147 0.656,0.22 1.258,0.419 2.469,0.783 3.616,1.032 1.353,0.269 2.566,0.562 3.701,0.629 1.115,0.098 2.08,0.24 2.865,0.196 1.578,-0.018 2.484,-0.056 2.484,-0.056 0,0 -0.88,-0.212 -2.425,-0.535 m -7.024,-62.784 c 1.154,-0.004 2.311,-0.012 3.463,0.094 1.156,0.068 2.315,0.134 3.465,0.296 1.156,0.118 2.312,0.27 3.457,0.495 1.154,0.183 2.299,0.41 3.441,0.671 1.147,0.241 2.295,0.483 3.424,0.809 1.133,0.313 2.283,0.584 3.395,0.963 1.119,0.363 2.254,0.689 3.369,1.09 l 3.363,1.152 -3.174,-1.603 c -1.058,-0.53 -2.17,-0.961 -3.258,-1.45 -1.087,-0.498 -2.21,-0.89 -3.326,-1.322 -1.105,-0.447 -2.244,-0.812 -3.383,-1.178 -1.132,-0.4 -2.294,-0.693 -3.462,-0.976 -1.159,-0.318 -2.336,-0.563 -3.524,-0.774 -1.18,-0.253 -2.375,-0.425 -3.58,-0.548 -1.197,-0.174 -2.408,-0.233 -3.619,-0.293 -1.211,-0.1 -2.424,-0.049 -3.641,-0.043 -1.218,-0.03 -2.427,0.14 -3.642,0.228 -1.215,0.092 -2.408,0.34 -3.615,0.506 -1.202,0.203 -2.381,0.502 -3.575,0.75 -1.175,0.311 -2.343,0.652 -3.515,0.988 l -3.428,1.235 -3.348,1.414 -0.939,0.453 c -0.217,-4.565 -0.475,-9.127 -0.707,-13.69 -0.34,-5.406 -0.651,-10.812 -1.049,-16.214 -0.379,-5.405 -0.811,-10.805 -1.273,-16.204 -0.547,-5.394 -0.981,-10.796 -1.637,-16.185 -0.139,5.428 -0.053,10.846 -0.078,16.267 0.052,5.418 0.138,10.836 0.279,16.25 0.119,5.417 0.326,10.829 0.504,16.241 0.246,5.41 0.437,10.822 0.726,16.23 l 0.135,2.561 2.317,-1.147 3.111,-1.537 3.176,-1.383 3.238,-1.205 3.289,-1.031 c 1.115,-0.268 2.223,-0.59 3.348,-0.816 1.131,-0.19 2.252,-0.465 3.392,-0.586 1.141,-0.11 2.278,-0.328 3.428,-0.366 1.15,-0.066 2.297,-0.177 3.453,-0.142 m -76.56,-59.336 c -0.656,5.389 -1.09,10.791 -1.635,16.185 -0.465,5.399 -0.896,10.799 -1.274,16.204 -0.399,5.402 -0.71,10.808 -1.05,16.214 -0.231,4.563 -0.489,9.125 -0.707,13.69 l -0.94,-0.453 -3.347,-1.414 -3.428,-1.235 c -1.17,-0.336 -2.338,-0.677 -3.513,-0.988 -1.194,-0.248 -2.374,-0.547 -3.575,-0.75 -1.207,-0.166 -2.402,-0.414 -3.617,-0.506 -1.215,-0.088 -2.422,-0.258 -3.641,-0.228 -1.217,-0.006 -2.431,-0.057 -3.642,0.043 -1.211,0.06 -2.422,0.121 -3.62,0.293 -1.203,0.123 -2.398,0.296 -3.579,0.548 -1.186,0.211 -2.364,0.456 -3.524,0.774 -1.166,0.283 -2.33,0.576 -3.461,0.976 -1.14,0.366 -2.277,0.731 -3.386,1.178 -1.114,0.432 -2.237,0.824 -3.323,1.322 -1.088,0.489 -2.201,0.92 -3.258,1.45 l -3.175,1.603 3.363,-1.152 c 1.117,-0.401 2.25,-0.727 3.369,-1.09 1.113,-0.379 2.263,-0.65 3.395,-0.963 1.13,-0.326 2.279,-0.568 3.425,-0.809 1.141,-0.261 2.287,-0.488 3.44,-0.671 1.145,-0.225 2.3,-0.377 3.455,-0.495 1.152,-0.162 2.311,-0.228 3.467,-0.296 1.152,-0.106 2.308,-0.098 3.463,-0.094 1.155,-0.035 2.304,0.076 3.453,0.142 1.15,0.038 2.286,0.256 3.428,0.366 1.142,0.121 2.263,0.396 3.394,0.586 1.123,0.226 2.231,0.548 3.346,0.816 l 3.29,1.031 3.237,1.205 3.176,1.383 3.111,1.537 2.318,1.147 0.135,-2.561 c 0.289,-5.408 0.48,-10.82 0.723,-16.23 0.179,-5.412 0.387,-10.824 0.507,-16.241 0.141,-5.414 0.227,-10.832 0.28,-16.25 -0.026,-5.421 0.059,-10.839 -0.08,-16.267 m -29.364,118.576 c -0.669,0.345 -1.361,0.581 -2.005,0.881 -0.651,0.279 -1.27,0.595 -1.898,0.787 -1.249,0.408 -2.381,0.905 -3.417,1.148 -1.039,0.259 -1.927,0.61 -2.714,0.728 -1.546,0.323 -2.426,0.535 -2.426,0.535 0,0 0.904,0.038 2.482,0.056 0.787,0.044 1.752,-0.098 2.867,-0.196 1.133,-0.067 2.346,-0.36 3.702,-0.629 1.345,-0.292 2.773,-0.738 4.271,-1.252 1.464,-0.593 3.051,-1.156 4.557,-2.018 0.097,-0.046 0.191,-0.101 0.288,-0.149 1.46,-0.734 2.871,-1.656 4.305,-2.591 1.43,-1.131 2.951,-2.207 4.27,-3.521 1.393,-1.237 2.554,-2.699 3.763,-4.07 0.555,-0.727 1.067,-1.478 1.576,-2.216 0.249,-0.373 0.518,-0.728 0.745,-1.108 0.216,-0.386 0.43,-0.769 0.642,-1.15 0.413,-0.766 0.864,-1.494 1.219,-2.25 0.318,-0.774 0.629,-1.53 0.93,-2.267 0.68,-1.438 0.947,-2.94 1.345,-4.253 0.057,-0.185 0.093,-0.369 0.137,-0.553 0.113,-0.468 0.2,-0.932 0.262,-1.379 0.091,-0.619 0.177,-1.206 0.256,-1.758 0.211,-1.091 0.183,-2.071 0.205,-2.865 0.027,-1.592 0.012,-2.488 0.012,-2.488 0,0 -0.239,0.884 -0.604,2.408 -0.182,0.76 -0.363,1.686 -0.735,2.709 -0.169,0.511 -0.349,1.056 -0.537,1.631 -0.179,0.562 -0.349,1.156 -0.625,1.742 -0.006,0.012 -0.009,0.025 -0.015,0.038 -0.258,0.604 -0.527,1.234 -0.806,1.886 -0.147,0.322 -0.259,0.662 -0.419,0.99 -0.171,0.321 -0.344,0.648 -0.521,0.98 -0.349,0.659 -0.709,1.338 -1.074,2.03 -0.42,0.661 -0.848,1.336 -1.285,2.022 -0.217,0.343 -0.436,0.687 -0.657,1.035 -0.232,0.34 -0.505,0.655 -0.757,0.988 -0.522,0.652 -1.024,1.328 -1.542,2.002 -1.156,1.25 -2.254,2.587 -3.572,3.715 -1.199,1.249 -2.601,2.274 -3.916,3.361 -0.891,0.586 -1.74,1.218 -2.602,1.804 -0.515,0.35 -1.033,0.687 -1.571,0.977 -1.382,0.873 -2.801,1.562 -4.136,2.26 m 155.61,62.997 -20.239,-8.417 c 0.118,-1.526 0.334,-2.842 0.553,-3.952 l 1.039,-4.243 c 0.246,-1.008 0.436,-1.958 0.588,-2.931 0.494,-3.201 -0.506,-6.359 -2.889,-9.137 -5.341,-6.23 -17.794,-10.63 -31.955,-11.528 -1.755,-0.111 -3.535,-0.177 -5.332,-0.177 -7.334,0 -14.463,0.978 -20.611,2.832 -9.004,2.715 -25.244,11.069 -22.266,23.796 0.096,0.431 0.254,1.385 0.446,1.385 h -5.672 c 0.193,0 0.351,-0.961 0.449,-1.396 2.973,-12.717 -13.268,-21.142 -22.271,-23.857 -6.149,-1.853 -13.275,-2.796 -20.611,-2.796 -0.379,0 -0.754,0.032 -1.132,0.038 -15.855,0.212 -30.29,4.855 -36.155,11.694 -2.382,2.778 -3.381,5.941 -2.887,9.137 0.146,0.952 0.335,1.906 0.558,2.83 l 1.086,4.428 c 0.258,1.324 0.52,2.988 0.598,4.985 l -17.895,7.308 c 8.096,-48.505 25.333,-57.079 25.333,-57.079 l -0.004,-0.005 -5.01,-9.584 -9.281,-17.754 c 0,0 1.767,-2.758 5.48,0.052 5.43,4.111 16.189,11.132 24.215,6.754 6.08,-3.316 11.798,-9.912 15.008,-15.556 -0.532,0.426 -1.063,0.856 -1.629,1.262 -3.079,2.279 -6.621,4.273 -10.318,5.802 -3.7,1.528 -7.593,2.533 -11.294,2.906 -3.707,0.342 -7.199,0.05 -10.009,-0.791 -1.41,-0.379 -2.641,-0.918 -3.682,-1.439 -1.035,-0.543 -1.894,-1.071 -2.555,-1.584 -0.684,-0.473 -1.137,-0.913 -1.464,-1.204 -0.325,-0.29 -0.497,-0.445 -0.497,-0.445 0,0 0.204,0.112 0.584,0.321 0.381,0.207 0.938,0.54 1.68,0.829 0.716,0.33 1.64,0.639 2.697,0.911 1.064,0.254 2.269,0.479 3.596,0.522 2.641,0.163 5.707,-0.304 8.779,-1.326 3.075,-1.057 6.152,-2.674 8.937,-4.671 2.78,-1.998 5.296,-4.316 7.317,-6.711 1.033,-1.176 1.914,-2.397 2.713,-3.55 0.343,-0.51 0.653,-1.009 0.951,-1.502 -7.752,-0.558 -20.603,-0.122 -27.171,0.165 -0.222,0.093 -0.446,0.188 -0.659,0.3 -0.824,0.489 -1.738,0.956 -2.521,1.603 -0.852,0.579 -1.579,1.314 -2.348,2.008 -0.693,0.754 -1.42,1.484 -2.015,2.273 -0.633,0.76 -1.178,1.542 -1.694,2.268 -1.008,1.48 -1.795,2.768 -2.394,3.698 -0.285,0.461 -0.534,0.791 -0.703,1.024 -0.169,0.23 -0.258,0.353 -0.258,0.353 0,0 0.015,-0.152 0.045,-0.437 0.03,-0.285 0.079,-0.706 0.091,-1.234 0.045,-1.03 0.078,-2.573 0.211,-4.44 0.084,-0.939 0.168,-1.966 0.348,-3.062 0.134,-1.105 0.42,-2.26 0.693,-3.492 0.365,-1.201 0.705,-2.494 1.274,-3.758 0.439,-1.194 1.081,-2.339 1.734,-3.517 l -6.094,-9.933 0.752,-21.184 c 0,-3.676 24.004,-10.842 29.07,-25.215 13.037,-36.982 18.282,-79.345 27.742,-79.345 l 8.214,-8.489 c 3.875,0.129 8.07,-0.004 12.471,0.076 3.281,0.045 6.671,-0.191 10.116,-0.191 h 0.727 v 0.68 c 1,0.008 1.959,0.013 3.064,0.019 l -0.945,21.559 -2.543,1.414 -12.89,7.182 -16.342,9.146 h 29.173 3.45 5.55 27.071 l -16.315,-9.146 -10.756,-6.057 -4.148,-2.328 -1.272,-21.785 c 1.801,0.009 3.606,0.027 5.42,0.037 0.401,0.002 0.801,0.01 1.203,0.012 3.5,-0.018 7,-0.036 10.444,-0.053 3.445,-0.002 6.836,-0.102 10.117,-0.145 0.352,-0.006 0.695,-0.013 1.041,-0.019 l 7.809,8.088 c 9.459,0 14.275,42.363 27.31,79.345 5.069,14.373 29.072,21.539 29.072,25.215 l 0.752,21.184 -7.38,12.037 c 0.226,0.467 0.441,0.935 0.619,1.413 0.564,1.264 0.906,2.556 1.271,3.758 0.274,1.232 0.561,2.387 0.694,3.491 0.179,1.097 0.261,2.124 0.345,3.063 0.133,1.867 0.166,3.41 0.211,4.44 0.014,0.528 0.065,0.949 0.094,1.234 0.029,0.285 0.045,0.437 0.045,0.437 0,0 -0.09,-0.124 -0.258,-0.354 -0.17,-0.233 -0.42,-0.564 -0.703,-1.026 -0.6,-0.929 -1.387,-2.219 -2.395,-3.698 -0.515,-0.726 -1.062,-1.513 -1.695,-2.272 -0.592,-0.789 -1.318,-1.527 -2.014,-2.282 -0.769,-0.694 -1.496,-1.443 -2.349,-2.022 -0.781,-0.648 -1.696,-1.146 -2.52,-1.634 -0.22,-0.115 -0.449,-0.229 -0.677,-0.34 -7.854,-0.306 -20.737,-0.633 -27.184,0.169 0.258,0.419 0.514,0.838 0.803,1.269 0.798,1.153 1.681,2.374 2.713,3.55 2.021,2.395 4.539,4.713 7.318,6.711 2.783,1.997 5.861,3.614 8.935,4.671 3.075,1.022 6.139,1.489 8.78,1.326 1.328,-0.043 2.533,-0.268 3.597,-0.522 1.055,-0.272 1.981,-0.581 2.698,-0.911 0.74,-0.289 1.297,-0.622 1.677,-0.829 0.381,-0.209 0.586,-0.321 0.586,-0.321 0,0 -0.172,0.155 -0.498,0.445 -0.326,0.291 -0.779,0.731 -1.465,1.204 -0.66,0.513 -1.517,1.041 -2.552,1.584 -1.043,0.521 -2.274,1.06 -3.684,1.439 -2.808,0.841 -6.301,1.133 -10.008,0.791 -3.701,-0.373 -7.593,-1.378 -11.295,-2.906 -2.517,-1.042 -4.951,-2.311 -7.226,-3.726 3.312,4.725 7.982,9.541 12.892,12.218 8.024,4.378 18.803,-2.643 24.233,-6.754 3.713,-2.81 5.523,-0.052 5.523,-0.052 l -10.287,19.792 -3.84,7.388 -0.084,0.163 c 0,0 28.477,28.232 24.235,57.08"
           style="fill:#000000;fill-opacity:1;fill-rule:nonzero;stroke:none"
           id="path833"
           inkscape:connector-curvature="0" /></g></g></g></svg>