<?xml version="1.0"?>
<svg xmlns:rdf="http://www.w3.org/1999/02/22-rdf-syntax-ns#" xmlns="http://www.w3.org/2000/svg" xmlns:cc="http://web.resource.org/cc/" xmlns:dc="http://purl.org/dc/elements/1.1/" xmlns:svg="http://www.w3.org/2000/svg" id="svg18586" viewBox="0 0 212.6 212.6" version="1.0">
  <g id="layer1" transform="translate(17.728 7.9865)">
    <g id="g18889">
      <path id="path18671" d="m162.86 76.884a104.29 104.29 0 1 1 -208.57 0 104.29 104.29 0 1 1 208.57 0z" fill="#fff" transform="matrix(1.0193 0 0 1.0193 28.869 19.944)"/>
      <symbol id="symbol18404" fill-rule="evenodd" transform="matrix(.18633 0 0 .18633 -2727.2 -629.38)">
        <path id="path18383" class="fil0" fill="#fff" d="m13816 8478.1c299 0 543 244 543 543.1s-244 543.1-543 543.1c-300 0-544-244-544-543.1s244-543.1 544-543.1z"/>
        <path id="path18385" class="fil1" fill="#f00" d="m13816 8450.7c314 0 570 256.3 570 570.5s-256 570.5-570 570.5c-315 0-571-256.3-571-570.5s256-570.5 571-570.5zm-14 577.4c18 0 35 6 48 16.1-12-10.1-27-17.1-44-19.9-50-8.3-98 26.2-107 76.7v4.8c-48-18.7-79-69.3-70-122.2l30-183.5 208 22.4c4 0.4 8-4.3 8-10.6 1-6.2-2-11.7-6-12.2l-206-22.2 2-13.8 208 22.4c4 0.4 8-4.3 9-10.6 0-6.2-3-11.7-7-12.2l-206-22.2 3-19.8 207 22.3c4 0.5 8-4.3 9-10.5 0-6.3-3-11.8-7-12.2l-205-22.2 3-18.8 208 22.5c4 0.4 8-4.3 9-10.6s-2-11.8-6-12.2l-208-22.4 4-20.9c25-153.6 343-111.9 316 51.9l-57 347.3c-6 36.8-30 66.5-61 81.9 0-11.7-2-23-6-33.5 3 7.7 4 15.9 4 24.4 0 37.3-25 68.8-60 77.7v284c0 17.4-12 31.7-26 31.7h-35c-15 0-26-14.3-26-31.7v-317.9c-8-12.6-13-27.6-13-43.8 0-44.2 36-80.2 80-80.2z"/>
      </symbol>
      <g id="g18408" fill-rule="evenodd" transform="matrix(.18633 0 0 .18633 -2727.2 -629.38)">
        <path id="path18396" class="fil1" fill="#f00" d="m15112 3335c315 0 571 256.3 571 570.5s-256 570.5-571 570.5c-314 0-570-256.3-570-570.5s256-570.5 570-570.5zm-308 778.7l-84-482.2 530-147.1 59 448.1 262 117.6 4 27.7-516 206.3-10-3.3-245-167.1zm123 22.6l420-161.4 44 18.8-424 167.7-40-25.1zm-159-471l471-137.6 47 359.8h-5l-446 144.8-67-367zm99 430.2l420-147.4 35 15.6-415 156.9-40-25.1zm122 83.2l430-172.5 45 18.8-436 178.8-39-25.1z"/>
      </g>
    </g>
  </g>
  <metadata>
    <rdf:RDF>
      <cc:Work>
        <dc:format>image/svg+xml</dc:format>
        <dc:type rdf:resource="http://purl.org/dc/dcmitype/StillImage"/>
        <cc:license rdf:resource="http://creativecommons.org/licenses/publicdomain/"/>
        <dc:publisher>
          <cc:Agent rdf:about="http://openclipart.org/">
            <dc:title>Openclipart</dc:title>
          </cc:Agent>
        </dc:publisher>
        <dc:title>icon laptop</dc:title>
        <dc:date>2007-04-18T02:51:05</dc:date>
        <dc:description>simple red circular icon with white simplified laptop</dc:description>
        <dc:source>http://openclipart.org/detail/3988/icon-laptop-by-jportugall</dc:source>
        <dc:creator>
          <cc:Agent>
            <dc:title>JPortugall</dc:title>
          </cc:Agent>
        </dc:creator>
        <dc:subject>
          <rdf:Bag>
            <rdf:li>clip art</rdf:li>
            <rdf:li>clipart</rdf:li>
            <rdf:li>computer</rdf:li>
            <rdf:li>event</rdf:li>
            <rdf:li>icon</rdf:li>
            <rdf:li>image</rdf:li>
            <rdf:li>laptop</rdf:li>
            <rdf:li>media</rdf:li>
            <rdf:li>organization</rdf:li>
            <rdf:li>public domain</rdf:li>
            <rdf:li>svg</rdf:li>
          </rdf:Bag>
        </dc:subject>
      </cc:Work>
      <cc:License rdf:about="http://creativecommons.org/licenses/publicdomain/">
        <cc:permits rdf:resource="http://creativecommons.org/ns#Reproduction"/>
        <cc:permits rdf:resource="http://creativecommons.org/ns#Distribution"/>
        <cc:permits rdf:resource="http://creativecommons.org/ns#DerivativeWorks"/>
      </cc:License>
    </rdf:RDF>
  </metadata>
</svg>
