<?xml version="1.0" encoding="UTF-8" standalone="no"?>
<!-- Created with Inkscape (http://www.inkscape.org/) -->

<svg
   xmlns:dc="http://purl.org/dc/elements/1.1/"
   xmlns:cc="http://creativecommons.org/ns#"
   xmlns:rdf="http://www.w3.org/1999/02/22-rdf-syntax-ns#"
   xmlns:svg="http://www.w3.org/2000/svg"
   xmlns="http://www.w3.org/2000/svg"
   xmlns:xlink="http://www.w3.org/1999/xlink"
   xmlns:sodipodi="http://sodipodi.sourceforge.net/DTD/sodipodi-0.dtd"
   xmlns:inkscape="http://www.inkscape.org/namespaces/inkscape"
   width="750"
   height="700"
   id="svg27786"
   version="1.1"
   inkscape:version="0.48.1 r9760"
   sodipodi:docname="Tài liệu mới 29">
  <defs
     id="defs27788">
    <linearGradient
       inkscape:collect="always"
       xlink:href="#linearGradient3949"
       id="linearGradient8485"
       x1="376"
       y1="238.56845"
       x2="394.98282"
       y2="282.81845"
       gradientUnits="userSpaceOnUse"
       gradientTransform="matrix(1.4720704,0,0,1.4720704,50.090086,367.3033)" />
    <linearGradient
       id="linearGradient3949">
      <stop
         style="stop-color:#e6d6ff;stop-opacity:1;"
         offset="0"
         id="stop3951" />
      <stop
         style="stop-color:#800080;stop-opacity:1;"
         offset="1"
         id="stop3953" />
    </linearGradient>
    <linearGradient
       inkscape:collect="always"
       xlink:href="#linearGradient8397"
       id="linearGradient8403"
       x1="281.90714"
       y1="256.8284"
       x2="299.37762"
       y2="301.02258"
       gradientUnits="userSpaceOnUse"
       gradientTransform="matrix(1.4720704,0,0,1.4720704,50.090086,367.3033)" />
    <linearGradient
       id="linearGradient8397">
      <stop
         style="stop-color:#000000;stop-opacity:1;"
         offset="0"
         id="stop8399" />
      <stop
         style="stop-color:#8f0078;stop-opacity:1;"
         offset="1"
         id="stop8401" />
    </linearGradient>
    <linearGradient
       inkscape:collect="always"
       xlink:href="#linearGradient3949"
       id="linearGradient8395"
       x1="313.4516"
       y1="242.37137"
       x2="322.09839"
       y2="287.62619"
       gradientUnits="userSpaceOnUse"
       gradientTransform="matrix(1.4720704,0,0,1.4720704,50.090086,367.3033)" />
    <linearGradient
       id="linearGradient27516">
      <stop
         style="stop-color:#e6d6ff;stop-opacity:1;"
         offset="0"
         id="stop27518" />
      <stop
         style="stop-color:#800080;stop-opacity:1;"
         offset="1"
         id="stop27520" />
    </linearGradient>
    <linearGradient
       inkscape:collect="always"
       xlink:href="#linearGradient9996"
       id="linearGradient10091"
       x1="95.5"
       y1="228.58908"
       x2="105.25"
       y2="230.08908"
       gradientUnits="userSpaceOnUse"
       gradientTransform="matrix(1.4720704,0,0,1.4720704,-29.401713,367.30331)" />
    <linearGradient
       id="linearGradient9996">
      <stop
         style="stop-color:#999999;stop-opacity:1;"
         offset="0"
         id="stop9998" />
      <stop
         style="stop-color:#4f4f4c;stop-opacity:1;"
         offset="1"
         id="stop10000" />
    </linearGradient>
    <linearGradient
       inkscape:collect="always"
       xlink:href="#linearGradient9985"
       id="linearGradient10054"
       x1="49.166119"
       y1="214.52904"
       x2="59.573746"
       y2="210.46317"
       gradientUnits="userSpaceOnUse"
       gradientTransform="matrix(1.4720704,0,0,1.4720704,-29.401714,367.3033)" />
    <linearGradient
       id="linearGradient9985">
      <stop
         style="stop-color:#f0f0f0;stop-opacity:1;"
         offset="0"
         id="stop9987" />
      <stop
         style="stop-color:#a9a8a6;stop-opacity:1;"
         offset="1"
         id="stop9989" />
    </linearGradient>
    <linearGradient
       inkscape:collect="always"
       xlink:href="#linearGradient9985"
       id="linearGradient10043"
       x1="64.520775"
       y1="207.22414"
       x2="73.072891"
       y2="207.75446"
       gradientUnits="userSpaceOnUse"
       gradientTransform="matrix(1.4720704,0,0,1.4720704,-29.401714,367.3033)" />
    <linearGradient
       id="linearGradient27531">
      <stop
         style="stop-color:#f0f0f0;stop-opacity:1;"
         offset="0"
         id="stop27533" />
      <stop
         style="stop-color:#a9a8a6;stop-opacity:1;"
         offset="1"
         id="stop27535" />
    </linearGradient>
    <linearGradient
       inkscape:collect="always"
       xlink:href="#linearGradient9985"
       id="linearGradient9991"
       x1="49.313469"
       y1="169.18581"
       x2="58.866638"
       y2="167.94836"
       gradientUnits="userSpaceOnUse"
       gradientTransform="matrix(1.4720704,0,0,1.4720704,-29.401714,367.3033)" />
    <linearGradient
       id="linearGradient27538">
      <stop
         style="stop-color:#f0f0f0;stop-opacity:1;"
         offset="0"
         id="stop27540" />
      <stop
         style="stop-color:#a9a8a6;stop-opacity:1;"
         offset="1"
         id="stop27542" />
    </linearGradient>
    <linearGradient
       inkscape:collect="always"
       xlink:href="#linearGradient9996"
       id="linearGradient10002"
       x1="99.022865"
       y1="183.85828"
       x2="108.33378"
       y2="183.85828"
       gradientUnits="userSpaceOnUse"
       gradientTransform="matrix(1.4720704,0,0,1.4720704,-29.401713,367.30331)" />
    <linearGradient
       id="linearGradient27545">
      <stop
         style="stop-color:#999999;stop-opacity:1;"
         offset="0"
         id="stop27547" />
      <stop
         style="stop-color:#4f4f4c;stop-opacity:1;"
         offset="1"
         id="stop27549" />
    </linearGradient>
    <linearGradient
       inkscape:collect="always"
       xlink:href="#linearGradient3949"
       id="linearGradient8851"
       x1="92.982254"
       y1="178.91933"
       x2="122.47984"
       y2="234.41933"
       gradientUnits="userSpaceOnUse"
       gradientTransform="matrix(1.4720704,0,0,1.4720704,50.090086,367.3033)" />
    <linearGradient
       id="linearGradient27552">
      <stop
         style="stop-color:#e6d6ff;stop-opacity:1;"
         offset="0"
         id="stop27554" />
      <stop
         style="stop-color:#800080;stop-opacity:1;"
         offset="1"
         id="stop27556" />
    </linearGradient>
    <linearGradient
       inkscape:collect="always"
       xlink:href="#linearGradient3949"
       id="linearGradient8467"
       x1="157.33125"
       y1="322.27444"
       x2="202.23254"
       y2="354.44781"
       gradientUnits="userSpaceOnUse"
       gradientTransform="matrix(1.4720704,0,0,1.4720704,50.090086,367.3033)" />
    <linearGradient
       id="linearGradient27559">
      <stop
         style="stop-color:#e6d6ff;stop-opacity:1;"
         offset="0"
         id="stop27561" />
      <stop
         style="stop-color:#800080;stop-opacity:1;"
         offset="1"
         id="stop27563" />
    </linearGradient>
    <radialGradient
       inkscape:collect="always"
       xlink:href="#linearGradient3949"
       id="radialGradient8457"
       cx="201.87199"
       cy="300.13956"
       fx="201.87199"
       fy="300.13956"
       r="32.775345"
       gradientTransform="matrix(1.6311276,0.01241613,-0.00944678,1.2410395,20.460799,436.62309)"
       gradientUnits="userSpaceOnUse" />
    <linearGradient
       id="linearGradient27566">
      <stop
         style="stop-color:#e6d6ff;stop-opacity:1;"
         offset="0"
         id="stop27568" />
      <stop
         style="stop-color:#800080;stop-opacity:1;"
         offset="1"
         id="stop27570" />
    </linearGradient>
    <linearGradient
       inkscape:collect="always"
       xlink:href="#linearGradient3949"
       id="linearGradient8445"
       x1="130.81476"
       y1="346.82123"
       x2="167.5843"
       y2="375.45908"
       gradientUnits="userSpaceOnUse"
       gradientTransform="matrix(1.4720704,0,0,1.4720704,50.090086,367.3033)" />
    <linearGradient
       id="linearGradient27573">
      <stop
         style="stop-color:#e6d6ff;stop-opacity:1;"
         offset="0"
         id="stop27575" />
      <stop
         style="stop-color:#800080;stop-opacity:1;"
         offset="1"
         id="stop27577" />
    </linearGradient>
    <linearGradient
       inkscape:collect="always"
       xlink:href="#linearGradient3949"
       id="linearGradient8434"
       x1="322.83789"
       y1="351.26581"
       x2="370.10477"
       y2="367.17572"
       gradientUnits="userSpaceOnUse"
       gradientTransform="matrix(1.6281321,0,0,1.4720704,2.1578117,367.3033)" />
    <linearGradient
       id="linearGradient27580">
      <stop
         style="stop-color:#e6d6ff;stop-opacity:1;"
         offset="0"
         id="stop27582" />
      <stop
         style="stop-color:#800080;stop-opacity:1;"
         offset="1"
         id="stop27584" />
    </linearGradient>
    <radialGradient
       inkscape:collect="always"
       xlink:href="#linearGradient3949"
       id="radialGradient8424"
       cx="329.3186"
       cy="315.55521"
       fx="329.3186"
       fy="315.55521"
       r="33.372581"
       gradientTransform="matrix(1.9665126,-0.13826093,0.12242813,1.7413194,-151.37177,332.38496)"
       gradientUnits="userSpaceOnUse" />
    <linearGradient
       id="linearGradient27587">
      <stop
         style="stop-color:#e6d6ff;stop-opacity:1;"
         offset="0"
         id="stop27589" />
      <stop
         style="stop-color:#800080;stop-opacity:1;"
         offset="1"
         id="stop27591" />
    </linearGradient>
    <linearGradient
       inkscape:collect="always"
       xlink:href="#linearGradient3949"
       id="linearGradient8414"
       x1="308.6521"
       y1="386.56668"
       x2="359.56381"
       y2="413.43674"
       gradientUnits="userSpaceOnUse"
       gradientTransform="matrix(1.6281321,0,0,1.4720704,2.1578117,367.3033)" />
    <linearGradient
       id="linearGradient27594">
      <stop
         style="stop-color:#e6d6ff;stop-opacity:1;"
         offset="0"
         id="stop27596" />
      <stop
         style="stop-color:#800080;stop-opacity:1;"
         offset="1"
         id="stop27598" />
    </linearGradient>
    <linearGradient
       inkscape:collect="always"
       xlink:href="#linearGradient3949"
       id="linearGradient8355"
       x1="391.92715"
       y1="147.61906"
       x2="372.28732"
       y2="227.16858"
       gradientUnits="userSpaceOnUse"
       gradientTransform="matrix(1.4720704,0,0,1.4720704,50.090086,367.3033)" />
    <linearGradient
       id="linearGradient27601">
      <stop
         style="stop-color:#e6d6ff;stop-opacity:1;"
         offset="0"
         id="stop27603" />
      <stop
         style="stop-color:#800080;stop-opacity:1;"
         offset="1"
         id="stop27605" />
    </linearGradient>
    <linearGradient
       inkscape:collect="always"
       xlink:href="#linearGradient3949"
       id="linearGradient8345"
       x1="263.52109"
       y1="173.1973"
       x2="326.5"
       y2="257.1973"
       gradientUnits="userSpaceOnUse"
       gradientTransform="matrix(1.4720704,0,0,1.4720704,50.090086,367.3033)" />
    <linearGradient
       id="linearGradient27608">
      <stop
         style="stop-color:#e6d6ff;stop-opacity:1;"
         offset="0"
         id="stop27610" />
      <stop
         style="stop-color:#800080;stop-opacity:1;"
         offset="1"
         id="stop27612" />
    </linearGradient>
    <linearGradient
       inkscape:collect="always"
       xlink:href="#linearGradient3949"
       id="linearGradient4025"
       x1="194.73215"
       y1="130.04341"
       x2="313.66071"
       y2="130.04341"
       gradientUnits="userSpaceOnUse"
       gradientTransform="matrix(1.4720704,0,0,1.4720704,50.090086,367.3033)" />
    <linearGradient
       id="linearGradient27615">
      <stop
         style="stop-color:#e6d6ff;stop-opacity:1;"
         offset="0"
         id="stop27617" />
      <stop
         style="stop-color:#800080;stop-opacity:1;"
         offset="1"
         id="stop27619" />
    </linearGradient>
    <filter
       inkscape:collect="always"
       id="filter3996"
       x="-0.16363636"
       width="1.3272727"
       y="-0.16363636"
       height="1.3272727"
       color-interpolation-filters="sRGB">
      <feGaussianBlur
         inkscape:collect="always"
         stdDeviation="0.7061688"
         id="feGaussianBlur3998" />
    </filter>
    <radialGradient
       inkscape:collect="always"
       xlink:href="#linearGradient3949"
       id="radialGradient3955"
       cx="234.35538"
       cy="75.629898"
       fx="234.35538"
       fy="75.629898"
       r="100.51018"
       gradientTransform="matrix(1.4720704,0,0,0.94845401,50.090086,426.93176)"
       gradientUnits="userSpaceOnUse" />
    <linearGradient
       id="linearGradient27624">
      <stop
         style="stop-color:#e6d6ff;stop-opacity:1;"
         offset="0"
         id="stop27626" />
      <stop
         style="stop-color:#800080;stop-opacity:1;"
         offset="1"
         id="stop27628" />
    </linearGradient>
    <linearGradient
       inkscape:collect="always"
       xlink:href="#linearGradient3949"
       id="linearGradient8138"
       x1="157.4017"
       y1="162.89906"
       x2="237.02081"
       y2="270.3793"
       gradientUnits="userSpaceOnUse"
       gradientTransform="matrix(1.4720704,0,0,1.4720704,50.090086,367.3033)" />
    <linearGradient
       id="linearGradient27631">
      <stop
         style="stop-color:#e6d6ff;stop-opacity:1;"
         offset="0"
         id="stop27633" />
      <stop
         style="stop-color:#800080;stop-opacity:1;"
         offset="1"
         id="stop27635" />
    </linearGradient>
    <radialGradient
       inkscape:collect="always"
       xlink:href="#linearGradient3949"
       id="radialGradient8505"
       cx="223.87474"
       cy="163.53804"
       fx="223.87474"
       fy="163.53804"
       r="126.42196"
       gradientTransform="matrix(1.7978266,-0.03167158,0.02328823,1.3219476,-27.596896,418.87424)"
       gradientUnits="userSpaceOnUse" />
    <linearGradient
       id="linearGradient27638">
      <stop
         style="stop-color:#e6d6ff;stop-opacity:1;"
         offset="0"
         id="stop27640" />
      <stop
         style="stop-color:#800080;stop-opacity:1;"
         offset="1"
         id="stop27642" />
    </linearGradient>
    <linearGradient
       inkscape:collect="always"
       xlink:href="#linearGradient3949"
       id="linearGradient8841"
       x1="135.52464"
       y1="155.10242"
       x2="153.4175"
       y2="227.60242"
       gradientUnits="userSpaceOnUse"
       gradientTransform="translate(37.029437,613.2834)" />
    <linearGradient
       id="linearGradient27645">
      <stop
         style="stop-color:#e6d6ff;stop-opacity:1;"
         offset="0"
         id="stop27647" />
      <stop
         style="stop-color:#800080;stop-opacity:1;"
         offset="1"
         id="stop27649" />
    </linearGradient>
    <linearGradient
       y2="227.60242"
       x2="153.4175"
       y1="155.10242"
       x1="135.52464"
       gradientTransform="matrix(1.4720704,0,0,1.4720704,50.090086,367.3033)"
       gradientUnits="userSpaceOnUse"
       id="linearGradient27784"
       xlink:href="#linearGradient3949"
       inkscape:collect="always" />
  </defs>
  <sodipodi:namedview
     id="base"
     pagecolor="#ffffff"
     bordercolor="#666666"
     borderopacity="1.0"
     inkscape:pageopacity="0.0"
     inkscape:pageshadow="2"
     inkscape:zoom="0.35"
     inkscape:cx="375"
     inkscape:cy="350"
     inkscape:document-units="px"
     inkscape:current-layer="layer1"
     showgrid="false"
     inkscape:window-width="669"
     inkscape:window-height="456"
     inkscape:window-x="113"
     inkscape:window-y="20"
     inkscape:window-maximized="0" />
  <metadata
     id="metadata27791">
    <rdf:RDF>
      <cc:Work
         rdf:about="">
        <dc:format>image/svg+xml</dc:format>
        <dc:type
           rdf:resource="http://purl.org/dc/dcmitype/StillImage" />
        <dc:title></dc:title>
      </cc:Work>
    </rdf:RDF>
  </metadata>
  <g
     inkscape:label="Layer 1"
     inkscape:groupmode="layer"
     id="layer1"
     transform="translate(0,-352.36218)">
    <path
       style="fill:url(#linearGradient27784);fill-opacity:1;stroke:none"
       d="m 304.02225,562.14974 c -43.05532,-1.47124 -64.57648,37.05126 -75.07559,63.29903 -14.74078,31.13351 -2.84285,55.96392 16.92881,68.45127 59.09177,1.24333 94.23666,-93.25441 58.14678,-131.7503 z"
       id="path8833"
       inkscape:connector-curvature="0" />
    <path
       style="fill:url(#radialGradient8505);fill-opacity:1;stroke:none;display:inline"
       d="m 310.31785,552.11764 c -51.46732,37.72981 -59.122,167.31088 28.25329,231.97444 63.83643,47.24323 159.23551,46.80027 231.97444,14.12665 89.21664,-40.07524 92.04491,-194.88594 40.89294,-239.40951"
       id="path2991"
       inkscape:connector-curvature="0"
       sodipodi:nodetypes="cssc" />
    <path
       style="fill:url(#linearGradient8138);fill-opacity:1;stroke:none;display:inline"
       d="m 290.03758,571.71821 c -30.51294,53.88632 -24.3814,154.96768 24.28916,195.04933 25.47171,1.96584 50.00065,-0.47482 66.9792,-10.30449 -9.98309,-37.19129 -2.68427,-84.68832 0,-115.55753 -11.14148,-10.77396 -22.75503,-18.64097 -31.64951,-29.44141 -17.22676,-26.13322 -37.023,-34.36594 -59.61885,-39.7459 z"
       id="path4102"
       inkscape:connector-curvature="0"
       sodipodi:nodetypes="cccccc" />
    <path
       style="fill:url(#radialGradient3955);fill-opacity:1;stroke:none"
       d="m 312.54836,549.88712 c 18.92578,-68.46289 82.24022,-100.00534 142.31798,-102.25874 57.73047,-2.16536 147.30602,42.82852 158.30338,111.27633 -35.61803,29.9359 -123.5392,44.304 -166.78995,37.07989 -46.20714,-7.7179 -109.43052,-12.98201 -133.83141,-46.09748 z"
       id="path3916"
       inkscape:connector-curvature="0"
       sodipodi:nodetypes="cscsc" />
    <path
       style="fill:#000000;stroke:#000000;stroke-width:1.47207034px;stroke-linecap:butt;stroke-linejoin:miter;stroke-opacity:1"
       d="m 506.16906,564.51556 c -41.57461,5.42279 -120.95509,0.096 -157.45897,-20.50383 1.04367,-3.82677 4.76483,-13.5877 6.30889,-15.24644 35.23949,11.99224 98.62605,23.44324 147.26533,16.34575 1.87514,5.5742 3.58752,12.56838 3.88475,19.40452 z"
       id="path4000"
       inkscape:connector-curvature="0"
       sodipodi:nodetypes="ccccc" />
    <path
       style="color:#000000;fill:#510433;fill-opacity:1;fill-rule:nonzero;stroke:none;stroke-width:1px;marker:none;visibility:visible;display:inline;overflow:visible;enable-background:accumulate"
       d="m 315.83024,551.63496 c 14.44571,23.37803 88.49214,42.20862 142.23366,41.53341 54.70317,-0.6873 107.45235,-4.14454 152.99017,-34.6988 1.05159,0 7.62319,-0.89376 8.67471,-0.89376 -29.95357,26.82005 -98.10803,40.55182 -146.41844,41.90143 -57.87215,1.61673 -134.6438,-9.40045 -165.60792,-44.68785 1.22672,-0.87624 6.9011,-2.27819 8.12782,-3.15443 z"
       id="path3957"
       inkscape:connector-curvature="0"
       sodipodi:nodetypes="csccscc" />
    <path
       sodipodi:type="arc"
       style="opacity:0.98999999;color:#000000;fill:#ff2c57;fill-opacity:1;fill-rule:nonzero;stroke:none;stroke-width:1;marker:none;visibility:visible;display:inline;overflow:visible;filter:url(#filter3996);enable-background:accumulate"
       id="path3990"
       sodipodi:cx="237.67857"
       sodipodi:cy="125.04075"
       sodipodi:rx="5.1785712"
       sodipodi:ry="5.1785712"
       d="m 242.85714,125.04075 a 5.1785712,5.1785712 0 1 1 -10.35714,0 5.1785712,5.1785712 0 1 1 10.35714,0 z"
       transform="matrix(1.4720704,0,0,1.4720704,50.090086,367.3033)" />
    <path
       style="fill:#510068;fill-opacity:1;stroke:none"
       d="m 345.55567,525.21654 c -6.68391,5.28674 -8.35731,13.27163 -10.12049,21.02959 3.51647,-0.3783 6.77162,-1.38912 10.12049,-1.97153 1.91304,-5.59293 5.75753,-10.65941 8.28039,-15.24644 -2.69727,-1.39904 -5.65079,-2.2892 -8.28039,-3.81162"
       id="path4010"
       inkscape:connector-curvature="0" />
    <path
       style="fill:url(#linearGradient4025);fill-opacity:1;stroke:none;display:inline"
       d="m 507.61484,563.33265 c -41.5418,8.18345 -128.24426,-1.33508 -160.61339,-19.18948 l -10.25191,3.28587 c 26.04142,16.7414 114.00795,33.06293 175.07121,22.60679 z"
       id="path4014"
       inkscape:connector-curvature="0"
       sodipodi:nodetypes="ccccc" />
    <path
       style="color:#000000;fill:#510433;fill-opacity:1;fill-rule:nonzero;stroke:none;stroke-width:1px;marker:none;visibility:visible;display:inline;overflow:visible;enable-background:accumulate"
       d="m 517.99819,570.2987 c -0.22904,0.61428 -0.84719,0.8472 -0.92005,0.92004 -1.16599,0.3225 -2.27184,0.4369 -3.41729,0.65718 -2.48428,-2.7182 -4.99821,-5.83656 -6.70319,-7.75465 1.14116,-0.49204 0.99821,-2.32915 1.18293,-2.76013 1.30437,1.33499 2.59849,2.80507 4.30545,3.94304 -1.27278,-7.71335 -3.62514,-15.61855 -5.52027,-19.84667 1.04051,-1.8149 2.4016,-1.05277 3.71207,-1.44578 3.29442,8.51092 5.8841,17.72261 7.36035,26.28697 z"
       id="path4027"
       inkscape:connector-curvature="0"
       sodipodi:nodetypes="ccccccccc" />
    <path
       style="fill:#c989d9;fill-opacity:1;stroke:none"
       d="m 387.34526,631.97039 c -10.02105,-2.86316 -21.71559,-4.97979 -28.62506,-16.13412 -13.87701,-22.40243 -30.41759,-38.32496 -57.77056,-46.84099 -3.6236,0.86277 -8.25855,3.20178 -13.01138,2.60227 28.1768,8.27431 45.25414,25.57045 61.9342,47.36145 8.56056,11.18361 22.06127,17.4159 30.70687,20.29777 3.15073,-2.24803 4.46345,-4.80678 6.76593,-7.28638 z"
       id="path4043"
       inkscape:connector-curvature="0"
       sodipodi:nodetypes="csccscc" />
    <path
       style="fill:#712f64;fill-opacity:1;stroke:none"
       d="m 368.90831,644.43516 17.91648,-11.94432 c -3.46937,40.51459 -6.66571,82.77696 2.08184,121.26613 -3.17632,0.158 -8.45146,2.19262 -11.72876,2.60228 -14.84075,-38.67488 -15.24733,-79.68143 -8.26956,-111.92409 z"
       id="path4045"
       inkscape:connector-curvature="0"
       sodipodi:nodetypes="ccccc" />
    <path
       style="fill:#ffffff;stroke:none"
       d="m 378.3674,693.64436 c 10.77639,5.73667 27.57078,9.50277 38.90405,5.72501 0.54861,-1.43655 0.31458,-1.74311 0.52045,-3.25283 -11.2131,3.47891 -29.23608,-0.23849 -39.35945,-5.52985 0.18663,1.3445 0.0649,2.19162 -0.0651,3.05767 z"
       id="path8774"
       inkscape:connector-curvature="0"
       sodipodi:nodetypes="ccccc" />
    <path
       style="fill:#ffffff;stroke:none"
       d="m 418.05213,728.77511 c 0.3321,1.24035 0.2049,2.50093 0.26022,3.7733 -11.46622,3.55567 -28.22618,1.58642 -37.47279,-4.42387 -1.19974,-1.16764 -1.28622,-3.14636 -1.43125,-4.81421 10.88496,6.25207 27.80146,11.1441 38.64382,5.46478 z"
       id="path8778"
       inkscape:connector-curvature="0"
       sodipodi:nodetypes="ccccc" />
    <path
       style="color:#000000;fill:#b794a8;fill-opacity:1;fill-rule:nonzero;stroke:none;stroke-width:1px;marker:none;visibility:visible;display:inline;overflow:visible;enable-background:accumulate"
       d="m 420.26406,729.55579 c 0.23763,-1.7559 -0.13013,-5.3181 -0.13013,-6.63581 -13.39613,0.52244 -28.07691,1.76813 -37.73303,-5.85512 -1.67685,2.87216 -2.46928,6.36693 -2.40712,7.48154 11.48605,7.86122 27.1842,9.73615 40.27026,5.00939 z"
       id="path8715"
       inkscape:connector-curvature="0"
       sodipodi:nodetypes="ccccc" />
    <path
       style="fill:#ffffff;stroke:none"
       d="m 379.79865,671.00455 c -0.56154,0.73301 -0.6017,2.04576 -0.65057,2.21193 11.2312,10.127 28.66417,9.88332 40.07507,8.3273 1.7345,-1.75947 1.03311,-1.71077 1.30113,-2.92757 -14.14886,2.36705 -28.77314,0.21082 -40.72563,-7.61166 z"
       id="path8686"
       inkscape:connector-curvature="0"
       sodipodi:nodetypes="ccccc" />
    <path
       style="fill:#ffffff;stroke:none"
       d="m 294.74117,571.59755 c 15.18379,4.51045 25.62944,13.35353 35.87444,24.20119 12.91489,17.63689 31.864,33.59903 50.97848,39.06031 0.38456,3.81623 -9.02692,8.23713 -12.51484,8.72688 -16.39892,-5.42386 -29.19426,-19.11992 -36.90229,-32.43376 -10.13267,-15.84338 -27.05939,-32.99589 -44.96166,-34.62336 -0.87026,-1.20373 5.88703,-4.10677 7.52587,-4.93126 z"
       id="path4109"
       inkscape:connector-curvature="0"
       sodipodi:nodetypes="ccccccc" />
    <path
       style="fill:#3a0150;fill-opacity:1;stroke:none"
       d="m 380.3859,754.80695 c -6.31991,4.41006 -23.93254,10.03789 -30.91348,10.67251 11.82538,0.1744 34.33933,-7.01544 39.19387,-11.77656 -2.6909,0.50776 -5.42493,0.84447 -8.28039,1.10405 z"
       id="path4111"
       inkscape:connector-curvature="0"
       sodipodi:nodetypes="cccc" />
    <path
       style="color:#000000;fill:#510433;fill-opacity:1;fill-rule:nonzero;stroke:none;stroke-width:1px;marker:none;visibility:visible;display:inline;overflow:visible;enable-background:accumulate"
       d="m 617.64022,558.79295 c 7.75716,6.07036 14.80415,15.56049 18.3339,24.70183 -1.59349,0.0602 -5.77393,0.0442 -6.97385,0.21558 -4.13523,-8.29083 -8.91618,-16.22398 -15.84324,-21.92862 1.10405,-0.73604 3.37913,-2.25276 4.48319,-2.98879 z"
       id="path8097"
       inkscape:connector-curvature="0"
       sodipodi:nodetypes="ccccc" />
    <path
       style="fill:none;stroke:#000000;stroke-width:1.47207034px;stroke-linecap:butt;stroke-linejoin:miter;stroke-opacity:1"
       d="m 559.09555,726.69328 c 8.96057,-6.0284 56.79733,-12.91336 67.65923,0"
       id="path8128"
       inkscape:connector-curvature="0"
       sodipodi:nodetypes="cc" />
    <path
       style="fill:none;stroke:#000000;stroke-width:1.47207034px;stroke-linecap:butt;stroke-linejoin:miter;stroke-opacity:1"
       d="m 568.46376,819.33436 c 43.0783,7.93093 77.03261,8.32173 108.25473,-24.98186"
       id="path8130"
       inkscape:connector-curvature="0"
       sodipodi:nodetypes="cc" />
    <path
       style="fill:url(#linearGradient8345);fill-opacity:1;stroke:none"
       d="m 557.95439,777.07203 c -37.53133,10.72322 -88.04035,10.55299 -124.38995,-16.19277 -9.89667,-34.63838 -2.63364,-69.16112 2.94414,-104.517 15.98526,2.95774 34.19525,-0.0684 46.37022,-6.62432 29.1071,-15.67322 53.07364,-27.64329 85.38008,-14.7207 -18.63074,33.37038 -0.51305,65.85058 24.28916,79.4918 -1.15822,33.1585 -28.05623,57.17922 -34.59365,62.56299 z"
       id="path8337"
       inkscape:connector-curvature="0"
       sodipodi:nodetypes="cccsccc" />
    <path
       style="fill:url(#linearGradient8355);fill-opacity:1;stroke:none"
       d="m 563.77966,683.49548 c 15.55442,13.50811 37.41036,29.38329 50.48417,36.95233 13.39494,-3.33661 35.23567,44.43149 56.89096,40.42693 6.83899,-1.2647 19.75058,-34.4002 24.50485,-41.44616 11.87107,-58.53745 -30.41561,-127.99009 -62.39918,-134.29917 -58.14503,0.20057 -86.57666,49.21551 -69.4808,98.36607 z"
       id="path8347"
       inkscape:connector-curvature="0"
       sodipodi:nodetypes="ccsccc" />
    <path
       style="fill:url(#linearGradient8414);fill-opacity:1;stroke:none"
       d="m 516.19687,949.44817 c 36.37984,-46.33092 101.99212,-49.32757 142.181,-5.20457 -14.81199,26.35634 -34.81422,35.98184 -63.31948,45.80014 -31.47508,-2.587 -66.70196,-16.1644 -78.86152,-40.59557 z"
       id="path8406"
       inkscape:connector-curvature="0" />
    <path
       style="fill:url(#radialGradient8424);fill-opacity:1;stroke:none"
       d="m 506.52955,839.11167 c -9.22484,38.28543 24.95254,53.72387 57.77057,49.44327 44.975,-7.33621 50.46872,-52.40369 19.25684,-74.94559 -16.33094,23.82378 -51.70743,38.1623 -77.02741,25.50232 z"
       id="path8416"
       inkscape:connector-curvature="0" />
    <path
       style="fill:url(#linearGradient8434);fill-opacity:1;stroke:none"
       d="m 512.74307,949.44817 c 36.23113,-54.03901 103.54381,-34.97743 147.3617,-4.16353 8.35279,-30.42746 -39.55761,-57.13205 -60.4601,-69.0682 -20.53011,17.21407 -47.54553,17.8955 -69.05701,12.3385 -23.22946,15.39462 -21.65398,48.84441 -17.84459,60.89323 z"
       id="path8426"
       inkscape:connector-curvature="0"
       sodipodi:nodetypes="ccccc" />
    <path
       style="fill:url(#linearGradient8445);fill-opacity:1;stroke:none;display:inline"
       d="m 260.87457,866.69581 c -18.27831,10.75641 -23.88,27.21186 -28.10459,45.80007 30.95528,15.89617 58.84473,11.61112 90.55925,7.28632 0.003,-28.94292 -38.6107,-61.90182 -62.45466,-53.08639 z"
       id="path8436"
       inkscape:connector-curvature="0"
       sodipodi:nodetypes="cccc" />
    <path
       style="fill:url(#radialGradient8457);fill-opacity:1;stroke:none"
       d="m 328.01333,782.90247 c -23.56617,29.80523 -9.66773,64.17091 26.02277,73.90468 25.50339,5.40045 51.48836,-7.84053 58.81147,-27.06368 -50.42992,6.15613 -67.10348,-9.60637 -84.83424,-46.841 z"
       id="path8447"
       inkscape:connector-curvature="0" />
    <path
       style="fill:url(#linearGradient8467);fill-opacity:1;stroke:none"
       d="m 317.08377,837.5503 c 19.00448,21.06711 49.09226,19.25685 74.42512,19.25685 13.78557,6.31727 18.19219,14.09675 21.33868,27.94132 -26.55731,19.57565 -53.20488,31.94243 -83.27287,33.30916 -12.81797,-39.6969 -45.48473,-52.40273 -69.22058,-53.44365 14.16255,-15.09041 38.702,-21.91293 56.72965,-27.06368 z"
       id="path8459"
       inkscape:connector-curvature="0"
       sodipodi:nodetypes="cccccc" />
    <path
       style="color:#000000;fill:#ffffff;fill-opacity:1;fill-rule:nonzero;stroke:none;stroke-width:1px;marker:none;visibility:visible;display:inline;overflow:visible;enable-background:accumulate"
       d="m 436.78853,648.62497 c -0.75663,-0.47445 0.36454,6.19727 0.52045,8.84773 34.56016,6.46046 42.72126,-11.38334 72.34332,-20.81821 14.15159,-4.50739 45.14668,-7.68163 55.05281,-2.72857 4.46838,-2.41842 1.29441,-4.55918 3.75865,-7.68054 -24.68267,-16.35794 -56.15265,-3.28066 -75.9865,7.28638 -15.17611,8.08549 -48.91646,15.78502 -55.68873,15.09321 z"
       id="path8518"
       inkscape:connector-curvature="0"
       sodipodi:nodetypes="ccsccsc" />
    <path
       style="fill:#6b1964;fill-opacity:1;stroke:none"
       d="m 329.41546,774.12789 c -3.25991,26.02009 11.32524,34.15802 27.96934,43.79408 23.36732,13.11641 51.45138,16.9019 73.97154,5.15225 -33.88278,-15.50997 -75.94437,-24.57463 -101.94088,-48.94633 z"
       id="path8528"
       inkscape:connector-curvature="0" />
    <path
       style="color:#000000;fill:#6b1964;fill-opacity:1;fill-rule:nonzero;stroke:none;stroke-width:1px;marker:none;visibility:visible;display:inline;overflow:visible;enable-background:accumulate"
       d="m 484.35087,827.85844 c 35.83892,0.22333 78.10518,-14.0022 101.20484,-38.64183 -4.06991,20.11403 -19.136,46.82175 -40.11392,49.68236 -24.25629,5.2279 -51.55117,-0.22879 -61.09092,-11.04053 z"
       id="path8541"
       inkscape:connector-curvature="0" />
    <path
       style="fill:#b794a8;fill-opacity:1;stroke:none;display:inline"
       d="m 382.04198,652.13004 c 12.39393,5.30627 30.2389,7.43284 43.9781,6.80833 1.57213,-2.45883 2.28164,-5.49901 3.12815,-8.2804 -14.5353,-4.03915 -29.40977,-5.77602 -43.24207,-9.38445 -2.28188,5.1351 -4.20062,8.01712 -3.86418,10.85652 z"
       id="path8640"
       inkscape:connector-curvature="0"
       sodipodi:nodetypes="ccccc" />
    <path
       style="fill:#ffffff;stroke:none;display:inline"
       d="m 381.62024,651.22724 c 12.13257,7.66962 28.48725,7.8131 42.93757,7.15626 0.63965,0.79512 -0.2032,1.72723 -0.26021,2.21193 -13.10442,-0.42525 -32.83608,1.32213 -43.0677,-6.6358 -0.26436,-0.88125 0.26023,-1.82159 0.39034,-2.73239"
       id="path8645"
       inkscape:connector-curvature="0" />
    <path
       style="fill:#6c495f;fill-opacity:1;stroke:none"
       d="m 381.61624,652.87532 c 10.29356,5.99286 30.81332,8.25324 42.56375,7.71913 0.18064,1.6277 -0.65844,3.40861 -1.10405,4.96823 -14.61617,5.07663 -27.95117,-1.89972 -40.66594,-5.70427 0.64765,-2.24146 -1.27045,-4.88567 -0.79376,-6.98309 z"
       id="path8643"
       inkscape:connector-curvature="0"
       sodipodi:nodetypes="ccccc" />
    <path
       style="color:#000000;fill:#b794a8;fill-opacity:1;fill-rule:nonzero;stroke:none;stroke-width:1px;marker:none;visibility:visible;display:inline;overflow:visible;enable-background:accumulate"
       d="m 420.5243,678.94149 c -15.44149,2.77128 -34.45811,-2.49301 -41.76656,-7.41649 2.19575,-2.89481 3.49077,-6.58898 4.81421,-9.3682 12.87605,2.34966 25.84221,9.12535 38.51371,6.24546 0.0988,3.46984 -1.03828,7.66219 -1.56136,10.53923 z"
       id="path8659"
       inkscape:connector-curvature="0"
       sodipodi:nodetypes="ccccc" />
    <path
       style="color:#000000;fill:#6c495f;fill-opacity:1;fill-rule:nonzero;stroke:none;stroke-width:1px;marker:none;visibility:visible;display:inline;overflow:visible;enable-background:accumulate"
       d="m 420.00383,680.63298 c 0.15722,2.01723 -0.0952,4.0887 -0.26022,5.98523 -11.8703,1.50688 -26.33104,1.87631 -36.17166,-4.6841 -2.74112,-3.13879 -3.02763,-6.00771 -4.29375,-9.17303 10.6245,6.38851 30.99129,10.26279 40.72563,7.8719 z"
       id="path8678"
       inkscape:connector-curvature="0"
       sodipodi:nodetypes="ccccc" />
    <path
       style="color:#000000;fill:#b794a8;fill-opacity:1;fill-rule:nonzero;stroke:none;stroke-width:1px;marker:none;visibility:visible;display:inline;overflow:visible;enable-background:accumulate"
       d="m 377.71683,690.91197 c 12.15521,5.33143 27.37627,7.76959 40.3353,4.6841 0.89508,-1.9372 0.84045,-5.07766 0.91079,-6.76593 -12.38569,-0.19642 -26.89757,-1.34819 -36.95234,-6.37557 -2.40155,2.06338 -3.66625,5.82188 -4.29375,8.4574 z"
       id="path8699"
       inkscape:connector-curvature="0" />
    <path
       style="fill:#ffffff;stroke:none"
       d="m 377.99378,706.78066 c 10.65947,7.41836 28.50366,10.83772 38.64185,4.96823 0.22901,1.24348 0.24488,2.44882 0.36802,3.68018 -20.16622,4.44271 -28.99434,-1.50787 -37.90581,-4.78423 0.27825,-1.58823 -0.73515,-2.57302 -1.10406,-3.86418 z"
       id="path8776"
       inkscape:connector-curvature="0"
       sodipodi:nodetypes="ccccc" />
    <path
       style="color:#000000;fill:#b794a8;fill-opacity:1;fill-rule:nonzero;stroke:none;stroke-width:1px;marker:none;visibility:visible;display:inline;overflow:visible;enable-background:accumulate"
       d="m 417.14133,712.7711 c 0.84596,-2.15851 0.81447,-3.89984 0.9108,-6.11535 -10.90298,-4.85418 -26.93794,1.6337 -36.17165,-4.6841 -2.41451,1.31372 -3.57189,5.3497 -4.16365,5.98525 10.81819,8.10461 30.39125,9.14169 39.4245,4.8142 z"
       id="path8707"
       inkscape:connector-curvature="0"
       sodipodi:nodetypes="ccccc" />
    <path
       style="fill:#ffffff;stroke:none"
       d="m 420.5243,748.16207 c 0,0.82405 0,1.64812 0,2.47217 -13.0841,1.08952 -28.65401,0.88665 -37.99326,-6.89604 -0.40259,-1.11967 0,-2.06775 -0.0651,-2.92756 9.49977,6.50976 27.25863,9.77165 38.05832,7.35143 z"
       id="path8780"
       inkscape:connector-curvature="0"
       sodipodi:nodetypes="ccccc" />
    <path
       style="color:#000000;fill:#b794a8;fill-opacity:1;fill-rule:nonzero;stroke:none;stroke-width:1px;marker:none;visibility:visible;display:inline;overflow:visible;enable-background:accumulate"
       d="m 383.18161,742.69729 c 8.29426,5.06548 19.40318,8.06001 38.12337,6.24546 -1.16916,-3.43284 -1.7709,-5.53229 -2.08183,-9.10796 -13.42129,1.48711 -25.85274,-2.56029 -36.69211,-6.89605 -2.70771,4.89493 -2.43746,7.32062 0.65057,9.75855 z"
       id="path8723"
       inkscape:connector-curvature="0"
       sodipodi:nodetypes="ccccc" />
    <path
       style="color:#000000;fill:#6c495f;fill-opacity:1;fill-rule:nonzero;stroke:none;stroke-width:1px;marker:none;visibility:visible;display:inline;overflow:visible;enable-background:accumulate"
       d="m 379.09784,692.61198 c 12.55618,5.72581 27.30268,7.42508 39.00986,4.2322 -0.16515,2.09576 -0.27329,4.54015 -0.36802,6.62432 -11.43951,2.64946 -26.82633,1.76757 -35.88171,-2.76013 -3.10704,-2.20665 -3.48282,-7.83897 -2.76013,-8.09639 z"
       id="path8742"
       inkscape:connector-curvature="0"
       sodipodi:nodetypes="ccccc" />
    <path
       style="color:#000000;fill:#6c495f;fill-opacity:1;fill-rule:nonzero;stroke:none;stroke-width:1px;marker:none;visibility:visible;display:inline;overflow:visible;enable-background:accumulate"
       d="m 379.46585,710.27682 c 9.03177,5.46979 25.9998,8.44492 38.64185,3.68018 0.0383,1.79796 0.10584,3.53746 0.18401,5.33625 -11.33323,3.98126 -30.05552,1.03533 -35.88171,-3.49616 -1.84884,-1.93142 -2.15219,-3.54035 -2.94415,-5.52027 z"
       id="path8750"
       inkscape:connector-curvature="0"
       sodipodi:nodetypes="ccccc" />
    <path
       style="color:#000000;fill:#6c495f;fill-opacity:1;fill-rule:nonzero;stroke:none;stroke-width:1px;marker:none;visibility:visible;display:inline;overflow:visible;enable-background:accumulate"
       d="m 380.18899,725.78249 c 10.96213,7.54251 25.71283,10.29887 38.12336,5.33467 0.0506,1.80835 0.13013,3.49846 0.13013,5.33466 -10.96642,3.17495 -25.88349,1.97072 -35.13075,-3.38296 -3.05908,-2.57467 -3.38297,-6.52965 -3.38297,-7.93695"
       id="path8758"
       inkscape:connector-curvature="0" />
    <path
       style="color:#000000;fill:#6c495f;fill-opacity:1;fill-rule:nonzero;stroke:none;stroke-width:1px;marker:none;visibility:visible;display:inline;overflow:visible;enable-background:accumulate"
       d="m 421.17486,749.72344 c 0.7618,1.6965 0.566,3.60415 0.65057,5.46478 -11.11942,0.5136 -25.10324,-2.61259 -35.13075,-6.24547 -1.77452,-1.58006 -1.77581,-2.57013 -2.01677,-4.48893 11.47726,5.58906 23.73036,7.51002 36.49695,5.26962 z"
       id="path8766"
       inkscape:connector-curvature="0"
       sodipodi:nodetypes="ccccc" />
    <path
       style="fill:#ffffff;stroke:none"
       d="m 537.20743,893.49927 c -6.76561,7.84768 -10.6492,17.31374 -10.6492,27.32398 5.56571,-1.7628 8.97891,-4.57965 13.23954,-6.50577 -0.40391,-7.84912 0.93852,-15.00271 3.74159,-21.33868 -1.51245,0.2938 -3.07003,0.34697 -6.33193,0.52047 z"
       id="path8784"
       inkscape:connector-curvature="0" />
    <path
       style="fill:#ffffff;stroke:none"
       d="m 530.87548,943.98348 c 2.89432,-5.35068 6.05049,-7.97479 11.22481,-10.92953 1.25727,10.05689 15.40469,22.77035 19.22976,29.56292 1.42717,2.53437 1.41351,6.35047 -1.09737,5.30737 -11.79939,-4.9014 -25.21262,-14.10416 -29.3572,-23.94076 z"
       id="path8786"
       inkscape:connector-curvature="0"
       sodipodi:nodetypes="ccssc" />
    <path
       style="fill:#ffffff;stroke:none"
       d="m 290.77361,590.85513 c -14.14586,42.85968 -8.74972,70.13838 -5.88828,103.04492 -0.84323,5.45809 5.38136,5.38136 5.88828,5.88829 -4.13977,-59.44172 2.50116,-82.51498 13.98467,-102.3089 -2.72365,-13.36182 -11.62207,-5.50519 -13.98467,-6.62431 z"
       id="path8788"
       inkscape:connector-curvature="0"
       sodipodi:nodetypes="ccccc" />
    <path
       style="fill:#ffffff;stroke:none"
       d="m 278.13124,856.02647 c -4.24791,2.41315 4.29075,1.41432 5.20455,2.60228 7.45374,-5.82373 16.39621,-9.77767 24.98187,-12.23071 -10.20468,0.79012 -23.81368,6.00822 -30.18642,9.62843 z"
       id="path8845"
       inkscape:connector-curvature="0"
       sodipodi:nodetypes="sccs" />
    <path
       style="fill:#ffffff;stroke:none"
       d="m 242.13818,892.45835 c 5.43348,-9.12327 12.15094,-15.32585 18.99662,-20.03754 2.49886,-1.71988 8.08818,0 9.88865,0 -12.46685,5.11009 -20.58977,12.71798 -28.88527,20.03754 z"
       id="path8847"
       inkscape:connector-curvature="0"
       sodipodi:nodetypes="cscc" />
    <path
       style="fill:#ffffff;stroke:none"
       d="m 431.58396,463.86328 c -26.0076,9.92748 -49.46105,31.27474 -60.89328,54.12737 2.48313,6.11172 11.22538,7.70481 13.53185,5.20455 7.79043,-22.23081 31.14591,-43.02441 48.40235,-55.16828 7.53261,-5.30091 -0.3296,-4.43516 -1.04092,-4.16364 z"
       id="path8849"
       inkscape:connector-curvature="0"
       sodipodi:nodetypes="sccss" />
    <path
       style="color:#000000;fill:#5e225e;fill-opacity:1;fill-rule:nonzero;stroke:none;stroke-width:1px;marker:none;visibility:visible;display:inline;overflow:visible;enable-background:accumulate"
       d="m 544.70575,479.71381 c 16.88685,27.13746 22.08315,63.96454 8.83243,86.85216 16.48398,-1.26741 32.10064,-11.12874 45.63418,-16.92881 -11.61718,-29.53471 -31.85535,-60.87884 -54.46661,-69.92335 z"
       id="path8855"
       inkscape:connector-curvature="0" />
    <path
       style="fill:#ffffff;stroke:none"
       d="m 621.55021,604.38625 c -1.46393,-4.45579 9.88936,-6.37664 13.53185,-5.20456 16.79132,5.40311 26.01435,21.68142 33.30915,34.87052 2.62217,4.74092 -2.35479,5.79716 -9.36819,2.60228 -15.00071,-6.83342 -32.32772,-16.60796 -37.47281,-32.26824 z"
       id="path8879"
       inkscape:connector-curvature="0"
       sodipodi:nodetypes="sssss" />
    <path
       style="fill:url(#linearGradient8851);fill-opacity:1;stroke:none"
       d="m 233.36287,628.39291 c 25.38148,27.54366 21.79378,65.35405 -0.73603,83.90801 -35.40384,12.08814 -63.0857,12.12746 -90.53235,-8.09639 -4.86067,-24.83391 3.65976,-57.79098 3.68019,-66.9792 28.18425,-18.65387 61.21402,-18.87973 87.58819,-8.83242 z"
       id="path8843"
       inkscape:connector-curvature="0"
       sodipodi:nodetypes="ccccc" />
    <path
       style="fill:#ffffff;stroke:none"
       d="m 280.65188,578.36348 c -12.45402,5.77849 -21.46439,12.21225 -27.06368,21.85912 -7.31271,12.59889 6.57122,5.05726 8.32729,3.12274 3.41059,-3.75717 8.85716,-6.25175 13.53184,-9.3682 5.10014,-4.70335 3.81555,-9.50204 5.20455,-15.61366 z"
       id="path8864"
       inkscape:connector-curvature="0"
       sodipodi:nodetypes="csscc" />
    <path
       style="fill:#ffffff;stroke:none"
       d="m 150.58485,629.27306 c 10.02552,-9.68119 29.83692,-19.42163 40.10183,-16.46649 4.66284,1.34236 -2.19806,5.96489 -4.05523,8.23324 -13.8056,16.86214 -41.47749,13.47763 -36.0466,8.23325 z"
       id="path8868"
       inkscape:connector-curvature="0"
       sodipodi:nodetypes="ssss" />
    <path
       style="fill:#ffffff;stroke:none;display:inline"
       d="m 171.49412,637.69539 c 6.32381,-6.37025 15.25998,-5.30232 24.98186,-5.72501 -7.56665,3.77044 -14.41267,8.01217 -20.81821,11.45003 -5.17941,2.77979 -2.7963,-2.99032 -4.16365,-5.72502 z"
       id="path9961"
       inkscape:connector-curvature="0"
       sodipodi:nodetypes="ccsc" />
    <path
       style="fill:#666666;stroke:#000000;stroke-width:1.47207034px;stroke-linecap:butt;stroke-linejoin:miter;stroke-opacity:1;display:inline"
       d="m 41.993699,625.08075 c -4.322455,18.3911 5.346001,19.56953 18.40088,23.92114 7.106332,-2.79343 13.697409,-3.01839 20.977003,-3.68017 0.674444,-9.18962 0.295901,-21.0915 0.184009,-26.31326 -14.48217,-2.53089 -29.637679,-3.85192 -39.561892,6.07229 z"
       id="path9978"
       inkscape:connector-curvature="0"
       sodipodi:nodetypes="ccccc" />
    <path
       style="fill:url(#linearGradient10002);fill-opacity:1;stroke:#000000;stroke-width:1.47207034px;stroke-linecap:butt;stroke-linejoin:miter;stroke-opacity:1"
       d="m 84.05758,619.99991 -0.260232,24.72163 32.008022,11.1898 13.53184,-7.02615 0,-23.16028 z"
       id="path9981"
       inkscape:connector-curvature="0" />
    <path
       style="fill:url(#linearGradient9991);fill-opacity:1;stroke:none"
       d="m 36.435912,625.98515 c -0.607714,-22.4257 24.954287,-17.18275 40.855753,-19.25686 2.972773,2.3129 3.242383,6.02416 4.163634,8.32729 -14.385219,4.27946 -32.48905,4.03788 -45.019387,10.92957 z"
       id="path9983"
       inkscape:connector-curvature="0" />
    <path
       style="fill:#b3b3b3;stroke:#000000;stroke-width:1.47207034px;stroke-linecap:butt;stroke-linejoin:miter;stroke-opacity:1;display:inline"
       d="m 87.443872,616.24833 c 11.143705,5.31932 25.902948,4.93806 36.985768,8.4644 3.75193,-2.30745 4.93483,-4.35516 5.52027,-8.64841 -11.27251,-4.60707 -26.89928,-7.27382 -38.641853,-8.09639 -0.835871,3.16585 -2.262072,5.51313 -3.864185,8.2804 z"
       id="path9993"
       inkscape:connector-curvature="0"
       sodipodi:nodetypes="ccccc" />
    <path
       style="fill:#999999;stroke:#000000;stroke-width:1.47207034px;stroke-linecap:butt;stroke-linejoin:miter;stroke-opacity:1;display:inline"
       d="m 136.57423,625.81678 c 2.23953,4.63118 7.70462,9.1767 10.85653,12.32859 8.94663,4.98926 16.29052,1.44097 24.28916,-1.10405 -6.01719,-5.89373 -11.67672,-12.8574 -16.56079,-19.13691 -5.95346,-0.19829 -11.79944,-1.28405 -16.10078,-2.0241 1.27952,4.00449 -0.75381,7.05262 -2.48412,9.93647 z"
       id="path10004"
       inkscape:connector-curvature="0"
       sodipodi:nodetypes="cccccc" />
    <path
       style="color:#000000;fill:#666666;fill-opacity:1;fill-rule:nonzero;stroke:#000000;stroke-width:1.47207034px;stroke-linecap:butt;stroke-linejoin:miter;stroke-miterlimit:4;stroke-opacity:1;stroke-dasharray:none;stroke-dashoffset:0;marker:none;visibility:visible;display:inline;overflow:visible;enable-background:accumulate"
       d="m 107.50083,671.81898 c -7.827643,-0.68449 -19.739403,1.06681 -26.803648,2.37482 -8.800301,1.62945 -12.036148,28.48337 1.410435,27.43461 11.197524,-0.87335 21.484753,-2.57612 31.649513,-2.57612 2.19078,-12.14264 -0.9008,-21.16374 -6.2563,-27.23331 z"
       id="path10018"
       inkscape:connector-curvature="0"
       sodipodi:nodetypes="csscc" />
    <path
       style="color:#000000;fill:#666666;fill-opacity:1;fill-rule:nonzero;stroke:#000000;stroke-width:1.47207034px;stroke-linecap:butt;stroke-linejoin:miter;stroke-miterlimit:4;stroke-opacity:1;stroke-dasharray:none;stroke-dashoffset:0;marker:none;visibility:visible;display:inline;overflow:visible;enable-background:accumulate"
       d="m 57.774588,685.31707 c -17.47954,5.89647 -16.340099,29.47989 0.780683,29.40573 9.96259,-0.0431 19.895753,-4.68535 29.145507,-8.84773 -12.667813,-2.91815 -22.961663,-10.11121 -29.92619,-20.558 z"
       id="path10026"
       inkscape:connector-curvature="0"
       sodipodi:nodetypes="cscc" />
    <path
       style="fill:url(#linearGradient10043);fill-opacity:1;stroke:none"
       d="m 80.414398,675.68864 c 8.957224,-1.41498 18.429109,-2.47003 27.063682,-2.86249 2.05477,-6.92303 -1.27499,-8.97037 -6.50569,-11.71027 -12.577178,-2.64768 -22.802973,3.02529 -33.048922,5.46479 -13.194461,13.31707 -6.663783,27.4447 5.204549,29.66597 -2.432935,-10.74107 0.680715,-15.27345 7.286381,-20.558 z"
       id="path10035"
       inkscape:connector-curvature="0"
       sodipodi:nodetypes="cccccc" />
    <path
       style="fill:url(#linearGradient10054);fill-opacity:1;stroke:none;display:inline"
       d="m 60.376855,671.26478 c -14.299367,0.52266 -21.111329,9.9077 -19.517077,21.59889 4.941549,-5.65434 10.758288,-7.0193 17.435261,-7.28638 0.557223,-5.45258 0.08111,-9.31065 2.081816,-14.31251 z"
       id="path10045"
       inkscape:connector-curvature="0" />
    <path
       style="color:#000000;fill:#b3b3b3;fill-opacity:1;fill-rule:nonzero;stroke:#000000;stroke-width:1.47207034px;stroke-linecap:butt;stroke-linejoin:miter;stroke-miterlimit:4;stroke-opacity:1;stroke-dasharray:none;stroke-dashoffset:0;marker:none;visibility:visible;display:inline;overflow:visible;enable-background:accumulate"
       d="m 113.38912,656.73026 c 3.92384,1.93099 5.51144,6.23865 7.17634,9.56846 8.5249,-1.77 17.18603,-4.62463 25.39323,-7.36035 -0.10599,-5.695 -3.22822,-7.81019 -7.54437,-9.75247 -8.05494,2.26547 -19.06847,5.51707 -25.20921,8.2804"
       id="path10067"
       inkscape:connector-curvature="0" />
    <path
       style="fill:#808080;stroke:#000000;stroke-width:1.47207034px;stroke-linecap:butt;stroke-linejoin:miter;stroke-opacity:1;display:inline"
       d="m 148.71882,658.93837 c -9.18435,4.88355 -20.15109,7.24403 -29.07341,10.4885 0.0424,8.33736 -1.08535,17.0659 0,25.0252 10.15565,-2.22944 21.39788,-3.15079 30.36148,-6.99234 -0.14589,-2.76708 0.1316,-5.49611 0.36801,-8.09639 -1.22672,0 -2.45345,0 -3.68017,0 -1.1554,-2.99744 -2.31835,-7.16957 -2.94414,-9.56845 1.33162,-1.70612 3.1159,-2.60817 4.60022,-3.68018 0.6007,-2.32842 -0.30589,-4.81046 -0.73604,-7.17634"
       id="path10075"
       inkscape:connector-curvature="0" />
    <path
       style="fill:url(#linearGradient10091);fill-opacity:1;stroke:#000000;stroke-width:1.47207034px;stroke-linecap:butt;stroke-linejoin:miter;stroke-opacity:1;display:inline"
       d="m 89.835987,703.4685 c 0.141318,1.63345 0.748827,2.99531 1.104052,4.41621 11.892981,0.43535 23.286491,2.49994 33.857621,5.52026 0,-3.80284 0,-7.60568 0,-11.40854 -4.29292,-1.36832 -6.38942,-2.73832 -7.72837,-3.31216 -10.14493,-0.66123 -19.210123,3.69015 -27.233303,4.78423 z"
       id="path10082"
       inkscape:connector-curvature="0" />
    <path
       style="fill:#666666;fill-opacity:1;stroke:#000000;stroke-width:1.47207034px;stroke-linecap:butt;stroke-linejoin:miter;stroke-opacity:1;display:inline"
       d="m 148.59408,659.2943 c 4.52648,1.71183 10.70775,2.89983 14.57275,3.38295 0.1213,5.40129 -0.0923,10.782 -0.52045,16.13413 -2.2082,-1.2336 -4.64085,0.5801 -6.24547,0.78068 -5.18687,4.03973 -7.53052,9.81471 -8.84775,15.87389 8.75656,0.45249 18.63405,3.52623 26.28301,4.16365 0.30843,-19.254 2.09636,-40.68861 0.52045,-58.81148 -10.18355,-3.03901 -19.32272,-0.40689 -25.24209,1.56138 -1.0849,3.58472 -0.62728,13.92354 -0.52045,16.9148 z"
       id="path10093"
       inkscape:connector-curvature="0"
       sodipodi:nodetypes="ccccccccc" />
    <path
       style="fill:#333333;stroke:#000000;stroke-width:1.47207034px;stroke-linecap:butt;stroke-linejoin:miter;stroke-opacity:1"
       d="m 134.02131,715.50348 c 5.1823,3.65268 12.74294,3.46696 17.95574,5.20457 7.97489,-4.0788 12.85657,-9.0535 16.65457,-15.61367 -7.5662,0.24131 -13.34577,-2.80165 -18.99664,-3.90341 -5.01206,4.1577 -11.103,9.50114 -15.61367,14.31251 z"
       id="path10096"
       inkscape:connector-curvature="0"
       sodipodi:nodetypes="ccccc" />
    <path
       style="fill:#cccccc;stroke:#000000;stroke-width:1.47207034px;stroke-linecap:butt;stroke-linejoin:miter;stroke-opacity:1"
       d="m 135.06222,630.14879 c -0.0929,5.61421 0.0589,12.80337 0.26023,17.43526 4.3678,0.75987 8.87077,2.06444 12.75118,3.12274 0.17977,-2.80216 -0.13528,-5.57896 -0.26023,-8.3273 -3.74379,-6.42191 -6.51128,-9.73474 -12.75118,-12.2307 z"
       id="path10098"
       inkscape:connector-curvature="0" />
    <path
       style="color:#000000;fill:#cccccc;fill-opacity:1;fill-rule:nonzero;stroke:#000000;stroke-width:1.47207034px;stroke-linecap:butt;stroke-linejoin:miter;stroke-miterlimit:4;stroke-opacity:1;stroke-dasharray:none;stroke-dashoffset:0;marker:none;visibility:visible;display:inline;overflow:visible;enable-background:accumulate"
       d="m 129.33721,694.42504 c 0.0964,6.58014 0.19712,13.35805 0.78068,19.77731 6.40695,-2.99574 12.16494,-7.95784 16.39437,-12.75116 -0.5932,-3.16032 -0.97482,-7.16922 -1.30114,-9.88865 -6.23487,2.73768 -11.22367,3.28525 -15.87391,2.8625 z"
       id="path10111"
       inkscape:connector-curvature="0" />
    <path
       style="fill:#510433;fill-opacity:1;stroke:none;display:inline"
       d="M 613.05188,559.4159 C 600.90451,506.09376 536.50526,454.8471 461.08219,450.57124 388.02802,446.42966 332.1855,490.69131 315.06278,552.9493 c -1.12378,2.64521 -6.88439,0.98149 -7.88609,1.84009 13.41548,-70.37609 90.6233,-116.23743 152.35928,-112.71852 72.18402,4.11442 142.61739,42.17513 160.98141,115.55751 z"
       id="path2985"
       inkscape:connector-curvature="0"
       sodipodi:nodetypes="csccscc" />
    <path
       style="color:#000000;fill:#510433;fill-opacity:1;fill-rule:nonzero;stroke:none;stroke-width:1px;marker:none;visibility:visible;display:inline;overflow:visible;enable-background:accumulate"
       d="m 499.40323,545.81045 c 0.74351,1.92487 3.40968,8.19028 5.66136,14.66761 0.1828,0.52584 -0.46226,1.28167 -1.40214,1.3966 -39.1626,4.7892 -99.30795,3.78726 -153.06226,-17.41547 -0.99293,-0.39164 -1.43584,-0.76942 -0.90432,-1.80125 3.45921,-6.71517 3.78896,-6.66443 7.09165,-11.88277 -1.04202,-0.82173 -3.60271,-2.08457 -4.46148,-2.07795 -3.30441,4.53463 -5.76121,10.62636 -7.98433,14.44915 -0.57861,0.99493 0.0246,2.32377 0.73514,2.65145 55.08009,25.40358 126.68418,24.41039 163.47877,20.16766 0.75779,-0.0874 1.50148,-0.61271 1.41117,-1.38522 -0.80045,-6.84727 -4.33482,-16.08069 -5.22165,-19.06126 -1.53915,-0.21544 -3.81715,0.53879 -5.34191,0.29145 z"
       id="path3050"
       inkscape:connector-curvature="0"
       sodipodi:nodetypes="cssssccsssscc" />
    <path
       style="color:#000000;fill:#510433;fill-opacity:1;fill-rule:nonzero;stroke:none;stroke-width:1px;marker:none;visibility:visible;display:inline;overflow:visible;enable-background:accumulate"
       d="m 423.24661,821.95787 c -8.22435,25.98463 -34.0803,49.20768 -78.97831,38.59786 -37.94407,-8.96653 -46.17377,-55.07165 -15.17697,-80.86874 1.13919,0.9534 2.0571,2.14366 3.08565,3.21548 -30.14406,29.32909 -12.47103,64.5901 19.25684,69.22058 32.0033,4.67069 52.40896,-6.27011 66.61831,-27.58414 2.43991,0.6661 3.46299,-1.72069 5.19448,-2.58104 z"
       id="path3003"
       inkscape:connector-curvature="0"
       sodipodi:nodetypes="csccscc" />
    <path
       style="color:#000000;fill:#510433;fill-opacity:1;fill-rule:nonzero;stroke:none;stroke-width:1px;marker:none;visibility:visible;display:inline;overflow:visible;enable-background:accumulate"
       d="m 317.98431,840.93118 c -12.51958,3.41416 -36.12365,8.47307 -47.15735,16.73008 -3.79546,2.84031 -0.85826,5.39957 -4.84813,8.01162 -13.5699,8.88385 -25.52126,21.11828 -27.56833,32.70457 -1.556,8.80677 1.31918,7.52378 5.8749,10.07904 16.71031,9.37267 46.01409,2.86084 74.28626,0.49335 4.62701,-0.38746 9.49589,2.48247 12.74391,3.15538 27.89567,-3.85236 60.48295,-16.72079 74.41602,-26.84757 2.09807,-19.33875 -10.49933,-23.815 -19.19707,-31.32093 4.40545,-3.91614 6.59969,-3.89499 8.02006,-4.73324 9.50988,9.80427 21.88481,22.2258 20.33444,36.19859 -0.2838,2.55777 -10.4338,8.38053 -14.44616,10.90766 -19.78195,12.45941 -44.96762,21.90698 -71.5826,25.01447 -1.37383,0.0824 -5.62437,-2.75255 -8.58197,-2.51933 -26.42474,2.08359 -54.0237,10.20795 -77.4561,3.88644 -14.38083,-3.87957 -22.06189,-5.19788 -20.49985,-13.13295 4.05297,-20.58871 12.01862,-25.74689 28.28706,-39.93194 0.93667,-2.06469 1.29393,-4.43736 2.35594,-6.07285 16.27567,-14.83103 42.06718,-27.11826 62.79648,-30.88474 -0.0399,1.97343 2.22249,8.26235 2.22249,8.26235 z"
       id="path3011"
       inkscape:connector-curvature="0"
       sodipodi:nodetypes="csssssccccssccsscccc" />
    <path
       style="color:#000000;fill:#510433;fill-opacity:1;fill-rule:nonzero;stroke:none;stroke-width:1px;marker:none;visibility:visible;display:inline;overflow:visible;enable-background:accumulate"
       d="m 586.50871,810.62914 c 29.19803,13.42116 35.71082,75.20996 -18.90472,84.26056 -51.79165,8.58264 -77.26649,-28.84262 -63.53122,-58.39419 4.80256,0.47991 2.37785,3.75685 5.3033,4.9796 -5.2308,30.02474 17.44808,48.33867 52.62651,41.21797 42.68,-8.63915 48.74973,-46.6016 19.50493,-66.61118 3.36392,-0.84275 3.85391,-4.20188 5.0012,-5.45276 z"
       id="path3005"
       inkscape:connector-curvature="0"
       sodipodi:nodetypes="csccscc" />
    <path
       style="color:#000000;fill:#510433;fill-opacity:1;fill-rule:nonzero;stroke:none;stroke-width:1px;marker:none;visibility:visible;display:inline;overflow:visible;enable-background:accumulate"
       d="m 528.75705,885.14855 c -16.27238,14.7563 -27.21696,33.80134 -26.5401,54.22691 0.16983,5.12516 2.53185,11.56451 8.72697,19.04042 2.14616,0.99394 3.97194,0.70968 5.06552,0.79286 11.76879,17.7555 41.54954,36.447 71.48465,34.9815 43.82851,-2.1456 62.1877,-25.3695 71.70236,-42.5425 1.89154,-1.07196 0.95304,-2.24917 3.91456,-3.34587 11.51098,-22.06464 -37.18812,-67.05034 -60.9163,-76.10892 -4.83345,0.1604 -3.08693,5.35797 -5.18344,7.18797 22.97104,12.91461 59.30027,42.60674 58.24176,57.4296 -0.83263,11.65961 -23.99353,40.23222 -62.89731,44.14322 -30.61333,3.0775 -70.56705,-21.30662 -77.33628,-43.42602 -3.57142,-11.67014 7.77846,-35.35264 21.16571,-50.05041 -3.00315,0.56987 -4.95208,-1.55251 -7.4281,-2.32876 z"
       id="path3007"
       inkscape:connector-curvature="0"
       sodipodi:nodetypes="csccsccccssscc" />
    <path
       style="color:#000000;fill:#510433;fill-opacity:1;fill-rule:nonzero;stroke:none;stroke-width:1px;marker:none;visibility:visible;display:inline;overflow:visible;enable-background:accumulate"
       d="m 386.09017,636.85731 c -4.64314,2.97464 -1.15637,5.06747 -1.47207,5.8883 11.10966,6.67516 28.732,8.59356 42.69004,9.20044 8.57998,-0.65241 2.4311,-5.13045 2.97049,-6.75576 -14.85151,0.42955 -38.30018,-3.18073 -44.18846,-8.33298 z"
       id="path3060"
       inkscape:connector-curvature="0"
       sodipodi:nodetypes="ccccc" />
    <path
       style="color:#000000;fill:#510433;fill-opacity:1;fill-rule:nonzero;stroke:none;stroke-width:1px;marker:none;visibility:visible;display:inline;overflow:visible;enable-background:accumulate"
       d="m 513.66724,572.19235 c -62.17086,7.4605 -126.82329,6.21735 -182.90293,-24.164 -0.59675,-0.3233 -0.10908,-1.44075 0.0724,-1.93463 2.75157,-7.48508 7.86351,-18.3194 12.84596,-25.01752 0.64334,-0.86489 2.03218,-0.35844 2.72643,-0.077 49.00117,19.86425 109.01396,27.29387 160.38061,19.77996 1.91542,-0.2802 6.88756,4.4584 1.76582,5.39042 -54.03838,9.83364 -115.58457,2.21463 -160.69798,-17.80391 -0.30809,-0.13675 -1.37148,0.15501 -1.57259,0.42443 -4.55942,6.10813 -6.1659,9.55332 -8.73623,16.45009 -0.24805,0.66563 0.35756,1.15815 0.95065,1.45753 49.98205,25.22969 125.47326,29.56201 174.42427,20.66183 0.56754,2.62716 0.2934,1.90711 0.74351,4.83281 z"
       id="path3976"
       inkscape:connector-curvature="0"
       sodipodi:nodetypes="cssssssssssccc" />
    <path
       style="color:#000000;fill:#510433;fill-opacity:1;fill-rule:nonzero;stroke:none;stroke-width:1px;marker:none;visibility:visible;display:inline;overflow:visible;enable-background:accumulate"
       d="m 336.09235,545.19464 c 4.01719,-0.40829 6.80458,-1.62228 10.64623,-1.97151 0.95398,1.47299 1.31231,1.74974 1.97151,2.62869 -3.00169,0.57846 -7.1939,1.62521 -9.20044,2.10295 -1.72551,-0.349 -2.69254,-1.98706 -3.4173,-2.76013 z"
       id="path4002"
       inkscape:connector-curvature="0" />
    <path
       sodipodi:nodetypes="ccccc"
       inkscape:connector-curvature="0"
       id="path4035"
       d="m 315.90396,547.21874 c 29.70557,46.51262 219.48349,58.82041 296.26738,7.63115 l -1.90324,-3.98506 c -76.78389,51.18926 -263.69929,39.14171 -293.40486,-7.37092 z"
       style="color:#000000;fill:#510433;fill-opacity:1;fill-rule:nonzero;stroke:none;stroke-width:1px;marker:none;visibility:visible;display:inline;overflow:visible;enable-background:accumulate" />
    <path
       style="color:#000000;fill:#510433;fill-opacity:1;fill-rule:nonzero;stroke:none;stroke-width:1px;marker:none;visibility:visible;display:inline;overflow:visible;enable-background:accumulate"
       d="m 586.65976,801.36119 c -26.59794,21.60631 -79.36862,29.62 -121.51978,29.62 -42.42025,0 -105.47265,-14.11521 -143.73056,-58.3941 -4.95309,-1.31639 -10.62452,-2.50418 -16.34078,-7.43241 -28.64968,-24.70008 -40.38927,-84.17123 -37.48013,-119.46495 2.07809,-25.21157 1.76552,-51.74658 16.19277,-73.97152 2.44361,-2.13928 9.57365,-3.33591 12.69661,-5.88828 1.96246,-6.86863 3.79542,-10.59771 11.40854,-13.43264 0.13102,0.78656 2.07414,2.89519 2.39212,3.68018 -4.64263,2.77745 -6.82459,7.08918 -7.72837,12.14458 -0.46288,2.58916 -8.9288,7.66224 -12.32859,8.28039 -16.34048,27.30716 -16.10503,56.29072 -14.25381,87.73619 2.084,35.39938 10.6924,75.27631 34.31308,97.32517 4.27008,3.11814 13.0228,2.89237 17.42091,5.96771 32.48888,32.79529 96.04975,55.62772 143.2895,52.84031 35.93205,-2.1202 83.64297,-7.82905 105.364,-22.6908"
       id="path4047"
       inkscape:connector-curvature="0"
       sodipodi:nodetypes="cscscccccscsccsc" />
    <path
       style="color:#000000;fill:#510433;fill-opacity:1;fill-rule:nonzero;stroke:none;stroke-width:1px;marker:none;visibility:visible;display:inline;overflow:visible;enable-background:accumulate"
       d="m 303.03146,885.59547 c 9.8701,9.94883 17.35899,16.29888 16.13412,29.33943 2.76688,1.45696 8.15395,5.72495 10.66935,5.72495 -1.19139,-19.18845 -10.34296,-28.28209 -17.95573,-38.70757 -10.64632,-14.57988 -29.71341,-21.45911 -44.23871,-22.11935 -0.24415,2.16001 -6.41894,8.58751 -9.36819,10.1489 19.58296,-4.05251 33.32485,4.08814 44.75916,15.61364 z"
       id="path7882"
       inkscape:connector-curvature="0"
       sodipodi:nodetypes="sccsccs" />
    <path
       style="color:#000000;fill:#510433;fill-opacity:1;fill-rule:nonzero;stroke:none;stroke-width:1px;marker:none;visibility:visible;display:inline;overflow:visible;enable-background:accumulate"
       d="m 519.90383,950.77628 c 13.04435,-23.48829 32.68224,-29.73634 56.98462,-31.64944 33.30477,-2.62186 62.23677,12.91638 74.80379,29.52303 2.75705,-2.55603 5.70841,-3.57573 7.61441,-5.10757 -14.34615,-21.65577 -53.7684,-34.70712 -80.79006,-32.51187 -32.38864,2.63129 -58.26157,14.29485 -69.19561,39.00981 1.35676,0.24539 9.22608,0.49064 10.58285,0.73604 z"
       id="path7902"
       inkscape:connector-curvature="0"
       sodipodi:nodetypes="csccscc" />
    <path
       style="color:#000000;fill:#510433;fill-opacity:1;fill-rule:nonzero;stroke:none;stroke-width:1px;marker:none;visibility:visible;display:inline;overflow:visible;enable-background:accumulate"
       d="m 596.56835,794.3525 c -2.29255,18.3405 -20.53112,41.16698 -45.27963,48.9228 -33.68193,10.55543 -53.8473,2.79382 -73.38421,-13.53183 4.36537,1.84558 10.26451,-0.39479 13.53183,-0.52046 17.24257,8.56289 35.23841,10.35417 56.72965,5.20456 23.63452,-5.66317 28.25673,-19.212 36.95234,-37.4728 4.3846,-1.03308 7.07435,-1.6078 11.45002,-2.60227 z"
       id="path7916"
       inkscape:connector-curvature="0"
       sodipodi:nodetypes="csccscc" />
    <path
       style="color:#000000;fill:#510433;fill-opacity:1;fill-rule:nonzero;stroke:none;stroke-width:1px;marker:none;visibility:visible;display:inline;overflow:visible;enable-background:accumulate"
       d="m 329.64905,775.9135 c 14.99842,47.67126 72.86402,57.64963 102.82712,46.76663 2.48257,0.30663 3.91033,2.62937 4.31236,2.8997 -23.5162,14.14983 -59.73509,11.06983 -82.23198,-1.56137 -23.60846,-13.25533 -27.93368,-34.48463 -30.1864,-51.00463 -0.30007,6.20844 3.74595,2.05763 5.2789,2.89967 z"
       id="path3101"
       inkscape:connector-curvature="0"
       sodipodi:nodetypes="cccscc" />
    <path
       style="color:#000000;fill:#510433;fill-opacity:1;fill-rule:nonzero;stroke:none;stroke-width:1px;marker:none;visibility:visible;display:inline;overflow:visible;enable-background:accumulate"
       d="m 232.60671,629.88856 c 4.71793,-26.17164 22.59764,-50.12327 67.23889,-65.75597 2.41608,-1.22729 5.2677,-6.41384 7.34952,-8.1487 -45.17937,4.90614 -74.24963,39.77138 -82.91569,67.65921"
       id="path7932"
       inkscape:connector-curvature="0"
       sodipodi:nodetypes="cccc" />
    <path
       style="color:#000000;fill:#510433;fill-opacity:1;fill-rule:nonzero;stroke:none;stroke-width:1px;marker:none;visibility:visible;display:inline;overflow:visible;enable-background:accumulate"
       d="m 595.94501,717.75805 c -20.81916,-14.73737 -32.09772,-54.20618 -30.36238,-70.33283 4.01754,-37.33548 34.98312,-60.5082 68.56225,-54.10941 49.35924,22.73432 69.89799,101.65253 45.79743,155.64342 2.45346,0.49068 1.63173,10.26027 4.08519,10.75097 47.9079,-71.71605 -9.32939,-169.63075 -51.78586,-177.82911 -31.593,1.09474 -70.39218,20.56945 -74.62911,66.06459 -3.10837,33.37686 12.49551,54.14712 27.41824,71.87887 17.83018,-7.80246 24.15121,-3.87156 10.91424,-2.0665 z"
       id="path7940"
       inkscape:connector-curvature="0"
       sodipodi:nodetypes="csccccscc" />
    <path
       style="color:#000000;fill:#510433;fill-opacity:1;fill-rule:nonzero;stroke:none;stroke-width:1px;marker:none;visibility:visible;display:inline;overflow:visible;enable-background:accumulate"
       d="m 428.98169,644.46132 c -13.95365,32.68769 -17.18851,73.07409 -7.28638,112.93885 26.97575,37.26306 96.26597,33.78726 134.27751,23.42049 -0.56115,-4.17814 6.14071,-4.85536 7.28638,-8.84775 -42.59639,16.90426 -97.7778,8.89296 -129.07296,-11.97048 -13.32463,-44.85869 -5.4799,-80.22733 3.12274,-110.33656 15.56718,2.04493 30.47684,0.12027 42.1569,-7.28637 28.75588,-18.23483 57.01963,-22.18663 88.99788,-14.57276 2.28991,-4.9831 2.06307,-3.79165 4.6841,-7.28636 -35.36269,-12.18699 -62.22297,-2.92807 -93.68198,13.53183 -22.20159,11.61625 -45.86967,3.66308 -50.48419,10.40911 z"
       id="path8081"
       inkscape:connector-curvature="0"
       sodipodi:nodetypes="ccccccsccsc" />
    <path
       style="color:#000000;fill:#510433;fill-opacity:1;fill-rule:nonzero;stroke:none;stroke-width:1px;marker:none;visibility:visible;display:inline;overflow:visible;enable-background:accumulate"
       d="m 300.42919,567.95436 c 17.94608,6.22242 37.23091,20.2724 45.27963,32.26824 10.45669,15.58468 23.84788,26.38005 39.73862,31.68464 1.48801,0.49672 2.97434,1.63238 2.61504,4.33238 -0.33222,2.49648 -0.67569,5.1054 -1.0216,7.80907 -2.23848,1.43687 -4.94998,7.12582 -5.21421,8.92123 -0.16908,1.14888 1.02615,3.213 1.96638,5.17057 -0.21751,1.97135 0.42478,3.58227 0.2369,5.60809 -2.72789,2.4971 -4.13818,6.9959 -4.35499,9.18832 -0.22455,2.27072 3.31059,3.79253 3.16896,6.10606 -0.2638,4.30924 -3.32944,11.42066 -3.32183,13.17645 0.009,1.8865 2.6478,4.63823 2.62583,6.37266 -0.0311,2.4535 -2.76659,7.73853 -2.73822,10.01538 0.0259,2.08277 2.7742,4.38698 2.81063,5.71927 0.12704,4.64422 -2.21985,8.923 -1.67938,11.21349 0.3046,1.29088 2.77134,4.0342 2.94925,5.29146 0.59804,4.22638 -0.27803,10.62187 0.53504,12.85372 1.08818,2.98705 3.78699,5.35215 4.96029,8.56327 0.29312,0.80221 -0.13941,1.77748 -1.11982,2.54922 -16.24391,12.787 -42.35535,17.17503 -60.37283,17.17503 -0.29926,-1.18967 -0.34697,-3.99016 -0.52047,-5.20455 22.24891,2.0201 42.06475,-4.82253 55.1683,-15.61367 -0.90487,-2.75557 -4.20372,-4.20487 -4.91935,-6.08151 -0.88483,-2.32032 0.46323,-11.91488 0.24139,-14.71582 -0.14132,-1.78404 -3.1816,-5.73515 -3.6142,-7.74256 -0.37037,-1.7187 1.92725,-7.05771 1.94967,-9.01569 0.0156,-1.36439 -2.91817,-3.86579 -3.04247,-5.90801 -0.0994,-1.63155 2.71439,-7.33266 2.60727,-9.00676 -0.10525,-1.64424 -3.13302,-4.83992 -3.05221,-7.17175 0.0848,-2.44627 3.3673,-7.28782 3.58532,-11.00205 0.17397,-2.96388 -3.30433,-6.607 -2.87266,-8.83377 0.39129,-2.01843 4.08193,-6.08666 4.42453,-9.06807 -1.08372,-3.47141 -2.57916,-8.35525 -2.09922,-10.30485 0.8826,-3.58535 2.97797,-6.92441 5.18627,-10.24361 0.34816,-1.84356 0.71027,-3.64717 1.08519,-5.40575 -15.60884,-7.72835 -29.7917,-13.90881 -38.5137,-26.54322 -13.90102,-20.13662 -36.46089,-32.9044 -50.48418,-38.51372 z"
       id="path8089"
       inkscape:connector-curvature="0"
       sodipodi:nodetypes="cssscsccssssssssssscccssssssssscsccscc" />
    <path
       style="color:#000000;fill:#510433;fill-opacity:1;fill-rule:nonzero;stroke:none;stroke-width:1px;marker:none;visibility:visible;display:inline;overflow:visible;enable-background:accumulate"
       d="m 383.81509,658.07223 c 11.89469,6.00755 32.63801,6.1077 41.28495,4.54633 0.001,2.11765 -0.73604,4.17086 -1.10406,6.2563 -14.31537,3.73337 -29.09188,-0.81705 -40.84995,-5.52027 -1.71661,-3.20278 0.0882,-3.6559 0.66906,-5.28236 z"
       id="path8592"
       inkscape:connector-curvature="0"
       sodipodi:nodetypes="ccccc" />
    <path
       style="color:#000000;fill:#510433;fill-opacity:1;fill-rule:nonzero;stroke:none;stroke-width:1px;marker:none;visibility:visible;display:inline;overflow:visible;enable-background:accumulate"
       d="m 382.41,678.44332 c 11.77098,6.23998 27.54648,9.2088 36.80176,6.26395 0.36921,1.80267 0,3.68018 0,5.52026 -12.35022,3.85842 -29.22913,-1.52711 -37.88349,-5.20455 -0.4419,-3.20833 0.62406,-4.29135 1.08173,-6.57966 z"
       id="path8600"
       inkscape:connector-curvature="0"
       sodipodi:nodetypes="ccccc" />
    <path
       style="color:#000000;fill:#510433;fill-opacity:1;fill-rule:nonzero;stroke:none;stroke-width:1px;marker:none;visibility:visible;display:inline;overflow:visible;enable-background:accumulate"
       d="m 380.56991,697.58023 c 12.36265,6.13493 26.25586,6.76304 37.64558,4.17448 0.001,2.80266 0,5.03304 0,5.88828 -14.15287,2.58893 -28.5573,0.81472 -37.64558,-4.17448 -1.58355,-5.72641 0,-3.7053 0,-5.88828 z"
       id="path8608"
       inkscape:connector-curvature="0"
       sodipodi:nodetypes="ccccc" />
    <path
       style="color:#000000;fill:#510433;fill-opacity:1;fill-rule:nonzero;stroke:none;stroke-width:1px;marker:none;visibility:visible;display:inline;overflow:visible;enable-background:accumulate"
       d="m 385.00321,750.374 c 11.1055,10.05997 31.98202,13.46547 43.97847,8.06707 0.0979,-1.50833 -3.31182,-8.72867 -3.64318,-6.76592 -15.19934,4.34717 -31.37324,0.2625 -40.85574,-7.54661 -0.4183,3.61524 0.41211,3.75278 0.52045,6.24546 z"
       id="path8616"
       inkscape:connector-curvature="0"
       sodipodi:nodetypes="ccccc" />
    <path
       style="color:#000000;fill:#510433;fill-opacity:1;fill-rule:nonzero;stroke:none;stroke-width:1px;marker:none;visibility:visible;display:inline;overflow:visible;enable-background:accumulate"
       d="m 381.88048,729.81601 c 10.95855,8.16574 27.6763,7.57345 37.99324,3.6432 0.34022,2.46454 0.63833,5.90946 0.78068,7.5466 -13.95277,2.76849 -27.45868,0.21214 -38.25347,-5.72502 -0.54409,-2.08573 -0.31698,-3.32836 -0.52045,-5.46478 z"
       id="path8624"
       inkscape:connector-curvature="0" />
    <path
       style="color:#000000;fill:#510433;fill-opacity:1;fill-rule:nonzero;stroke:none;stroke-width:1px;marker:none;visibility:visible;display:inline;overflow:visible;enable-background:accumulate"
       d="m 381.09979,713.16145 c 11.95847,8.37197 25.57104,9.28521 36.95234,4.16363 0.71814,2.41726 0.80832,5.58068 1.0409,7.28638 -13.21841,3.77979 -28.77347,1.6554 -38.12337,-5.5949 -0.69468,-2.51575 0.4771,-4.12029 0.13013,-5.85511 z"
       id="path8632"
       inkscape:connector-curvature="0"
       sodipodi:nodetypes="ccccc" />
    <path
       style="color:#000000;fill:#5e225e;fill-opacity:1;fill-rule:nonzero;stroke:none;stroke-width:1px;marker:none;visibility:visible;display:inline;overflow:visible;enable-background:accumulate"
       d="m 570.55628,659.35423 c 4.96092,17.14635 18.05995,43.17484 30.0435,53.04365 7.84088,-3.88282 20.41701,0.33104 29.07339,0.33104 -22.86496,-11.87743 -45.21137,-47.15474 -56.90878,-67.35936 -1.19332,3.89931 -3.86554,8.25611 -2.20811,13.98467 z"
       id="path8863"
       inkscape:connector-curvature="0"
       sodipodi:nodetypes="scccs" />
    <path
       style="color:#000000;fill:#5e225e;fill-opacity:1;fill-rule:nonzero;stroke:none;stroke-width:1px;marker:none;visibility:visible;display:inline;overflow:visible;enable-background:accumulate"
       d="m 342.6641,774.12789 c 6.63244,1.46066 12.99574,-0.95247 19.50493,-1.84009 23.43065,14.74448 59.55087,18.80544 84.64404,17.66485 4.26838,13.05212 11.21643,18.87549 20.24097,25.3932 -37.06861,-1.41257 -106.45927,-20.89656 -124.38994,-41.21796 z"
       id="path8871"
       inkscape:connector-curvature="0"
       sodipodi:nodetypes="ccccc" />
    <path
       style="color:#000000;fill:#510433;fill-opacity:1;fill-rule:nonzero;stroke:none;stroke-width:1px;marker:none;visibility:visible;display:inline;overflow:visible;enable-background:accumulate"
       d="m 165.0108,707.94787 c 19.9272,9.51192 51.3955,6.52755 68.70925,-2.44984 25.29313,-16.62299 19.63271,-64.52291 -4.77339,-75.90092 -10.59505,-4.93937 -26.48938,-8.53479 -61.54374,0.52045 -3.52816,0.14131 -3.3396,-2.72148 -5.93533,-4.39263 21.41442,-14.45874 44.76602,-10.12399 71.82284,-5.20457 39.84546,28.37042 29.52284,81.35222 2.63927,94.00218 -22.60986,10.63899 -46.43604,14.78801 -81.9325,0.6576 -5.99282,-2.38562 8.03216,7.47076 5.20518,0.0947 1.9361,-1.89418 3.30148,-5.64813 5.80842,-7.32695 z"
       id="path8883"
       inkscape:connector-curvature="0"
       sodipodi:nodetypes="ccccccsscc" />
    <path
       style="fill:#1a1a1a;stroke:none;display:inline"
       d="m 179.28098,705.90087 c 1.1459,-9.59675 3.4143,-51.15583 0.93328,-68.49211 -9.6378,-0.7587 -27.25079,2.48643 -37.42853,2.48643 0.92261,3.45656 0.59684,7.17059 0.59684,10.76278 2.7281,-0.22 7.20197,6.9235 9.01643,7.83074 0,-4.01641 0,-9.61842 0,-14.27105 6.06802,0.51474 13.43012,-0.15857 17.66484,-0.73603 0.76608,13.81067 -0.13734,39.04949 -1.56136,51.60858 -4.09619,0.54138 -12.59891,-0.02 -16.95497,-0.73604 0.17847,-1.91329 0.61614,-4.00447 0.90534,-7.3233 -3.0066,1.91851 -10.13943,4.18214 -11.74726,4.53167 -0.89035,4.87087 -1.17505,10.49788 0.48458,12.81327 8.84103,0.59261 29.05087,3.5763 38.09081,1.52506 z"
       id="path8970"
       inkscape:connector-curvature="0"
       sodipodi:nodetypes="ccccccccccccc" />
    <path
       style="color:#000000;fill:#510433;fill-opacity:1;fill-rule:nonzero;stroke:none;stroke-width:1px;marker:none;visibility:visible;display:inline;overflow:visible;enable-background:accumulate"
       d="m 253.57242,689.51629 c 10.38313,0.90712 17.05142,-3.86732 24.23816,-7.52668 -0.68622,3.33917 0.30579,5.56439 0.47103,8.57063 -8.56031,7.05221 -29.56749,9.01447 -34.63701,9.23599 6.8058,-1.9922 7.48675,-6.673 9.92782,-10.27994 z"
       id="path8797"
       inkscape:connector-curvature="0"
       sodipodi:nodetypes="ccccc" />
    <path
       style="fill:#000000;stroke:none;display:inline"
       d="m 86.306904,614.16688 c -13.502757,-0.23475 -30.128967,2.98957 -39.244837,4.07841 -17.995942,2.14954 -15.440472,34.4674 1.592942,34.55802 14.346047,0.0764 30.692285,-3.50578 39.336827,-3.87726 -0.359362,-11.43442 -0.252475,-26.38617 -1.684932,-34.75917 z m -8.615498,8.54063 c 0.550054,6.3255 1.004747,12.82104 0.736035,19.32092 -7.421914,0.64539 -20.933606,6.06576 -28.560594,2.14497 -4.509761,-2.31832 -7.916014,-13.94747 -0.736035,-18.21687 5.730372,-3.40743 27.482906,-3.28276 28.560594,-3.24902 z"
       id="path8882"
       inkscape:connector-curvature="0"
       sodipodi:nodetypes="cssccccssc" />
    <path
       style="fill:#1a1a1a;stroke:none;display:inline"
       d="m 138.21068,645.49573 c -6.72413,1.00406 -25.03927,6.17248 -33.06114,10.2231 -0.23075,0.32907 0.0436,1.0015 0.36198,1.09547 6.18676,1.82568 9.53945,12.88277 8.87386,16.67422 11.46352,-1.51241 36.38276,-9.73769 40.1047,-14.54977 0.85228,-5.67523 -10.08439,-13.99241 -16.2794,-13.44302 z m -0.86884,6.06169 c 1.9876,-0.5203 7.13424,1.88939 6.21167,5.71217 -3.65248,0.66408 -16.45327,5.80256 -21.64227,6.602 -0.23326,-1.71064 -1.71193,-4.92404 -5.13374,-6.38642 2.82509,-0.94168 16.79681,-4.9415 20.56434,-5.92775 z"
       id="path8906"
       inkscape:connector-curvature="0"
       sodipodi:nodetypes="ccscccscccs" />
    <path
       style="fill:#1a1a1a;stroke:none;display:inline"
       d="m 79.270334,671.15141 c -19.250441,5.38226 -11.797246,35.02278 1.961342,34.46812 12.650973,-0.51 24.601964,-1.0021 36.658754,-3.2414 3.22292,-4.51007 -1.67086,-33.18447 -3.86545,-35.04587 -8.82892,0.9373 -31.279677,2.84759 -34.754646,3.81915 z m 4.689236,8.04868 c 9.117989,-1.86167 14.340037,-1.21073 23.74457,-1.82846 1.76864,5.10523 3.04856,12.45401 2.36519,18.29164 -10.627263,1.97377 -13.932941,1.73579 -25.296853,2.0314 -10.860877,0.2825 -10.804305,-16.45458 -0.812907,-18.49458 z"
       id="path9924"
       inkscape:connector-curvature="0"
       sodipodi:nodetypes="ssccssccss" />
    <path
       style="fill:#1a1a1a;stroke:none;display:inline"
       d="m 76.153357,704.17039 c -3.933548,-2.5537 -17.242551,-4.50756 -19.120251,-15.91842 -2.421526,-14.7156 0.0044,-23.49324 13.16268,-26.91127 10.828196,-2.81269 23.357414,-3.83324 32.427964,-4.35681 5.09601,-0.14923 11.38792,5.83212 11.90672,10.65615 -2.2153,0.0676 -7.66519,0.86116 -9.83041,1.34842 0.78058,-3.67963 -2.02383,-2.98594 -3.80912,-4.42795 -10.577752,0.30446 -18.128914,0.51608 -27.676306,3.7915 -13.44277,4.61179 -10.926354,20.66603 -1.320962,26.56455 2.579788,2.82722 3.313424,6.30386 4.259685,9.25383 z"
       id="path9929"
       inkscape:connector-curvature="0"
       sodipodi:nodetypes="cssccccscc" />
    <path
       style="fill:#1a1a1a;stroke:none;display:inline"
       d="m 147.37999,684.61578 c -3.1396,1.41282 -21.30125,5.44775 -24.58323,6.66355 -0.36685,-8.07086 0.34547,-16.1221 -0.52045,-24.20118 -2.47487,0.98994 -8.57641,4.41835 -11.40524,2.77321 2.19356,9.26986 3.43303,22.36376 3.43303,33.11206 6.45789,-1.17476 34.66215,-10.46484 39.587,-13.83448 4.07573,-4.34275 3.92038,-9.701 2.08029,-13.3249 -3.64988,0.22717 -3.96808,0.37904 -6.33252,1.16719 -1.71823,-2.003 -1.66113,-5.02385 -1.84009,-6.99233 3.2296,-1.59315 5.08538,-2.57364 7.54436,-3.68018 0.13514,-2.4477 -0.50576,-6.27784 -0.73603,-7.54436 -2.01483,-0.048 -7.54255,2.18875 -8.85859,2.91256 0.20188,0.71047 0.12263,1.47207 0.18401,2.20811 -2.09325,0.97925 -3.70374,3.00058 -5.49412,3.89576 1.38033,5.30652 0.53057,10.91359 1.65608,15.64075 2.04993,0.41652 3.93605,-1.10326 5.1261,-1.31964 -0.126,1.2898 0.0975,1.5436 0.1594,2.52388 z"
       id="path9936"
       inkscape:connector-curvature="0"
       sodipodi:nodetypes="ccccccccccccccccc" />
    <path
       style="fill:#1a1a1a;stroke:none;display:inline"
       d="m 86.139412,615.31582 c 2.011275,-5.51918 -1.318151,-9.65395 -4.944331,-11.97048 -14.292449,-0.31451 -27.736132,0.2956 -38.773936,4.68409 -11.672635,4.6409 -12.143227,23.78124 -5.845872,35.28861 1.055386,-3.21144 4.290673,-13.04889 5.845872,-15.51131 -1.028286,-6.31146 -1.364639,-11.36407 2.48141,-12.89051 10.364023,-4.11329 16.558215,-3.6959 30.221825,-4.36997 3.260916,0.91415 3.66971,4.65168 3.728651,4.76957 1.996378,-0.30437 5.568695,0 7.286381,0 z"
       id="path9941"
       inkscape:connector-curvature="0"
       sodipodi:nodetypes="ccsccsccc" />
    <path
       style="fill:#1a1a1a;stroke:none;display:inline"
       d="m 87.875042,603.85856 c -1.041049,-0.0103 -0.691211,0.87005 -0.654821,1.31574 0.361628,4.42893 -3.911512,13.44173 -6.921116,15.09103 10.609285,2.84944 36.564585,8.27933 48.762335,9.56846 4.34818,0.17965 9.47273,-15.50058 2.63385,-19.23004 -8.63804,-2.05668 -37.011908,-6.67677 -43.820248,-6.74519 z m 4.901258,7.25639 c 9.60195,2.18227 24.05197,2.98401 34.22947,5.88828 1.02999,1.23565 -0.88208,3.82418 -3.89035,4.33999 -7.923,-1.31239 -22.62679,-4.41037 -31.81119,-6.7321 0.258495,-0.91931 1.831447,-1.89726 1.47207,-3.49617 z"
       id="path9943"
       inkscape:connector-curvature="0"
       sodipodi:nodetypes="sscccsccccc" />
    <path
       style="fill:#1a1a1a;stroke:none;display:inline"
       d="m 81.003564,643.11361 c 4.835016,1.35282 31.317686,7.61006 36.351176,8.80852 -0.33369,0.74336 -1.96034,4.64927 -5.68035,4.91817 -5.78169,1.22806 -27.534918,-6.90067 -32.694922,-8.02242 -0.222607,-2.49872 0.978647,-3.80346 2.024096,-5.70427 z"
       id="path9948"
       inkscape:connector-curvature="0"
       sodipodi:nodetypes="ccccc" />
    <path
       style="fill:#1a1a1a;stroke:none;display:inline"
       d="m 125.5337,624.71273 c 0.60078,3.57825 -2.13055,20.99184 -1.56137,24.40686 1.34725,1.01547 7.81274,-2.26677 8.64842,-2.39212 0.14102,-4.1849 1.74537,-21.12366 1.74537,-24.77487 -2.40811,1.71247 -6.72143,2.05647 -8.83242,2.76013 z"
       id="path9950"
       inkscape:connector-curvature="0"
       sodipodi:nodetypes="ccccc" />
    <path
       style="fill:#1a1a1a;stroke:none;display:inline"
       d="m 54.131391,690.86348 c -10.098918,3.26966 -6.685746,21.6088 4.42388,19.9559 8.747543,-1.30147 15.666818,-4.27543 23.940943,-6.24546 0.482839,-4.99806 0.183317,0.6347 0,-3.39828 2.837504,-2.04067 7.498962,-1.30114 8.587514,-1.30114 0.496898,6.54033 -0.52045,3.44165 -0.52045,9.12328 -10.723253,5.13927 -22.216045,9.24047 -33.309155,10.66935 -24.235342,3.1217 -23.637829,-33.62241 -5.464782,-36.8707 2.283196,-0.4081 5.009824,-1.98853 5.725015,-2.08181 2.45241,2.02052 3.051837,6.11713 5.204549,7.41648 0.194872,-1.26508 -6.236559,1.97123 -8.587514,2.73238 z"
       id="path9952"
       inkscape:connector-curvature="0"
       sodipodi:nodetypes="ssccccssccs" />
    <path
       style="fill:#1a1a1a;stroke:none;display:inline"
       d="m 60.637088,667.0195 c -26.464734,3.53786 -32.016633,24.97733 -20.818225,42.49875 2.695846,-2.37763 3.489263,-12.89778 5.204563,-15.61366 -1.217372,-9.10487 -0.718473,-16.65701 13.271613,-18.21596 1.569286,-2.24111 2.425398,-6.64273 2.342049,-8.66913 z"
       id="path9954"
       inkscape:connector-curvature="0"
       sodipodi:nodetypes="ccccc" />
    <path
       style="fill:#1a1a1a;stroke:none;display:inline"
       d="m 110.86104,700.41029 c 2.24578,0.56078 7.48175,2.62446 11.45003,3.38295 -0.53728,3.08931 0.40817,4.20576 -0.7807,7.02614 -9.76408,-2.78973 -22.084473,-4.53966 -32.788691,-7.02614 -0.185319,3.2582 -0.161501,5.1144 -0.260218,7.28638 12.140919,4.99238 27.858129,6.60931 39.034159,8.06706 2.3988,-6.21095 2.04656,-13.79711 2.34205,-20.29776 -2.67655,-0.79036 -8.45777,-2.60239 -9.3682,-2.86251 -1.80664,-1.7775 -10.04139,1.68998 -9.62843,4.42388 z"
       id="path9956"
       inkscape:connector-curvature="0"
       sodipodi:nodetypes="ccccccccc" />
    <path
       style="fill:#1a1a1a;stroke:none;display:inline"
       d="m 135.17725,612.5037 c 2.39051,3.04497 -0.78163,9.62243 -4.48453,12.87193 2.15615,3.23423 11.96758,14.69118 15.74179,20.92288 8.17289,-0.16521 25.91325,-6.22219 34.58417,-7.7739 -5.02887,-7.5433 -14.63283,-17.45284 -20.34358,-23.09063 -3.21958,-0.76657 -17.14525,-3.25912 -23.06646,-3.91006 -1.58053,-0.17374 -3.0873,0.14427 -2.43139,0.97978 z m 19.78321,7.8931 c 4.09997,6.68153 9.24091,9.35149 12.60843,14.96402 -4.2245,0.68295 -15.05909,0.97102 -19.21673,0.78204 -2.27404,-3.55629 -4.77255,-7.16926 -6.79527,-11.31001 1.31574,-1.36655 2.07935,-3.54299 2.10034,-5.98164 1.32228,-0.22455 9.95966,1.54559 11.30323,1.54559 z"
       id="path9963"
       inkscape:connector-curvature="0"
       sodipodi:nodetypes="sccccsscccccc" />
    <path
       style="fill:#1a1a1a;stroke:none;display:inline"
       d="m 139.74633,715.03151 c 5.47063,0.24866 6.2175,1.30848 12.62105,1.43125 1.29779,-1.46003 11.1342,-7.73604 13.27161,-10.32749 2.72787,0.12395 9.67817,-1.01604 12.96291,-0.0446 -5.99829,3.45346 -19.74238,15.96188 -24.28282,18.82953 -18.73639,-0.76122 -22.10824,-1.45333 -27.10067,-6.45722 1.03102,-2.51629 11.66628,-16.09505 13.93519,-16.6561 2.1477,-0.53108 8.77591,3.16619 9.26208,3.02729 -1.95038,1.77877 -10.66935,10.19734 -10.66935,10.19734 z"
       id="path9970"
       inkscape:connector-curvature="0"
       sodipodi:nodetypes="ccccccscc" />
    <path
       style="fill:#1a1a1a;stroke:none;display:inline"
       d="m 161.52322,665.00524 c 0,2.51964 0,8.2231 0,8.46441 -2.19052,1.49162 -5.54213,1.58608 -7.28413,2.59461 -0.50647,1.37887 0.4758,4.88576 0.4758,6.0538 3.52258,-1.6632 9.73529,0.10893 13.24863,-1.47207 -1.02571,-4.87607 -0.1655,-16.52277 -0.55202,-21.16101 -4.38077,-1.26448 -12.03594,-1.4504 -16.56079,-1.65608 1.57293,1.99876 3.22688,7.12996 3.12815,7.54436 2.28996,-0.26144 4.89037,-0.24731 7.54436,-0.36802 z"
       id="path9972"
       inkscape:connector-curvature="0"
       sodipodi:nodetypes="ccccccccc" />
    <path
       style="fill:#1a1a1a;stroke:none;display:inline"
       d="m 136.94225,646.24176 c -2.24235,0.24263 -4.59541,0.887 -6.44031,1.28806 0.4879,-7.33263 1.62352,-17.4545 2.94414,-23.0011 0.57545,3.19728 3.04445,5.28719 4.69222,6.34831 -0.41998,4.29974 -0.63595,11.25724 -1.19605,15.36473 z"
       id="path9974"
       inkscape:connector-curvature="0"
       sodipodi:nodetypes="ccccc" />
    <path
       style="fill:#1a1a1a;stroke:none;display:inline"
       d="m 133.99811,696.10815 c -0.10614,7.93022 0.36801,20.05647 0.36801,23.55312 -3.80044,1.83576 -3.50983,-0.41291 -6.2563,-0.73603 0.99692,-7.30557 -1.0871,-14.16318 -2.20811,-20.60899 3.41057,-1.30247 5.23992,-1.42907 8.0964,-2.2081 z"
       id="path9976"
       inkscape:connector-curvature="0" />
    <path
       style="fill:url(#linearGradient8395);fill-opacity:1;stroke:none"
       d="m 461.77038,808.92525 c 30.78516,18.52814 68.14295,12.23723 102.00928,16.65458 40.53829,-22.49476 33.32493,-90.57817 -3.64319,-107.21383 -36.62383,6.49841 -85.80442,6.02483 -100.18768,14.05229 -19.17082,17.77089 -13.68734,48.30889 1.82159,76.50696 z"
       id="path8387"
       inkscape:connector-curvature="0"
       sodipodi:nodetypes="ccccc" />
    <path
       style="fill:#ffffff;stroke:none"
       d="m 500.91166,770.26371 c -2.31498,-17.24092 -4.5951,-29.438 -15.45674,-34.77767 -9.6028,-4.72082 7.49561,-2.78427 11.96057,3.31216 11.04111,15.07541 4.38914,38.11597 3.49617,31.46551 z"
       id="path8385"
       inkscape:connector-curvature="0"
       sodipodi:nodetypes="ssss" />
    <path
       style="fill:url(#linearGradient8403);fill-opacity:1;stroke:none;display:inline"
       d="m 473.70452,738.8875 c -8.34589,-0.13882 -15.95561,19.2352 -16.3542,27.61066 -0.67128,14.10562 2.77622,32.27083 14.48795,34.86303 17.22202,3.8118 22.77303,-16.73954 20.977,-34.22563 -1.68106,-16.36678 -7.57025,-28.056 -19.11075,-28.24806 z"
       id="path8105"
       inkscape:connector-curvature="0"
       sodipodi:nodetypes="sssss" />
    <path
       style="fill:url(#linearGradient8485);fill-opacity:1;stroke:none"
       d="m 571.57104,726.65362 c 19.05619,30.8706 17.40223,64.13956 5.52026,93.84447 32.53954,7.10011 74.10988,-1.97842 96.42061,-24.28914 9.67318,-37.51616 4.45372,-62.09579 -26.86528,-80.22784 -23.07755,-4.26253 -56.53617,5.37552 -75.07559,10.67251 z"
       id="path8477"
       inkscape:connector-curvature="0"
       sodipodi:nodetypes="ccccc" />
    <path
       style="fill:#5e225e;fill-opacity:1;stroke:none;display:inline"
       d="m 478.16474,807.36388 c 6.64854,-0.0162 13.73217,-3.68001 17.43525,-9.62843 30.47464,2.00535 67.04993,-3.89077 84.67097,-10.36446 -4.81555,15.55763 -7.69517,18.86961 -16.4913,27.11599 -27.79126,2.69956 -60.64065,2.86662 -85.61492,-7.1231 z"
       id="path8792"
       inkscape:connector-curvature="0"
       sodipodi:nodetypes="ccccc" />
    <path
       style="color:#000000;fill:#5e225e;fill-opacity:1;fill-rule:nonzero;stroke:none;stroke-width:1px;marker:none;visibility:visible;display:inline;overflow:visible;enable-background:accumulate"
       d="m 596.56835,796.95477 c 29.52869,2.61425 66.45845,-5.20473 74.1834,-32.24208 2.81756,11.32945 2.09467,22.40962 -4.6841,29.79225 -16.99322,18.50697 -50.45019,24.29962 -75.22431,17.54304 2.95414,-5.13246 4.08192,-9.34239 5.72501,-15.09321 z"
       id="path8796"
       inkscape:connector-curvature="0"
       sodipodi:nodetypes="ccscc" />
    <path
       style="color:#000000;fill:#5e225e;fill-opacity:1;fill-rule:nonzero;stroke:none;stroke-width:1px;marker:none;visibility:visible;display:inline;overflow:visible;enable-background:accumulate"
       d="m 595.20494,970.64924 c 15.3621,-7.5607 20.31277,-26.49677 23.60791,-39.00981 13.04414,-0.36021 18.08654,8.77104 24.01495,16.19278 -10.96048,12.0235 -27.33692,20.12043 -40.29627,25.39313 -2.57706,0.2522 -5.15575,-0.4906 -7.32659,-2.5761 z"
       id="path8821"
       inkscape:connector-curvature="0" />
    <path
       style="color:#000000;fill:#5e225e;fill-opacity:1;fill-rule:nonzero;stroke:none;stroke-width:1px;marker:none;visibility:visible;display:inline;overflow:visible;enable-background:accumulate"
       d="m 624.51131,900.72593 c 0,4.79306 0,9.63462 0,12.5126 8.51385,5.42516 17.65036,7.0717 23.20089,11.77659 -6.2191,-9.97799 -14.6409,-17.03342 -23.20089,-24.28919 z"
       id="path8829"
       inkscape:connector-curvature="0" />
    <path
       style="color:#000000;fill:#5e225e;fill-opacity:1;fill-rule:nonzero;stroke:none;stroke-width:1px;marker:none;visibility:visible;display:inline;overflow:visible;enable-background:accumulate"
       d="m 331.13606,901.56632 c 18.47471,-4.57663 29.95995,-17.38951 35.91142,-32.26824 7.91983,0.63521 17.66765,-4.37476 20.81823,-5.725 10.15924,7.80605 10.46068,12.42142 10.92956,22.73676 -18.60926,10.39745 -41.26656,20.44656 -60.89329,21.33867 -6.87918,-2.90373 -4.61577,-0.16925 -6.76592,-6.08219 z"
       id="path8837"
       inkscape:connector-curvature="0"
       sodipodi:nodetypes="cccccc" />
    <path
       style="fill:#ffffff;stroke:none;display:inline"
       d="m 588.37895,729.81601 c 10.6395,-5.4824 25.43206,-5.20135 36.95235,-5.72501 -13.55979,0.60946 -23.33314,5.15651 -33.82962,10.92957 -5.13096,-0.84614 -1.51941,-2.53237 -3.12273,-5.20456 z"
       id="path9958"
       inkscape:connector-curvature="0" />
    <path
       style="color:#000000;fill:#510433;fill-opacity:1;fill-rule:nonzero;stroke:none;stroke-width:1px;marker:none;visibility:visible;display:inline;overflow:visible;enable-background:accumulate"
       d="m 557.21835,714.02187 c -0.49102,0.0149 -69.82808,2.14756 -98.62871,14.4907 -26.00242,21.61058 -20.20655,76.66259 3.68017,87.58818 29.36111,14.68694 69.08927,10.15286 98.2607,15.45674 22.10436,-4.5033 34.47742,-35.19685 32.79957,-62.14897 -1.78546,-28.68079 -20.88987,-55.8454 -36.11173,-55.38665 z m 0.73604,8.60241 c 18.20577,5.93819 25.07483,28.47476 26.48758,47.74319 1.65968,22.63651 -6.75077,44.82587 -24.64749,48.67742 -27.18016,0.23973 -72.69372,-2.16967 -93.84449,-13.24863 -21.76143,-15.26206 -16.72438,-60.80198 -0.73604,-71.39541 19.26748,-10.46074 76.56505,-8.83559 92.74044,-11.77657 z"
       id="path8363"
       inkscape:connector-curvature="0"
       sodipodi:nodetypes="scccsscscccc" />
    <path
       style="color:#000000;fill:#510433;fill-opacity:1;fill-rule:nonzero;stroke:none;stroke-width:1px;marker:none;visibility:visible;display:inline;overflow:visible;enable-background:accumulate"
       d="m 567.52285,720.0293 c 12.69139,-7.12557 61.22187,-19.12833 90.53232,-5.15224 25.74774,12.27727 35.32405,57.61961 19.13692,86.11611 -14.36324,25.28564 -69.13309,34.09233 -103.41295,23.18511 -1.84582,-3.89077 6.96945,-5.86539 7.72837,-6.62431 34.29349,7.6773 77.21972,-4.77391 87.22017,-19.13692 14.61392,-20.98904 3.40723,-70.61342 -22.81709,-77.28369 -24.19992,-6.15536 -59.15688,0.71776 -71.76343,5.52026 -2.93497,-2.97558 -3.04119,-4.53417 -6.62431,-6.62432 z"
       id="path8469"
       inkscape:connector-curvature="0"
       sodipodi:nodetypes="cssccsscc" />
  </g>
</svg>
