<?xml version="1.0" encoding="UTF-8" standalone="no"?>
<!-- Created with Inkscape (http://www.inkscape.org/) -->

<svg
   width="512"
   height="512"
   viewBox="0 0 512 512"
   version="1.1"
   id="svg5"
   inkscape:version="1.2.2 (1:1.2.2+202212051552+b0a8486541)"
   sodipodi:docname="Joystick red 1.svg"
   inkscape:export-filename="/home/linuxmc/Game Dev/renpy-7.4.11-sdk/Project 2/Game Development with Kevin and Ben/game/images/ui/joystick red.png"
   inkscape:export-xdpi="96"
   inkscape:export-ydpi="96"
   xmlns:inkscape="http://www.inkscape.org/namespaces/inkscape"
   xmlns:sodipodi="http://sodipodi.sourceforge.net/DTD/sodipodi-0.dtd"
   xmlns="http://www.w3.org/2000/svg"
   xmlns:svg="http://www.w3.org/2000/svg">
  <sodipodi:namedview
     id="namedview7"
     pagecolor="#ffffff"
     bordercolor="#999999"
     borderopacity="1"
     inkscape:pageshadow="0"
     inkscape:pageopacity="0"
     inkscape:pagecheckerboard="0"
     inkscape:document-units="px"
     showgrid="false"
     inkscape:zoom="1.138"
     inkscape:cx="211.33568"
     inkscape:cy="229.34974"
     inkscape:window-width="1920"
     inkscape:window-height="1010"
     inkscape:window-x="0"
     inkscape:window-y="0"
     inkscape:window-maximized="1"
     inkscape:current-layer="layer1"
     inkscape:showpageshadow="0"
     inkscape:deskcolor="#d1d1d1" />
  <defs
     id="defs2">
    <rect
       x="163.11864"
       y="367.43605"
       width="238.55519"
       height="64.105214"
       id="rect76235" />
  </defs>
  <g
     inkscape:label="Layer 1"
     inkscape:groupmode="layer"
     id="layer1">
    <rect
       style="fill:#ff6b13;fill-opacity:1;stroke-width:0.174"
       id="rect4152"
       width="22.746965"
       height="21.118591"
       x="181.76474"
       y="337.65485"
       rx="2.8989999"
       ry="1.3" />
    <path
       id="rect4152-3"
       style="fill:#ff7624;fill-opacity:1;stroke-width:0.174"
       d="m 184.26562,339.67578 c -0.84072,-0.12257 -0.38832,0.8809 -0.5,1.38203 0,5.20404 0,10.40808 0,15.61211 1.79736,0.22694 3.62869,0.045 5.43946,0.10352 4.3034,-0.0219 8.61044,0.044 12.91156,-0.0332 0.75019,0.0355 0.25175,-0.99443 0.39508,-1.4703 0,-5.1707 0,-10.3414 0,-15.51211 -1.83514,-0.22572 -3.70305,-0.0459 -5.55117,-0.10351 -4.23141,0.0142 -8.4644,-0.0285 -12.69493,0.0215 z" />
    <rect
       style="fill:#c1c1c1;fill-opacity:1;stroke-width:0.157451"
       id="rect1767"
       width="20.297653"
       height="108.55599"
       x="266.84592"
       y="251.11821"
       rx="2.3737841"
       ry="1.3" />
    <rect
       style="fill:#2b2b2b;fill-opacity:1;stroke-width:0.174"
       id="rect4152-6"
       width="22.746965"
       height="21.118591"
       x="265.60229"
       y="346.65912"
       rx="2.8989999"
       ry="1.3" />
    <path
       id="rect4152-3-5"
       style="fill:#2b2b2b;fill-opacity:1;stroke-width:0.174"
       d="m 268.1032,348.68005 c -0.84072,-0.12257 -0.38832,0.8809 -0.5,1.38203 0,5.20404 0,10.40808 0,15.61211 1.79736,0.22694 3.62869,0.045 5.43946,0.10352 4.3034,-0.0219 8.61044,0.044 12.91156,-0.0332 0.75019,0.0355 0.25175,-0.99443 0.39508,-1.4703 0,-5.1707 0,-10.3414 0,-15.51211 -1.83514,-0.22572 -3.70305,-0.0459 -5.55117,-0.10351 -4.23141,0.0142 -8.4644,-0.0285 -12.69493,0.0215 z" />
    <rect
       style="fill:#161616;fill-opacity:1;stroke-width:0.138142"
       id="rect846"
       width="255.3141"
       height="81.845612"
       x="150"
       y="353.23575"
       rx="1.8044839"
       ry="0.99855369" />
    <path
       id="rect846-9"
       style="fill:#191919;fill-opacity:1;stroke-width:0.138142"
       d="m 151.64052,354.78313 c 0,26.25004 0,52.50008 0,78.75013 17.33009,0.0281 34.66185,0.004 51.99257,0.0119 66.63622,-0.003 133.27284,0.006 199.90881,-0.004 0.30156,-0.21049 0.0473,-0.91093 0.13125,-1.3132 0,-25.81477 0,-51.62954 0,-77.44431 -22.38682,-0.0245 -44.77499,-0.004 -67.16233,-0.0108 -61.58338,0.003 -123.16712,-0.005 -184.75029,0.004 l -0.0819,0.004 z" />
    <path
       id="rect846-9-7"
       style="fill:#1e1e1e;fill-opacity:1;stroke-width:0.138142"
       d="m 336.51172,356.77344 c -60.95703,0.001 -121.91406,0.003 -182.8711,0.004 0,24.91927 10e-6,49.83855 0,74.75782 82.67773,0.0231 165.35547,6e-4 248.03321,0.006 0,-24.91928 0,-49.83855 0,-74.75782 -21.72071,-0.011 -43.4414,-0.0134 -65.16211,-0.01 z" />
    <ellipse
       style="fill:#b30c00;fill-opacity:1;stroke-width:0.149608"
       id="path2307"
       cx="275.8118"
       cy="206.71414"
       rx="51.12392"
       ry="49.532093" />
    <path
       id="path2307-7"
       style="fill:#000000;fill-opacity:0;stroke-width:0.149608"
       d="m 272.79141,159.03612 c -3.77499,0.25403 -7.52989,0.86971 -11.17615,1.93658 -4.19016,1.21751 -8.24486,2.97097 -12.01272,5.25299 -3.86368,2.33389 -7.42864,5.21319 -10.55017,8.55721 -2.65613,2.86185 -4.98079,6.06128 -6.8944,9.51769 -2.01046,3.68943 -3.57307,7.65839 -4.53572,11.79101 -1.02034,4.26788 -1.40401,8.69728 -1.17933,13.09008 0.23536,4.20952 1.02954,8.38703 2.38216,12.35786 1.42717,4.23783 3.47228,8.23622 5.99411,11.86452 2.28531,3.26999 4.96736,6.22619 7.93433,8.82067 3.65908,3.1539 7.73512,5.77561 12.08804,7.73029 3.78793,1.72928 7.78129,2.93647 11.844,3.70214 3.89726,0.68956 7.86092,0.9436 11.80903,0.74603 4.8341,-0.26472 9.63669,-1.19899 14.22754,-2.81797 4.0933,-1.43682 8.01734,-3.4151 11.63732,-5.88535 3.68859,-2.52757 7.06524,-5.56389 9.96226,-9.052 2.55109,-3.04359 4.71292,-6.44266 6.44512,-10.06689 1.62296,-3.44932 2.84409,-7.10667 3.59626,-10.87411 1.24336,-6.32148 1.19301,-12.93245 -0.25231,-19.21362 -2.37508,-10.61164 -8.58255,-20.09448 -16.83663,-26.62735 -9.6709,-7.72093 -22.0125,-11.51244 -34.11375,-10.84082 -0.123,0.004 -0.24599,0.007 -0.36899,0.011 z" />
    <path
       id="path2307-7-7"
       style="fill:#ee1000;fill-opacity:1;stroke-width:0.149608"
       d="m 274.32951,160.73887 c -2.77877,0.0813 -5.54776,0.42251 -8.28015,0.95553 -0.3056,0.072 -0.98172,0.20657 -1.42812,0.30925 -10.38803,2.39744 -20.11358,8.30084 -26.89034,16.9716 -2.77611,3.52541 -5.04925,7.48856 -6.6858,11.73132 -0.29367,0.77089 -0.65632,1.77458 -0.92913,2.65325 -1.89785,6.01234 -2.50783,12.47406 -1.72609,18.75766 0.0899,0.72445 0.23264,1.69964 0.38342,2.51337 1.7948,10.06648 7.18522,19.26204 14.60893,25.83795 8.82378,7.88028 20.37825,12.13609 31.92297,12.23069 1.91845,0.0214 3.83802,-0.0633 5.74669,-0.2704 0.7274,-0.0827 1.68301,-0.20291 2.49649,-0.33343 1.45293,-0.22943 2.93439,-0.53606 4.28642,-0.87496 3.75943,-0.93743 7.41462,-2.33418 10.87156,-4.14778 0.84405,-0.44845 1.86467,-1.01747 2.75186,-1.56501 8.94067,-5.45034 16.2044,-14.09926 19.69286,-24.3774 3.3145,-9.51662 3.2156,-20.28557 -0.29386,-29.72723 -3.65827,-9.99584 -10.85272,-18.39132 -19.68008,-23.66718 -8.10056,-4.88932 -17.51829,-7.29903 -26.84763,-6.99723 z" />
    <rect
       style="fill:#2b2b2b;fill-opacity:1;stroke-width:0.169833"
       id="rect5048"
       width="252.17009"
       height="1.1821905"
       x="151.53419"
       y="358.80106"
       rx="2.7617984"
       ry="1.1821905" />
    <rect
       style="fill:#2b2b2b;fill-opacity:1;stroke-width:0.169833"
       id="rect5048-6"
       width="252.17009"
       height="1.1821905"
       x="151.53419"
       y="431.09253"
       rx="2.7617984"
       ry="1.1821905" />
    <rect
       style="fill:#dc0f00;fill-opacity:1;stroke-width:0.174"
       id="rect5174"
       width="101.51711"
       height="9.6328888"
       x="225.29335"
       y="201.36577"
       rx="2.7618001"
       ry="1.1821899" />
    <ellipse
       style="fill:#e6ebff;fill-opacity:1;stroke-width:0.174"
       id="path5960"
       cx="300.36185"
       cy="70.406143"
       rx="2.9110854"
       ry="7.5378776"
       transform="rotate(21.239449)" />
    <path
       id="path5960-3"
       style="fill:#f1f4ff;fill-opacity:1;stroke-width:0.174"
       d="m 256.18358,169.82662 c -1.94023,2.11335 -3.03621,4.91327 -3.49069,7.71838 -0.014,0.41922 -0.21994,1.39422 0.0277,1.49888 1.91857,-2.09577 3.02919,-4.85743 3.48934,-7.63927 0.0802,-0.54965 0.11706,-1.10817 0.0737,-1.66275 l -0.0763,0.0647 z" />
  </g>
</svg>
