<?xml version="1.0" encoding="UTF-8"?>
<!DOCTYPE svg PUBLIC "-//W3C//DTD SVG 1.1//EN" "http://www.w3.org/Graphics/SVG/1.1/DTD/svg11.dtd">
<svg version="1.1" xmlns="http://www.w3.org/2000/svg" xmlns:xlink="http://www.w3.org/1999/xlink" x="0" y="0" width="399" height="512" viewBox="0, 0, 399, 512">
  <g id="Layer_1">
    <path d="M390.806,359.887 C378.55,336.138 351.43,279.136 347.338,266.991 C344.069,257.291 331.275,215.876 331.275,206.077 C331.275,205.759 331.251,205.414 331.235,205.078 C330.454,205.34 329.679,205.565 328.905,205.759 C327.015,206.223 325.127,206.55 323.233,206.77 C321.339,206.988 319.429,207.075 317.529,206.981 C315.65,206.868 313.683,206.616 312.058,205.673 C313.837,206.244 315.687,206.07 317.469,205.802 C319.257,205.506 321.014,205.042 322.728,204.461 C324.439,203.878 326.115,203.2 327.704,202.422 C328.497,202.034 329.273,201.618 329.981,201.171 C330.233,201.02 330.469,200.86 330.694,200.698 C330.252,198.361 329.581,195.852 328.776,193.341 C328.629,193.352 328.483,193.365 328.339,193.376 C327.5,193.461 326.652,193.559 325.796,193.672 C324.086,193.895 322.367,194.143 320.645,194.405 L315.477,195.201 C313.75,195.451 312.031,195.776 310.286,195.925 C311.939,195.393 313.541,194.692 315.165,194.061 L320.031,192.122 C321.658,191.479 323.29,190.846 324.944,190.231 C325.746,189.93 326.562,189.641 327.39,189.358 C326.628,187.328 325.812,185.363 324.983,183.552 L324.982,183.55 L324.983,183.55 L324.921,183.413 C324.775,183.318 324.569,183.216 324.281,183.155 C323.575,182.968 322.651,182.934 321.732,182.979 C319.869,183.073 317.915,183.468 316.008,184.014 C314.095,184.559 312.213,185.282 310.393,186.155 C308.584,187.046 306.827,188.086 305.263,189.425 C306.542,187.809 308.111,186.41 309.776,185.147 C311.455,183.899 313.244,182.779 315.134,181.818 C317.03,180.856 319.006,180.022 321.189,179.475 C321.708,179.352 322.237,179.241 322.79,179.16 C322.376,178.412 321.971,177.709 321.585,177.104 C319.387,173.649 315.173,161.305 311.817,147.652 C310.039,148.173 307.435,148.731 304.43,148.731 C301.619,148.731 298.459,148.242 295.309,146.772 C285.952,142.404 284.129,123.315 286.701,114.641 C288.783,107.613 302.036,105.104 307.784,104.338 C307.133,102.161 305.17,100.986 303.771,100.409 C296.013,97.214 279.759,101.044 269.512,119.425 C256.853,142.126 265.891,184.089 273.227,205.305 C279.904,224.617 269.882,277.044 263.25,311.736 L263.167,312.175 C254.087,359.674 258.829,400.452 274.658,428.063 C275.231,429.189 275.837,430.298 276.464,431.395 C276.828,432.03 277.199,432.658 277.579,433.283 C279.66,436.695 282.003,439.944 284.644,442.947 C286.625,445.196 288.781,447.289 291.088,449.212 C292.243,450.178 293.439,451.079 294.676,451.95 L298.508,454.503 C303.694,457.779 309.177,460.656 315.007,462.66 C317.909,463.714 320.91,464.472 323.957,465.001 C327.003,465.493 330.132,465.781 333.23,465.355 C333.136,465.377 333.042,465.393 332.947,465.413 C329.982,466.068 326.894,466.082 323.853,465.882 C320.711,465.639 317.569,465.155 314.505,464.361 C308.339,462.873 302.419,460.453 296.752,457.583 L292.551,455.325 C291.152,454.528 289.764,453.675 288.429,452.757 C285.751,450.926 283.207,448.885 280.835,446.658 C277.911,443.908 275.232,440.903 272.788,437.717 C269.321,449.466 258.442,458.067 245.584,458.067 L195.298,458.067 C208.947,478.794 250.708,512.496 293.786,503.806 C319.708,498.578 327.921,487.562 336.618,475.899 C341.594,469.221 346.733,462.331 355.303,456.729 L357.025,455.648 C367.945,449.085 379.804,431.594 387.238,411.086 C394.872,390.031 396.24,370.412 390.806,359.887 M47.847,331.812 C44.232,332.5 35.938,334.278 31.73,336.801 C28.539,338.716 24.726,343.281 21.363,347.307 C18.925,350.225 16.623,352.98 14.613,354.694 C13.828,355.363 13.248,358.245 14.498,362.306 C16.158,367.7 20.607,373.755 28.119,374.574 C34.951,375.317 40.07,374.209 43.335,371.282 C46.328,368.595 47.847,364.264 47.847,358.409 C47.847,355.213 47.533,352.125 46.916,349.232 L47.847,349.033 L47.847,349.027 L46.914,349.222 C46.738,346.542 46.318,343.814 45.639,341.116 C44.967,338.418 44.091,335.731 42.92,333.142 C44.762,335.317 46.381,337.71 47.83,340.229 L47.847,340.259 L47.847,331.812 z M40.748,324.186 C46.402,323.516 53.376,321.003 55.99,315.961 C61.326,305.669 59.715,293.676 51.453,282.19 C49.943,280.092 48.66,277.69 47.638,275.05 L47.656,275.043 C47.039,273.564 46.443,272.074 45.884,270.572 C45.331,269.09 44.813,267.596 44.345,266.085 C43.867,264.503 43.431,262.907 43.107,261.289 C42.809,259.675 42.51,258.013 42.726,256.388 C42.908,257.997 43.576,259.475 44.229,260.922 C44.912,262.364 45.691,263.758 46.505,265.125 C46.941,265.845 47.389,266.555 47.847,267.259 L47.847,252.002 C47.533,252.276 47.21,252.542 46.869,252.788 C42.308,256.091 37.64,258 33.099,258.857 C32.556,258.96 32.014,259.044 31.475,259.117 C29.498,260.41 21.555,266.306 16.546,280.418 C15.232,284.121 14.881,288.005 15.166,291.856 C18.31,287.661 23.539,283.679 28.021,282.59 C31.835,281.664 33.912,283.065 34.984,284.405 C39.244,289.732 42.365,296.529 40.213,298.681 L40.076,298.82 C33.726,305.141 26.893,313.045 25.047,317.867 C26.22,319.625 27.253,320.98 27.968,321.804 C29.49,323.559 34.369,324.937 40.748,324.186 M16.589,299.805 C18.259,305.837 21.035,311.375 23.541,315.498 C26.693,309.209 34.609,300.927 38.408,297.145 L38.543,297.011 C38.873,296.305 37.798,291.708 33.137,285.881 C32.205,284.713 30.671,284.38 28.578,284.887 C27.687,285.104 26.746,285.477 25.793,285.949 C26.601,287.32 26.652,289.119 26.281,290.685 C25.867,292.42 25.007,294.003 23.92,295.365 C22.831,296.729 21.478,297.875 19.945,298.708 C18.912,299.258 17.757,299.679 16.589,299.805 M16.379,299.003 C17.295,298.456 18.119,297.84 18.902,297.171 C20.066,296.169 21.131,295.067 22.081,293.881 C23.029,292.697 23.877,291.441 24.527,290.088 C25.111,288.864 25.519,287.563 25.549,286.068 C21.568,288.114 17.423,292.039 15.623,295.506 C15.828,296.684 16.081,297.851 16.379,299.003 M44.097,248.96 C49.717,244.889 51.348,233.386 51,223.979 C50.988,223.462 51.002,222.938 50.914,222.288 C50.867,221.679 50.771,221.035 50.678,220.391 C50.494,219.108 50.267,217.804 50.025,216.499 C49.545,213.888 49.008,211.268 48.463,208.647 L46.826,200.776 C46.559,199.46 46.291,198.145 46.054,196.822 C45.837,195.503 45.527,194.169 45.582,192.822 C45.723,194.149 46.219,195.405 46.627,196.675 C47.051,197.94 47.508,199.198 47.963,200.455 L50.736,207.999 C50.857,208.329 50.976,208.662 51.098,208.993 L47.945,188.243 L48.02,190.604 C35.975,190.991 26.173,196.92 22.164,202.266 C21.619,202.993 21.029,204.088 20.41,205.425 C21.316,205.827 22.092,206.455 22.715,207.304 C25.65,211.292 24.471,219.059 22.962,223.307 C20.264,230.905 11.877,235.193 7.82,236.872 C6.908,238.445 5.973,239.763 5.007,240.727 C4.246,241.49 5.037,243.617 6.887,245.787 C13.291,253.297 29.546,259.498 44.097,248.96 M9.6,233.429 C13.556,231.401 18.853,227.818 20.736,222.516 C21.775,219.593 22.343,215.938 22.103,212.949 L22.076,212.997 C21.535,213.819 20.795,214.513 19.963,215.061 C19.13,215.615 18.205,216.024 17.244,216.329 C16.865,216.454 16.477,216.546 16.087,216.625 C15.945,217.028 15.802,217.43 15.66,217.832 C13.705,223.338 11.71,228.944 9.6,233.429 M16.812,214.598 L16.886,214.593 C17.742,214.511 18.597,214.336 19.408,214.018 C20.217,213.703 20.986,213.245 21.619,212.623 C21.76,212.483 21.894,212.331 22.023,212.175 C21.834,210.774 21.445,209.561 20.811,208.703 C20.441,208.198 19.992,207.831 19.466,207.593 C18.607,209.672 17.711,212.095 16.812,214.598 M47.847,144.054 L47.847,94.938 C44.563,93.102 33.826,92.091 25.432,95.929 C20.061,98.384 16.994,102.214 16.313,107.313 C14.378,121.828 26.715,132.466 47.847,144.054 M112.57,17.19 C112.57,19.513 114.458,21.399 116.781,21.399 C119.101,21.399 120.99,19.513 120.99,17.19 C120.99,14.869 119.101,12.979 116.781,12.979 C114.458,12.979 112.57,14.869 112.57,17.19 M128.016,12.979 C125.695,12.979 123.806,14.869 123.806,17.19 C123.806,19.513 125.695,21.399 128.016,21.399 C130.337,21.399 132.226,19.513 132.226,17.19 C132.226,14.869 130.337,12.979 128.016,12.979 M181.682,14.236 L140.111,14.236 C138.269,14.236 136.77,15.735 136.77,17.577 L136.77,18.576 C136.77,20.418 138.269,21.917 140.111,21.917 L181.682,21.917 C183.525,21.917 185.023,20.418 185.023,18.576 L185.023,17.577 C185.023,15.735 183.525,14.236 181.682,14.236 M214.567,11.208 C211.268,11.208 208.584,13.891 208.584,17.19 C208.584,20.489 211.268,23.173 214.567,23.173 C217.867,23.173 220.549,20.489 220.549,17.19 C220.549,13.891 217.867,11.208 214.567,11.208 M135.955,436.281 C135.955,441.018 139.808,444.871 144.545,444.871 L178.501,444.871 C183.238,444.871 187.092,441.018 187.092,436.281 L187.092,433.373 C187.092,428.636 183.238,424.783 178.501,424.783 L144.545,424.783 C139.808,424.783 135.955,428.636 135.955,433.373 L135.955,436.281 z M263.382,188.014 C258.433,166.845 255.567,139.768 263.382,121.268 L263.382,51.557 L59.664,51.557 L59.664,286.705 C64.9,297.424 65.158,308.551 60.186,318.137 C60.027,318.447 59.848,318.748 59.664,319.048 L59.664,409.847 L260.43,409.847 C252.058,383.116 251.307,349.042 258.524,311.288 L258.608,310.848 C260.06,303.255 261.743,294.447 263.382,285.191 L263.382,188.014 z M298.187,145.366 C303.417,147.108 308.527,146.139 311.259,145.337 C310.583,142.473 309.954,139.573 309.392,136.701 C308.672,136.908 308.006,137.145 307.367,137.427 C306.105,137.968 304.992,138.625 303.95,139.414 C302.908,140.205 301.941,141.138 300.966,142.192 C300.054,143.143 299.234,144.241 298.187,145.366 M307.713,107.84 C307.827,107.44 307.891,107.068 307.938,106.707 C301.542,107.6 290.488,110.177 288.965,115.313 C286.66,123.098 288.173,140.834 296.309,144.631 C296.825,144.871 297.34,145.081 297.856,145.264 C297.75,143.72 297.98,142.166 298.608,140.723 C299.288,139.153 300.37,137.682 301.807,136.591 C303.234,135.493 305.006,134.811 306.786,134.7 C307.543,134.649 308.31,134.711 309.044,134.88 C307.012,123.944 306.085,113.657 307.713,107.84 M391.682,412.698 C383.781,434.492 371.434,452.502 359.46,459.699 C350.636,465.002 345.667,471.667 340.406,478.723 C331.562,490.587 322.417,502.854 294.718,508.44 C289.701,509.452 284.695,509.919 279.75,509.919 C238.607,509.919 201.359,477.626 189.984,458.487 L190.691,458.067 L76.21,458.067 C60.57,458.067 47.847,445.343 47.847,429.703 L47.847,373.419 C47.422,373.906 46.973,374.368 46.492,374.8 C42.99,377.942 38.133,379.524 32.018,379.524 C30.615,379.524 29.143,379.44 27.607,379.273 C17.816,378.206 12.082,370.528 9.979,363.697 C8.285,358.192 8.886,353.363 11.547,351.096 C13.253,349.642 15.43,347.036 17.736,344.278 C21.514,339.752 25.423,335.074 29.298,332.748 C31.791,331.253 35.332,330.022 38.718,329.075 C38.227,329.096 37.738,329.12 37.24,329.12 C32.287,329.12 27.101,328.022 24.395,324.9 C17.763,317.247 6.029,295.919 12.091,278.838 C15.545,269.108 20.277,262.91 23.968,259.226 C15.154,258.315 7.57,253.872 3.289,248.854 C-1.154,243.643 -0.463,239.513 1.664,237.386 C4.822,234.227 8.213,224.677 11.205,216.251 C13.828,208.865 16.091,202.485 18.382,199.43 C23.203,193.005 34.18,186.326 47.847,185.882 L47.847,149.429 C23.576,136.397 9.273,124.348 11.628,106.688 C12.525,99.968 16.619,94.761 23.467,91.629 C31.318,88.041 41.783,87.846 47.847,89.835 L47.847,29.502 C47.847,13.862 60.57,1.138 76.21,1.138 L245.584,1.138 C261.224,1.138 273.949,13.862 273.949,29.502 L273.949,105.638 C284.945,94.669 298.07,92.949 305.572,96.039 C311.298,98.397 313.863,103.408 312.266,109.115 C308.367,123.045 321.703,168.481 325.575,174.567 C326.717,176.364 327.979,178.753 329.219,181.456 L329.222,181.461 L329.221,181.461 C332.702,189.05 336.001,199.17 336.001,206.077 C336.001,214.186 347.227,251.865 351.817,265.481 C355.724,277.074 382.88,334.222 395.007,357.719 C401.115,369.553 399.872,390.106 391.682,412.698 M144.545,443.69 L178.501,443.69 C182.586,443.69 185.91,440.366 185.91,436.281 L185.91,433.373 C185.91,429.288 182.586,425.964 178.501,425.964 L144.545,425.964 C140.46,425.964 137.136,429.288 137.136,433.373 L137.136,436.281 C137.136,440.366 140.46,443.69 144.545,443.69 M140.111,15.418 C138.921,15.418 137.953,16.388 137.953,17.577 L137.953,18.576 C137.953,19.766 138.921,20.735 140.111,20.735 L181.682,20.735 C182.873,20.735 183.842,19.766 183.842,18.576 L183.842,17.577 C183.842,16.388 182.873,15.418 181.682,15.418 L140.111,15.418 z M209.766,17.19 C209.766,19.837 211.919,21.991 214.567,21.991 C217.214,21.991 219.369,19.837 219.369,17.19 C219.369,14.543 217.214,12.39 214.567,12.39 C211.919,12.39 209.766,14.543 209.766,17.19 M116.781,20.219 C118.451,20.219 119.808,18.86 119.808,17.19 C119.808,15.52 118.451,14.162 116.781,14.162 C115.111,14.162 113.751,15.52 113.751,17.19 C113.751,18.86 115.111,20.219 116.781,20.219 M128.016,14.162 C129.686,14.162 131.044,15.52 131.044,17.19 C131.044,18.86 129.686,20.219 128.016,20.219 C126.347,20.219 124.988,18.86 124.988,17.19 C124.988,15.52 126.347,14.162 128.016,14.162" fill="#0B0B09"/>
  </g>
</svg>
