<?xml version="1.0" encoding="UTF-8" standalone="no"?>
<!-- Created with Inkscape (http://www.inkscape.org/) -->

<svg
   xmlns:dc="http://purl.org/dc/elements/1.1/"
   xmlns:cc="http://creativecommons.org/ns#"
   xmlns:rdf="http://www.w3.org/1999/02/22-rdf-syntax-ns#"
   xmlns:svg="http://www.w3.org/2000/svg"
   xmlns="http://www.w3.org/2000/svg"
   xmlns:sodipodi="http://sodipodi.sourceforge.net/DTD/sodipodi-0.dtd"
   xmlns:inkscape="http://www.inkscape.org/namespaces/inkscape"
   version="1.1"
   id="svg10474"
   xml:space="preserve"
   width="800"
   height="800"
   viewBox="0 0 800 800"
   sodipodi:docname="knot-clipart-image-publicdomainvectors.org.svg"
   inkscape:version="0.92.4 (5da689c313, 2019-01-14)"><metadata
     id="metadata10480"><rdf:RDF><cc:Work
         rdf:about=""><dc:format>image/svg+xml</dc:format><dc:type
           rdf:resource="http://purl.org/dc/dcmitype/StillImage" /><dc:title></dc:title></cc:Work></rdf:RDF></metadata><defs
     id="defs10478"><clipPath
       clipPathUnits="userSpaceOnUse"
       id="clipPath10490"><path
         d="M 0,600 H 600 V 0 H 0 Z"
         id="path10488"
         inkscape:connector-curvature="0" /></clipPath></defs><sodipodi:namedview
     pagecolor="#ffffff"
     bordercolor="#666666"
     borderopacity="1"
     objecttolerance="10"
     gridtolerance="10"
     guidetolerance="10"
     inkscape:pageopacity="0"
     inkscape:pageshadow="2"
     inkscape:window-width="1920"
     inkscape:window-height="1018"
     id="namedview10476"
     showgrid="false"
     inkscape:zoom="0.96328846"
     inkscape:cx="423.72881"
     inkscape:cy="386.44068"
     inkscape:window-x="-8"
     inkscape:window-y="-8"
     inkscape:window-maximized="1"
     inkscape:current-layer="g10482" /><g
     id="g10482"
     inkscape:groupmode="layer"
     inkscape:label="knot-clipart-image-publicdomainvectors.org"
     transform="matrix(1.3333333,0,0,-1.3333333,0,800)"><g
       id="g10484"><g
         id="g10486"
         clip-path="url(#clipPath10490)"><path
           d="M 498.565,331.252 288.15,541.407 75.968,328.965 286.383,118.811 Z m 37.252,0.023 L 286.406,81.559 38.715,328.942 288.127,578.662 Z M 181.671,284.166 c 19.007,-39.947 59.603,-65.687 103.779,-65.687 1.925,0 3.985,0.06 6.279,0.187 0.444,1.422 1.748,5.902 2.076,10.686 0.4,5.828 -0.153,12.259 -0.36,14.367 -2.711,-0.24 -5.398,-0.364 -7.995,-0.364 -31.316,0 -59.853,15.913 -76.443,42.594 -1.749,-0.371 -7.693,-1.554 -13.636,-1.922 -1.681,-0.103 -3.508,-0.154 -5.429,-0.154 -3.521,0 -6.621,0.176 -8.271,0.293 m 218.632,51.597 c -2.042,1.423 -7.355,2.862 -13.692,2.862 -3.926,0 -7.799,-0.564 -11.238,-1.636 0.053,-1.224 0.078,-2.443 0.078,-3.633 0,-32.017 -17.242,-61.825 -45.031,-77.92 0.04,-0.217 0.084,-0.45 0.133,-0.702 0.384,-1.986 1.024,-5.31 1.3,-11.959 0.313,-7.574 -0.152,-12.236 -0.375,-14.474 -0.006,-0.063 -0.012,-0.121 -0.018,-0.182 41.875,18.363 68.87,59.545 68.87,105.237 0,0.806 -0.01,1.607 -0.027,2.407 M 285.72,448.236 c -2.503,-2.459 -5.096,-17.856 -2.839,-24.918 0.853,0.027 1.709,0.04 2.569,0.04 33.404,0 63.73,-18.17 79.272,-47.454 1.746,0.227 7.653,0.957 12.782,1.112 4.801,0.143 11.577,-0.057 14.24,-0.15 -17.555,43.311 -59.028,71.264 -106.024,71.37 M 170.886,324.896 c 4.822,-2.25 12.429,-2.592 16.601,-2.592 h 0.003 c 3.733,0 6.943,0.269 8.589,0.569 -0.417,3.533 -0.63,7.059 -0.63,10.483 0,31.901 17.145,61.661 44.785,77.788 -0.918,10.419 -1.101,19.452 -0.552,27.549 -42.024,-18.319 -69.111,-59.533 -69.111,-105.337 0,-2.778 0.104,-5.624 0.315,-8.46 m -65.72,-4.418 c 23.628,-19.309 52.741,-29.516 84.184,-29.516 24.905,0 49.171,6.892 70.237,19.938 -5.55,6.356 -12.837,11.859 -21.671,16.361 -15.158,-7.579 -31.494,-11.421 -48.566,-11.421 -19.358,0 -37.351,4.603 -53.483,13.683 l -1.118,0.631 1.109,0.641 c 6.997,4.036 19.085,9.255 27.254,11.776 0.294,12.296 3.159,22.89 4.213,26.402 -21.84,-5.119 -47.226,-17.035 -62.157,-29.229 l -11.795,-9.63 z m 218.835,86.87 c -12.123,6.837 -21.744,7.428 -24.115,7.464 -2.645,-23.473 -13.24,-45.914 -29.906,-63.36 1.838,-1.188 6.651,-4.356 10.321,-7.345 4.15,-3.377 7.655,-6.775 8.934,-8.043 0.435,0.427 0.873,0.852 1.282,1.25 0.94,0.915 1.829,1.778 2.086,2.073 16.816,19.213 27.666,42.704 31.398,67.961 M 306.208,303.104 c -6.322,-4.162 -14.312,-15.1 -16.601,-21.463 7.275,-14.889 10.963,-30.887 10.963,-47.553 0,-18.582 -4.83,-36.981 -13.971,-53.213 l -0.636,-1.131 -0.638,1.131 c -4.814,8.545 -9.264,19.922 -11.678,29.828 -1.769,0.11 -7.534,0.541 -13.564,1.83 -5.046,1.076 -10.312,3.098 -12.624,4.039 3.718,-24.322 14.195,-48.494 28.856,-66.504 l 9.648,-11.851 9.647,11.851 c 19.243,23.639 29.839,53.479 29.839,84.02 0,24.391 -6.651,48.238 -19.241,69.016 m -33.863,-52.499 h 0.002 c 0.097,0 0.181,0 0.247,0.006 1.97,13.051 6.241,25.432 12.703,36.803 3.802,6.373 12.174,17.711 16.536,22.04 -8.824,6.825 -15.378,14.924 -17.276,17.379 L 269.59,309.03 c -10.197,-15 -17.394,-32.403 -20.788,-50.3 6.806,-5.332 20.089,-8.125 23.543,-8.125 m -8.256,64.807 c 1.095,0.609 4.267,2.592 9.261,7.49 4.939,4.697 7.634,8.655 8.478,9.987 -20.449,19.769 -44.596,31.829 -71.79,35.851 -6.007,-10.391 -7.149,-21.453 -7.348,-24.245 23.241,-2.848 44.447,-12.891 61.399,-29.083 m 65.534,14.84 c -5.596,3.158 -17.757,13.225 -21.834,17.218 l -17.068,-18.093 c 18.641,-18.763 42.133,-31.436 68,-36.679 4.574,4.878 8.755,20.327 9.214,23.577 -13.474,1.969 -25.665,6.419 -38.312,13.977 m 139.174,8.04 c -24.186,20.567 -54.809,31.893 -86.226,31.893 -24.042,0 -47.562,-6.46 -68.082,-18.688 8.749,-9.678 19.712,-16.072 21.384,-16.744 14.641,7.006 30.35,10.553 46.698,10.553 19.481,0 38.706,-5.368 55.59,-15.53 l 1.08,-0.651 -1.1,-0.615 c -8.943,-5.008 -18.603,-8.69 -28.719,-10.946 -0.054,-0.355 -0.115,-0.976 -0.176,-1.582 -0.225,-2.28 -0.602,-6.094 -1.74,-10.963 -1.083,-4.63 -2.634,-9.218 -3.562,-11.958 -0.225,-0.668 -0.444,-1.316 -0.603,-1.809 23.901,3.167 46.422,12.79 65.189,27.864 l 11.731,9.424 z m -219.714,87.842 c 0,29.996 10.217,59.392 28.769,82.772 l 9.835,12.396 9.722,-12.487 c 13.096,-16.816 21.725,-35.835 25.657,-56.547 -2.695,0.738 -9.615,2.614 -14.11,3.63 -5.236,1.185 -11.102,1.887 -12.82,2.079 -1.924,6.758 -4.33,12.642 -8.003,19.575 l -0.637,1.208 -0.654,-1.202 c -8.548,-15.798 -12.881,-33.102 -12.881,-51.424 0,-15.704 3.004,-29.971 9.181,-43.599 -1.012,-2.046 -7.214,-14.059 -16.895,-21.808 -11.23,19.918 -17.164,42.516 -17.164,65.407"
           style="fill:#110f0d;fill-opacity:1;fill-rule:nonzero;stroke:none"
           id="path10492"
           inkscape:connector-curvature="0" /></g></g></g></svg>