<?xml version="1.0" encoding="UTF-8" standalone="no"?>
<!-- Created with Inkscape (http://www.inkscape.org/) -->

<svg
   xmlns:dc="http://purl.org/dc/elements/1.1/"
   xmlns:cc="http://creativecommons.org/ns#"
   xmlns:rdf="http://www.w3.org/1999/02/22-rdf-syntax-ns#"
   xmlns:svg="http://www.w3.org/2000/svg"
   xmlns="http://www.w3.org/2000/svg"
   xmlns:sodipodi="http://sodipodi.sourceforge.net/DTD/sodipodi-0.dtd"
   xmlns:inkscape="http://www.inkscape.org/namespaces/inkscape"
   version="1.1"
   id="svg14341"
   xml:space="preserve"
   width="800"
   height="800"
   viewBox="0 0 800 800"
   sodipodi:docname="logo.svg"
   inkscape:version="0.92.4 (5da689c313, 2019-01-14)"><metadata
     id="metadata14347"><rdf:RDF><cc:Work
         rdf:about=""><dc:format>image/svg+xml</dc:format><dc:type
           rdf:resource="http://purl.org/dc/dcmitype/StillImage" /><dc:title /></cc:Work></rdf:RDF></metadata><defs
     id="defs14345"><clipPath
       clipPathUnits="userSpaceOnUse"
       id="clipPath14357"><path
         d="M 0,600 H 600 V 0 H 0 Z"
         id="path14355"
         inkscape:connector-curvature="0" /></clipPath></defs><sodipodi:namedview
     pagecolor="#ffffff"
     bordercolor="#666666"
     borderopacity="1"
     objecttolerance="10"
     gridtolerance="10"
     guidetolerance="10"
     inkscape:pageopacity="0"
     inkscape:pageshadow="2"
     inkscape:window-width="1920"
     inkscape:window-height="1018"
     id="namedview14343"
     showgrid="false"
     inkscape:zoom="0.92418819"
     inkscape:cx="282.55375"
     inkscape:cy="384.74576"
     inkscape:window-x="-8"
     inkscape:window-y="-8"
     inkscape:window-maximized="1"
     inkscape:current-layer="g14349" /><g
     id="g14349"
     inkscape:groupmode="layer"
     inkscape:label="logo"
     transform="matrix(1.3333333,0,0,-1.3333333,0,800)"><g
       id="g14351"><g
         id="g14353"
         clip-path="url(#clipPath14357)"><path
           d="m 328.638,159.083 1.051,-13.736 3.434,0.262 1.053,-13.736 -3.435,-0.263 1.052,-13.736 h -18.5 v -4.625 h -18.501 v 4.625 h -18.5 l 1.057,13.732 -3.433,0.265 1.058,13.733 3.433,-0.265 1.057,13.732 16.391,0.004 -0.001,4.098 16.391,0.004 10e-4,-4.098 z"
           style="fill:#231f20;fill-opacity:1;fill-rule:nonzero;stroke:none"
           id="path14359"
           inkscape:connector-curvature="0" /><path
           d="m 373.976,194.774 2.625,-10.696 2.673,0.656 2.625,-10.697 -2.673,-0.656 2.625,-10.696 h -16.212 v -4.053 h -16.213 v 4.053 h -16.212 l -0.979,10.696 -2.673,-0.244 -0.979,10.696 2.675,0.245 -0.979,10.696 h 14.566 v 3.642 h 14.565 v -3.642 z"
           style="fill:#231f20;fill-opacity:1;fill-rule:nonzero;stroke:none"
           id="path14361"
           inkscape:connector-curvature="0" /><path
           d="m 410.252,223.335 3.543,-8.57 2.143,0.885 3.541,-8.571 -2.142,-0.886 3.543,-8.57 -14.425,0.004 -10e-4,-3.606 -14.426,0.002 10e-4,3.607 -14.425,0.004 -2.229,8.564 -2.141,-0.557 -2.229,8.564 2.141,0.558 -2.229,8.564 13.111,0.003 v 3.277 l 13.112,0.003 0.001,-3.278 z"
           style="fill:#231f20;fill-opacity:1;fill-rule:nonzero;stroke:none"
           id="path14363"
           inkscape:connector-curvature="0" /><path
           d="m 439.932,246.699 4.084,-7.018 1.754,1.021 4.084,-7.018 -1.755,-1.021 4.084,-7.018 -12.996,10e-4 v -3.249 l -12.997,0.003 10e-4,3.249 -12.996,0.002 -3.007,7.014 -1.753,-0.751 -3.007,7.014 1.753,0.752 -3.007,7.013 11.919,0.002 v 2.98 l 11.919,0.002 10e-4,-2.98 z"
           style="fill:#231f20;fill-opacity:1;fill-rule:nonzero;stroke:none"
           id="path14365"
           inkscape:connector-curvature="0" /><path
           d="m 464.656,266.164 4.394,-5.851 1.463,1.098 4.393,-5.851 -1.463,-1.099 4.394,-5.852 h -11.826 v -2.956 h -11.825 v 2.956 h -11.827 l -3.49,5.852 -1.463,-0.873 -3.491,5.851 1.463,0.874 -3.49,5.851 h 10.923 v 2.731 h 10.922 v -2.731 z"
           style="fill:#231f20;fill-opacity:1;fill-rule:nonzero;stroke:none"
           id="path14367"
           inkscape:connector-curvature="0" /><path
           d="m 485.584,282.639 4.555,-4.954 1.238,1.138 4.555,-4.954 -1.239,-1.139 4.555,-4.954 H 488.4 v -2.712 h -10.847 v 2.712 h -10.848 l -3.793,4.954 -1.238,-0.948 -3.793,4.954 1.239,0.949 -3.793,4.954 h 10.086 v 2.521 h 10.085 v -2.521 z"
           style="fill:#231f20;fill-opacity:1;fill-rule:nonzero;stroke:none"
           id="path14369"
           inkscape:connector-curvature="0" /><path
           d="m 503.521,296.759 4.619,-4.249 1.062,1.154 4.618,-4.249 -1.062,-1.154 4.618,-4.249 H 507.36 v -2.504 h -10.015 v 2.504 h -10.016 l -3.967,4.248 -1.062,-0.992 -3.967,4.248 1.062,0.991 -3.967,4.248 9.364,10e-4 v 2.341 l 9.364,0.002 10e-4,-2.341 z"
           style="fill:#231f20;fill-opacity:1;fill-rule:nonzero;stroke:none"
           id="path14371"
           inkscape:connector-curvature="0" /><path
           d="m 519.061,308.993 4.627,-3.684 0.921,1.157 4.629,-3.684 -0.921,-1.157 4.628,-3.685 -9.306,10e-4 v -2.326 h -9.307 v 2.327 l -9.307,10e-4 -4.059,3.683 -0.921,-1.014 -4.061,3.683 0.921,1.015 -4.059,3.683 h 8.738 v 2.185 h 8.738 v -2.185 z"
           style="fill:#231f20;fill-opacity:1;fill-rule:nonzero;stroke:none"
           id="path14373"
           inkscape:connector-curvature="0" /><path
           d="m 532.662,319.7 4.594,-3.225 0.807,1.149 4.593,-3.225 -0.805,-1.149 4.593,-3.225 h -8.691 v -2.172 h -8.69 v 2.172 h -8.692 l -4.095,3.225 -0.806,-1.023 -4.095,3.225 0.807,1.023 -4.095,3.225 h 8.191 v 2.048 h 8.193 V 319.7 Z"
           style="fill:#231f20;fill-opacity:1;fill-rule:nonzero;stroke:none"
           id="path14375"
           inkscape:connector-curvature="0" /><path
           d="m 544.661,329.148 4.533,-2.846 0.711,1.133 4.533,-2.847 -0.711,-1.133 4.533,-2.847 h -8.149 v -2.037 h -8.147 v 2.037 h -8.149 l -4.097,2.847 -0.711,-1.024 -4.098,2.846 0.712,1.025 -4.098,2.846 h 7.713 v 1.929 h 7.712 v -1.929 z"
           style="fill:#231f20;fill-opacity:1;fill-rule:nonzero;stroke:none"
           id="path14377"
           inkscape:connector-curvature="0" /><path
           d="m 555.322,337.545 4.458,-2.531 0.633,1.115 4.458,-2.531 -0.633,-1.115 4.458,-2.531 h -7.671 v -1.918 h -7.671 v 1.918 h -7.671 l -4.069,2.531 -0.633,-1.017 -4.068,2.531 0.633,1.017 -4.068,2.531 h 7.281 v 1.821 h 7.282 v -1.821 z"
           style="fill:#231f20;fill-opacity:1;fill-rule:nonzero;stroke:none"
           id="path14379"
           inkscape:connector-curvature="0" /><path
           d="m 564.871,345.057 4.37,-2.265 0.567,1.093 4.37,-2.265 -0.566,-1.092 4.37,-2.265 h -7.25 v -1.812 h -7.249 v 1.812 h -7.25 l -4.019,2.265 -0.566,-1.005 -4.019,2.264 0.566,1.005 -4.019,2.265 h 6.898 v 1.724 h 6.899 v -1.724 z"
           style="fill:#231f20;fill-opacity:1;fill-rule:nonzero;stroke:none"
           id="path14381"
           inkscape:connector-curvature="0" /><path
           d="m 573.459,351.819 4.277,-2.039 0.51,1.069 4.277,-2.039 -0.509,-1.07 4.277,-2.039 h -6.868 v -1.717 h -6.867 v 1.717 h -6.868 l -3.965,2.039 -0.51,-0.991 -3.964,2.04 0.51,0.991 -3.965,2.039 h 6.555 v 1.639 h 6.555 v -1.639 z"
           style="fill:#231f20;fill-opacity:1;fill-rule:nonzero;stroke:none"
           id="path14383"
           inkscape:connector-curvature="0" /><path
           d="m 581.23,357.937 4.182,-1.846 0.461,1.046 4.182,-1.846 -0.462,-1.045 4.181,-1.846 h -6.525 v -1.631 h -6.525 v 1.631 h -6.526 l -3.898,1.846 -0.462,-0.975 -3.899,1.845 0.461,0.975 -3.898,1.846 h 6.243 v 1.56 h 6.242 v -1.56 z"
           style="fill:#231f20;fill-opacity:1;fill-rule:nonzero;stroke:none"
           id="path14385"
           inkscape:connector-curvature="0" /><path
           d="m 588.289,363.498 4.087,-1.678 0.42,1.022 4.087,-1.678 -0.42,-1.022 4.087,-1.678 h -6.218 v -1.554 h -6.219 v 1.554 h -6.217 l -3.827,1.678 -0.419,-0.956 -3.826,1.678 0.419,0.956 -3.826,1.678 h 5.957 v 1.489 h 5.958 v -1.489 z"
           style="fill:#231f20;fill-opacity:1;fill-rule:nonzero;stroke:none"
           id="path14387"
           inkscape:connector-curvature="0" /><path
           d="m 277.821,194.783 -0.983,-10.699 2.675,-0.246 -0.983,-10.699 -2.675,0.245 -0.982,-10.699 H 258.66 v -4.053 h -16.212 v 4.053 h -16.213 l 2.626,10.696 -2.674,0.656 2.625,10.697 2.674,-0.656 2.626,10.696 14.57,0.003 -10e-4,3.643 14.57,0.003 v -3.643 z"
           style="fill:#231f20;fill-opacity:1;fill-rule:nonzero;stroke:none"
           id="path14389"
           inkscape:connector-curvature="0" /><path
           d="m 323.705,223.335 0.66,-8.567 2.143,0.165 0.66,-8.567 -2.142,-0.165 0.661,-8.567 h -14.429 v -3.608 H 296.83 v 3.608 h -14.429 l 0.66,8.567 -2.142,0.165 0.661,8.567 2.142,-0.165 0.66,8.567 h 13.108 v 3.277 h 13.108 v -3.277 z"
           style="fill:#231f20;fill-opacity:1;fill-rule:nonzero;stroke:none"
           id="path14391"
           inkscape:connector-curvature="0" /><path
           d="m 361.257,246.699 1.719,-7.018 1.754,0.429 1.719,-7.017 -1.755,-0.43 1.719,-7.018 -12.994,10e-4 -10e-4,-3.248 -12.994,0.002 v 3.249 l -12.994,0.002 -0.645,7.014 -1.753,-0.161 -0.644,7.015 1.754,0.161 -0.645,7.013 11.92,0.002 -10e-4,2.981 11.92,0.002 10e-4,-2.981 z"
           style="fill:#231f20;fill-opacity:1;fill-rule:nonzero;stroke:none"
           id="path14393"
           inkscape:connector-curvature="0" /><path
           d="m 392.546,266.17 2.42,-5.854 1.464,0.606 2.42,-5.854 -1.464,-0.605 2.42,-5.854 -11.825,0.002 v -2.956 l -11.824,0.002 0.001,2.956 -11.824,0.002 -1.521,5.85 -1.463,-0.381 -1.522,5.85 1.462,0.38 -1.521,5.85 10.925,0.002 -0.001,2.731 10.926,0.002 10e-4,-2.731 z"
           style="fill:#231f20;fill-opacity:1;fill-rule:nonzero;stroke:none"
           id="path14395"
           inkscape:connector-curvature="0" /><path
           d="m 419.013,282.639 2.885,-4.954 1.239,0.721 2.885,-4.954 -1.238,-0.722 2.886,-4.954 h -10.848 v -2.712 h -10.847 v 2.712 h -10.848 l -2.12,4.954 -1.239,-0.53 -2.121,4.954 1.239,0.531 -2.12,4.954 h 10.082 v 2.52 h 10.083 v -2.52 z"
           style="fill:#231f20;fill-opacity:1;fill-rule:nonzero;stroke:none"
           id="path14397"
           inkscape:connector-curvature="0" /><path
           d="m 441.706,296.759 3.19,-4.249 1.063,0.798 3.19,-4.249 -1.062,-0.798 3.19,-4.249 h -10.018 v -2.505 h -10.02 v 2.505 h -10.018 l -2.536,4.248 -1.062,-0.635 -2.536,4.248 1.061,0.634 -2.536,4.248 9.365,10e-4 v 2.341 l 9.364,0.002 10e-4,-2.341 z"
           style="fill:#231f20;fill-opacity:1;fill-rule:nonzero;stroke:none"
           id="path14399"
           inkscape:connector-curvature="0" /><path
           d="m 461.373,308.996 3.385,-3.685 0.921,0.846 3.384,-3.685 -0.921,-0.847 3.384,-3.685 -9.304,10e-4 v -2.326 l -9.305,10e-4 v 2.326 l -9.305,10e-4 -2.819,3.683 -0.921,-0.704 -2.82,3.683 0.921,0.705 -2.82,3.683 8.741,0.001 -0.001,2.185 8.74,0.001 v -2.185 z"
           style="fill:#231f20;fill-opacity:1;fill-rule:nonzero;stroke:none"
           id="path14401"
           inkscape:connector-curvature="0" /><path
           d="m 478.575,319.7 3.508,-3.225 0.807,0.878 3.507,-3.226 -0.805,-0.877 3.508,-3.225 -8.69,0.001 v -2.172 l -8.689,0.001 v 2.172 l -8.69,0.001 -3.01,3.224 -0.807,-0.752 -3.011,3.224 0.806,0.752 -3.011,3.224 h 8.192 v 2.048 h 8.193 V 319.7 Z"
           style="fill:#231f20;fill-opacity:1;fill-rule:nonzero;stroke:none"
           id="path14403"
           inkscape:connector-curvature="0" /><path
           d="m 493.758,329.148 3.576,-2.846 0.712,0.894 3.576,-2.847 -0.711,-0.894 3.576,-2.847 h -8.151 v -2.037 h -8.15 v 2.037 h -8.152 l -3.136,2.847 -0.71,-0.784 -3.136,2.847 0.712,0.784 -3.136,2.846 h 7.71 v 1.928 h 7.71 v -1.928 z"
           style="fill:#231f20;fill-opacity:1;fill-rule:nonzero;stroke:none"
           id="path14405"
           inkscape:connector-curvature="0" /><path
           d="m 507.253,337.545 3.603,-2.531 0.633,0.902 3.605,-2.532 -0.633,-0.901 3.603,-2.531 h -7.67 v -1.918 h -7.672 v 1.918 h -7.671 l -3.216,2.531 -0.633,-0.804 -3.217,2.531 0.633,0.804 -3.216,2.531 h 7.284 v 1.821 h 7.284 v -1.821 z"
           style="fill:#231f20;fill-opacity:1;fill-rule:nonzero;stroke:none"
           id="path14407"
           inkscape:connector-curvature="0" /><path
           d="m 519.324,345.057 3.608,-2.265 0.566,0.902 3.607,-2.264 -0.565,-0.902 3.607,-2.265 H 522.9 v -1.811 h -7.246 v 1.811 h -7.247 l -3.259,2.265 -0.566,-0.815 -3.259,2.265 0.567,0.814 -3.259,2.265 h 6.897 v 1.724 h 6.899 v -1.724 z"
           style="fill:#231f20;fill-opacity:1;fill-rule:nonzero;stroke:none"
           id="path14409"
           inkscape:connector-curvature="0" /><path
           d="m 530.192,351.819 3.593,-2.039 0.51,0.898 3.592,-2.039 -0.51,-0.899 3.593,-2.039 h -6.87 v -1.717 h -6.87 v 1.717 h -6.87 l -3.276,2.039 -0.51,-0.819 -3.275,2.039 0.51,0.82 -3.277,2.039 h 6.554 v 1.638 h 6.553 v -1.638 z"
           style="fill:#231f20;fill-opacity:1;fill-rule:nonzero;stroke:none"
           id="path14411"
           inkscape:connector-curvature="0" /><path
           d="m 540.024,357.937 3.56,-1.846 0.461,0.89 3.559,-1.845 -0.46,-0.89 3.559,-1.846 h -6.525 v -1.631 h -6.527 v 1.631 h -6.525 l -3.277,1.846 -0.461,-0.82 -3.278,1.846 0.461,0.819 -3.277,1.846 h 6.243 v 1.561 h 6.244 v -1.561 z"
           style="fill:#231f20;fill-opacity:1;fill-rule:nonzero;stroke:none"
           id="path14413"
           inkscape:connector-curvature="0" /><path
           d="m 548.962,363.498 3.519,-1.678 0.419,0.88 3.52,-1.678 -0.419,-0.88 3.52,-1.678 h -6.217 v -1.554 h -6.216 v 1.554 h -6.217 l -3.263,1.678 -0.419,-0.815 -3.262,1.677 0.42,0.816 -3.263,1.678 h 5.959 v 1.49 h 5.96 v -1.49 z"
           style="fill:#231f20;fill-opacity:1;fill-rule:nonzero;stroke:none"
           id="path14415"
           inkscape:connector-curvature="0" /><path
           d="m 557.117,368.577 3.475,-1.533 0.383,0.869 3.474,-1.533 -0.384,-0.868 3.475,-1.533 h -5.936 v -1.484 h -5.938 v 1.484 h -5.937 l -3.235,1.533 -0.384,-0.809 -3.235,1.532 0.383,0.809 -3.236,1.533 h 5.699 v 1.424 h 5.698 v -1.424 z"
           style="fill:#231f20;fill-opacity:1;fill-rule:nonzero;stroke:none"
           id="path14417"
           inkscape:connector-curvature="0" /><path
           d="m 237.185,223.335 -2.23,-8.57 2.143,-0.558 -2.231,-8.571 -2.142,0.557 -2.23,-8.57 h -14.43 v -3.607 h -14.429 v 3.607 h -14.43 l 3.546,8.568 -2.142,0.886 3.546,8.569 2.142,-0.887 3.546,8.568 13.114,0.003 -0.001,3.278 13.114,0.002 v -3.278 z"
           style="fill:#231f20;fill-opacity:1;fill-rule:nonzero;stroke:none"
           id="path14419"
           inkscape:connector-curvature="0" /><path
           d="m 282.59,246.693 -0.644,-7.016 1.754,-0.161 -0.645,-7.016 -1.754,0.161 -0.645,-7.016 h -12.994 v -3.249 h -12.994 v 3.249 h -12.994 l 1.722,7.016 -1.754,0.431 1.723,7.015 1.754,-0.43 1.722,7.016 h 11.917 v 2.98 h 11.916 v -2.98 z"
           style="fill:#231f20;fill-opacity:1;fill-rule:nonzero;stroke:none"
           id="path14421"
           inkscape:connector-curvature="0" /><path
           d="m 320.438,266.164 0.449,-5.851 1.463,0.112 0.448,-5.852 -1.463,-0.112 0.448,-5.852 h -11.822 v -2.956 h -11.822 v 2.956 h -11.823 l 0.448,5.852 -1.463,0.112 0.448,5.852 1.463,-0.112 0.448,5.851 h 10.926 v 2.732 h 10.926 v -2.732 z"
           style="fill:#231f20;fill-opacity:1;fill-rule:nonzero;stroke:none"
           id="path14423"
           inkscape:connector-curvature="0" /><path
           d="m 352.463,282.639 1.214,-4.954 1.238,0.303 1.214,-4.954 -1.239,-0.304 1.214,-4.954 h -10.845 v -2.711 h -10.845 v 2.711 h -10.845 l -0.455,4.954 -1.238,-0.113 -0.455,4.953 1.238,0.115 -0.455,4.954 h 10.086 v 2.521 h 10.087 v -2.521 z"
           style="fill:#231f20;fill-opacity:1;fill-rule:nonzero;stroke:none"
           id="path14425"
           inkscape:connector-curvature="0" /><path
           d="m 379.903,296.755 1.759,-4.248 1.062,0.44 1.758,-4.248 -1.061,-0.439 1.759,-4.248 h -10.019 v -2.505 h -10.019 v 2.505 h -10.019 l -1.102,4.248 -1.062,-0.277 -1.103,4.248 1.062,0.276 -1.103,4.248 h 9.363 v 2.341 h 9.363 v -2.341 z"
           style="fill:#231f20;fill-opacity:1;fill-rule:nonzero;stroke:none"
           id="path14427"
           inkscape:connector-curvature="0" /><path
           d="m 403.691,308.993 2.147,-3.684 0.921,0.537 2.145,-3.685 -0.921,-0.536 2.147,-3.685 h -9.309 v -2.327 h -9.307 v 2.327 h -9.309 l -1.579,3.685 -0.921,-0.395 -1.58,3.684 0.921,0.395 -1.579,3.684 h 8.741 v 2.186 h 8.742 v -2.186 z"
           style="fill:#231f20;fill-opacity:1;fill-rule:nonzero;stroke:none"
           id="path14429"
           inkscape:connector-curvature="0" /><path
           d="m 424.504,319.7 2.419,-3.225 0.806,0.605 2.419,-3.225 -0.806,-0.605 2.419,-3.225 h -8.688 v -2.171 h -8.687 v 2.171 h -8.688 l -1.926,3.225 -0.805,-0.481 -1.926,3.225 0.807,0.481 -1.926,3.225 h 8.194 v 2.049 h 8.194 V 319.7 Z"
           style="fill:#231f20;fill-opacity:1;fill-rule:nonzero;stroke:none"
           id="path14431"
           inkscape:connector-curvature="0" /><path
           d="m 442.86,329.148 2.619,-2.846 0.71,0.654 2.619,-2.847 -0.712,-0.654 2.618,-2.847 h -8.149 v -2.037 h -8.148 v 2.037 h -8.148 l -2.179,2.847 -0.712,-0.545 -2.179,2.847 0.711,0.545 -2.179,2.846 h 7.71 v 1.928 h 7.709 v -1.928 z"
           style="fill:#231f20;fill-opacity:1;fill-rule:nonzero;stroke:none"
           id="path14433"
           inkscape:connector-curvature="0" /><path
           d="m 459.186,337.545 2.753,-2.531 0.633,0.689 2.753,-2.531 -0.633,-0.689 2.754,-2.531 h -7.674 v -1.918 h -7.673 v 1.918 h -7.674 l -2.362,2.531 -0.632,-0.59 -2.362,2.531 0.633,0.59 -2.361,2.531 h 7.281 v 1.821 h 7.282 v -1.821 z"
           style="fill:#231f20;fill-opacity:1;fill-rule:nonzero;stroke:none"
           id="path14435"
           inkscape:connector-curvature="0" /><path
           d="m 473.793,345.057 2.844,-2.265 0.566,0.71 2.845,-2.265 -0.567,-0.711 2.844,-2.265 -7.248,10e-4 -10e-4,-1.812 h -7.248 v 1.813 h -7.248 l -2.496,2.265 -0.566,-0.624 -2.497,2.264 0.567,0.624 -2.496,2.265 h 6.9 v 1.725 h 6.901 v -1.725 z"
           style="fill:#231f20;fill-opacity:1;fill-rule:nonzero;stroke:none"
           id="path14437"
           inkscape:connector-curvature="0" /><path
           d="m 486.931,351.819 2.906,-2.039 0.51,0.726 2.905,-2.039 -0.51,-0.727 2.906,-2.039 h -6.867 v -1.717 h -6.868 v 1.717 h -6.867 l -2.592,2.039 -0.51,-0.648 -2.59,2.04 0.509,0.648 -2.592,2.039 h 6.553 v 1.638 h 6.554 v -1.638 z"
           style="fill:#231f20;fill-opacity:1;fill-rule:nonzero;stroke:none"
           id="path14439"
           inkscape:connector-curvature="0" /><path
           d="m 498.824,357.937 2.941,-1.846 0.461,0.735 2.94,-1.845 -0.461,-0.735 2.941,-1.846 h -6.528 v -1.631 h -6.528 v 1.631 h -6.527 l -2.655,1.846 -0.461,-0.664 -2.654,1.846 0.462,0.663 -2.654,1.846 h 6.241 v 1.56 h 6.241 v -1.56 z"
           style="fill:#231f20;fill-opacity:1;fill-rule:nonzero;stroke:none"
           id="path14441"
           inkscape:connector-curvature="0" /><path
           d="m 509.635,363.498 2.955,-1.679 0.42,0.739 2.955,-1.678 -0.42,-0.739 2.955,-1.679 -6.217,0.001 v -1.554 h -6.218 v 1.555 h -6.216 l -2.697,1.678 -0.419,-0.674 -2.696,1.677 0.419,0.674 -2.696,1.678 h 5.958 v 1.49 h 5.959 v -1.489 z"
           style="fill:#231f20;fill-opacity:1;fill-rule:nonzero;stroke:none"
           id="path14443"
           inkscape:connector-curvature="0" /><path
           d="m 519.505,368.577 2.957,-1.534 0.383,0.74 2.957,-1.533 -0.383,-0.739 2.957,-1.533 h -5.936 v -1.484 l -5.935,10e-4 v 1.484 h -5.936 l -2.719,1.532 -0.384,-0.68 -2.72,1.532 0.383,0.68 -2.72,1.532 5.698,0.001 V 370 l 5.7,10e-4 v -1.425 z"
           style="fill:#231f20;fill-opacity:1;fill-rule:nonzero;stroke:none"
           id="path14445"
           inkscape:connector-curvature="0" /><path
           d="m 528.551,373.229 2.949,-1.404 0.351,0.737 2.949,-1.405 -0.352,-0.737 2.949,-1.405 h -5.679 v -1.42 h -5.681 v 1.42 h -5.68 l -2.729,1.405 -0.352,-0.683 -2.729,1.406 0.351,0.682 -2.729,1.404 h 5.461 v 1.366 h 5.46 v -1.366 z"
           style="fill:#231f20;fill-opacity:1;fill-rule:nonzero;stroke:none"
           id="path14447"
           inkscape:connector-curvature="0" /><path
           d="m 203.927,246.699 -3.009,-7.018 1.755,-0.752 -3.009,-7.019 -1.754,0.753 -3.009,-7.018 h -12.999 v -3.25 h -12.999 v 3.25 h -12.999 l 4.086,7.016 -1.754,1.022 4.086,7.015 1.754,-1.021 4.087,7.016 11.921,0.002 -0.001,2.981 11.922,0.002 v -2.981 z"
           style="fill:#231f20;fill-opacity:1;fill-rule:nonzero;stroke:none"
           id="path14449"
           inkscape:connector-curvature="0" /><path
           d="m 248.32,266.164 -1.52,-5.851 1.463,-0.38 -1.519,-5.852 -1.463,0.38 -1.519,-5.852 h -11.827 v -2.957 h -11.826 v 2.957 h -11.827 l 2.423,5.852 -1.463,0.605 2.423,5.852 1.462,-0.605 2.423,5.851 h 10.924 v 2.731 h 10.922 v -2.731 z"
           style="fill:#231f20;fill-opacity:1;fill-rule:nonzero;stroke:none"
           id="path14451"
           inkscape:connector-curvature="0" /><path
           d="m 285.892,282.639 -0.455,-4.954 1.238,-0.115 -0.455,-4.954 -1.239,0.114 -0.455,-4.954 h -10.843 v -2.711 h -10.845 v 2.711 h -10.843 l 1.213,4.954 -1.238,0.304 1.213,4.954 1.238,-0.303 1.214,4.954 h 10.086 v 2.521 h 10.085 v -2.521 z"
           style="fill:#231f20;fill-opacity:1;fill-rule:nonzero;stroke:none"
           id="path14453"
           inkscape:connector-curvature="0" /><path
           d="m 318.096,296.759 0.325,-4.249 1.062,0.081 0.326,-4.249 -1.062,-0.081 0.325,-4.249 h -10.015 v -2.504 h -10.016 v 2.504 h -10.016 l 0.326,4.248 -1.062,0.081 0.324,4.248 1.062,-0.082 0.325,4.248 9.366,10e-4 -10e-4,2.342 9.365,10e-4 v -2.341 z"
           style="fill:#231f20;fill-opacity:1;fill-rule:nonzero;stroke:none"
           id="path14455"
           inkscape:connector-curvature="0" /><path
           d="m 345.997,308.993 0.905,-3.684 0.922,0.226 0.905,-3.684 -0.92,-0.226 0.905,-3.685 h -9.308 v -2.327 h -9.308 v 2.327 h -9.308 l -0.336,3.685 -0.921,-0.084 -0.336,3.684 0.921,0.084 -0.336,3.684 h 8.739 v 2.185 h 8.738 v -2.185 z"
           style="fill:#231f20;fill-opacity:1;fill-rule:nonzero;stroke:none"
           id="path14457"
           inkscape:connector-curvature="0" /><path
           d="m 370.418,319.7 1.336,-3.225 0.807,0.334 1.335,-3.225 -0.806,-0.334 1.336,-3.225 h -8.691 v -2.172 h -8.691 v 2.172 h -8.69 l -0.84,3.225 -0.806,-0.209 -0.84,3.225 0.807,0.209 -0.84,3.225 h 8.194 v 2.049 h 8.195 V 319.7 Z"
           style="fill:#231f20;fill-opacity:1;fill-rule:nonzero;stroke:none"
           id="path14459"
           inkscape:connector-curvature="0" /><path
           d="m 391.966,329.148 1.656,-2.846 0.711,0.414 1.656,-2.847 -0.712,-0.414 1.657,-2.847 h -8.149 v -2.037 h -8.148 v 2.037 h -8.149 l -1.219,2.847 -0.712,-0.305 -1.22,2.847 0.711,0.305 -1.22,2.846 h 7.713 v 1.929 h 7.712 v -1.929 z"
           style="fill:#231f20;fill-opacity:1;fill-rule:nonzero;stroke:none"
           id="path14461"
           inkscape:connector-curvature="0" /><path
           d="m 411.11,337.545 1.901,-2.531 0.633,0.476 1.901,-2.532 -0.633,-0.475 1.901,-2.531 h -7.671 v -1.918 h -7.671 v 1.918 H 393.8 l -1.511,2.531 -0.633,-0.378 -1.511,2.532 0.632,0.377 -1.51,2.531 h 7.281 v 1.821 h 7.281 v -1.821 z"
           style="fill:#231f20;fill-opacity:1;fill-rule:nonzero;stroke:none"
           id="path14463"
           inkscape:connector-curvature="0" /><path
           d="m 428.248,345.057 2.083,-2.265 0.565,0.521 2.083,-2.265 -0.566,-0.52 2.083,-2.265 h -7.249 v -1.812 h -7.25 v 1.812 h -7.249 l -1.731,2.265 -0.567,-0.433 -1.731,2.264 0.565,0.433 -1.731,2.265 h 6.898 v 1.724 h 6.899 v -1.724 z"
           style="fill:#231f20;fill-opacity:1;fill-rule:nonzero;stroke:none"
           id="path14465"
           inkscape:connector-curvature="0" /><path
           d="m 443.67,351.819 2.217,-2.039 0.509,0.554 2.217,-2.04 -0.509,-0.554 2.216,-2.039 h -6.868 v -1.717 h -6.867 v 1.717 h -6.868 l -1.904,2.039 -0.51,-0.475 -1.904,2.039 0.51,0.476 -1.904,2.039 h 6.555 v 1.639 h 6.555 v -1.639 z"
           style="fill:#231f20;fill-opacity:1;fill-rule:nonzero;stroke:none"
           id="path14467"
           inkscape:connector-curvature="0" /><path
           d="m 457.617,357.937 2.319,-1.846 0.46,0.58 2.319,-1.846 -0.461,-0.579 2.318,-1.846 h -6.525 v -1.631 h -6.526 v 1.631 h -6.526 l -2.033,1.846 -0.462,-0.509 -2.033,1.846 0.461,0.508 -2.033,1.846 h 6.241 v 1.56 h 6.24 v -1.56 z"
           style="fill:#231f20;fill-opacity:1;fill-rule:nonzero;stroke:none"
           id="path14469"
           inkscape:connector-curvature="0" /><path
           d="m 470.301,363.498 2.391,-1.678 0.419,0.598 2.392,-1.678 -0.42,-0.598 2.392,-1.678 h -6.218 v -1.554 h -6.219 v 1.554 h -6.218 l -2.13,1.678 -0.419,-0.532 -2.13,1.678 0.419,0.532 -2.13,1.678 h 5.957 v 1.489 h 5.957 v -1.489 z"
           style="fill:#231f20;fill-opacity:1;fill-rule:nonzero;stroke:none"
           id="path14471"
           inkscape:connector-curvature="0" /><path
           d="m 481.884,368.577 2.44,-1.534 0.383,0.611 2.44,-1.533 -0.383,-0.61 2.44,-1.533 h -5.935 v -1.484 l -5.935,10e-4 v 1.484 h -5.936 l -2.205,1.532 -0.382,-0.551 -2.206,1.532 0.384,0.551 -2.205,1.532 5.7,0.001 V 370 l 5.7,10e-4 v -1.425 z"
           style="fill:#231f20;fill-opacity:1;fill-rule:nonzero;stroke:none"
           id="path14473"
           inkscape:connector-curvature="0" /><path
           d="m 492.503,373.229 2.473,-1.404 0.351,0.618 2.473,-1.405 -0.351,-0.618 2.473,-1.405 -5.679,0.001 v -1.42 l -5.679,10e-4 v 1.419 l -5.678,10e-4 -2.258,1.404 -0.351,-0.565 -2.257,1.405 0.351,0.564 -2.258,1.404 h 5.463 v 1.366 h 5.464 v -1.366 z"
           style="fill:#231f20;fill-opacity:1;fill-rule:nonzero;stroke:none"
           id="path14475"
           inkscape:connector-curvature="0" /><path
           d="m 502.263,377.512 2.495,-1.292 0.323,0.623 2.496,-1.292 -0.323,-0.624 2.495,-1.293 h -5.443 v -1.361 h -5.445 v 1.361 h -5.443 l -2.294,1.293 -0.323,-0.573 -2.295,1.292 0.323,0.574 -2.294,1.292 h 5.242 v 1.311 h 5.244 v -1.311 z"
           style="fill:#231f20;fill-opacity:1;fill-rule:nonzero;stroke:none"
           id="path14477"
           inkscape:connector-curvature="0" /><path
           d="m 176.213,266.17 -3.495,-5.854 1.464,-0.874 -3.495,-5.853 -1.463,0.874 -3.495,-5.854 h -11.827 v -2.957 h -11.826 v 2.957 H 130.25 l 4.394,5.852 -1.463,1.099 4.394,5.851 1.463,-1.098 4.394,5.851 10.927,0.002 -0.001,2.731 10.928,0.002 v -2.731 z"
           style="fill:#231f20;fill-opacity:1;fill-rule:nonzero;stroke:none"
           id="path14479"
           inkscape:connector-curvature="0" /><path
           d="m 219.322,282.639 -2.12,-4.954 1.238,-0.531 -2.12,-4.954 -1.238,0.53 -2.121,-4.954 h -10.848 v -2.712 h -10.848 v 2.712 h -10.848 l 2.885,4.954 -1.238,0.722 2.886,4.954 1.238,-0.721 2.886,4.954 h 10.083 v 2.52 h 10.083 v -2.52 z"
           style="fill:#231f20;fill-opacity:1;fill-rule:nonzero;stroke:none"
           id="path14481"
           inkscape:connector-curvature="0" /><path
           d="m 256.283,296.759 -1.106,-4.249 1.062,-0.277 -1.106,-4.249 -1.062,0.277 -1.106,-4.249 h -10.016 v -2.504 h -10.015 v 2.504 h -10.017 l 1.756,4.248 -1.062,0.438 1.756,4.248 1.062,-0.439 1.756,4.248 9.366,10e-4 v 2.342 l 9.366,10e-4 v -2.341 z"
           style="fill:#231f20;fill-opacity:1;fill-rule:nonzero;stroke:none"
           id="path14483"
           inkscape:connector-curvature="0" /><path
           d="m 288.313,308.996 -0.338,-3.685 0.921,-0.085 -0.339,-3.685 -0.921,0.084 -0.339,-3.685 -9.304,10e-4 v -2.326 l -9.305,10e-4 v 2.326 l -9.304,10e-4 0.902,3.683 -0.921,0.226 0.903,3.684 0.92,-0.226 0.903,3.683 8.741,0.001 -10e-4,2.185 8.741,0.001 v -2.185 z"
           style="fill:#231f20;fill-opacity:1;fill-rule:nonzero;stroke:none"
           id="path14485"
           inkscape:connector-curvature="0" /><path
           d="m 316.332,319.7 0.25,-3.225 0.806,0.063 0.25,-3.225 -0.807,-0.063 0.25,-3.225 h -8.691 v -2.172 h -8.691 v 2.172 h -8.691 l 0.25,3.225 -0.807,0.063 0.25,3.225 0.806,-0.063 0.25,3.225 h 8.192 v 2.048 h 8.192 V 319.7 Z"
           style="fill:#231f20;fill-opacity:1;fill-rule:nonzero;stroke:none"
           id="path14487"
           inkscape:connector-curvature="0" /><path
           d="m 341.061,329.148 0.7,-2.846 0.712,0.175 0.7,-2.847 -0.712,-0.175 0.7,-2.847 h -8.15 v -2.037 h -8.152 v 2.037 h -8.15 l -0.262,2.847 -0.711,-0.065 -0.261,2.846 0.712,0.066 -0.262,2.846 h 7.712 v 1.928 h 7.712 v -1.928 z"
           style="fill:#231f20;fill-opacity:1;fill-rule:nonzero;stroke:none"
           id="path14489"
           inkscape:connector-curvature="0" /><path
           d="m 363.043,337.545 1.046,-2.531 0.633,0.262 1.045,-2.531 -0.633,-0.262 1.046,-2.531 h -7.671 v -1.918 h -7.672 v 1.918 h -7.671 l -0.658,2.531 -0.633,-0.165 -0.659,2.532 0.633,0.164 -0.659,2.531 h 7.285 v 1.821 h 7.284 v -1.821 z"
           style="fill:#231f20;fill-opacity:1;fill-rule:nonzero;stroke:none"
           id="path14491"
           inkscape:connector-curvature="0" /><path
           d="m 382.703,345.057 1.319,-2.265 0.567,0.33 1.319,-2.265 -0.565,-0.329 1.319,-2.265 h -7.247 v -1.811 h -7.246 v 1.811 h -7.247 l -0.972,2.265 -0.565,-0.243 -0.972,2.264 0.566,0.243 -0.971,2.265 h 6.898 v 1.724 h 6.899 v -1.724 z"
           style="fill:#231f20;fill-opacity:1;fill-rule:nonzero;stroke:none"
           id="path14493"
           inkscape:connector-curvature="0" /><path
           d="m 400.402,351.819 1.532,-2.039 0.509,0.383 1.533,-2.04 -0.51,-0.383 1.531,-2.039 h -6.869 v -1.717 h -6.87 v 1.717 h -6.869 l -1.215,2.039 -0.51,-0.303 -1.215,2.039 0.51,0.304 -1.215,2.039 h 6.553 v 1.638 h 6.553 v -1.638 z"
           style="fill:#231f20;fill-opacity:1;fill-rule:nonzero;stroke:none"
           id="path14495"
           inkscape:connector-curvature="0" /><path
           d="m 416.416,357.937 1.695,-1.846 0.461,0.424 1.696,-1.846 -0.462,-0.423 1.695,-1.846 h -6.525 v -1.631 h -6.525 v 1.631 h -6.525 l -1.412,1.846 -0.462,-0.353 -1.412,1.845 0.461,0.353 -1.413,1.846 h 6.243 v 1.56 h 6.243 v -1.56 z"
           style="fill:#231f20;fill-opacity:1;fill-rule:nonzero;stroke:none"
           id="path14497"
           inkscape:connector-curvature="0" /><path
           d="m 430.968,363.498 1.826,-1.678 0.42,0.457 1.826,-1.678 -0.42,-0.457 1.826,-1.678 h -6.216 v -1.554 h -6.216 v 1.554 h -6.216 l -1.568,1.678 -0.418,-0.392 -1.568,1.678 0.42,0.392 -1.567,1.678 h 5.957 v 1.489 h 5.957 v -1.489 z"
           style="fill:#231f20;fill-opacity:1;fill-rule:nonzero;stroke:none"
           id="path14499"
           inkscape:connector-curvature="0" /><path
           d="m 444.261,368.577 1.926,-1.533 0.382,0.481 1.926,-1.532 -0.383,-0.481 1.926,-1.533 h -5.937 v -1.484 h -5.937 v 1.484 h -5.937 l -1.687,1.533 -0.384,-0.422 -1.686,1.533 0.383,0.421 -1.687,1.533 h 5.698 v 1.424 h 5.699 v -1.424 z"
           style="fill:#231f20;fill-opacity:1;fill-rule:nonzero;stroke:none"
           id="path14501"
           inkscape:connector-curvature="0" /><path
           d="m 456.446,373.229 2,-1.404 0.352,0.5 2,-1.405 -0.352,-0.5 2,-1.405 -5.677,0.001 v -1.42 l -5.678,10e-4 v 1.419 l -5.678,10e-4 -1.785,1.404 -0.351,-0.446 -1.785,1.404 0.352,0.446 -1.785,1.404 h 5.462 v 1.366 h 5.462 v -1.366 z"
           style="fill:#231f20;fill-opacity:1;fill-rule:nonzero;stroke:none"
           id="path14503"
           inkscape:connector-curvature="0" /><path
           d="m 467.656,377.512 2.058,-1.292 0.323,0.514 2.058,-1.293 -0.324,-0.514 2.058,-1.293 h -5.441 v -1.36 h -5.442 v 1.36 h -5.441 l -1.86,1.293 -0.324,-0.465 -1.861,1.292 0.323,0.466 -1.86,1.292 h 5.244 v 1.311 h 5.245 v -1.311 z"
           style="fill:#231f20;fill-opacity:1;fill-rule:nonzero;stroke:none"
           id="path14505"
           inkscape:connector-curvature="0" /><path
           d="m 477.998,381.465 2.103,-1.194 0.297,0.526 2.103,-1.193 -0.299,-0.526 2.103,-1.194 h -5.227 v -1.306 h -5.226 v 1.306 h -5.227 l -1.916,1.194 -0.299,-0.479 -1.916,1.193 0.298,0.479 -1.916,1.194 h 5.041 v 1.26 h 5.04 v -1.26 z"
           style="fill:#231f20;fill-opacity:1;fill-rule:nonzero;stroke:none"
           id="path14507"
           inkscape:connector-curvature="0" /><path
           d="m 152.765,282.643 -3.794,-4.955 1.239,-0.95 -3.794,-4.955 -1.239,0.948 -3.793,-4.955 H 130.54 v -2.711 h -10.845 v 2.711 h -10.844 l 4.551,4.954 -1.238,1.138 4.551,4.954 1.238,-1.137 4.551,4.954 10.087,10e-4 v 2.522 l 10.087,0.001 v -2.521 z"
           style="fill:#231f20;fill-opacity:1;fill-rule:nonzero;stroke:none"
           id="path14509"
           inkscape:connector-curvature="0" /><path
           d="m 194.468,296.759 -2.534,-4.249 1.062,-0.634 -2.533,-4.249 -1.063,0.634 -2.533,-4.249 h -10.016 v -2.504 h -10.015 v 2.504 H 156.82 l 3.187,4.248 -1.062,0.796 3.186,4.248 1.062,-0.797 3.186,4.248 9.363,10e-4 v 2.341 l 9.362,0.001 10e-4,-2.34 z"
           style="fill:#231f20;fill-opacity:1;fill-rule:nonzero;stroke:none"
           id="path14511"
           inkscape:connector-curvature="0" /><path
           d="m 230.622,308.996 -1.58,-3.685 0.921,-0.395 -1.58,-3.686 -0.921,0.395 -1.58,-3.685 h -9.302 v -2.325 h -9.302 v 2.325 h -9.302 l 2.143,3.685 -0.921,0.536 2.143,3.684 0.921,-0.536 2.143,3.684 8.739,0.001 v 2.185 l 8.739,0.001 v -2.185 z"
           style="fill:#231f20;fill-opacity:1;fill-rule:nonzero;stroke:none"
           id="path14513"
           inkscape:connector-curvature="0" /><path
           d="m 262.254,319.703 -0.839,-3.226 0.806,-0.209 -0.839,-3.226 -0.807,0.209 -0.839,-3.226 h -8.686 v -2.171 h -8.685 v 2.171 h -8.685 l 1.333,3.225 -0.807,0.333 1.333,3.226 0.806,-0.334 1.333,3.225 8.192,0.001 v 2.048 l 8.192,10e-4 10e-4,-2.048 z"
           style="fill:#231f20;fill-opacity:1;fill-rule:nonzero;stroke:none"
           id="path14515"
           inkscape:connector-curvature="0" /><path
           d="m 290.157,329.148 -0.259,-2.846 0.712,-0.065 -0.259,-2.847 -0.712,0.065 -0.259,-2.847 h -8.148 v -2.037 h -8.148 v 2.037 h -8.148 l 0.7,2.847 -0.712,0.175 0.7,2.847 0.711,-0.175 0.7,2.846 h 7.708 v 1.927 h 7.707 v -1.927 z"
           style="fill:#231f20;fill-opacity:1;fill-rule:nonzero;stroke:none"
           id="path14517"
           inkscape:connector-curvature="0" /><path
           d="m 314.967,337.545 0.195,-2.531 0.633,0.049 0.196,-2.531 -0.633,-0.049 0.196,-2.531 h -7.671 v -1.917 h -7.671 v 1.917 h -7.67 l 0.193,2.53 -0.632,0.049 0.193,2.53 0.633,-0.048 0.193,2.53 7.282,10e-4 -10e-4,1.82 7.282,0.001 10e-4,-1.821 z"
           style="fill:#231f20;fill-opacity:1;fill-rule:nonzero;stroke:none"
           id="path14519"
           inkscape:connector-curvature="0" /><path
           d="m 337.165,345.059 0.555,-2.266 0.566,0.139 0.555,-2.265 -0.567,-0.139 0.555,-2.265 h -7.245 v -1.811 h -7.245 v 1.811 h -7.245 l -0.208,2.265 -0.567,-0.052 -0.208,2.264 0.567,0.052 -0.208,2.265 h 6.898 v 1.725 l 6.899,0.001 v -1.725 z"
           style="fill:#231f20;fill-opacity:1;fill-rule:nonzero;stroke:none"
           id="path14521"
           inkscape:connector-curvature="0" /><path
           d="m 357.136,351.819 0.844,-2.039 0.51,0.211 0.845,-2.039 -0.51,-0.212 0.845,-2.039 h -6.865 v -1.716 h -6.865 v 1.716 h -6.865 l -0.531,2.039 -0.51,-0.133 -0.53,2.04 0.51,0.133 -0.532,2.039 h 6.551 v 1.638 h 6.552 v -1.638 z"
           style="fill:#231f20;fill-opacity:1;fill-rule:nonzero;stroke:none"
           id="path14523"
           inkscape:connector-curvature="0" /><path
           d="m 375.21,357.937 1.075,-1.846 0.462,0.269 1.075,-1.845 -0.461,-0.269 1.076,-1.846 h -6.526 v -1.631 h -6.526 v 1.631 h -6.526 l -0.789,1.846 -0.461,-0.197 -0.789,1.845 0.462,0.197 -0.789,1.846 h 6.239 v 1.559 h 6.239 v -1.559 z"
           style="fill:#231f20;fill-opacity:1;fill-rule:nonzero;stroke:none"
           id="path14525"
           inkscape:connector-curvature="0" /><path
           d="m 391.641,363.498 1.258,-1.678 0.419,0.315 1.259,-1.678 -0.42,-0.315 1.259,-1.678 h -6.214 v -1.553 h -6.213 v 1.553 h -6.214 l -1.002,1.678 -0.419,-0.251 -1.001,1.678 0.418,0.25 -1.001,1.678 h 5.957 v 1.489 l 5.957,0.001 v -1.489 z"
           style="fill:#231f20;fill-opacity:1;fill-rule:nonzero;stroke:none"
           id="path14527"
           inkscape:connector-curvature="0" /><path
           d="m 406.638,368.577 1.409,-1.533 0.384,0.352 1.409,-1.532 -0.383,-0.352 1.409,-1.533 h -5.932 v -1.483 H 399 v 1.483 h -5.933 l -1.172,1.532 -0.383,-0.293 -1.173,1.532 0.383,0.293 -1.173,1.532 5.696,0.001 V 370 h 5.696 v -1.424 z"
           style="fill:#231f20;fill-opacity:1;fill-rule:nonzero;stroke:none"
           id="path14529"
           inkscape:connector-curvature="0" /><path
           d="m 420.391,373.229 1.528,-1.404 0.352,0.383 1.528,-1.405 -0.351,-0.382 1.529,-1.404 -5.678,-10e-4 v -1.419 l -5.678,-10e-4 v 1.42 l -5.678,-0.001 -1.309,1.405 -0.352,-0.328 -1.309,1.405 0.35,0.328 -1.309,1.404 h 5.459 v 1.365 h 5.459 v -1.365 z"
           style="fill:#231f20;fill-opacity:1;fill-rule:nonzero;stroke:none"
           id="path14531"
           inkscape:connector-curvature="0" /><path
           d="m 433.044,377.512 1.622,-1.292 0.323,0.405 1.622,-1.292 -0.323,-0.406 1.622,-1.293 h -5.44 v -1.36 h -5.44 v 1.36 h -5.44 l -1.425,1.292 -0.322,-0.356 -1.425,1.292 0.323,0.357 -1.425,1.292 h 5.243 v 1.311 h 5.243 v -1.31 z"
           style="fill:#231f20;fill-opacity:1;fill-rule:nonzero;stroke:none"
           id="path14533"
           inkscape:connector-curvature="0" /><path
           d="m 444.721,381.465 1.699,-1.194 0.298,0.425 1.699,-1.194 -0.299,-0.424 1.699,-1.194 h -5.222 v -1.305 h -5.224 v 1.305 h -5.223 l -1.515,1.193 -0.299,-0.379 -1.516,1.194 0.298,0.379 -1.515,1.192 5.04,10e-4 v 1.26 l 5.04,0.001 v -1.261 z"
           style="fill:#231f20;fill-opacity:1;fill-rule:nonzero;stroke:none"
           id="path14535"
           inkscape:connector-curvature="0" /><path
           d="m 455.528,385.125 1.762,-1.105 0.276,0.44 1.761,-1.105 -0.276,-0.44 1.762,-1.105 -5.024,-10e-4 v -1.256 h -5.024 v 1.256 l -5.024,-0.001 -1.59,1.106 -0.276,-0.398 -1.589,1.105 0.277,0.398 -1.59,1.105 h 4.851 v 1.213 h 4.853 v -1.212 z"
           style="fill:#231f20;fill-opacity:1;fill-rule:nonzero;stroke:none"
           id="path14537"
           inkscape:connector-curvature="0" /><path
           d="m 132.664,296.759 -3.968,-4.249 1.062,-0.992 -3.968,-4.249 -1.062,0.992 -3.968,-4.249 h -10.016 v -2.504 h -10.016 v 2.504 H 90.712 l 4.62,4.248 -1.061,1.154 4.62,4.248 1.062,-1.155 4.62,4.248 9.364,10e-4 -10e-4,2.341 9.364,0.002 v -2.341 z"
           style="fill:#231f20;fill-opacity:1;fill-rule:nonzero;stroke:none"
           id="path14539"
           inkscape:connector-curvature="0" /><path
           d="m 172.935,308.993 -2.82,-3.684 0.921,-0.705 -2.82,-3.685 -0.921,0.706 -2.82,-3.685 h -9.305 v -2.326 h -9.304 v 2.326 h -9.305 l 3.384,3.685 -0.921,0.846 3.384,3.684 0.921,-0.846 3.384,3.684 h 8.741 v 2.185 h 8.74 v -2.185 z"
           style="fill:#231f20;fill-opacity:1;fill-rule:nonzero;stroke:none"
           id="path14541"
           inkscape:connector-curvature="0" /><path
           d="m 208.175,319.7 -1.925,-3.225 0.806,-0.481 -1.926,-3.225 -0.806,0.481 -1.926,-3.225 h -8.688 v -2.171 h -8.687 v 2.171 h -8.688 l 2.419,3.225 -0.806,0.605 2.419,3.225 0.806,-0.605 2.419,3.225 h 8.195 v 2.049 h 8.193 V 319.7 Z"
           style="fill:#231f20;fill-opacity:1;fill-rule:nonzero;stroke:none"
           id="path14543"
           inkscape:connector-curvature="0" /><path
           d="m 239.269,329.148 -1.221,-2.846 0.712,-0.305 -1.22,-2.847 -0.712,0.305 -1.221,-2.847 h -8.148 v -2.037 h -8.148 v 2.037 h -8.148 l 1.656,2.847 -0.712,0.414 1.656,2.847 0.712,-0.414 1.656,2.846 h 7.712 v 1.929 h 7.713 v -1.929 z"
           style="fill:#231f20;fill-opacity:1;fill-rule:nonzero;stroke:none"
           id="path14545"
           inkscape:connector-curvature="0" /><path
           d="m 266.899,337.545 -0.656,-2.531 0.632,-0.164 -0.656,-2.531 -0.633,0.164 -0.656,-2.531 h -7.674 v -1.918 h -7.673 v 1.918 h -7.674 l 1.048,2.531 -0.633,0.262 1.049,2.531 0.632,-0.262 1.049,2.531 h 7.281 v 1.821 h 7.282 v -1.821 z"
           style="fill:#231f20;fill-opacity:1;fill-rule:nonzero;stroke:none"
           id="path14547"
           inkscape:connector-curvature="0" /><path
           d="m 291.625,345.057 -0.208,-2.265 0.566,-0.052 -0.208,-2.264 -0.566,0.052 -0.208,-2.265 h -7.247 v -1.811 h -7.247 v 1.811 h -7.246 l 0.554,2.265 -0.566,0.139 0.555,2.264 0.566,-0.139 0.554,2.265 h 6.901 v 1.725 h 6.9 v -1.725 z"
           style="fill:#231f20;fill-opacity:1;fill-rule:nonzero;stroke:none"
           id="path14549"
           inkscape:connector-curvature="0" /><path
           d="m 313.881,351.819 0.156,-2.039 0.51,0.038 0.155,-2.039 -0.51,-0.039 0.157,-2.039 h -6.868 v -1.717 h -6.867 v 1.717 h -6.868 l 0.156,2.039 -0.509,0.039 0.155,2.04 0.51,-0.039 0.156,2.039 h 6.556 v 1.639 h 6.555 v -1.639 z"
           style="fill:#231f20;fill-opacity:1;fill-rule:nonzero;stroke:none"
           id="path14551"
           inkscape:connector-curvature="0" /><path
           d="m 334.01,357.937 0.454,-1.846 0.461,0.114 0.454,-1.846 -0.461,-0.113 0.454,-1.846 h -6.525 v -1.631 h -6.527 v 1.631 h -6.525 l -0.17,1.846 -0.461,-0.043 -0.17,1.846 0.461,0.042 -0.17,1.846 h 6.241 v 1.56 h 6.243 v -1.56 z"
           style="fill:#231f20;fill-opacity:1;fill-rule:nonzero;stroke:none"
           id="path14553"
           inkscape:connector-curvature="0" /><path
           d="m 352.313,363.498 0.697,-1.678 0.419,0.174 0.696,-1.678 -0.42,-0.174 0.696,-1.678 h -6.218 v -1.554 h -6.219 v 1.554 h -6.219 l -0.434,1.678 -0.419,-0.108 -0.435,1.677 0.42,0.109 -0.435,1.678 h 5.957 v 1.489 h 5.957 v -1.489 z"
           style="fill:#231f20;fill-opacity:1;fill-rule:nonzero;stroke:none"
           id="path14555"
           inkscape:connector-curvature="0" /><path
           d="m 369.026,368.577 0.893,-1.534 0.383,0.224 0.892,-1.534 -0.383,-0.222 0.892,-1.533 h -5.935 v -1.484 l -5.935,10e-4 v 1.484 h -5.936 l -0.657,1.532 -0.383,-0.164 -0.657,1.532 0.383,0.164 -0.657,1.532 5.7,0.001 v 1.425 h 5.7 v -1.425 z"
           style="fill:#231f20;fill-opacity:1;fill-rule:nonzero;stroke:none"
           id="path14557"
           inkscape:connector-curvature="0" /><path
           d="m 384.341,373.229 1.055,-1.404 0.352,0.264 1.056,-1.405 -0.352,-0.264 1.056,-1.405 -5.678,0.001 v -1.42 l -5.678,10e-4 v 1.419 l -5.677,10e-4 -0.839,1.404 -0.351,-0.21 -0.839,1.405 0.352,0.209 -0.839,1.404 h 5.461 v 1.366 h 5.46 v -1.366 z"
           style="fill:#231f20;fill-opacity:1;fill-rule:nonzero;stroke:none"
           id="path14559"
           inkscape:connector-curvature="0" /><path
           d="m 398.436,377.512 1.189,-1.292 0.323,0.297 1.189,-1.293 -0.324,-0.297 1.19,-1.293 h -5.444 v -1.361 h -5.444 v 1.361 h -5.444 l -0.987,1.293 -0.324,-0.247 -0.988,1.293 0.323,0.247 -0.987,1.292 h 5.242 v 1.311 h 5.243 v -1.311 z"
           style="fill:#231f20;fill-opacity:1;fill-rule:nonzero;stroke:none"
           id="path14561"
           inkscape:connector-curvature="0" /><path
           d="m 411.444,381.465 1.298,-1.194 0.299,0.325 1.298,-1.194 -0.299,-0.324 1.298,-1.194 h -5.226 v -1.306 h -5.225 v 1.306 h -5.226 l -1.114,1.193 -0.298,-0.278 -1.114,1.193 0.298,0.279 -1.115,1.192 5.042,10e-4 v 1.261 h 5.042 v -1.261 z"
           style="fill:#231f20;fill-opacity:1;fill-rule:nonzero;stroke:none"
           id="path14563"
           inkscape:connector-curvature="0" /><path
           d="m 423.49,385.125 1.389,-1.106 0.276,0.347 1.388,-1.105 -0.276,-0.347 1.388,-1.106 -5.025,0.001 v -1.257 l -5.026,10e-4 v 1.256 l -5.026,10e-4 -1.218,1.105 -0.276,-0.305 -1.218,1.105 0.277,0.304 -1.218,1.105 h 4.855 v 1.214 h 4.855 v -1.213 z"
           style="fill:#231f20;fill-opacity:1;fill-rule:nonzero;stroke:none"
           id="path14565"
           inkscape:connector-curvature="0" /><path
           d="m 434.672,388.522 1.463,-1.026 0.257,0.365 1.462,-1.026 -0.255,-0.366 1.463,-1.026 h -4.841 v -1.211 h -4.841 v 1.211 h -4.841 l -1.303,1.026 -0.257,-0.325 -1.302,1.026 0.257,0.326 -1.303,1.026 h 4.681 v 1.17 h 4.679 v -1.17 z"
           style="fill:#231f20;fill-opacity:1;fill-rule:nonzero;stroke:none"
           id="path14567"
           inkscape:connector-curvature="0" /><path
           d="m 115.255,308.996 -4.062,-3.685 0.921,-1.016 -4.062,-3.685 -0.922,1.015 -4.062,-3.685 h -9.307 v -2.327 h -9.308 v 2.327 h -9.308 l 4.628,3.685 -0.921,1.157 4.628,3.684 0.921,-1.157 4.628,3.684 8.742,0.001 v 2.186 l 8.742,10e-4 v -2.186 z"
           style="fill:#231f20;fill-opacity:1;fill-rule:nonzero;stroke:none"
           id="path14569"
           inkscape:connector-curvature="0" /><path
           d="m 154.089,319.7 -3.011,-3.225 0.806,-0.753 -3.012,-3.224 -0.807,0.752 -3.011,-3.225 h -8.688 v -2.171 h -8.689 v 2.171 h -8.688 l 3.509,3.225 -0.807,0.877 3.508,3.226 0.806,-0.878 3.509,3.225 h 8.192 v 2.048 h 8.191 V 319.7 Z"
           style="fill:#231f20;fill-opacity:1;fill-rule:nonzero;stroke:none"
           id="path14571"
           inkscape:connector-curvature="0" /><path
           d="m 188.364,329.148 -2.179,-2.846 0.712,-0.545 -2.179,-2.847 -0.712,0.545 -2.179,-2.847 h -8.148 v -2.037 h -8.148 v 2.037 h -8.148 l 2.615,2.847 -0.712,0.654 2.615,2.847 0.712,-0.654 2.615,2.846 h 7.712 v 1.929 h 7.712 v -1.929 z"
           style="fill:#231f20;fill-opacity:1;fill-rule:nonzero;stroke:none"
           id="path14573"
           inkscape:connector-curvature="0" /><path
           d="m 218.83,337.545 -1.512,-2.531 0.633,-0.377 -1.511,-2.532 -0.632,0.378 -1.512,-2.531 h -7.671 v -1.918 h -7.671 v 1.918 h -7.671 l 1.899,2.531 -0.633,0.475 1.899,2.531 0.633,-0.475 1.898,2.531 h 7.284 v 1.821 h 7.283 v -1.821 z"
           style="fill:#231f20;fill-opacity:1;fill-rule:nonzero;stroke:none"
           id="path14575"
           inkscape:connector-curvature="0" /><path
           d="m 246.081,345.057 -0.969,-2.265 0.567,-0.242 -0.969,-2.264 -0.566,0.242 -0.969,-2.265 h -7.249 v -1.812 h -7.249 v 1.812 h -7.25 l 1.32,2.265 -0.566,0.329 1.319,2.265 0.566,-0.33 1.32,2.265 h 6.898 v 1.724 h 6.899 v -1.724 z"
           style="fill:#231f20;fill-opacity:1;fill-rule:nonzero;stroke:none"
           id="path14577"
           inkscape:connector-curvature="0" /><path
           d="m 270.614,351.819 -0.529,-2.039 0.51,-0.133 -0.529,-2.039 -0.509,0.132 -0.529,-2.039 h -6.87 v -1.717 h -6.87 v 1.717 h -6.87 l 0.843,2.039 -0.51,0.211 0.844,2.039 0.509,-0.21 0.843,2.039 h 6.556 v 1.639 h 6.555 v -1.639 z"
           style="fill:#231f20;fill-opacity:1;fill-rule:nonzero;stroke:none"
           id="path14579"
           inkscape:connector-curvature="0" /><path
           d="m 292.808,357.937 -0.169,-1.846 0.461,-0.042 -0.169,-1.845 -0.462,0.042 -0.169,-1.846 h -6.526 v -1.631 h -6.525 v 1.631 h -6.525 l 0.452,1.846 -0.462,0.113 0.452,1.845 0.461,-0.113 0.453,1.846 h 6.242 v 1.56 h 6.243 v -1.56 z"
           style="fill:#231f20;fill-opacity:1;fill-rule:nonzero;stroke:none"
           id="path14581"
           inkscape:connector-curvature="0" /><path
           d="m 312.98,363.498 0.13,-1.678 0.42,0.033 0.13,-1.678 -0.419,-0.033 0.13,-1.678 h -6.216 v -1.553 h -6.215 v 1.553 h -6.216 l 0.129,1.678 -0.42,0.032 0.128,1.678 0.419,-0.032 0.129,1.678 h 5.957 v 1.489 h 5.957 v -1.489 z"
           style="fill:#231f20;fill-opacity:1;fill-rule:nonzero;stroke:none"
           id="path14583"
           inkscape:connector-curvature="0" /><path
           d="m 331.403,368.577 0.377,-1.533 0.384,0.095 0.377,-1.533 -0.383,-0.094 0.377,-1.533 h -5.936 v -1.484 h -5.938 v 1.484 h -5.936 l -0.139,1.533 -0.384,-0.035 -0.139,1.532 0.383,0.035 -0.138,1.533 h 5.698 v 1.424 h 5.699 v -1.424 z"
           style="fill:#231f20;fill-opacity:1;fill-rule:nonzero;stroke:none"
           id="path14585"
           inkscape:connector-curvature="0" /><path
           d="m 348.291,373.229 0.581,-1.404 0.352,0.145 0.581,-1.405 -0.352,-0.145 0.581,-1.405 -5.679,0.001 v -1.42 l -5.677,10e-4 v 1.419 l -5.679,10e-4 -0.365,1.404 -0.351,-0.091 -0.365,1.404 0.351,0.091 -0.366,1.404 h 5.463 v 1.366 h 5.462 v -1.366 z"
           style="fill:#231f20;fill-opacity:1;fill-rule:nonzero;stroke:none"
           id="path14587"
           inkscape:connector-curvature="0" /><path
           d="m 363.822,377.512 0.754,-1.292 0.323,0.188 0.755,-1.293 -0.323,-0.188 0.754,-1.293 h -5.442 v -1.361 H 355.2 v 1.361 h -5.442 l -0.554,1.293 -0.323,-0.138 -0.555,1.292 0.323,0.139 -0.553,1.292 h 5.242 v 1.311 h 5.242 v -1.311 z"
           style="fill:#231f20;fill-opacity:1;fill-rule:nonzero;stroke:none"
           id="path14589"
           inkscape:connector-curvature="0" /><path
           d="m 378.163,381.465 0.898,-1.194 0.297,0.225 0.898,-1.194 -0.299,-0.224 0.897,-1.194 h -5.226 v -1.306 h -5.227 v 1.306 h -5.226 l -0.711,1.194 -0.299,-0.178 -0.711,1.194 0.298,0.177 -0.711,1.194 h 5.041 v 1.26 h 5.04 v -1.26 z"
           style="fill:#231f20;fill-opacity:1;fill-rule:nonzero;stroke:none"
           id="path14591"
           inkscape:connector-curvature="0" /><path
           d="m 391.441,385.125 1.016,-1.106 0.276,0.254 1.016,-1.106 -0.276,-0.253 1.015,-1.106 -5.024,0.001 v -1.257 l -5.026,10e-4 v 1.256 l -5.024,10e-4 -0.846,1.105 -0.276,-0.212 -0.846,1.105 0.277,0.211 -0.846,1.105 h 4.854 v 1.214 h 4.856 v -1.213 z"
           style="fill:#231f20;fill-opacity:1;fill-rule:nonzero;stroke:none"
           id="path14593"
           inkscape:connector-curvature="0" /><path
           d="m 403.771,388.523 1.117,-1.026 0.257,0.278 1.116,-1.026 -0.257,-0.279 1.116,-1.027 h -4.84 v -1.21 l -4.84,10e-4 v 1.21 h -4.839 l -0.958,1.026 -0.257,-0.24 -0.958,1.027 0.257,0.239 -0.958,1.026 h 4.681 v 1.171 h 4.682 v -1.17 z"
           style="fill:#231f20;fill-opacity:1;fill-rule:nonzero;stroke:none"
           id="path14595"
           inkscape:connector-curvature="0" /><path
           d="m 415.248,391.687 1.201,-0.956 0.239,0.3 1.202,-0.956 -0.24,-0.3 1.202,-0.956 h -4.669 v -1.167 h -4.668 v 1.167 h -4.669 l -1.052,0.956 -0.239,-0.263 -1.052,0.956 0.239,0.263 -1.052,0.956 h 4.52 v 1.129 h 4.519 v -1.129 z"
           style="fill:#231f20;fill-opacity:1;fill-rule:nonzero;stroke:none"
           id="path14597"
           inkscape:connector-curvature="0" /><path
           d="m 100.015,319.703 -4.099,-3.226 0.806,-1.025 -4.099,-3.225 -0.807,1.024 -4.099,-3.226 h -8.691 v -2.172 h -8.691 v 2.172 h -8.69 l 4.594,3.225 -0.806,1.149 4.594,3.225 0.806,-1.149 4.595,3.225 8.196,0.001 -10e-4,2.049 8.196,10e-4 v -2.049 z"
           style="fill:#231f20;fill-opacity:1;fill-rule:nonzero;stroke:none"
           id="path14599"
           inkscape:connector-curvature="0" /><path
           d="m 137.461,329.148 -3.135,-2.846 0.711,-0.784 -3.135,-2.847 -0.712,0.784 -3.135,-2.847 h -8.151 v -2.037 h -8.151 v 2.037 h -8.15 l 3.576,2.847 -0.712,0.894 3.576,2.847 0.712,-0.894 3.577,2.846 h 7.71 v 1.928 h 7.709 v -1.928 z"
           style="fill:#231f20;fill-opacity:1;fill-rule:nonzero;stroke:none"
           id="path14601"
           inkscape:connector-curvature="0" /><path
           d="m 170.755,337.545 -2.363,-2.531 0.632,-0.591 -2.363,-2.531 -0.633,0.591 -2.364,-2.531 h -7.671 v -1.918 h -7.672 v 1.918 h -7.671 l 2.751,2.531 -0.632,0.688 2.751,2.531 0.632,-0.688 2.752,2.531 h 7.284 v 1.821 h 7.284 v -1.821 z"
           style="fill:#231f20;fill-opacity:1;fill-rule:nonzero;stroke:none"
           id="path14603"
           inkscape:connector-curvature="0" /><path
           d="m 200.544,345.059 -1.734,-2.266 0.566,-0.433 -1.734,-2.265 -0.566,0.433 -1.734,-2.265 h -7.247 v -1.811 h -7.247 v 1.811 h -7.247 l 2.08,2.265 -0.566,0.52 2.08,2.264 0.567,-0.52 2.08,2.265 h 6.901 l -0.001,1.725 6.901,0.001 v -1.725 z"
           style="fill:#231f20;fill-opacity:1;fill-rule:nonzero;stroke:none"
           id="path14605"
           inkscape:connector-curvature="0" /><path
           d="m 227.346,351.819 -1.216,-2.039 0.51,-0.304 -1.216,-2.039 -0.509,0.303 -1.216,-2.039 h -6.869 v -1.717 h -6.87 v 1.717 h -6.87 l 1.533,2.039 -0.51,0.384 1.532,2.039 0.509,-0.383 1.533,2.039 h 6.553 v 1.638 h 6.552 v -1.638 z"
           style="fill:#231f20;fill-opacity:1;fill-rule:nonzero;stroke:none"
           id="path14607"
           inkscape:connector-curvature="0" /><path
           d="m 251.603,357.937 -0.79,-1.846 0.462,-0.197 -0.789,-1.846 -0.462,0.198 -0.789,-1.846 h -6.527 v -1.631 h -6.529 v 1.631 h -6.528 l 1.074,1.846 -0.461,0.268 1.074,1.845 0.461,-0.268 1.074,1.846 h 6.243 v 1.56 h 6.243 v -1.56 z"
           style="fill:#231f20;fill-opacity:1;fill-rule:nonzero;stroke:none"
           id="path14609"
           inkscape:connector-curvature="0" /><path
           d="m 273.653,363.498 -0.436,-1.678 0.419,-0.109 -0.437,-1.678 -0.419,0.109 -0.437,-1.678 h -6.216 v -1.554 h -6.216 v 1.554 h -6.217 l 0.694,1.678 -0.419,0.174 0.694,1.678 0.419,-0.174 0.694,1.678 h 5.959 v 1.49 h 5.959 v -1.49 z"
           style="fill:#231f20;fill-opacity:1;fill-rule:nonzero;stroke:none"
           id="path14611"
           inkscape:connector-curvature="0" /><path
           d="m 293.782,368.577 -0.139,-1.533 0.382,-0.035 -0.139,-1.532 -0.383,0.035 -0.139,-1.533 h -5.935 v -1.484 h -5.934 v 1.484 h -5.935 l 0.376,1.533 -0.384,0.093 0.376,1.533 0.383,-0.094 0.375,1.533 h 5.699 v 1.424 h 5.698 v -1.424 z"
           style="fill:#231f20;fill-opacity:1;fill-rule:nonzero;stroke:none"
           id="path14613"
           inkscape:connector-curvature="0" /><path
           d="m 312.234,373.229 0.11,-1.404 0.351,0.028 0.11,-1.405 -0.352,-0.027 0.11,-1.404 h -5.679 v -1.42 h -5.679 v 1.42 h -5.679 l 0.11,1.404 -0.351,0.027 0.109,1.405 0.351,-0.028 0.109,1.404 h 5.46 v 1.366 h 5.46 v -1.366 z"
           style="fill:#231f20;fill-opacity:1;fill-rule:nonzero;stroke:none"
           id="path14615"
           inkscape:connector-curvature="0" /><path
           d="m 329.215,377.512 0.316,-1.292 0.323,0.079 0.317,-1.293 -0.323,-0.079 0.316,-1.293 h -5.441 v -1.36 h -5.443 v 1.36 h -5.441 l -0.119,1.293 -0.324,-0.03 -0.118,1.293 0.324,0.03 -0.12,1.292 h 5.245 v 1.311 h 5.244 v -1.311 z"
           style="fill:#231f20;fill-opacity:1;fill-rule:nonzero;stroke:none"
           id="path14617"
           inkscape:connector-curvature="0" /><path
           d="m 344.882,381.465 0.495,-1.194 0.299,0.124 0.495,-1.193 -0.299,-0.124 0.495,-1.194 h -5.225 v -1.306 h -5.226 v 1.306 h -5.226 l -0.309,1.194 -0.299,-0.078 -0.31,1.194 0.298,0.077 -0.309,1.194 h 5.04 v 1.26 h 5.041 v -1.26 z"
           style="fill:#231f20;fill-opacity:1;fill-rule:nonzero;stroke:none"
           id="path14619"
           inkscape:connector-curvature="0" /><path
           d="m 359.393,385.125 0.645,-1.105 0.276,0.161 0.645,-1.105 -0.276,-0.161 0.645,-1.105 h -5.026 v -1.257 h -5.028 v 1.257 h -5.026 l -0.473,1.105 -0.276,-0.119 -0.472,1.105 0.277,0.119 -0.473,1.105 h 4.854 v 1.213 h 4.854 v -1.213 z"
           style="fill:#231f20;fill-opacity:1;fill-rule:nonzero;stroke:none"
           id="path14621"
           inkscape:connector-curvature="0" /><path
           d="m 372.869,388.523 0.77,-1.026 0.257,0.192 0.77,-1.027 -0.257,-0.192 0.77,-1.027 h -4.84 v -1.21 l -4.839,10e-4 v 1.21 h -4.84 l -0.612,1.026 -0.257,-0.153 -0.612,1.026 0.257,0.153 -0.613,1.026 h 4.682 v 1.171 h 4.683 v -1.17 z"
           style="fill:#231f20;fill-opacity:1;fill-rule:nonzero;stroke:none"
           id="path14623"
           inkscape:connector-curvature="0" /><path
           d="m 385.414,391.687 0.878,-0.956 0.239,0.219 0.878,-0.955 -0.239,-0.22 0.878,-0.956 -4.667,10e-4 v -1.167 h -4.667 v 1.167 h -4.667 l -0.732,0.956 -0.239,-0.183 -0.731,0.955 0.238,0.183 -0.731,0.956 h 4.52 v 1.13 h 4.522 v -1.13 z"
           style="fill:#231f20;fill-opacity:1;fill-rule:nonzero;stroke:none"
           id="path14625"
           inkscape:connector-curvature="0" /><path
           d="m 397.119,394.64 0.971,-0.892 0.223,0.242 0.971,-0.892 -0.222,-0.243 0.97,-0.892 h -4.508 v -1.127 h -4.507 v 1.127 h -4.508 l -0.832,0.892 -0.223,-0.208 -0.832,0.893 0.223,0.208 -0.832,0.892 h 4.369 v 1.092 h 4.368 v -1.092 z"
           style="fill:#231f20;fill-opacity:1;fill-rule:nonzero;stroke:none"
           id="path14627"
           inkscape:connector-curvature="0" /><path
           d="m 86.564,329.148 -4.097,-2.846 0.712,-1.025 -4.097,-2.846 -0.712,1.024 -4.097,-2.847 h -8.148 v -2.037 h -8.147 v 2.037 H 49.83 l 4.532,2.847 -0.712,1.133 4.534,2.847 0.711,-1.133 4.533,2.846 h 7.712 v 1.929 h 7.712 v -1.929 z"
           style="fill:#231f20;fill-opacity:1;fill-rule:nonzero;stroke:none"
           id="path14629"
           inkscape:connector-curvature="0" /><path
           d="m 122.686,337.545 -3.216,-2.531 0.633,-0.804 -3.216,-2.531 -0.633,0.804 -3.215,-2.531 h -7.671 v -1.918 h -7.672 v 1.918 h -7.671 l 3.604,2.531 -0.633,0.901 3.604,2.531 0.632,-0.901 3.604,2.531 h 7.283 v 1.821 h 7.284 v -1.821 z"
           style="fill:#231f20;fill-opacity:1;fill-rule:nonzero;stroke:none"
           id="path14631"
           inkscape:connector-curvature="0" /><path
           d="m 155.004,345.057 -2.497,-2.265 0.567,-0.625 -2.497,-2.265 -0.567,0.624 -2.497,-2.265 -7.246,10e-4 v -1.812 l -7.246,0.001 v 1.812 h -7.247 l 2.843,2.265 -0.566,0.71 2.843,2.265 0.566,-0.711 2.843,2.265 h 6.9 v 1.725 h 6.901 v -1.725 z"
           style="fill:#231f20;fill-opacity:1;fill-rule:nonzero;stroke:none"
           id="path14633"
           inkscape:connector-curvature="0" /><path
           d="m 184.085,351.819 -1.904,-2.039 0.509,-0.476 -1.904,-2.04 -0.51,0.476 -1.904,-2.039 h -6.866 v -1.716 h -6.865 v 1.716 h -6.865 l 2.216,2.039 -0.51,0.554 2.217,2.04 0.51,-0.554 2.216,2.039 h 6.554 v 1.638 h 6.553 v -1.638 z"
           style="fill:#231f20;fill-opacity:1;fill-rule:nonzero;stroke:none"
           id="path14635"
           inkscape:connector-curvature="0" /><path
           d="m 210.402,357.937 -1.413,-1.846 0.461,-0.353 -1.412,-1.845 -0.462,0.353 -1.412,-1.846 h -6.526 v -1.631 h -6.526 v 1.631 h -6.525 l 1.695,1.846 -0.461,0.423 1.695,1.846 0.462,-0.424 1.695,1.846 h 6.243 v 1.56 h 6.243 v -1.56 z"
           style="fill:#231f20;fill-opacity:1;fill-rule:nonzero;stroke:none"
           id="path14637"
           inkscape:connector-curvature="0" /><path
           d="m 234.326,363.498 -1.002,-1.678 0.419,-0.25 -1.002,-1.678 -0.419,0.25 -1.002,-1.678 h -6.216 v -1.554 h -6.216 v 1.554 h -6.216 l 1.258,1.678 -0.419,0.315 1.259,1.677 0.419,-0.315 1.258,1.678 h 5.96 v 1.49 h 5.959 v -1.489 z"
           style="fill:#231f20;fill-opacity:1;fill-rule:nonzero;stroke:none"
           id="path14639"
           inkscape:connector-curvature="0" /><path
           d="m 256.169,368.577 -0.657,-1.534 0.384,-0.164 -0.657,-1.533 -0.384,0.165 -0.657,-1.533 h -5.934 l -0.001,-1.484 -5.934,10e-4 v 1.484 h -5.935 l 0.891,1.532 -0.383,0.223 0.891,1.532 0.384,-0.223 0.891,1.532 5.701,0.001 -0.001,1.425 h 5.701 v -1.425 z"
           style="fill:#231f20;fill-opacity:1;fill-rule:nonzero;stroke:none"
           id="path14641"
           inkscape:connector-curvature="0" /><path
           d="m 276.187,373.229 -0.364,-1.404 0.351,-0.091 -0.364,-1.405 -0.352,0.091 -0.363,-1.405 -5.678,0.001 v -1.42 l -5.678,10e-4 0.001,1.419 -5.678,10e-4 0.581,1.404 -0.351,0.145 0.58,1.404 0.351,-0.145 0.581,1.404 h 5.461 v 1.366 h 5.461 v -1.366 z"
           style="fill:#231f20;fill-opacity:1;fill-rule:nonzero;stroke:none"
           id="path14643"
           inkscape:connector-curvature="0" /><path
           d="m 294.606,377.512 -0.118,-1.292 0.323,-0.03 -0.119,-1.293 -0.323,0.03 -0.119,-1.293 h -5.442 v -1.36 h -5.441 v 1.36 h -5.442 l 0.318,1.293 -0.323,0.079 0.318,1.293 0.324,-0.079 0.318,1.292 h 5.242 v 1.311 h 5.242 v -1.311 z"
           style="fill:#231f20;fill-opacity:1;fill-rule:nonzero;stroke:none"
           id="path14645"
           inkscape:connector-curvature="0" /><path
           d="m 311.611,381.465 0.091,-1.194 0.299,0.023 0.091,-1.194 -0.298,-0.022 0.091,-1.194 h -5.225 l -0.001,-1.306 h -5.224 v 1.306 h -5.226 l 0.092,1.193 -0.299,0.023 0.092,1.193 0.298,-0.022 0.091,1.192 5.043,10e-4 v 1.261 h 5.042 v -1.261 z"
           style="fill:#231f20;fill-opacity:1;fill-rule:nonzero;stroke:none"
           id="path14647"
           inkscape:connector-curvature="0" /><path
           d="m 327.351,385.124 0.272,-1.105 0.276,0.068 0.273,-1.106 -0.276,-0.067 0.272,-1.106 -5.025,0.001 v -1.257 l -5.026,10e-4 v 1.256 l -5.025,10e-4 -0.102,1.105 -0.275,-0.026 -0.102,1.105 0.277,0.025 -0.102,1.105 h 4.855 v 1.213 h 4.853 v -1.213 z"
           style="fill:#231f20;fill-opacity:1;fill-rule:nonzero;stroke:none"
           id="path14649"
           inkscape:connector-curvature="0" /><path
           d="m 341.969,388.522 0.427,-1.026 0.255,0.106 0.427,-1.026 -0.257,-0.107 0.427,-1.026 h -4.841 v -1.211 h -4.841 v 1.211 h -4.84 l -0.266,1.026 -0.257,-0.066 -0.265,1.026 0.255,0.067 -0.265,1.026 h 4.68 v 1.17 h 4.68 v -1.17 z"
           style="fill:#231f20;fill-opacity:1;fill-rule:nonzero;stroke:none"
           id="path14651"
           inkscape:connector-curvature="0" /><path
           d="m 355.582,391.687 0.556,-0.957 0.239,0.14 0.556,-0.956 -0.24,-0.139 0.556,-0.956 h -4.667 v -1.167 h -4.667 v 1.167 h -4.667 l -0.409,0.956 -0.239,-0.103 -0.41,0.956 0.239,0.102 -0.409,0.956 h 4.52 v 1.13 h 4.522 v -1.129 z"
           style="fill:#231f20;fill-opacity:1;fill-rule:nonzero;stroke:none"
           id="path14653"
           inkscape:connector-curvature="0" /><path
           d="m 368.284,394.64 0.669,-0.893 0.224,0.168 0.669,-0.893 -0.223,-0.167 0.669,-0.893 -4.507,0.001 v -1.127 h -4.507 v 1.127 h -4.507 l -0.532,0.892 -0.222,-0.133 -0.533,0.892 0.223,0.133 -0.532,0.892 h 4.37 v 1.093 h 4.369 v -1.092 z"
           style="fill:#231f20;fill-opacity:1;fill-rule:nonzero;stroke:none"
           id="path14655"
           inkscape:connector-curvature="0" /><path
           d="m 380.164,397.402 0.768,-0.835 0.209,0.192 0.767,-0.835 -0.208,-0.192 0.768,-0.835 h -4.358 v -1.089 h -4.358 v 1.089 h -4.357 l -0.638,0.835 -0.209,-0.159 -0.638,0.835 0.209,0.159 -0.638,0.835 h 4.228 v 1.057 h 4.228 v -1.057 z"
           style="fill:#231f20;fill-opacity:1;fill-rule:nonzero;stroke:none"
           id="path14657"
           inkscape:connector-curvature="0" /><path
           d="m 74.612,337.545 -4.069,-2.531 0.633,-1.017 -4.069,-2.531 -0.632,1.017 -4.069,-2.531 h -7.672 v -1.918 h -7.671 v 1.918 h -7.671 l 4.456,2.531 -0.633,1.114 4.456,2.531 0.633,-1.114 4.456,2.531 h 7.284 v 1.821 h 7.284 v -1.821 z"
           style="fill:#231f20;fill-opacity:1;fill-rule:nonzero;stroke:none"
           id="path14659"
           inkscape:connector-curvature="0" /><path
           d="m 109.458,345.057 -3.258,-2.265 0.566,-0.814 -3.259,-2.265 -0.566,0.815 -3.259,-2.265 h -7.247 v -1.812 h -7.247 v 1.812 H 77.94 l 3.606,2.265 -0.566,0.901 3.606,2.264 0.566,-0.901 3.606,2.265 h 6.9 v 1.725 h 6.9 v -1.725 z"
           style="fill:#231f20;fill-opacity:1;fill-rule:nonzero;stroke:none"
           id="path14661"
           inkscape:connector-curvature="0" /><path
           d="m 140.824,351.819 -2.592,-2.039 0.51,-0.648 -2.591,-2.039 -0.509,0.647 -2.592,-2.039 h -6.867 v -1.717 h -6.868 v 1.717 h -6.867 l 2.904,2.039 -0.51,0.726 2.904,2.039 0.509,-0.725 2.904,2.039 h 6.555 v 1.639 h 6.555 v -1.639 z"
           style="fill:#231f20;fill-opacity:1;fill-rule:nonzero;stroke:none"
           id="path14663"
           inkscape:connector-curvature="0" /><path
           d="m 169.202,357.937 -2.035,-1.846 0.462,-0.508 -2.034,-1.846 -0.462,0.509 -2.034,-1.846 h -6.526 v -1.631 h -6.525 v 1.631 h -6.526 l 2.317,1.846 -0.462,0.579 2.317,1.845 0.461,-0.579 2.317,1.846 h 6.243 v 1.56 h 6.243 v -1.56 z"
           style="fill:#231f20;fill-opacity:1;fill-rule:nonzero;stroke:none"
           id="path14665"
           inkscape:connector-curvature="0" /><path
           d="m 194.993,363.498 -1.567,-1.678 0.419,-0.392 -1.567,-1.678 -0.42,0.392 -1.566,-1.678 h -6.217 v -1.554 h -6.216 v 1.554 h -6.216 l 1.826,1.678 -0.42,0.457 1.826,1.677 0.42,-0.456 1.826,1.678 h 5.957 v 1.489 h 5.957 v -1.489 z"
           style="fill:#231f20;fill-opacity:1;fill-rule:nonzero;stroke:none"
           id="path14667"
           inkscape:connector-curvature="0" /><path
           d="m 218.546,368.577 -1.173,-1.533 0.383,-0.293 -1.173,-1.533 -0.383,0.294 -1.173,-1.533 h -5.935 v -1.484 h -5.934 v 1.484 h -5.935 l 1.407,1.532 -0.382,0.352 1.407,1.532 0.383,-0.352 1.407,1.532 5.701,0.001 v 1.425 h 5.7 v -1.425 z"
           style="fill:#231f20;fill-opacity:1;fill-rule:nonzero;stroke:none"
           id="path14669"
           inkscape:connector-curvature="0" /><path
           d="m 240.136,373.229 -0.839,-1.404 0.351,-0.21 -0.838,-1.405 -0.352,0.21 -0.838,-1.405 -5.678,0.001 v -1.42 l -5.677,10e-4 v 1.419 l -5.678,10e-4 1.054,1.404 -0.351,0.264 1.054,1.404 0.351,-0.264 1.054,1.404 h 5.462 v 1.366 h 5.463 v -1.366 z"
           style="fill:#231f20;fill-opacity:1;fill-rule:nonzero;stroke:none"
           id="path14671"
           inkscape:connector-curvature="0" /><path
           d="m 259.995,377.512 -0.553,-1.292 0.324,-0.138 -0.553,-1.293 -0.323,0.138 -0.553,-1.293 h -5.442 v -1.36 h -5.442 v 1.36 h -5.442 l 0.752,1.293 -0.324,0.188 0.753,1.293 0.323,-0.188 0.752,1.292 h 5.243 v 1.311 h 5.242 v -1.311 z"
           style="fill:#231f20;fill-opacity:1;fill-rule:nonzero;stroke:none"
           id="path14673"
           inkscape:connector-curvature="0" /><path
           d="m 278.33,381.465 -0.309,-1.194 0.298,-0.077 -0.309,-1.194 -0.298,0.078 -0.309,-1.194 h -5.227 v -1.306 h -5.227 v 1.306 h -5.226 l 0.495,1.194 -0.299,0.124 0.495,1.193 0.298,-0.124 0.496,1.194 h 5.04 v 1.26 h 5.041 v -1.26 z"
           style="fill:#231f20;fill-opacity:1;fill-rule:nonzero;stroke:none"
           id="path14675"
           inkscape:connector-curvature="0" /><path
           d="m 295.306,385.125 -0.102,-1.106 0.276,-0.025 -0.101,-1.106 -0.276,0.026 -0.102,-1.106 -5.024,0.001 v -1.257 l -5.025,10e-4 v 1.256 l -5.025,10e-4 0.271,1.105 -0.276,0.067 0.27,1.105 0.277,-0.068 0.27,1.105 h 4.856 v 1.214 h 4.855 v -1.213 z"
           style="fill:#231f20;fill-opacity:1;fill-rule:nonzero;stroke:none"
           id="path14677"
           inkscape:connector-curvature="0" /><path
           d="m 311.065,388.522 0.081,-1.026 0.256,0.02 0.08,-1.027 -0.256,-0.02 0.08,-1.026 h -4.839 l -10e-4,-1.21 -4.839,10e-4 v 1.21 h -4.839 l 0.078,1.026 -0.256,0.02 0.078,1.026 0.257,-0.02 0.078,1.026 h 4.681 v 1.17 h 4.681 v -1.17 z"
           style="fill:#231f20;fill-opacity:1;fill-rule:nonzero;stroke:none"
           id="path14679"
           inkscape:connector-curvature="0" /><path
           d="m 325.743,391.687 0.236,-0.956 0.239,0.059 0.235,-0.956 -0.238,-0.059 0.235,-0.956 h -4.669 v -1.167 h -4.669 v 1.167 h -4.669 l -0.086,0.956 -0.239,-0.022 -0.086,0.956 0.239,0.022 -0.086,0.956 h 4.519 v 1.129 h 4.52 v -1.129 z"
           style="fill:#231f20;fill-opacity:1;fill-rule:nonzero;stroke:none"
           id="path14681"
           inkscape:connector-curvature="0" /><path
           d="m 339.44,394.64 0.37,-0.893 0.222,0.092 0.369,-0.892 -0.222,-0.092 0.369,-0.893 -4.507,0.001 v -1.127 h -4.507 v 1.127 h -4.507 l -0.232,0.892 -0.223,-0.058 -0.232,0.892 0.223,0.058 -0.232,0.892 h 4.37 v 1.093 h 4.369 v -1.092 z"
           style="fill:#231f20;fill-opacity:1;fill-rule:nonzero;stroke:none"
           id="path14683"
           inkscape:connector-curvature="0" /><path
           d="m 352.257,397.402 0.485,-0.835 0.208,0.121 0.486,-0.834 -0.209,-0.122 0.485,-0.835 -4.357,0.001 v -1.089 h -4.357 v 1.089 h -4.356 l -0.358,0.835 -0.209,-0.089 -0.357,0.834 0.208,0.089 -0.358,0.835 h 4.23 v 1.057 h 4.229 v -1.057 z"
           style="fill:#231f20;fill-opacity:1;fill-rule:nonzero;stroke:none"
           id="path14685"
           inkscape:connector-curvature="0" /><path
           d="m 364.266,399.992 0.588,-0.783 0.196,0.147 0.589,-0.782 -0.197,-0.147 0.589,-0.783 h -4.218 v -1.055 h -4.218 v 1.055 h -4.218 l -0.466,0.783 -0.195,-0.117 -0.466,0.783 0.195,0.116 -0.466,0.783 h 4.096 v 1.024 h 4.095 v -1.024 z"
           style="fill:#231f20;fill-opacity:1;fill-rule:nonzero;stroke:none"
           id="path14687"
           inkscape:connector-curvature="0" /><path
           d="m 63.92,345.057 -4.024,-2.265 0.566,-1.006 -4.024,-2.265 -0.565,1.007 -4.024,-2.265 h -7.247 l 0.001,-1.812 -7.247,-0.001 v 1.812 l -7.247,-10e-4 4.37,2.265 -0.566,1.093 4.37,2.265 0.566,-1.092 4.37,2.265 h 6.901 v 1.725 h 6.9 v -1.725 z"
           style="fill:#231f20;fill-opacity:1;fill-rule:nonzero;stroke:none"
           id="path14689"
           inkscape:connector-curvature="0" /><path
           d="m 97.557,351.819 -3.278,-2.039 0.51,-0.82 -3.279,-2.039 -0.51,0.819 -3.277,-2.039 h -6.868 v -1.717 h -6.868 v 1.717 H 67.12 l 3.59,2.039 -0.51,0.898 3.591,2.039 0.509,-0.897 3.591,2.039 h 6.555 v 1.639 h 6.555 v -1.639 z"
           style="fill:#231f20;fill-opacity:1;fill-rule:nonzero;stroke:none"
           id="path14691"
           inkscape:connector-curvature="0" /><path
           d="m 127.994,357.937 -2.656,-1.846 0.462,-0.664 -2.656,-1.845 -0.461,0.664 -2.656,-1.846 h -6.526 v -1.631 h -6.525 v 1.631 h -6.525 l 2.938,1.846 -0.461,0.734 2.938,1.846 0.461,-0.735 2.939,1.846 h 6.242 v 1.56 h 6.243 v -1.56 z"
           style="fill:#231f20;fill-opacity:1;fill-rule:nonzero;stroke:none"
           id="path14693"
           inkscape:connector-curvature="0" /><path
           d="m 155.666,363.498 -2.133,-1.678 0.42,-0.533 -2.133,-1.678 -0.42,0.533 -2.132,-1.678 h -6.216 v -1.554 h -6.216 v 1.554 h -6.215 l 2.389,1.678 -0.42,0.598 2.389,1.677 0.42,-0.597 2.389,1.678 h 5.959 v 1.49 h 5.96 v -1.49 z"
           style="fill:#231f20;fill-opacity:1;fill-rule:nonzero;stroke:none"
           id="path14695"
           inkscape:connector-curvature="0" /><path
           d="m 180.928,368.575 -1.689,-1.532 0.383,-0.422 -1.688,-1.532 -0.383,0.422 -1.689,-1.532 h -5.935 v -1.484 l -5.936,-10e-4 v 1.484 h -5.935 l 1.924,1.533 -0.383,0.481 1.924,1.533 0.383,-0.482 1.925,1.534 5.699,-10e-4 v 1.425 l 5.7,-10e-4 v -1.424 z"
           style="fill:#231f20;fill-opacity:1;fill-rule:nonzero;stroke:none"
           id="path14697"
           inkscape:connector-curvature="0" /><path
           d="m 204.081,373.229 -1.311,-1.404 0.351,-0.328 -1.312,-1.404 -0.351,0.328 -1.312,-1.404 -5.676,-10e-4 v -1.419 h -5.676 l -0.001,1.419 -5.676,-0.001 1.526,1.405 -0.352,0.381 1.525,1.405 0.351,-0.381 1.526,1.404 h 5.463 v 1.366 h 5.462 v -1.366 z"
           style="fill:#231f20;fill-opacity:1;fill-rule:nonzero;stroke:none"
           id="path14699"
           inkscape:connector-curvature="0" /><path
           d="m 225.386,377.512 -0.989,-1.292 0.323,-0.248 -0.99,-1.292 -0.323,0.247 -0.989,-1.293 h -5.442 v -1.36 h -5.442 v 1.36 h -5.442 l 1.187,1.293 -0.323,0.297 1.188,1.293 0.323,-0.297 1.188,1.292 h 5.243 v 1.311 h 5.245 v -1.311 z"
           style="fill:#231f20;fill-opacity:1;fill-rule:nonzero;stroke:none"
           id="path14701"
           inkscape:connector-curvature="0" /><path
           d="m 245.052,381.463 -0.712,-1.192 0.298,-0.179 -0.712,-1.193 -0.298,0.178 -0.712,-1.193 h -5.226 v -1.306 h -5.224 v 1.306 h -5.225 l 0.895,1.194 -0.298,0.224 0.895,1.193 0.298,-0.224 0.896,1.194 5.042,-10e-4 v 1.261 l 5.042,-0.001 -0.001,-1.26 z"
           style="fill:#231f20;fill-opacity:1;fill-rule:nonzero;stroke:none"
           id="path14703"
           inkscape:connector-curvature="0" /><path
           d="m 263.262,385.124 -0.473,-1.105 0.276,-0.118 -0.474,-1.105 -0.276,0.119 -0.474,-1.105 -5.025,-10e-4 v -1.256 l -5.024,-10e-4 -0.001,1.257 -5.025,-0.001 0.643,1.106 -0.276,0.16 0.643,1.106 0.277,-0.161 0.643,1.106 h 4.855 v 1.213 h 4.856 v -1.214 z"
           style="fill:#231f20;fill-opacity:1;fill-rule:nonzero;stroke:none"
           id="path14705"
           inkscape:connector-curvature="0" /><path
           d="m 280.171,388.522 -0.269,-1.026 0.257,-0.067 -0.268,-1.027 -0.257,0.067 -0.269,-1.026 h -4.838 v -1.21 h -4.838 v 1.21 h -4.837 l 0.422,1.026 -0.256,0.106 0.422,1.026 0.257,-0.105 0.423,1.026 h 4.683 v 1.171 h 4.684 v -1.171 z"
           style="fill:#231f20;fill-opacity:1;fill-rule:nonzero;stroke:none"
           id="path14707"
           inkscape:connector-curvature="0" /><path
           d="m 295.908,391.686 -0.087,-0.956 0.239,-0.022 -0.088,-0.955 -0.239,0.022 -0.087,-0.956 h -4.666 v -1.166 h -4.665 v 1.166 h -4.666 l 0.233,0.956 -0.239,0.058 0.232,0.956 0.24,-0.058 0.232,0.956 h 4.521 v 1.129 h 4.52 v -1.13 z"
           style="fill:#231f20;fill-opacity:1;fill-rule:nonzero;stroke:none"
           id="path14709"
           inkscape:connector-curvature="0" /><path
           d="m 310.603,394.639 0.068,-0.892 0.223,0.017 0.068,-0.892 -0.224,-0.017 0.069,-0.892 H 306.3 v -1.127 h -4.506 v 1.127 l -4.507,-0.001 0.068,0.893 -0.223,0.017 0.068,0.892 0.223,-0.017 0.068,0.893 h 4.37 v 1.092 h 4.371 v -1.093 z"
           style="fill:#231f20;fill-opacity:1;fill-rule:nonzero;stroke:none"
           id="path14711"
           inkscape:connector-curvature="0" /><path
           d="m 324.348,397.402 0.203,-0.835 0.208,0.051 0.203,-0.835 -0.209,-0.051 0.203,-0.835 h -4.355 v -1.088 h -4.357 v 1.088 h -4.355 l -0.077,0.835 -0.209,-0.019 -0.078,0.835 0.208,0.019 -0.077,0.835 h 4.231 v 1.057 h 4.23 v -1.057 z"
           style="fill:#231f20;fill-opacity:1;fill-rule:nonzero;stroke:none"
           id="path14713"
           inkscape:connector-curvature="0" /><path
           d="m 337.233,399.992 0.323,-0.783 0.195,0.081 0.322,-0.783 -0.196,-0.08 0.322,-0.783 h -4.216 v -1.054 h -4.214 v 1.054 h -4.216 l -0.205,0.783 -0.196,-0.052 -0.205,0.783 0.197,0.051 -0.206,0.783 h 4.099 v 1.024 h 4.098 v -1.024 z"
           style="fill:#231f20;fill-opacity:1;fill-rule:nonzero;stroke:none"
           id="path14715"
           inkscape:connector-curvature="0" /><path
           d="m 349.334,402.424 0.428,-0.735 0.183,0.107 0.428,-0.735 -0.184,-0.107 0.428,-0.735 h -4.086 v -1.022 h -4.085 v 1.022 l -4.086,-10e-4 -0.315,0.736 -0.184,-0.079 -0.315,0.735 0.184,0.079 -0.315,0.735 h 3.973 v 0.993 h 3.973 v -0.993 z"
           style="fill:#231f20;fill-opacity:1;fill-rule:nonzero;stroke:none"
           id="path14717"
           inkscape:connector-curvature="0" /><path
           d="m 54.295,351.819 -3.964,-2.039 0.509,-0.991 -3.965,-2.04 -0.509,0.991 -3.965,-2.039 h -6.868 v -1.717 h -6.867 v 1.717 h -6.868 l 4.278,2.039 -0.51,1.07 4.277,2.039 0.51,-1.069 4.277,2.039 h 6.556 v 1.639 h 6.554 v -1.639 z"
           style="fill:#231f20;fill-opacity:1;fill-rule:nonzero;stroke:none"
           id="path14719"
           inkscape:connector-curvature="0" /><path
           d="m 86.789,357.937 -3.276,-1.846 0.462,-0.819 -3.276,-1.845 -0.461,0.819 -3.276,-1.846 h -6.525 v -1.631 h -6.526 v 1.631 h -6.526 l 3.56,1.846 -0.461,0.89 3.56,1.845 0.461,-0.89 3.56,1.846 h 6.241 v 1.56 h 6.241 v -1.56 z"
           style="fill:#231f20;fill-opacity:1;fill-rule:nonzero;stroke:none"
           id="path14721"
           inkscape:connector-curvature="0" /><path
           d="m 116.333,363.498 -2.699,-1.679 0.42,-0.674 -2.699,-1.679 -0.419,0.675 -2.699,-1.679 -6.215,0.001 v -1.554 l -6.215,0.001 v 1.554 h -6.216 l 2.955,1.678 -0.42,0.739 2.955,1.678 0.419,-0.739 2.955,1.678 h 5.959 v 1.49 h 5.96 v -1.49 z"
           style="fill:#231f20;fill-opacity:1;fill-rule:nonzero;stroke:none"
           id="path14723"
           inkscape:connector-curvature="0" /><path
           d="m 143.306,368.577 -2.206,-1.534 0.383,-0.551 -2.205,-1.533 -0.383,0.552 -2.207,-1.533 h -5.933 l -0.001,-1.483 h -5.933 v 1.484 h -5.934 l 2.44,1.533 -0.383,0.61 2.44,1.532 0.383,-0.61 2.44,1.533 h 5.699 v 1.424 h 5.7 v -1.424 z"
           style="fill:#231f20;fill-opacity:1;fill-rule:nonzero;stroke:none"
           id="path14725"
           inkscape:connector-curvature="0" /><path
           d="m 168.03,373.229 -1.785,-1.404 0.352,-0.447 -1.785,-1.404 -0.352,0.446 -1.785,-1.405 h -5.677 v -1.419 h -5.678 v 1.419 h -5.677 l 2,1.405 -0.351,0.5 2,1.405 0.351,-0.5 2.001,1.404 h 5.462 v 1.366 h 5.462 v -1.366 z"
           style="fill:#231f20;fill-opacity:1;fill-rule:nonzero;stroke:none"
           id="path14727"
           inkscape:connector-curvature="0" /><path
           d="m 190.779,377.512 -1.425,-1.292 0.324,-0.357 -1.426,-1.292 -0.323,0.356 -1.425,-1.293 h -5.441 v -1.36 h -5.443 v 1.36 h -5.442 l 1.621,1.293 -0.322,0.405 1.621,1.293 0.323,-0.405 1.621,1.292 h 5.246 v 1.312 h 5.246 v -1.312 z"
           style="fill:#231f20;fill-opacity:1;fill-rule:nonzero;stroke:none"
           id="path14729"
           inkscape:connector-curvature="0" /><path
           d="m 211.772,381.465 -1.115,-1.194 0.299,-0.278 -1.115,-1.194 -0.299,0.279 -1.114,-1.194 h -5.223 v -1.306 h -5.224 v 1.306 h -5.223 l 1.296,1.194 -0.299,0.324 1.296,1.193 0.298,-0.324 1.296,1.194 h 5.042 v 1.261 h 5.042 v -1.261 z"
           style="fill:#231f20;fill-opacity:1;fill-rule:nonzero;stroke:none"
           id="path14731"
           inkscape:connector-curvature="0" /><path
           d="m 231.213,385.124 -0.846,-1.105 0.277,-0.212 -0.847,-1.105 -0.276,0.212 -0.846,-1.106 -5.025,0.001 v -1.256 h -5.024 v 1.256 l -5.024,10e-4 1.015,1.105 -0.276,0.253 1.015,1.105 0.276,-0.253 1.015,1.105 h 4.856 v 1.213 h 4.855 v -1.214 z"
           style="fill:#231f20;fill-opacity:1;fill-rule:nonzero;stroke:none"
           id="path14733"
           inkscape:connector-curvature="0" /><path
           d="m 249.267,388.522 -0.613,-1.026 0.256,-0.154 -0.612,-1.026 -0.257,0.153 -0.613,-1.026 h -4.839 v -1.21 h -4.839 v 1.21 h -4.839 l 0.77,1.027 -0.257,0.192 0.77,1.027 0.257,-0.192 0.77,1.026 h 4.682 v 1.17 h 4.682 v -1.171 z"
           style="fill:#231f20;fill-opacity:1;fill-rule:nonzero;stroke:none"
           id="path14735"
           inkscape:connector-curvature="0" /><path
           d="m 266.076,391.687 -0.41,-0.957 0.239,-0.102 -0.41,-0.956 -0.239,0.103 -0.41,-0.956 h -4.667 v -1.167 h -4.667 v 1.167 h -4.667 l 0.554,0.956 -0.238,0.139 0.554,0.956 0.239,-0.139 0.555,0.956 h 4.522 v 1.13 h 4.522 v -1.13 z"
           style="fill:#231f20;fill-opacity:1;fill-rule:nonzero;stroke:none"
           id="path14737"
           inkscape:connector-curvature="0" /><path
           d="m 281.758,394.639 -0.23,-0.892 0.223,-0.058 -0.231,-0.892 -0.223,0.057 -0.231,-0.892 -4.506,0.001 v -1.127 h -4.507 v 1.127 h -4.507 l 0.368,0.892 -0.223,0.092 0.367,0.892 0.223,-0.091 0.367,0.892 h 4.371 v 1.092 h 4.369 v -1.093 z"
           style="fill:#231f20;fill-opacity:1;fill-rule:nonzero;stroke:none"
           id="path14739"
           inkscape:connector-curvature="0" /><path
           d="m 296.433,397.402 -0.077,-0.835 0.209,-0.019 -0.077,-0.835 -0.208,0.019 -0.077,-0.835 h -4.356 v -1.088 h -4.357 v 1.088 h -4.356 l 0.204,0.835 -0.209,0.051 0.205,0.835 0.208,-0.051 0.205,0.835 h 4.229 v 1.057 h 4.229 v -1.057 z"
           style="fill:#231f20;fill-opacity:1;fill-rule:nonzero;stroke:none"
           id="path14741"
           inkscape:connector-curvature="0" /><path
           d="m 310.192,399.992 0.06,-0.783 0.195,0.015 0.06,-0.783 -0.195,-0.015 0.059,-0.782 h -4.217 v -1.054 h -4.216 v 1.054 h -4.216 l 0.058,0.783 -0.196,0.014 0.059,0.783 0.196,-0.015 0.058,0.783 h 4.099 v 1.024 h 4.098 v -1.024 z"
           style="fill:#231f20;fill-opacity:1;fill-rule:nonzero;stroke:none"
           id="path14743"
           inkscape:connector-curvature="0" /><path
           d="m 323.116,402.424 0.18,-0.735 0.184,0.045 0.18,-0.735 -0.183,-0.045 0.179,-0.736 -4.086,10e-4 v -1.022 h -4.085 v 1.022 h -4.086 l -0.068,0.735 -0.184,-0.017 -0.068,0.735 0.184,0.017 -0.069,0.735 h 3.974 v 0.994 h 3.975 v -0.994 z"
           style="fill:#231f20;fill-opacity:1;fill-rule:nonzero;stroke:none"
           id="path14745"
           inkscape:connector-curvature="0" /><path
           d="m 335.277,404.714 0.287,-0.692 0.173,0.072 0.287,-0.692 -0.172,-0.072 0.287,-0.692 h -3.963 v -0.991 h -3.964 v 0.991 h -3.963 l -0.18,0.692 -0.173,-0.045 -0.179,0.693 0.173,0.044 -0.18,0.692 h 3.855 v 0.964 h 3.857 v -0.964 z"
           style="fill:#231f20;fill-opacity:1;fill-rule:nonzero;stroke:none"
           id="path14747"
           inkscape:connector-curvature="0" /><path
           d="m 45.588,357.937 -3.899,-1.846 0.461,-0.975 -3.899,-1.845 -0.461,0.975 -3.899,-1.846 h -6.526 v -1.631 H 20.84 v 1.631 h -6.526 l 4.182,1.846 -0.461,1.045 4.181,1.846 0.461,-1.046 4.182,1.846 h 6.243 v 1.56 h 6.243 v -1.56 z"
           style="fill:#231f20;fill-opacity:1;fill-rule:nonzero;stroke:none"
           id="path14749"
           inkscape:connector-curvature="0" /><path
           d="m 77.005,363.498 -3.263,-1.678 0.42,-0.816 -3.263,-1.677 -0.419,0.815 -3.263,-1.678 h -6.216 v -1.554 h -6.216 v 1.554 h -6.216 l 3.519,1.678 -0.419,0.88 3.52,1.678 0.419,-0.88 3.52,1.678 h 5.959 v 1.49 h 5.959 v -1.49 z"
           style="fill:#231f20;fill-opacity:1;fill-rule:nonzero;stroke:none"
           id="path14751"
           inkscape:connector-curvature="0" /><path
           d="m 105.684,368.577 -2.722,-1.534 0.383,-0.68 -2.722,-1.533 -0.384,0.681 -2.722,-1.533 h -5.932 v -1.483 l -5.932,10e-4 v 1.483 h -5.932 l 2.955,1.532 -0.383,0.739 2.956,1.532 0.382,-0.739 2.955,1.532 5.7,0.001 V 370 l 5.699,10e-4 v -1.425 z"
           style="fill:#231f20;fill-opacity:1;fill-rule:nonzero;stroke:none"
           id="path14753"
           inkscape:connector-curvature="0" /><path
           d="m 131.976,373.229 -2.258,-1.404 0.351,-0.565 -2.258,-1.405 -0.352,0.565 -2.258,-1.405 -5.677,0.001 -0.001,-1.42 -5.676,10e-4 v 1.419 l -5.677,10e-4 2.473,1.404 -0.351,0.618 2.473,1.404 0.351,-0.618 2.472,1.404 h 5.463 v 1.366 h 5.463 v -1.366 z"
           style="fill:#231f20;fill-opacity:1;fill-rule:nonzero;stroke:none"
           id="path14755"
           inkscape:connector-curvature="0" /><path
           d="m 156.167,377.512 -1.861,-1.292 0.323,-0.466 -1.86,-1.292 -0.324,0.465 -1.86,-1.293 h -5.442 v -1.36 h -5.441 v 1.36 h -5.442 l 2.058,1.293 -0.323,0.514 2.058,1.293 0.323,-0.514 2.058,1.292 h 5.244 v 1.311 h 5.244 v -1.311 z"
           style="fill:#231f20;fill-opacity:1;fill-rule:nonzero;stroke:none"
           id="path14757"
           inkscape:connector-curvature="0" /><path
           d="m 178.496,381.465 -1.517,-1.194 0.299,-0.379 -1.517,-1.193 -0.298,0.379 -1.517,-1.194 h -5.225 v -1.306 h -5.225 v 1.306 h -5.225 l 1.699,1.193 -0.299,0.425 1.699,1.193 0.298,-0.424 1.699,1.192 5.043,10e-4 v 1.261 h 5.043 v -1.261 z"
           style="fill:#231f20;fill-opacity:1;fill-rule:nonzero;stroke:none"
           id="path14759"
           inkscape:connector-curvature="0" /><path
           d="m 199.17,385.125 -1.218,-1.106 0.276,-0.305 -1.218,-1.105 -0.277,0.305 -1.218,-1.106 -5.025,0.001 v -1.256 h -5.024 v 1.256 l -5.024,10e-4 1.387,1.105 -0.276,0.346 1.386,1.105 0.277,-0.347 1.387,1.105 h 4.855 v 1.214 h 4.856 v -1.213 z"
           style="fill:#231f20;fill-opacity:1;fill-rule:nonzero;stroke:none"
           id="path14761"
           inkscape:connector-curvature="0" /><path
           d="m 218.363,388.522 -0.959,-1.026 0.257,-0.24 -0.959,-1.027 -0.256,0.24 -0.959,-1.026 h -4.837 v -1.209 h -4.837 v 1.21 h -4.837 l 1.115,1.026 -0.257,0.279 1.116,1.026 0.256,-0.279 1.115,1.026 h 4.681 v 1.17 h 4.68 v -1.17 z"
           style="fill:#231f20;fill-opacity:1;fill-rule:nonzero;stroke:none"
           id="path14763"
           inkscape:connector-curvature="0" /><path
           d="m 236.237,391.687 -0.731,-0.956 0.239,-0.183 -0.732,-0.956 -0.239,0.183 -0.732,-0.956 h -4.667 v -1.166 h -4.666 v 1.166 h -4.667 l 0.877,0.956 -0.238,0.22 0.877,0.955 0.239,-0.219 0.878,0.956 h 4.521 v 1.13 h 4.52 v -1.13 z"
           style="fill:#231f20;fill-opacity:1;fill-rule:nonzero;stroke:none"
           id="path14765"
           inkscape:connector-curvature="0" /><path
           d="m 252.92,394.64 -0.533,-0.893 0.223,-0.133 -0.533,-0.892 -0.223,0.133 -0.533,-0.893 -4.506,0.001 v -1.127 h -4.506 v 1.127 h -4.507 l 0.669,0.892 -0.223,0.167 0.669,0.893 0.223,-0.168 0.669,0.892 h 4.37 v 1.093 h 4.371 v -1.092 z"
           style="fill:#231f20;fill-opacity:1;fill-rule:nonzero;stroke:none"
           id="path14767"
           inkscape:connector-curvature="0" /><path
           d="m 268.521,397.402 -0.356,-0.835 0.209,-0.089 -0.357,-0.835 -0.208,0.089 -0.357,-0.835 -4.357,0.001 v -1.089 h -4.357 l 10e-4,1.089 h -4.357 l 0.485,0.835 -0.208,0.121 0.485,0.835 0.209,-0.122 0.485,0.835 h 4.228 v 1.057 h 4.227 v -1.057 z"
           style="fill:#231f20;fill-opacity:1;fill-rule:nonzero;stroke:none"
           id="path14769"
           inkscape:connector-curvature="0" /><path
           d="m 283.152,399.992 -0.202,-0.783 0.195,-0.05 -0.202,-0.783 -0.196,0.051 -0.202,-0.783 h -4.218 v -1.055 h -4.218 v 1.055 h -4.218 l 0.324,0.783 -0.195,0.081 0.324,0.783 0.196,-0.082 0.325,0.783 h 4.095 v 1.024 h 4.096 v -1.024 z"
           style="fill:#231f20;fill-opacity:1;fill-rule:nonzero;stroke:none"
           id="path14771"
           inkscape:connector-curvature="0" /><path
           d="m 296.895,402.424 -0.067,-0.735 0.183,-0.017 -0.067,-0.735 -0.184,0.017 -0.068,-0.736 -4.085,10e-4 v -1.022 l -4.085,10e-4 v 1.021 h -4.085 l 0.18,0.735 -0.183,0.046 0.18,0.734 0.183,-0.045 0.181,0.735 h 3.972 v 0.993 h 3.972 v -0.993 z"
           style="fill:#231f20;fill-opacity:1;fill-rule:nonzero;stroke:none"
           id="path14773"
           inkscape:connector-curvature="0" /><path
           d="m 309.831,404.714 0.053,-0.692 0.173,0.014 0.052,-0.693 -0.172,-0.013 0.052,-0.692 -3.962,0.001 v -0.991 h -3.961 v 0.991 h -3.962 l 0.054,0.692 -0.173,0.013 0.053,0.692 0.172,-0.014 0.054,0.692 h 3.855 v 0.964 h 3.857 v -0.964 z"
           style="fill:#231f20;fill-opacity:1;fill-rule:nonzero;stroke:none"
           id="path14775"
           inkscape:connector-curvature="0" /><path
           d="m 322.021,406.873 0.163,-0.653 0.163,0.041 0.161,-0.653 -0.163,-0.04 0.162,-0.652 h -3.847 v -0.962 h -3.847 v 0.962 h -3.847 l -0.06,0.652 -0.163,-0.015 -0.058,0.653 0.163,0.014 -0.06,0.653 h 3.744 v 0.936 h 3.745 v -0.936 z"
           style="fill:#231f20;fill-opacity:1;fill-rule:nonzero;stroke:none"
           id="path14777"
           inkscape:connector-curvature="0" /><path
           d="m 37.672,363.498 -3.828,-1.678 0.42,-0.957 -3.828,-1.677 -0.419,0.956 -3.828,-1.678 h -6.216 v -1.554 h -6.217 v 1.554 H 7.54 l 4.085,1.678 -0.419,1.021 4.085,1.677 0.419,-1.021 4.086,1.678 h 5.958 v 1.49 h 5.959 v -1.489 z"
           style="fill:#231f20;fill-opacity:1;fill-rule:nonzero;stroke:none"
           id="path14779"
           inkscape:connector-curvature="0" /><path
           d="m 68.066,368.577 -3.237,-1.533 0.383,-0.809 -3.237,-1.533 -0.384,0.81 -3.237,-1.533 h -5.935 v -1.484 h -5.934 v 1.484 H 40.55 l 3.473,1.532 -0.383,0.868 3.473,1.532 0.383,-0.868 3.473,1.532 5.699,0.001 V 370 l 5.699,10e-4 v -1.425 z"
           style="fill:#231f20;fill-opacity:1;fill-rule:nonzero;stroke:none"
           id="path14781"
           inkscape:connector-curvature="0" /><path
           d="m 95.926,373.229 -2.732,-1.404 0.352,-0.683 -2.732,-1.405 -0.351,0.683 -2.732,-1.405 -5.677,0.001 v -1.419 h -5.677 l 0.001,1.419 -5.677,10e-4 2.945,1.403 -0.351,0.737 2.945,1.404 0.35,-0.737 2.945,1.404 5.464,10e-4 v 1.365 l 5.463,0.001 v -1.366 z"
           style="fill:#231f20;fill-opacity:1;fill-rule:nonzero;stroke:none"
           id="path14783"
           inkscape:connector-curvature="0" /><path
           d="m 121.554,377.512 -2.296,-1.292 0.323,-0.574 -2.296,-1.293 -0.323,0.574 -2.296,-1.293 h -5.44 v -1.36 h -5.44 v 1.36 h -5.441 l 2.493,1.292 -0.323,0.624 2.493,1.292 0.323,-0.623 2.493,1.292 h 5.243 v 1.311 h 5.244 v -1.31 z"
           style="fill:#231f20;fill-opacity:1;fill-rule:nonzero;stroke:none"
           id="path14785"
           inkscape:connector-curvature="0" /><path
           d="m 145.215,381.465 -1.919,-1.194 0.299,-0.479 -1.919,-1.194 -0.299,0.48 -1.918,-1.194 h -5.225 v -1.306 h -5.225 v 1.306 h -5.225 l 2.102,1.193 -0.298,0.526 2.102,1.193 0.298,-0.525 2.103,1.192 5.041,10e-4 v 1.26 l 5.041,0.001 v -1.261 z"
           style="fill:#231f20;fill-opacity:1;fill-rule:nonzero;stroke:none"
           id="path14787"
           inkscape:connector-curvature="0" /><path
           d="m 167.123,385.125 -1.591,-1.105 0.276,-0.398 -1.591,-1.105 -0.276,0.398 -1.59,-1.105 h -5.025 v -1.257 h -5.025 v 1.257 h -5.024 l 1.758,1.104 -0.276,0.44 1.759,1.104 0.276,-0.44 1.758,1.105 h 4.857 v 1.214 l 4.857,0.001 v -1.214 z"
           style="fill:#231f20;fill-opacity:1;fill-rule:nonzero;stroke:none"
           id="path14789"
           inkscape:connector-curvature="0" /><path
           d="m 187.465,388.523 -1.304,-1.026 0.256,-0.327 -1.304,-1.026 -0.257,0.326 -1.305,-1.027 h -4.838 l -0.001,-1.209 h -4.838 v 1.21 h -4.838 l 1.46,1.026 -0.257,0.365 1.46,1.026 0.257,-0.365 1.46,1.025 4.683,10e-4 v 1.171 h 4.683 v -1.17 z"
           style="fill:#231f20;fill-opacity:1;fill-rule:nonzero;stroke:none"
           id="path14791"
           inkscape:connector-curvature="0" /><path
           d="m 206.399,391.687 -1.052,-0.956 0.239,-0.263 -1.052,-0.956 -0.239,0.263 -1.052,-0.956 -4.666,10e-4 -0.001,-1.167 h -4.666 v 1.167 h -4.667 l 1.199,0.955 -0.238,0.3 1.198,0.956 0.239,-0.3 1.199,0.955 h 4.52 v 1.13 h 4.519 v -1.129 z"
           style="fill:#231f20;fill-opacity:1;fill-rule:nonzero;stroke:none"
           id="path14793"
           inkscape:connector-curvature="0" /><path
           d="m 224.077,394.64 -0.834,-0.892 0.223,-0.209 -0.833,-0.892 -0.223,0.208 -0.833,-0.892 h -4.507 v -1.126 h -4.507 v 1.126 h -4.506 l 0.971,0.892 -0.223,0.243 0.971,0.892 0.223,-0.243 0.971,0.892 h 4.369 v 1.092 l 4.369,0.001 v -1.092 z"
           style="fill:#231f20;fill-opacity:1;fill-rule:nonzero;stroke:none"
           id="path14795"
           inkscape:connector-curvature="0" /><path
           d="m 240.612,397.402 -0.639,-0.835 0.209,-0.16 -0.639,-0.834 -0.209,0.159 -0.639,-0.835 -4.356,0.001 v -1.089 h -4.357 v 1.089 h -4.356 l 0.766,0.834 -0.208,0.192 0.766,0.834 0.209,-0.191 0.766,0.834 h 4.229 v 1.057 l 4.229,10e-4 v -1.058 z"
           style="fill:#231f20;fill-opacity:1;fill-rule:nonzero;stroke:none"
           id="path14797"
           inkscape:connector-curvature="0" /><path
           d="m 256.111,399.992 -0.465,-0.783 0.195,-0.116 -0.466,-0.783 -0.196,0.117 -0.466,-0.783 -4.216,10e-4 v -1.055 l -4.216,0.001 v 1.054 h -4.217 l 0.587,0.782 -0.195,0.147 0.586,0.782 0.196,-0.147 0.586,0.782 h 4.096 v 1.024 l 4.096,0.001 v -1.024 z"
           style="fill:#231f20;fill-opacity:1;fill-rule:nonzero;stroke:none"
           id="path14799"
           inkscape:connector-curvature="0" /><path
           d="m 270.674,402.424 -0.314,-0.735 0.184,-0.078 -0.314,-0.735 -0.183,0.078 -0.314,-0.735 h -4.087 v -1.021 h -4.086 v 1.021 h -4.087 l 0.429,0.735 -0.184,0.108 0.429,0.734 0.184,-0.107 0.429,0.735 h 3.971 v 0.993 h 3.972 v -0.993 z"
           style="fill:#231f20;fill-opacity:1;fill-rule:nonzero;stroke:none"
           id="path14801"
           inkscape:connector-curvature="0" /><path
           d="m 284.381,404.714 -0.18,-0.692 0.173,-0.045 -0.181,-0.692 -0.172,0.045 -0.181,-0.692 -3.961,0.001 v -0.991 h -3.962 v 0.991 h -3.961 l 0.285,0.692 -0.173,0.071 0.286,0.692 0.173,-0.072 0.286,0.692 h 3.856 v 0.964 h 3.856 v -0.964 z"
           style="fill:#231f20;fill-opacity:1;fill-rule:nonzero;stroke:none"
           id="path14803"
           inkscape:connector-curvature="0" /><path
           d="m 297.304,406.874 -0.06,-0.653 0.163,-0.015 -0.059,-0.652 -0.163,0.014 -0.06,-0.652 h -3.846 v -0.961 h -3.845 v 0.961 h -3.846 l 0.16,0.652 -0.164,0.04 0.161,0.652 0.163,-0.04 0.159,0.653 h 3.746 v 0.936 l 3.745,10e-4 v -0.937 z"
           style="fill:#231f20;fill-opacity:1;fill-rule:nonzero;stroke:none"
           id="path14805"
           inkscape:connector-curvature="0" /><path
           d="m 309.506,408.912 0.049,-0.617 0.153,0.013 0.049,-0.617 -0.154,-0.012 0.048,-0.616 h -3.737 v -0.934 h -3.737 v 0.934 h -3.738 l 0.049,0.616 -0.154,0.012 0.048,0.617 0.155,-0.013 0.048,0.617 h 3.641 v 0.91 h 3.639 v -0.91 z"
           style="fill:#231f20;fill-opacity:1;fill-rule:nonzero;stroke:none"
           id="path14807"
           inkscape:connector-curvature="0" /></g></g></g></svg>